/* XPM */
static char * number5_xpm[] = {
"17 20 38 1",
" 	g #FFFFFF",
".	g #BDBDBD",
"+	g #A9A9A9",
"@	g #F4F4F4",
"#	g #797979",
"$	g #020202",
"%	g #030303",
"&	g #EDEDED",
"*	g #707070",
"=	g #AAAAAA",
"-	g #F3F3F3",
";	g #FCFCFC",
">	g #9A9A9A",
",	g #E7E7E7",
"'	g #EEEEEE",
")	g #FEFEFE",
"!	g #656565",
"~	g #D6D6D6",
"{	g #040404",
"]	g #6A6A6A",
"^	g #F2F2F2",
"/	g #C6C6C6",
"(	g #CACACA",
"_	g #BBBBBB",
":	g #DADADA",
"<	g #818181",
"[	g #8E8E8E",
"}	g #F7F7F7",
"|	g #FBFBFB",
"1	g #B6B6B6",
"2	g #686868",
"3	g #5C5C5C",
"4	g #D5D5D5",
"5	g #F0F0F0",
"6	g #888888",
"7	g #5B5B5B",
"8	g #D3D3D3",
"9	g #EBEBEB",
"                 ",
" .++++++++++++++@",
" #$$$$$$$$$$$$$%&",
" #$$$$$$$$$$$$$%&",
" #$$*===========-",
" #$$=           ;",
" #$$=           ;",
" #$$>,,,,,,,')  ;",
" #$$$$$$$$$$$!~ ;",
" #$$$$$$$$$$$${~;",
" #$$$$$$$$$$%$$];",
" @^^^^^^^^^^/$$$@",
" )          ,$$%&",
" (__:       ,$$%&",
" #$$=       ,$$%&",
" <$$[}||||||($$$@",
" 1$$$$$$$$$$%$$2;",
" @3$$$$$$$$$$$$4;",
" )56$$$$$$$$$78);",
" )  -,,,,,,,9)  )"};
