/* XPM */
static char * number6_xpm[] = {
"17 20 51 1",
" 	g #FEFEFE",
".	g #FDFDFD",
"+	g #FCFCFC",
"@	g #F1F1F1",
"#	g #DCDCDC",
"$	g #D6D6D6",
"%	g #E1E1E1",
"&	g #FAFAFA",
"*	g #F9F9F9",
"=	g #A4A4A4",
"-	g #070707",
";	g #020202",
">	g #4F4F4F",
",	g #D4D4D4",
"'	g #FFFFFF",
")	g #939393",
"!	g #050505",
"~	g #DADADA",
"{	g #E2E2E2",
"]	g #777777",
"^	g #C6C6C6",
"/	g #E0E0E0",
"(	g #F2F2F2",
"_	g #A7A7A7",
":	g #222222",
"<	g #C3C3C3",
"[	g #B1B1B1",
"}	g #A9A9A9",
"|	g #BEBEBE",
"1	g #E8E8E8",
"2	g #030303",
"3	g #AFAFAF",
"4	g #787878",
"5	g #101010",
"6	g #575757",
"7	g #F8F8F8",
"8	g #C0C0C0",
"9	g #FBFBFB",
"0	g #CBCBCB",
"a	g #DBDBDB",
"b	g #EEEEEE",
"c	g #EDEDED",
"d	g #A2A2A2",
"e	g #E3E3E3",
"f	g #969696",
"g	g #0B0B0B",
"h	g #A8A8A8",
"i	g #121212",
"j	g #535353",
"k	g #D5D5D5",
"l	g #DFDFDF",
" .+@#$$$$$$$%&.. ",
".*=-;;;;;;;;;>,'.",
".);;;;;;;;;;;;!~.",
"{;;;;;;;;;;;;;;].",
"^;;;/(((((((_:::+",
"<;;;''''''''''''.",
"<;;;''''''''''''.",
"<;;;[}}}}}}}|1''.",
"<;;;;;;;;;;;;23 .",
"<;;;;;;;;;;;;;;<.",
"<;;;>444444]5;;6+",
"<;;27'''''''8;;;9",
"<;;;''''''''0;;;&",
"<;;;''''''''0;;;&",
"<;;;''''''''0;;;&",
"^;;;abbbbbbcd;;;+",
"e;;;;;;;;;;;;;;].",
".f;;;;;;;;;;;;g~.",
".&hi;;;;;;;;;jk'.",
"...(l#######e9.. "};
