/* XPM */
static char * number2_xpm[] = {
"17 20 51 1",
" 	g #FFFFFF",
".	g #FDFDFD",
"+	g #FCFCFC",
"@	g #F2F2F2",
"#	g #C6C6C6",
"$	g #ACACAC",
"%	g #ABABAB",
"&	g #C8C8C8",
"*	g #F3F3F3",
"=	g #FEFEFE",
"-	g #DFDFDF",
";	g #474747",
">	g #020202",
",	g #515151",
"'	g #E2E2E2",
")	g #F9F9F9",
"!	g #5D5D5D",
"~	g #D2D2D2",
"{	g #343434",
"]	g #A2A2A2",
"^	g #A9A9A9",
"/	g #A0A0A0",
"(	g #2A2A2A",
"_	g #D7D7D7",
":	g #C9C9C9",
"<	g #A3A3A3",
"[	g #949494",
"}	g #CBCBCB",
"|	g #AAAAAA",
"1	g #9B9B9B",
"2	g #959595",
"3	g #EFEFEF",
"4	g #B9B9B9",
"5	g #A5A5A5",
"6	g #D6D6D6",
"7	g #DDDDDD",
"8	g #383838",
"9	g #545454",
"0	g #F6F6F6",
"a	g #464646",
"b	g #3E3E3E",
"c	g #E0E0E0",
"d	g #D0D0D0",
"e	g #373737",
"f	g #A8A8A8",
"g	g #C1C1C1",
"h	g #F4F4F4",
"i	g #979797",
"j	g #E4E4E4",
"k	g #2E2E2E",
"l	g #CDCDCD",
"                 ",
" .+@#$%%%%%$&*+= ",
" =-;>>>>>>>>>,'= ",
" ),>>>>>>>>>>>!) ",
" ~>>{]^^^^^/(>>_ ",
" :>><       [>>} ",
" :>>|       1>>} ",
" =  =       1>>} ",
" =          2>>} ",
" = 34^^^^^^5{>>6 ",
" =78>>>>>>>>>>9) ",
" 0a>>>>>>>>>>bc= ",
" d>>ef||||||gh = ",
" :>>5          = ",
" :>>|          = ",
" :>>ijjjjjjjjjjh ",
" :>>>>>>>>>>>>>} ",
" :>>>>>>>>>>>>>} ",
" :kkkkkkkkkkkkkl ",
"                 "};
