/* XPM */
static char * number0_xpm[] = {
"17 20 41 1",
" 	g #FFFFFF",
".	g #FDFDFD",
"+	g #E2E2E2",
"@	g #939393",
"#	g #575757",
"$	g #393939",
"%	g #636363",
"&	g #A3A3A3",
"*	g #EDEDED",
"=	g #FEFEFE",
"-	g #D3D3D3",
";	g #1C1C1C",
">	g #020202",
",	g #434343",
"'	g #E7E7E7",
")	g #F5F5F5",
"!	g #3C3C3C",
"~	g #757575",
"{	g #D1D1D1",
"]	g #CCCCCC",
"^	g #CBCBCB",
"/	g #868686",
"(	g #FAFAFA",
"_	g #E1E1E1",
":	g #FCFCFC",
"<	g #ECECEC",
"[	g #CECECE",
"}	g #030303",
"|	g #202020",
"1	g #424242",
"2	g #0B0B0B",
"3	g #323232",
"4	g #F8F8F8",
"5	g #8A8A8A",
"6	g #B3B3B3",
"7	g #F7F7F7",
"8	g #8C8C8C",
"9	g #050505",
"0	g #AEAEAE",
"a	g #E5E5E5",
"b	g #EEEEEE",
"                 ",
"..+@#$$$$$$$%&*.=",
"=-;>>>>>>>>>>>,'=",
")!>>>>>>>>>>>>>~=",
"{>>>&]]]]]]^/>>>*",
"^>>>(       _>>>'",
"^>>>:       +>>>'",
"^>>>:       +>>>'",
"^>>>:       +>>>'",
"^>>>:       +>>>'",
"^>>>:       +>>>'",
"^>>>:       +>>>'",
"^>>>:       +>>>'",
"^>>>:       +>>>'",
"^>>>:       +>>>'",
"^>>><       [>>>'",
"+}>>|,,,,,,12>>34",
"=5>>>>>>>>>>>>>6=",
"=78}>>>>>>>>>90.=",
"= =a^^^^^^^^]b=  "};
