/* XPM */
static char * number1_xpm[] = {
"17 20 7 1",
" 	g #FEFEFE",
".	g #FBFBFB",
"+	g #E6E6E6",
"@	g #D6D6D6",
"#	g #FFFFFF",
"$	g #AAAAAA",
"%	g #020202",
" .....+@@+..... #",
"######$%%$##### #",
"######$%%$##### #",
"######$%%$##### #",
"######$%%$##### #",
"######$%%$##### #",
"######$%%$##### #",
"######$%%$##### #",
"######$%%$##### #",
"######$%%$##### #",
"######$%%$##### #",
"######$%%$##### #",
"######$%%$##### #",
"######$%%$##### #",
"######$%%$##### #",
"######$%%$##### #",
"######$%%$##### #",
"######$%%$##### #",
" #####$%%$##### #",
"#################"};
