/* XPM */
static char * number8_xpm[] = {
"17 20 55 1",
" 	g #FFFFFF",
".	g #FEFEFE",
"+	g #F3F3F3",
"@	g #D6D6D6",
"#	g #CBCBCB",
"$	g #D4D4D4",
"%	g #F2F2F2",
"&	g #B5B5B5",
"*	g #282828",
"=	g #020202",
"-	g #1A1A1A",
";	g #B0B0B0",
">	g #FCFCFC",
",	g #B8B8B8",
"'	g #030303",
")	g #F7F7F7",
"!	g #353535",
"~	g #191919",
"{	g #F1F1F1",
"]	g #E5E5E5",
"^	g #D1D1D1",
"/	g #DADADA",
"(	g #E4E4E4",
"_	g #E7E7E7",
":	g #D2D2D2",
"<	g #E0E0E0",
"[	g #E1E1E1",
"}	g #D5D5D5",
"|	g #4E4E4E",
"1	g #7D7D7D",
"2	g #505050",
"3	g #EAEAEA",
"4	g #949494",
"5	g #898989",
"6	g #868686",
"7	g #757575",
"8	g #EEEEEE",
"9	g #6A6A6A",
"0	g #A7A7A7",
"a	g #707070",
"b	g #E2E2E2",
"c	g #E6E6E6",
"d	g #D3D3D3",
"e	g #BBBBBB",
"f	g #BEBEBE",
"g	g #DBDBDB",
"h	g #F9F9F9",
"i	g #404040",
"j	g #363636",
"k	g #C8C8C8",
"l	g #BDBDBD",
"m	g #4A4A4A",
"n	g #454545",
"o	g #C3C3C3",
"p	g #FDFDFD",
" ..+@#######$%...",
"..&*=========-;.>",
".,'============;>",
")!=='==========~{",
"]===#       ^===/",
"(===_       _===:",
"(===_       _===:",
"(===<       [===}",
"{===|11111112===3",
".4=============5>",
".6=============7>",
"8===90000000a===_",
"(===b       c===d",
"(===_       _===:",
"(===_       _===:",
"c===e_______f===g",
"hi=============j+",
".k=============l>",
"..#m=========no.>",
"   p_________>  ."};
