/* XPM */
static char * number7_xpm[] = {
"17 20 46 1",
" 	g #FFFFFF",
".	g #F1F1F1",
"+	g #020202",
"@	g #E6E6E6",
"#	g #E7E7E7",
"$	g #F9F9F9",
"%	g #DCDCDC",
"&	g #BDBDBD",
"*	g #2C2C2C",
"=	g #F4F4F4",
"-	g #FCFCFC",
";	g #9D9D9D",
">	g #A5A5A5",
",	g #FDFDFD",
"'	g #EEEEEE",
")	g #0F0F0F",
"!	g #030303",
"~	g #EAEAEA",
"{	g #ACACAC",
"]	g #959595",
"^	g #FEFEFE",
"/	g #F6F6F6",
"(	g #383838",
"_	g #E1E1E1",
":	g #BCBCBC",
"<	g #818181",
"[	g #FAFAFA",
"}	g #4F4F4F",
"|	g #D3D3D3",
"1	g #C9C9C9",
"2	g #6A6A6A",
"3	g #C8C8C8",
"4	g #D5D5D5",
"5	g #7F7F7F",
"6	g #BBBBBB",
"7	g #E2E2E2",
"8	g #393939",
"9	g #949494",
"0	g #ABABAB",
"a	g #EBEBEB",
"b	g #050505",
"c	g #0E0E0E",
"d	g #A6A6A6",
"e	g #F0F0F0",
"f	g #EDEDED",
"g	g #F5F5F5",
"                 ",
".+++++++++++++++@",
".+++++++++++++++#",
".+++++++++++++++#",
"$%%%%%%%%%%&+++*=",
"-          ;+++>,",
"-         ')++!~,",
"-         {+++]^,",
"-        /(++!_ ,",
"-        :+++<^ ,",
"-       [}+++|  ,",
"-       1+++2   ,",
"-      ^2+++3   ,",
"-      4!++}[   ,",
"-     ^5+++6    ,",
"-     7+++8/    ,",
"-     9+++0     ,",
"-    ab++c'     ,",
"-    d+++;      ,",
"^----efffg------ "};
