/* XPM */
static char * number9_xpm[] = {
"17 20 52 1",
" 	g #FDFDFD",
".	g #FEFEFE",
"+	g #F4F4F4",
"@	g #BBBBBB",
"#	g #8A8A8A",
"$	g #7C7C7C",
"%	g #949494",
"&	g #C7C7C7",
"*	g #FAFAFA",
"=	g #EDEDED",
"-	g #5C5C5C",
";	g #020202",
">	g #818181",
",	g #F9F9F9",
"'	g #FCFCFC",
")	g #737373",
"!	g #A8A8A8",
"~	g #E5E5E5",
"{	g #7F7F7F",
"]	g #7E7E7E",
"^	g #444444",
"/	g #363636",
"(	g #FBFBFB",
"_	g #CCCCCC",
":	g #EAEAEA",
"<	g #FFFFFF",
"[	g #CBCBCB",
"}	g #E9E9E9",
"|	g #F0F0F0",
"1	g #D0D0D0",
"2	g #E8E8E8",
"3	g #D1D1D1",
"4	g #D3D3D3",
"5	g #B2B2B2",
"6	g #050505",
"7	g #A6A6A6",
"8	g #9F9F9F",
"9	g #EBEBEB",
"0	g #CACACA",
"a	g #000000",
"b	g #C9C9C9",
"c	g #ACACAC",
"d	g #EFEFEF",
"e	g #0E0E0E",
"f	g #5D5D5D",
"g	g #ADADAD",
"h	g #030303",
"i	g #080808",
"j	g #3A3A3A",
"k	g #CFCFCF",
"l	g #D5D5D5",
"m	g #F5F5F5",
" .+@#$$$$$$$%&*. ",
" =-;;;;;;;;;;;>,'",
" );;;;;;;;;;;;;!'",
"~;;;-{{{{{{]^;;/(",
"_;;;:<<<<<<<[;;;}",
"_;;;|<<<<<<<1;;;2",
"_;;;|<<<<<<<1;;;2",
"_;;;|<<<<<<<1;;;2",
"3;;;4(((((((5;;;2",
"|6;;;;;;;;;;;;;;2",
" 7;;;;;;;;;;;;;;2",
" *8;;;;;;;;;;;;;2",
" <.9[00000007;;;2",
" <<<<<<<<<<<1;;;2",
"'<<.<<<<<<<<1;;;2",
"4aaab:::::::c;;;d",
"|e;;;;;;;;;;;;;f'",
" g;;;;;;;;;;;;h1'",
" 'ci;;;;;;;;;j&.'",
"...|k[[[[[[[lm..."};
