/* XPM */
static char * number4_xpm[] = {
"17 20 38 1",
" 	g #FFFFFF",
".	g #FDFDFD",
"+	g #FEFEFE",
"@	g #EDEDED",
"#	g #797979",
"$	g #757575",
"%	g #BCBCBC",
"&	g #F6F6F6",
"*	g #646464",
"=	g #020202",
"-	g #AAAAAA",
";	g #FBFBFB",
">	g #868686",
",	g #A4A4A4",
"'	g #BEBEBE",
")	g #3C3C3C",
"!	g #5D5D5D",
"~	g #D4D4D4",
"{	g #030303",
"]	g #D6D6D6",
"^	g #7B7B7B",
"/	g #E3E3E3",
"(	g #393939",
"_	g #AEAEAE",
":	g #F0F0F0",
"<	g #5A5A5A",
"[	g #F9F9F9",
"}	g #EEEEEE",
"|	g #8E8E8E",
"1	g #D5D5D5",
"2	g #B0B0B0",
"3	g #E6E6E6",
"4	g #E7E7E7",
"5	g #6F6F6F",
"6	g #9A9A9A",
"7	g #EBEBEB",
"8	g #E1E1E1",
"9	g #ECECEC",
"                 ",
" .+++++++@#$$%++ ",
" +      &*===-   ",
" +     ;>====-   ",
" +     ,=====-   ",
" +    '==)!==-   ",
" +   ~{={]^==-   ",
" +  /(==_ ^==-   ",
" + :<==#; ^==-   ",
" +[$==)}  ^==-   ",
" .|===1   ^==-   ",
" 2===|34445==644+",
" #============== ",
" #============== ",
" #============== ",
" 7444444445==644+",
" +        ^==-   ",
" +        ^==-   ",
" +        ^==-   ",
" .........3889.. "};
