/* XPM */
static char * number3_xpm[] = {
"17 20 61 1",
" 	g #FFFFFF",
".	g #FEFEFE",
"+	g #FDFDFD",
"@	g #F0F0F0",
"#	g #9B9B9B",
"$	g #1E1E1E",
"%	g #020202",
"&	g #404040",
"*	g #ABABAB",
"=	g #F9F9F9",
"-	g #F2F2F2",
";	g #5F5F5F",
">	g #838383",
",	g #FBFBFB",
"'	g #AFAFAF",
")	g #CDCDCD",
"!	g #747474",
"~	g #929292",
"{	g #DCDCDC",
"]	g #D8D8D8",
"^	g #757575",
"/	g #A3A3A3",
"(	g #686868",
"_	g #CBCBCB",
":	g #A9A9A9",
"<	g #989898",
"[	g #959595",
"}	g #7B7B7B",
"|	g #D6D6D6",
"1	g #999999",
"2	g #D0D0D0",
"3	g #3E3E3E",
"4	g #AAAAAA",
"5	g #030303",
"6	g #DFDFDF",
"7	g #2C2C2C",
"8	g #E9E9E9",
"9	g #BEBEBE",
"0	g #111111",
"a	g #B2B2B2",
"b	g #A1A1A1",
"c	g #B8B8B8",
"d	g #E1E1E1",
"e	g #717171",
"f	g #ACACAC",
"g	g #F6F6F6",
"h	g #F3F3F3",
"i	g #8B8B8B",
"j	g #A0A0A0",
"k	g #9E9E9E",
"l	g #C0C0C0",
"m	g #E8E8E8",
"n	g #383838",
"o	g #606060",
"p	g #DEDEDE",
"q	g #616161",
"r	g #797979",
"s	g #EDEDED",
"t	g #E6E6E6",
"u	g #E3E3E3",
"v	g #EBEBEB",
"    .........    ",
" +@#$%%%%%%%&*=+ ",
" -;%%%%%%%%%%%>, ",
" '%%%%%%%%%%%%%) ",
" !%%~{{{{{{]^%%/ ",
" (%%_       :%%< ",
" [}}|       :%%< ",
" +          :%%1 ",
" +      2:::3%%4 ",
" +      :%%%%%56 ",
" +      :%%%%%78 ",
" +      9}}}0%%a ",
" +          b%%# ",
" c::d       :%%< ",
" (%%_       :%%< ",
" e%%fgggggghi%%j ",
" k%%%%%%%%%%%%%l ",
" mn%%%%%%%%%%%og ",
" +pq%%%%%%%%%rs+ ",
" +++tuuuuuuuv+++ "};
