/* XPM */
static char * fireboy_xpm[] = {
"30 52 736 2",
"  	c #FFFFFE",
". 	c #F3F3F2",
"+ 	c #0D0D0D",
"@ 	c #888888",
"# 	c #ECECEC",
"$ 	c #8B8B8A",
"% 	c #690101",
"& 	c #443A3A",
"* 	c #DBDBDA",
"= 	c #B9B9B9",
"- 	c #700101",
"; 	c #DF0505",
"> 	c #4C3636",
", 	c #E3E3E3",
"' 	c #FAFAF9",
") 	c #C9C9C9",
"! 	c #0F0101",
"~ 	c #FE0000",
"{ 	c #DA6464",
"] 	c #666665",
"^ 	c #FCFCFB",
"/ 	c #444444",
"( 	c #DADAD9",
"_ 	c #C9C9C8",
": 	c #280100",
"< 	c #FD0000",
"[ 	c #FD1212",
"} 	c #AC8282",
"| 	c #B4B4B4",
"1 	c #E8E8E7",
"2 	c #000000",
"3 	c #4F4F4F",
"4 	c #F7F7F6",
"5 	c #BEBEBE",
"6 	c #750101",
"7 	c #F67D7D",
"8 	c #515151",
"9 	c #F2F2F1",
"0 	c #C5C5C4",
"a 	c #840101",
"b 	c #430101",
"c 	c #BCBCBB",
"d 	c #AAAAA9",
"e 	c #9D0101",
"f 	c #FD0100",
"g 	c #B57C7C",
"h 	c #B1B1B0",
"i 	c #8D8D8D",
"j 	c #C70101",
"k 	c #B30102",
"l 	c #646464",
"m 	c #E0E0E0",
"n 	c #8B8B8B",
"o 	c #BB0101",
"p 	c #FD0706",
"q 	c #FD2C11",
"r 	c #E63333",
"s 	c #494949",
"t 	c #F8F8F7",
"u 	c #2B1B1B",
"v 	c #F50101",
"w 	c #F20101",
"x 	c #2E0202",
"y 	c #E9E9E8",
"z 	c #A1A1A1",
"A 	c #BDBDBC",
"B 	c #4C4C4C",
"C 	c #D80101",
"D 	c #FD1509",
"E 	c #FC3508",
"F 	c #FD1D0C",
"G 	c #FD0101",
"H 	c #6B0909",
"I 	c #D6D6D5",
"J 	c #D7D7D6",
"K 	c #900101",
"L 	c #FC1D06",
"M 	c #FC0301",
"N 	c #A90D0D",
"O 	c #B7B7B6",
"P 	c #797979",
"Q 	c #989898",
"R 	c #EEEEED",
"S 	c #020000",
"T 	c #F30101",
"U 	c #FD270C",
"V 	c #FB3302",
"W 	c #FC2E0F",
"X 	c #B60101",
"Y 	c #969696",
"Z 	c #A3A3A2",
"` 	c #CC0101",
" .	c #FD260C",
"..	c #FC1A01",
"+.	c #ED2222",
"@.	c #6B6969",
"#.	c #FEFEFD",
"$.	c #282828",
"%.	c #676767",
"&.	c #D4D4D3",
"*.	c #5D0101",
"=.	c #FD0807",
"-.	c #FC3109",
";.	c #FA3302",
">.	c #FB330C",
",.	c #FD0503",
"'.	c #DF0101",
").	c #292929",
"!.	c #494847",
"~.	c #F10101",
"{.	c #FD300C",
"].	c #FC2B01",
"^.	c #A45B5C",
"/.	c #DCDCDC",
"(.	c #E4E4E3",
"_.	c #4D0101",
":.	c #0A0B0B",
"<.	c #777777",
"[.	c #B3B3B3",
"}.	c #980101",
"|.	c #FD1C0D",
"1.	c #FB3202",
"2.	c #FA3E0D",
"3.	c #FA3403",
"4.	c #FD2B0D",
"5.	c #FC0202",
"6.	c #3E0101",
"7.	c #D2D2D1",
"8.	c #D0D0D0",
"9.	c #790101",
"0.	c #FD190B",
"a.	c #FC3202",
"b.	c #FB3301",
"c.	c #FD1505",
"d.	c #DE3A3A",
"e.	c #959594",
"f.	c #B9B9B8",
"g.	c #AD0101",
"h.	c #380101",
"i.	c #E7E7E6",
"j.	c #C7C7C6",
"k.	c #8A8A8A",
"l.	c #B80101",
"m.	c #FD290F",
"n.	c #FB3201",
"o.	c #FC440B",
"p.	c #FB3C0C",
"q.	c #FD2A0D",
"r.	c #9E9E9D",
"s.	c #757575",
"t.	c #FC1F09",
"u.	c #FC0303",
"v.	c #521F1F",
"w.	c #F4F4F3",
"x.	c #6B6B6A",
"y.	c #E20101",
"z.	c #740100",
"A.	c #CFCFCE",
"B.	c #5D5D5C",
"C.	c #555555",
"D.	c #FC2E05",
"E.	c #FD460B",
"F.	c #FC400B",
"G.	c #FB3406",
"H.	c #B91007",
"I.	c #2B2B2A",
"J.	c #E71A0D",
"K.	c #FC3203",
"L.	c #FB3A09",
"M.	c #FC2A0B",
"N.	c #960202",
"O.	c #C6C6C5",
"P.	c #DDDDDC",
"Q.	c #710101",
"R.	c #FD0001",
"S.	c #8E0101",
"T.	c #BABAB9",
"U.	c #BABABA",
"V.	c #800101",
"W.	c #450101",
"X.	c #F9F9F8",
"Y.	c #020202",
"Z.	c #DD0301",
"`.	c #FB3102",
" +	c #FB3505",
".+	c #FD4909",
"++	c #FC460B",
"@+	c #FA3505",
"#+	c #CE2308",
"$+	c #7B0702",
"%+	c #FC2B0A",
"&+	c #FB3504",
"*+	c #FD4A0B",
"=+	c #FC400A",
"-+	c #FB3307",
";+	c #898989",
">+	c #868685",
",+	c #C30101",
"'+	c #A80001",
")+	c #A0A09F",
"!+	c #9E9E9E",
"~+	c #AA0100",
"{+	c #C50101",
"]+	c #E6E6E5",
"^+	c #E80C02",
"/+	c #FC3D0C",
"(+	c #FD4702",
"_+	c #FD4A05",
":+	c #FB3F0D",
"<+	c #EC2702",
"[+	c #A20301",
"}+	c #E72E03",
"|+	c #FC3F04",
"1+	c #FD4807",
"2+	c #FC3609",
"3+	c #FD0605",
"4+	c #D40101",
"5+	c #370000",
"6+	c #F40101",
"7+	c #FC1602",
"8+	c #BD0101",
"9+	c #7E7E7D",
"0+	c #80807F",
"a+	c #C20101",
"b+	c #850101",
"c+	c #8D8D8C",
"d+	c #0C0000",
"e+	c #F91102",
"f+	c #FC4006",
"g+	c #FC4702",
"h+	c #FC4701",
"i+	c #FD4402",
"j+	c #FB3402",
"k+	c #FB2C02",
"l+	c #FC2E02",
"m+	c #FD4401",
"n+	c #FD4902",
"o+	c #FC3704",
"p+	c #FD1605",
"q+	c #E70101",
"r+	c #BA0101",
"s+	c #FE1E01",
"t+	c #FC2401",
"u+	c #CD0101",
"v+	c #484848",
"w+	c #767676",
"x+	c #E60101",
"y+	c #010000",
"z+	c #6B0101",
"A+	c #FD1401",
"B+	c #FD4303",
"C+	c #FC4803",
"D+	c #FB3801",
"E+	c #FA3102",
"F+	c #FD0201",
"G+	c #FC2D02",
"H+	c #FC3C01",
"I+	c #FD4701",
"J+	c #FB4702",
"K+	c #FC4802",
"L+	c #FC3D01",
"M+	c #FD2F05",
"N+	c #F70802",
"O+	c #AC0202",
"P+	c #FD1F06",
"Q+	c #FC3505",
"R+	c #FB2E05",
"S+	c #FDFDFC",
"T+	c #565656",
"U+	c #DB0101",
"V+	c #9C0101",
"W+	c #A10101",
"X+	c #FD1602",
"Y+	c #FD4501",
"Z+	c #FC4602",
"`+	c #FC4801",
" @	c #FD4201",
".@	c #FC3102",
"+@	c #FB3D01",
"@@	c #FC4601",
"#@	c #FD4101",
"$@	c #FD1E04",
"%@	c #FD3504",
"&@	c #FE490A",
"*@	c #FC390F",
"=@	c #ECECEB",
"-@	c #262626",
";@	c #E60100",
">@	c #FD0F07",
",@	c #FC2E0D",
"'@	c #EA1412",
")@	c #FD1702",
"!@	c #FC4001",
"~@	c #FA3402",
"{@	c #FC4202",
"]@	c #FC3B01",
"^@	c #FE0A00",
"/@	c #FD3501",
"(@	c #FD4604",
"_@	c #FD4801",
":@	c #FC3A08",
"<@	c #F30F01",
"[@	c #E3E3E2",
"}@	c #030303",
"|@	c #E80101",
"1@	c #FD1B0F",
"2@	c #FC3404",
"3@	c #FC1402",
"4@	c #FD1A02",
"5@	c #FB3401",
"6@	c #FB3902",
"7@	c #FD3C01",
"8@	c #FB4601",
"9@	c #FB400D",
"0@	c #FB1A01",
"a@	c #090000",
"b@	c #D0D0CF",
"c@	c #010101",
"d@	c #EA0101",
"e@	c #FD1C0A",
"f@	c #FB2501",
"g@	c #FD2102",
"h@	c #FB3101",
"i@	c #FA3301",
"j@	c #FC4301",
"k@	c #FC4106",
"l@	c #FC2103",
"m@	c #470101",
"n@	c #C2C2C1",
"o@	c #FD250F",
"p@	c #FB3904",
"q@	c #FB2F02",
"r@	c #FC2802",
"s@	c #ED3103",
"t@	c #F33203",
"u@	c #FA3201",
"v@	c #FD1D01",
"w@	c #FD1001",
"x@	c #FB2B02",
"y@	c #FC4201",
"z@	c #FD4203",
"A@	c #FC2B09",
"B@	c #6A0101",
"C@	c #ACACAC",
"D@	c #1B1B1A",
"E@	c #E70505",
"F@	c #FD3008",
"G@	c #FD3F02",
"H@	c #FC3902",
"I@	c #FC0801",
"J@	c #FD2302",
"K@	c #E44F03",
"L@	c #E19803",
"M@	c #F0B003",
"N@	c #E7A703",
"O@	c #DF7404",
"P@	c #FA0100",
"Q@	c #FE0100",
"R@	c #FD0F01",
"S@	c #FD1E01",
"T@	c #FC1601",
"U@	c #E30C02",
"V@	c #EC0302",
"W@	c #FB3601",
"X@	c #FC3F01",
"Y@	c #FC4101",
"Z@	c #FD4301",
"`@	c #FB3602",
" #	c #FB2A07",
".#	c #790000",
"+#	c #949493",
"@#	c #464645",
"##	c #E20202",
"$#	c #FC3103",
"%#	c #FC3E01",
"&#	c #FD2A01",
"*#	c #FC2F02",
"=#	c #E74402",
"-#	c #F3AC02",
";#	c #FFC400",
">#	c #FFCE00",
",#	c #FFC901",
"'#	c #FEBA00",
")#	c #E56A03",
"!#	c #F21301",
"~#	c #DD9C03",
"{#	c #FCC001",
"]#	c #F2B102",
"^#	c #DE6B04",
"/#	c #FC2406",
"(#	c #7E0001",
"_#	c #6E6E6D",
":#	c #D10101",
"<#	c #FC4901",
"[#	c #DF7703",
"}#	c #FFBB01",
"|#	c #FFD400",
"1#	c #FCE201",
"2#	c #F1CD02",
"3#	c #FEC300",
"4#	c #E98F02",
"5#	c #E37F03",
"6#	c #FAD202",
"7#	c #FFC800",
"8#	c #F7B002",
"9#	c #EB3103",
"0#	c #FD1903",
"a#	c #830101",
"b#	c #787878",
"c#	c #7B7B7B",
"d#	c #FC2A02",
"e#	c #E17903",
"f#	c #FFBC01",
"g#	c #FFD401",
"h#	c #E4CC03",
"i#	c #BF9E03",
"j#	c #FFC201",
"k#	c #EA8503",
"l#	c #FC0000",
"m#	c #E58A03",
"n#	c #F3D502",
"o#	c #BDA903",
"p#	c #FFD000",
"q#	c #FBB501",
"r#	c #E83404",
"s#	c #FB3001",
"t#	c #FD0301",
"u#	c #8B0202",
"v#	c #7B7B7A",
"w#	c #8E8E8D",
"x#	c #AB0100",
"y#	c #FC2402",
"z#	c #E64202",
"A#	c #F3AB02",
"B#	c #FFC300",
"C#	c #FFCD01",
"D#	c #FFC600",
"E#	c #F6AD02",
"F#	c #F03302",
"G#	c #EF3101",
"H#	c #EAC202",
"I#	c #FFDA01",
"J#	c #FDC801",
"K#	c #E38005",
"L#	c #FB2903",
"M#	c #828282",
"N#	c #AFAFAE",
"O#	c #880101",
"P#	c #FD1F01",
"Q#	c #FC2202",
"R#	c #EA3502",
"S#	c #E78503",
"T#	c #E79602",
"U#	c #EA8204",
"V#	c #F02D02",
"W#	c #F70001",
"X#	c #EB5B04",
"Y#	c #EB3B04",
"Z#	c #FC0402",
"`#	c #FC2102",
" $	c #FC3201",
".$	c #730101",
"+$	c #A4A4A3",
"@$	c #D1D1D0",
"#$	c #3B0101",
"$$	c #FC0C01",
"%$	c #FD3902",
"&$	c #FC4501",
"*$	c #FE1302",
"=$	c #FD0302",
"-$	c #FC0200",
";$	c #FD0200",
">$	c #FE0302",
",$	c #FD1B02",
"'$	c #FB0301",
")$	c #260101",
"!$	c #060606",
"~$	c #FC2D03",
"{$	c #FD3701",
"]$	c #FC3401",
"^$	c #FC2B02",
"/$	c #FE0303",
"($	c #FC0201",
"_$	c #FD0303",
":$	c #FE0A03",
"<$	c #FD2701",
"[$	c #FD1B01",
"}$	c #E9E9E9",
"|$	c #888887",
"1$	c #A70101",
"2$	c #FB3501",
"3$	c #FB3002",
"4$	c #FD1803",
"5$	c #FD0403",
"6$	c #FE1203",
"7$	c #FC2F01",
"8$	c #FE3E01",
"9$	c #FD3605",
"0$	c #B80505",
"a$	c #646463",
"b$	c #300000",
"c$	c #F01901",
"d$	c #FE4D01",
"e$	c #FB3701",
"f$	c #FB2103",
"g$	c #FD0703",
"h$	c #FE0502",
"i$	c #FC2002",
"j$	c #FC3900",
"k$	c #FE5100",
"l$	c #FA681E",
"m$	c #580404",
"n$	c #C1C1C0",
"o$	c #6D6D6C",
"p$	c #A00101",
"q$	c #F92E02",
"r$	c #FC1603",
"s$	c #F60302",
"t$	c #A40201",
"u$	c #EB0201",
"v$	c #FE0402",
"w$	c #FE1303",
"x$	c #FC2E01",
"y$	c #FE5B01",
"z$	c #C86126",
"A$	c #4A4A4A",
"B$	c #E0DDD9",
"C$	c #0F0702",
"D$	c #D51E01",
"E$	c #FD4E01",
"F$	c #FB3B01",
"G$	c #FA2802",
"H$	c #FD1103",
"I$	c #F00201",
"J$	c #810101",
"K$	c #FB0200",
"L$	c #FE0E02",
"M$	c #FF5100",
"N$	c #F66B1C",
"O$	c #522F18",
"P$	c #C8C8C8",
"Q$	c #B8AEA4",
"R$	c #3A0000",
"S$	c #DF4301",
"T$	c #FD4B01",
"U$	c #FA3801",
"V$	c #FA2702",
"W$	c #FD1202",
"X$	c #FD0603",
"Y$	c #FC0302",
"Z$	c #CE0201",
"`$	c #270101",
" %	c #7D0101",
".%	c #830201",
"+%	c #DA0302",
"@%	c #FD1102",
"#%	c #FC2701",
"$%	c #FC3801",
"%%	c #FE4B01",
"&%	c #FC5F09",
"*%	c #8C461B",
"=%	c #888988",
"-%	c #FEFCF9",
";%	c #938276",
">%	c #421301",
",%	c #E24D02",
"'%	c #FD4A00",
")%	c #FB3901",
"!%	c #FD0E03",
"~%	c #FD0402",
"{%	c #FB0402",
"]%	c #EF0503",
"^%	c #EE0503",
"/%	c #FB0703",
"(%	c #FD0E02",
"_%	c #FC1B02",
":%	c #FD3A01",
"<%	c #FE4A01",
"[%	c #FC5B04",
"}%	c #984412",
"|%	c #595959",
"1%	c #FBF5F0",
"2%	c #8D7866",
"3%	c #340E00",
"4%	c #CF4602",
"5%	c #FE4C00",
"6%	c #FD3F01",
"7%	c #FB2A02",
"8%	c #FC1A02",
"9%	c #FB1702",
"0%	c #FB1802",
"a%	c #FB1B02",
"b%	c #FB2102",
"c%	c #FB2A01",
"d%	c #FD4001",
"e%	c #FE4E01",
"f%	c #F25804",
"g%	c #853608",
"h%	c #565655",
"i%	c #EAEAE9",
"j%	c #FCF6F0",
"k%	c #B2977F",
"l%	c #180C03",
"m%	c #943002",
"n%	c #ED4C02",
"o%	c #FE4900",
"p%	c #FC3A01",
"q%	c #FC3601",
"r%	c #FC3301",
"s%	c #FB3300",
"t%	c #FC3501",
"u%	c #FE4A00",
"v%	c #FD5501",
"w%	c #CB4B04",
"x%	c #4A1D03",
"y%	c #7C7A70",
"z%	c #F0F0EF",
"A%	c #FEFBF6",
"B%	c #E5CBB2",
"C%	c #9B7855",
"D%	c #391F07",
"E%	c #973102",
"F%	c #DA4701",
"G%	c #E64601",
"H%	c #E53F01",
"I%	c #E13E01",
"J%	c #D43C03",
"K%	c #C93A01",
"L%	c #B33702",
"M%	c #953102",
"N%	c #531D02",
"O%	c #56462F",
"P%	c #C6BDAD",
"Q%	c #FEFDF9",
"R%	c #FFFFFD",
"S%	c #FCF0E5",
"T%	c #E1C1A3",
"U%	c #88220D",
"V%	c #811D04",
"W%	c #551301",
"X%	c #0F0201",
"Y%	c #030100",
"Z%	c #430E01",
"`%	c #741702",
" &	c #8B1D05",
".&	c #AC9282",
"+&	c #FCF4EC",
"@&	c #D5D5D4",
"#&	c #C61A11",
"$&	c #D41B06",
"%&	c #E12D0A",
"&&	c #F73307",
"*&	c #DF3005",
"=&	c #D92E05",
"-&	c #DD2D05",
";&	c #D92707",
">&	c #9F2110",
",&	c #B51711",
"'&	c #856363",
")&	c #AE9C9B",
"!&	c #CC0505",
"~&	c #951010",
"{&	c #B70D0D",
"]&	c #EF0808",
"^&	c #CB0000",
"/&	c #CB0101",
"(&	c #C60707",
"_&	c #643332",
":&	c #A52020",
"<&	c #9C1010",
"[&	c #BFBEBD",
"}&	c #9E3838",
"|&	c #BF0B0B",
"1&	c #977D7C",
"2&	c #B82020",
"3&	c #E10B0B",
"4&	c #CC0000",
"5&	c #CA0A0A",
"6&	c #987B7B",
"7&	c #B49292",
"8&	c #C90908",
"9&	c #863D3D",
"0&	c #F0EFEE",
"a&	c #BD0D0D",
"b&	c #A20F0F",
"c&	c #C6C5C5",
"d&	c #A91F1F",
"e&	c #CF0303",
"f&	c #CA0909",
"g&	c #997373",
"h&	c #C01212",
"i&	c #C40E0E",
"j&	c #A99A99",
"k&	c #E5E5E4",
"l&	c #885050",
"m&	c #918281",
"n&	c #971919",
"o&	c #7A3A3A",
"p&	c #BAB5B4",
"q&	c #A29191",
"r&	c #FDFDFD",
"s&	c #991414",
"t&	c #CB0606",
"u&	c #B71515",
"v&	c #760808",
"w&	c #FBFBFA",
"x&	c #9C1111",
"y&	c #B70D0C",
"z&	c #5D5858",
"A&	c #BA0909",
"B&	c #C70808",
"C&	c #7A0505",
"D&	c #F5F5F4",
"E&	c #971717",
"F&	c #AC0C0C",
"G&	c #A60E0E",
"H&	c #C00C0C",
"I&	c #780C0C",
"J&	c #973333",
"K&	c #CA0101",
"L&	c #991010",
"M&	c #DADADA",
"N&	c #A86868",
"O&	c #BE090A",
"P&	c #770A0A",
"Q&	c #EDEDEC",
"R&	c #9F5E5E",
"S&	c #C80808",
"T&	c #813E3E",
"U&	c #B19B9B",
"V&	c #BB0A0A",
"W&	c #B2ACAC",
"X&	c #941212",
"Y&	c #B4B1B0",
"Z&	c #7A1717",
"`&	c #6C5454",
"          . + @ #                                           ",
"            $ % & *                                         ",
"            = - ; > ,               '                       ",
"            ) ! ~ { ] '           ^ / (                     ",
"            _ : < [ } |           1 2 3 4                   ",
"            5 6 < < 7 8 9         0 a b c                   ",
"            d e < f < g h         i j k l           m 9     ",
"            n o p q < r s ^     t u v w x y         z A     ",
"            B C D E F G H I     J K L M N O         P Q     ",
"          R S T U V W < X Y     Z `  ...+.@.#.    #.$.%.    ",
"          &.*.=.-.;.>.,.'.).t ^ !.~.{.].< ^./.    (._.:.'   ",
"  <.4     [.}.|.1.2.3.4.5.6.7.8.9.0.a.b.c.d.e.    f.g.h.i.  ",
". 2 j.    k.l.m.n.o.p.V q.K r.s.o 4.V ;.t.u.v.w.  x.y.z.A.  ",
"J 2 B.#.  C.` D.V E.F.;.G.H.I.2 J.K.L.;.M.< N.O.P.Q.R.S.T.  ",
"U.V.W.&.X.Y.Z.`. +.+++@+;.#+2 $+%+&+*+=+-+p o ;+>+,+R.'+)+  ",
"!+~+{+x.]+2 ^+a./+(+_+:+;.<+[+}+1.|+(+1+2+3+4+2 5+6+7+8+9+  ",
"0+a+< b+c+d+e+n.f+g+h+i+j+k+R.l+b.m+h+n+o+p+q+2 r+s+t+u+v+  ",
"w+u+< x+y+z+A+n.B+h+C+(+D+E+F+G+H+I+J+K+L+M+N+O+P+Q+R+'.Y.S+",
"T+U+< G V+W+X+b.Y+Z+C+`+ @V .@V +@@@g+h+#@1.f $@%@&@*@q+2 =@",
"-@;@>@,@6+'@)@b.!@Z+g+g+#@V ;.;.~@{@@@Y+]@k+^@/@(@_@:@<@2 [@",
"}@|@1@2@3@< 4@1.;.5@]@6@V ;.;.;.;.;.1.V ;.n.7@I+8@h+9@0@a@b@",
"c@d@e@b.f@< g@V ;.;.;.;.;.h@k+;.;.;.;.;.;.i@j@@@8@g+k@l@m@n@",
"c@d@o@p@q@< r@;.;.;.s@t@u@v@w@E+;.;.;.1.x@1.y@8@g+h+z@A@B@C@",
"D@E@F@G@H@I@J@;.K@L@M@N@O@P@Q@R@S@S@T@U@V@l+W@X@Y@Z@`@ #.#+#",
"@###$#%#m+&#*#=#-#;#>#,#'#)#< < Q@!#~#{#]#^#;.;.;.b.V /#(#9+",
"_#:#l+L+<#Z@i@[#}#|#1#2#3#4#< < < 5#|#6#7#8#9#;.;.;.n.0#a#b#",
"c#,+d#H+(+Y+5@e#f#g#h#i#j#k#l#< < m#n#o#p#q#r#;.;.;.s#t#u#v#",
"w#x#y#7@I+Y@b.z#A#B#C#D#E#F#< < < G#H#I#J#K#;.;.;.;.L#< a#M#",
"N#O#P#Y+(+X@b.Q#R#S#T#U#V#< < < < < W#X#Y#Z#`#;.;.;. $F+.$+$",
"@$#$$$%$&$!@b.*$=$-$f < < < < < < < < Q@;$>$>$,$`.;.n.'$)$n@",
"w.!$'.~${$]$^$>$/$($Q@Q@< < < < < < Q@Q@($/$_$:$<$n.[$y.2 }$",
"  |$1$V 2$3$4$5$/$=$F+Q@Q@< < < < Q@Q@;$=$/$5$6$7$8$9$0$a$  ",
"  &.b$c$d$e$f$g$_$=$-$F+Q@Q@Q@Q@Q@Q@;$F+/$5$h$i$j$k$l$m$n$  ",
"  #.o$p$#@y@q$r$,.s$t$u$;$f f f F+($=$/$5$v$w$x$m+y$z$A$t   ",
"    B$C$D$E$F$G$H$5$I$J$e U+K$;$;$F+>$/$v$L$r@7@M$N$O$P$    ",
"      Q$R$S$T$U$V$W$X$Y$Z$b+`$B@ %.%+%h$@%#%$%%%&%*%=%#.    ",
"      -%;%>%,%'%)%x@,$!%g$~%{%]%^%/%(%_%].:%<%[%}%|%.       ",
"        1%2%3%4%5%6%5@7%`#8%9%0%a%b%c%5@d%e%f%g%h%i%        ",
"          j%k%l%m%n%o%d%p%q%r%s%t%p%d%u%v%w%x%y%z%          ",
"            A%B%C%D%E%F%G%z#H%I%J%K%L%M%N%O%P%Q%            ",
"              R%S%T%U%V%W%X%2 2 Y%Z%`% &.&+&                ",
"                  @&#&$&%&&&*&=&-&;&>&,&'&^                 ",
"                  )&!&~&{&]&^&/&^&(&_&:&<&[&                ",
"                X.}&|&1&2&3&^&4&4&5&6&7&8&9&0&              ",
"                7.a&b&c&d&e&^&4&4&f&g&@&h&i&j&              ",
"                k&l&m&w.n&4&4&4&^&f&o&  p&q&R               ",
"                      r&s&4&t&u&/&f&v&w&                    ",
"                      S+x&^&y&z&A&B&C&D&                    ",
"                      #.E&^&F&T.G&H&I&R                     ",
"                        J&K&L&M&N&O&P&Q&                    ",
"                        R&S&T&t U&V&6 w.                    ",
"                        W&X&Y&  @&Z&`&S+                    "};
