/* XPM */
static char * running_left_boy_xpm[] = {
"50 39 988 2",
"  	c #FFFFFE",
". 	c #FDFDFB",
"+ 	c #F9F9F8",
"@ 	c #F4F3F2",
"# 	c #EDEBE9",
"$ 	c #E5E3E0",
"% 	c #EAE8E6",
"& 	c #DEDBD9",
"* 	c #C4C1BD",
"= 	c #A09C95",
"- 	c #868077",
"; 	c #746A5E",
"> 	c #726053",
", 	c #77594E",
"' 	c #764E43",
") 	c #764C40",
"! 	c #694B3E",
"~ 	c #5D5044",
"{ 	c #7F7B76",
"] 	c #C7C6C4",
"^ 	c #F8F7F6",
"/ 	c #FEFEFD",
"( 	c #E9E8E5",
"_ 	c #BFBDBA",
": 	c #97938D",
"< 	c #6F6B62",
"[ 	c #5C5649",
"} 	c #584F3C",
"| 	c #5F4F34",
"1 	c #57472E",
"2 	c #644A37",
"3 	c #6D412F",
"4 	c #804D32",
"5 	c #974F2F",
"6 	c #B64F32",
"7 	c #D74F33",
"8 	c #E94F34",
"9 	c #F14D32",
"0 	c #F4482B",
"a 	c #F2442C",
"b 	c #F33B25",
"c 	c #E83624",
"d 	c #C43025",
"e 	c #8D2B1C",
"f 	c #665C55",
"g 	c #BDBCBA",
"h 	c #F6F6F4",
"i 	c #E6E5E3",
"j 	c #928E8A",
"k 	c #3E372A",
"l 	c #423320",
"m 	c #6F4724",
"n 	c #965525",
"o 	c #BD682D",
"p 	c #E07C32",
"q 	c #F38533",
"r 	c #F28134",
"s 	c #EF6A2C",
"t 	c #F65E29",
"u 	c #FB5D2B",
"v 	c #FE5C2A",
"w 	c #FD5A26",
"x 	c #FC5C24",
"y 	c #FE5D25",
"z 	c #FE5F26",
"A 	c #FF5E25",
"B 	c #FD5222",
"C 	c #FC4420",
"D 	c #F9341A",
"E 	c #F7261C",
"F 	c #DB2D20",
"G 	c #872F1F",
"H 	c #575451",
"I 	c #BEBDBB",
"J 	c #FAFAF9",
"K 	c #B2B1AF",
"L 	c #42362E",
"M 	c #8C4F20",
"N 	c #D36B23",
"O 	c #F37520",
"P 	c #F9721E",
"Q 	c #FF6E1D",
"R 	c #FE691D",
"S 	c #FE691F",
"T 	c #FE691C",
"U 	c #FE6820",
"V 	c #FC551B",
"W 	c #FF5220",
"X 	c #FD531E",
"Y 	c #FA531B",
"Z 	c #FB581D",
"` 	c #FF601F",
" .	c #FF621F",
"..	c #FF621D",
"+.	c #FE611B",
"@.	c #FE621A",
"#.	c #FF5F19",
"$.	c #FF5919",
"%.	c #FF5218",
"&.	c #FE4618",
"*.	c #FD2E0D",
"=.	c #F02312",
"-.	c #BF2D24",
";.	c #551A12",
">.	c #575554",
",.	c #C1C0BF",
"'.	c #F7F6F5",
").	c #898786",
"!.	c #683712",
"~.	c #D16C20",
"{.	c #F76E15",
"].	c #FA6516",
"^.	c #FC5C14",
"/.	c #FB5517",
"(.	c #FD4D13",
"_.	c #FE4A13",
":.	c #FF4A12",
"<.	c #FF4A16",
"[.	c #FE4915",
"}.	c #FE4715",
"|.	c #FE4912",
"1.	c #FD5214",
"2.	c #FF5C18",
"3.	c #FF5C15",
"4.	c #FF5B14",
"5.	c #FF5B12",
"6.	c #FE5B10",
"7.	c #FE5A0E",
"8.	c #FE590E",
"9.	c #FD580F",
"0.	c #FD570F",
"a.	c #FD4D15",
"b.	c #FD400E",
"c.	c #FD390C",
"d.	c #F92709",
"e.	c #E82110",
"f.	c #A12012",
"g.	c #330B0A",
"h.	c #585655",
"i.	c #C2C1C0",
"j.	c #FAF9F8",
"k.	c #898685",
"l.	c #703C19",
"m.	c #E96D1C",
"n.	c #FA630C",
"o.	c #FD560A",
"p.	c #FE4A08",
"q.	c #FE3F07",
"r.	c #FE360B",
"s.	c #FD300D",
"t.	c #FF2C0C",
"u.	c #FD2A0C",
"v.	c #FE290E",
"w.	c #FD2B0E",
"x.	c #FB350E",
"y.	c #FE4010",
"z.	c #FE420C",
"A.	c #FD4D10",
"B.	c #FD520C",
"C.	c #FF550E",
"D.	c #FF540E",
"E.	c #FF540C",
"F.	c #FF540A",
"G.	c #FF530B",
"H.	c #FE500D",
"I.	c #FB4507",
"J.	c #FD3F07",
"K.	c #F93D08",
"L.	c #FB3C07",
"M.	c #FE3909",
"N.	c #FE3709",
"O.	c #FA340C",
"P.	c #F71709",
"Q.	c #D8150D",
"R.	c #880D09",
"S.	c #220404",
"T.	c #686665",
"U.	c #D1D0CE",
"V.	c #FCFCFB",
"W.	c #B1AEAD",
"X.	c #582909",
"Y.	c #E86B19",
"Z.	c #FD5D01",
"`.	c #FD4F05",
" +	c #FE3C05",
".+	c #FE2F05",
"++	c #FA2408",
"@+	c #FB1C06",
"#+	c #FB1706",
"$+	c #FD1405",
"%+	c #FE1307",
"&+	c #FE1406",
"*+	c #F91B04",
"=+	c #FD360C",
"-+	c #FC3A06",
";+	c #FC3F04",
">+	c #FF4D0B",
",+	c #FF4F09",
"'+	c #FE4F06",
")+	c #FE4F07",
"!+	c #FE4C08",
"~+	c #FE4409",
"{+	c #F93C03",
"]+	c #FD3507",
"^+	c #F52108",
"/+	c #DD1306",
"(+	c #C70F0B",
"_+	c #B10D09",
":+	c #9C0F02",
"<+	c #941207",
"[+	c #881308",
"}+	c #9B0708",
"|+	c #AC090B",
"1+	c #A51011",
"2+	c #7A0D10",
"3+	c #35090A",
"4+	c #706D6C",
"5+	c #C0BEBD",
"6+	c #E6E5E4",
"7+	c #FBFBFA",
"8+	c #E3E1E0",
"9+	c #2C2524",
"0+	c #CB6217",
"a+	c #FB5E06",
"b+	c #FF4802",
"c+	c #FC3903",
"d+	c #FC2704",
"e+	c #FE1804",
"f+	c #FF0F01",
"g+	c #FD1004",
"h+	c #FE0E01",
"i+	c #FF0C07",
"j+	c #FE0E02",
"k+	c #FE0E03",
"l+	c #FD0D02",
"m+	c #FC0E01",
"n+	c #FB1F03",
"o+	c #FE3006",
"p+	c #FD3703",
"q+	c #F93C01",
"r+	c #FD4204",
"s+	c #FD4203",
"t+	c #FC3E02",
"u+	c #FD3804",
"v+	c #FE3402",
"w+	c #F62C04",
"x+	c #B20D05",
"y+	c #530504",
"z+	c #190201",
"A+	c #472611",
"B+	c #6D3C18",
"C+	c #6C3C18",
"D+	c #6A3B17",
"E+	c #5E3718",
"F+	c #4C290E",
"G+	c #291408",
"H+	c #140301",
"I+	c #2F0303",
"J+	c #5E0808",
"K+	c #590D0E",
"L+	c #5F080C",
"M+	c #341111",
"N+	c #5A5656",
"O+	c #999696",
"P+	c #BFBEBD",
"Q+	c #DEDDDC",
"R+	c #F6F5F5",
"S+	c #858382",
"T+	c #7C360F",
"U+	c #F86109",
"V+	c #FD4D01",
"W+	c #FA3808",
"X+	c #E22607",
"Y+	c #C3150C",
"Z+	c #C51006",
"`+	c #E30F04",
" @	c #FA0C03",
".@	c #FB0B01",
"+@	c #F80D00",
"@@	c #FF0801",
"#@	c #FF0901",
"$@	c #FE0A00",
"%@	c #FD1702",
"&@	c #FD2E08",
"*@	c #FD3403",
"=@	c #FD3401",
"-@	c #FB3500",
";@	c #FC3500",
">@	c #FE3200",
",@	c #FC2D03",
"'@	c #950905",
")@	c #110103",
"!@	c #5E300D",
"~@	c #B7601E",
"{@	c #D26E21",
"]@	c #D56D1C",
"^@	c #CC6E25",
"/@	c #CA6C2A",
"(@	c #C86D2A",
"_@	c #C86E27",
":@	c #C26F30",
"<@	c #AE6935",
"[@	c #975B2E",
"}@	c #794A21",
"|@	c #402310",
"1@	c #340504",
"2@	c #7E0A0B",
"3@	c #9C0C11",
"4@	c #9B080C",
"5@	c #740C0C",
"6@	c #360F0D",
"7@	c #333332",
"8@	c #6C6A6A",
"9@	c #9D9C9C",
"0@	c #E5E4E3",
"a@	c #201B1A",
"b@	c #CD5B10",
"c@	c #FF5405",
"d@	c #F14007",
"e@	c #94300C",
"f@	c #AC7811",
"g@	c #CD9A0F",
"h@	c #C79410",
"i@	c #8D650F",
"j@	c #B10D0E",
"k@	c #FA0A04",
"l@	c #FD0705",
"m@	c #FF0701",
"n@	c #FF0602",
"o@	c #FE0701",
"p@	c #FE0800",
"q@	c #FE0802",
"r@	c #FD0902",
"s@	c #FB0F01",
"t@	c #FB1E04",
"u@	c #FC2904",
"v@	c #FE3102",
"w@	c #FD3501",
"x@	c #FC3400",
"y@	c #EC2605",
"z@	c #440203",
"A@	c #190E07",
"B@	c #934C22",
"C@	c #A45821",
"D@	c #A35922",
"E@	c #9E5723",
"F@	c #9E5621",
"G@	c #A65F2D",
"H@	c #D28859",
"I@	c #C67433",
"J@	c #C7712A",
"K@	c #CB7D49",
"L@	c #C5844E",
"M@	c #C58452",
"N@	c #C18558",
"O@	c #AB815F",
"P@	c #867160",
"Q@	c #47403D",
"R@	c #310807",
"S@	c #370404",
"T@	c #200406",
"U@	c #140E0F",
"V@	c #878483",
"W@	c #DDDCDB",
"X@	c #A6A4A3",
"Y@	c #572008",
"Z@	c #F36211",
"`@	c #FC4A03",
" #	c #B22F05",
".#	c #D39313",
"+#	c #FDBA0A",
"@#	c #FDCB02",
"##	c #FFC905",
"$#	c #FBC10B",
"%#	c #A77610",
"&#	c #CE0D03",
"*#	c #FC0605",
"=#	c #FD0800",
"-#	c #FF0601",
";#	c #FF0600",
">#	c #FE0700",
",#	c #FE0801",
"'#	c #FF0903",
")#	c #FF0800",
"!#	c #FE0C00",
"~#	c #FC0D01",
"{#	c #FD1A01",
"]#	c #FF2C04",
"^#	c #FF3303",
"/#	c #FB2C03",
"(#	c #DA1B05",
"_#	c #A20903",
":#	c #740505",
"<#	c #4F0204",
"[#	c #420101",
"}#	c #230402",
"|#	c #383534",
"1#	c #D0CDCB",
"2#	c #FCFAF7",
"3#	c #F5EAE3",
"4#	c #F4E8E0",
"5#	c #FCF9F6",
"6#	c #FDFCFA",
"7#	c #FDFCF9",
"8#	c #FEFDFB",
"9#	c #F9F8F6",
"0#	c #C8C8C7",
"a#	c #C7C7C6",
"b#	c #E2E0DF",
"c#	c #FDFDFC",
"d#	c #676463",
"e#	c #9F4109",
"f#	c #FC5802",
"g#	c #FD3F06",
"h#	c #A04715",
"i#	c #F2B210",
"j#	c #EABA0F",
"k#	c #FEE403",
"l#	c #FFE502",
"m#	c #FFCD07",
"n#	c #E1A711",
"o#	c #A3090A",
"p#	c #FD0505",
"q#	c #FD0503",
"r#	c #FE0500",
"s#	c #FF0700",
"t#	c #FF0900",
"u#	c #FF0B01",
"v#	c #FD1000",
"w#	c #FE2301",
"x#	c #FE3301",
"y#	c #FB3401",
"z#	c #FB3502",
"A#	c #FB3204",
"B#	c #F52104",
"C#	c #F31D08",
"D#	c #F11207",
"E#	c #680908",
"F#	c #A9A7A6",
"G#	c #343130",
"H#	c #BF5614",
"I#	c #FC5301",
"J#	c #F93904",
"K#	c #974012",
"L#	c #DEA018",
"M#	c #C7A80C",
"N#	c #FDE908",
"O#	c #FCED03",
"P#	c #FED105",
"Q#	c #DCA615",
"R#	c #B00804",
"S#	c #FB0702",
"T#	c #FE0402",
"U#	c #FF0400",
"V#	c #FF0401",
"W#	c #FE0501",
"X#	c #FC0D00",
"Y#	c #FC1E01",
"Z#	c #FE4802",
"`#	c #FF4602",
" $	c #FC3602",
".$	c #FB2504",
"+$	c #D90907",
"@$	c #321B1B",
"#$	c #E8E7E6",
"$$	c #17110F",
"%$	c #D95913",
"&$	c #FD4C03",
"*$	c #FD3502",
"=$	c #D11C07",
"-$	c #B07F10",
";$	c #FCC00D",
">$	c #FDCE03",
",$	c #FDD203",
"'$	c #FCC315",
")$	c #A67013",
"!$	c #E50906",
"~$	c #FD0306",
"{$	c #FD0401",
"]$	c #FF0300",
"^$	c #FF0301",
"/$	c #FF0500",
"($	c #FF0A00",
"_$	c #FC1A01",
":$	c #FF3504",
"<$	c #FE4303",
"[$	c #FA4201",
"}$	c #FB3802",
"|$	c #FE290B",
"1$	c #E50C05",
"2$	c #700405",
"3$	c #8A8584",
"4$	c #0C0605",
"5$	c #E55D0F",
"6$	c #FD4901",
"7$	c #FC3202",
"8$	c #FD1807",
"9$	c #C71209",
"0$	c #9C6310",
"a$	c #C69015",
"b$	c #BA8710",
"c$	c #894E0D",
"d$	c #D10B09",
"e$	c #FC0500",
"f$	c #FD0301",
"g$	c #FE0202",
"h$	c #FE0102",
"i$	c #FF0201",
"j$	c #FE0A01",
"k$	c #FF0A01",
"l$	c #FD1300",
"m$	c #FD2D02",
"n$	c #FF3300",
"o$	c #FD3201",
"p$	c #F22C06",
"q$	c #750A02",
"r$	c #0C0102",
"s$	c #493C3B",
"t$	c #87807F",
"u$	c #ABA7A6",
"v$	c #D0CECC",
"w$	c #EEEDEB",
"x$	c #140B0A",
"y$	c #E75C12",
"z$	c #FD4A00",
"A$	c #FE3201",
"B$	c #FF1901",
"C$	c #FE0B01",
"D$	c #F70F05",
"E$	c #EC0C09",
"F$	c #E80E0A",
"G$	c #F20A05",
"H$	c #FE0504",
"I$	c #FD0502",
"J$	c #FD0201",
"K$	c #FE0201",
"L$	c #FE0401",
"M$	c #FC1500",
"N$	c #FE2C01",
"O$	c #FD3302",
"P$	c #FD3203",
"Q$	c #E7340D",
"R$	c #CE2D06",
"S$	c #C02C0A",
"T$	c #B22A08",
"U$	c #8C1E0A",
"V$	c #5C0703",
"W$	c #3C2322",
"X$	c #7F7977",
"Y$	c #C7C4C3",
"Z$	c #2A2524",
"`$	c #DF5912",
" %	c #FD4D00",
".%	c #FD3400",
"+%	c #FE1C01",
"@%	c #FB0E00",
"#%	c #FD0A01",
"$%	c #FB0701",
"%%	c #FE0304",
"&%	c #F90502",
"*%	c #FE0900",
"=%	c #FC0F00",
"-%	c #FE2905",
";%	c #FF3202",
">%	c #FD3A01",
",%	c #FD4002",
"'%	c #FD4303",
")%	c #FE4102",
"!%	c #FE3E00",
"~%	c #FB3901",
"{%	c #FC3501",
"]%	c #FA3605",
"^%	c #FA2D05",
"/%	c #E31D07",
"(%	c #B80A05",
"_%	c #790604",
":%	c #5A504F",
"<%	c #C3C0BF",
"[%	c #FCFBFA",
"}%	c #4C4B4A",
"|%	c #CA5311",
"1%	c #FE5101",
"2%	c #FE3800",
"3%	c #FF2002",
"4%	c #FD0B03",
"5%	c #FF0803",
"6%	c #F80A05",
"7%	c #F60A05",
"8%	c #FD0500",
"9%	c #FC0501",
"0%	c #FF0501",
"a%	c #FD0B01",
"b%	c #FC1E03",
"c%	c #FB3002",
"d%	c #FC3601",
"e%	c #FE4302",
"f%	c #FE4902",
"g%	c #FC4B02",
"h%	c #FD4C01",
"i%	c #FB4B02",
"j%	c #FB4C01",
"k%	c #FD4A03",
"l%	c #FE4604",
"m%	c #FD3D05",
"n%	c #FD3902",
"o%	c #FB2C04",
"p%	c #F60E04",
"q%	c #D50B07",
"r%	c #7B0A09",
"s%	c #7F7979",
"t%	c #ECEBEA",
"u%	c #858483",
"v%	c #A8480C",
"w%	c #FC5604",
"x%	c #FD4001",
"y%	c #FC2902",
"z%	c #FF1101",
"A%	c #FB0C00",
"B%	c #F10C0C",
"C%	c #910906",
"D%	c #E40805",
"E%	c #FC0602",
"F%	c #FD0601",
"G%	c #FC0C01",
"H%	c #FE2A05",
"I%	c #F83200",
"J%	c #FD4404",
"K%	c #FD4A01",
"L%	c #FE4901",
"M%	c #FF4B01",
"N%	c #FE4C03",
"O%	c #FE4B02",
"P%	c #FF4701",
"Q%	c #FE4703",
"R%	c #FE4704",
"S%	c #FE3700",
"T%	c #FE3001",
"U%	c #FB1902",
"V%	c #F50505",
"W%	c #B30809",
"X%	c #625453",
"Y%	c #E9E7E6",
"Z%	c #C3C2C1",
"`%	c #6B3007",
" &	c #F8620C",
".&	c #FF4803",
"+&	c #FC1C07",
"@&	c #FE0B04",
"#&	c #E01009",
"$&	c #6A0504",
"%&	c #A50C0C",
"&&	c #FB0905",
"*&	c #FC0802",
"=&	c #FE0603",
"-&	c #FC0F01",
";&	c #FF2E05",
">&	c #FE4304",
",&	c #FD4902",
"'&	c #FD4A04",
")&	c #FC4803",
"!&	c #FF3C02",
"~&	c #FF3702",
"{&	c #FE3203",
"]&	c #FD3105",
"^&	c #FD3206",
"/&	c #FF3002",
"(&	c #F72008",
"_&	c #FC0403",
":&	c #CA0A07",
"<&	c #6E6161",
"[&	c #F2F1F0",
"}&	c #F3F3F2",
"|&	c #413A38",
"1&	c #DD6315",
"2&	c #FE5304",
"3&	c #FD3E04",
"4&	c #F72A05",
"5&	c #C71804",
"6&	c #4E0302",
"7&	c #A60E09",
"8&	c #F80B02",
"9&	c #FD0900",
"0&	c #FD0904",
"a&	c #FD0803",
"b&	c #FA1100",
"c&	c #FE2B01",
"d&	c #FD3601",
"e&	c #FC4301",
"f&	c #FD4202",
"g&	c #FD3701",
"h&	c #FF3102",
"i&	c #FD3301",
"j&	c #FD2A04",
"k&	c #FD1C02",
"l&	c #FD0E02",
"m&	c #FB0703",
"n&	c #FA0503",
"o&	c #FC0302",
"p&	c #F80601",
"q&	c #FC1303",
"r&	c #FD2202",
"s&	c #FC1D08",
"t&	c #FB0302",
"u&	c #BD0807",
"v&	c #94908F",
"w&	c #FEFDFC",
"x&	c #B2B1B1",
"y&	c #974A13",
"z&	c #F76207",
"A&	c #D93308",
"B&	c #A81F0A",
"C&	c #D91604",
"D&	c #FD0C06",
"E&	c #FC0E00",
"F&	c #FC0B02",
"G&	c #FD0901",
"H&	c #FF0802",
"I&	c #FE0B00",
"J&	c #FF1102",
"K&	c #FE1E03",
"L&	c #FE3101",
"M&	c #FB2F03",
"N&	c #FB1F02",
"O&	c #FC1604",
"P&	c #F21C09",
"Q&	c #E81F0A",
"R&	c #E31507",
"S&	c #D60703",
"T&	c #CA0702",
"U&	c #B60904",
"V&	c #A50908",
"W&	c #940A09",
"X&	c #8C0C0B",
"Y&	c #8D0A07",
"Z&	c #8B0806",
"`&	c #970708",
" *	c #BF0E08",
".*	c #EE0807",
"+*	c #F40504",
"@*	c #811214",
"#*	c #D3D2D1",
"$*	c #F6F6F5",
"%*	c #67605E",
"&*	c #D66316",
"**	c #FD5802",
"=*	c #FA4703",
"-*	c #FF3501",
";*	c #FC2401",
">*	c #FC1602",
",*	c #FE0C02",
"'*	c #FC2502",
")*	c #FF2F03",
"!*	c #FA3300",
"~*	c #FF2E07",
"{*	c #F21304",
"]*	c #C90807",
"^*	c #730405",
"/*	c #380103",
"(*	c #280E0E",
"_*	c #554E4E",
":*	c #959190",
"<*	c #B8B4B3",
"[*	c #CDCBCA",
"}*	c #D6D5D4",
"|*	c #D8D6D5",
"1*	c #D0CFCE",
"2*	c #B7B6B5",
"3*	c #8D8C8B",
"4*	c #353333",
"5*	c #5E0305",
"6*	c #D80908",
"7*	c #CB0807",
"8*	c #777474",
"9*	c #E0E0DF",
"0*	c #6D4435",
"a*	c #E96612",
"b*	c #FB5903",
"c*	c #FD4704",
"d*	c #FD3803",
"e*	c #FD2B01",
"f*	c #FD1D02",
"g*	c #FD1402",
"h*	c #FF0E00",
"i*	c #FF0D01",
"j*	c #FF0C01",
"k*	c #FE0D01",
"l*	c #FE1300",
"m*	c #FD2405",
"n*	c #FD3106",
"o*	c #FD3901",
"p*	c #FD4201",
"q*	c #FB3D06",
"r*	c #FC2903",
"s*	c #B01102",
"t*	c #1A0003",
"u*	c #060102",
"v*	c #211D1C",
"w*	c #C4C1C0",
"x*	c #EBE9E8",
"y*	c #FBFAF9",
"z*	c #F3F2F1",
"A*	c #989695",
"B*	c #600204",
"C*	c #DE0A09",
"D*	c #3D2626",
"E*	c #F0EFEE",
"F*	c #D1D0CF",
"G*	c #6B3D2A",
"H*	c #DF6211",
"I*	c #FB5C04",
"J*	c #FD3F03",
"K*	c #FD3204",
"L*	c #FE2A03",
"M*	c #FE2100",
"N*	c #FE1900",
"O*	c #FE1901",
"P*	c #FE2002",
"Q*	c #FD3702",
"R*	c #FF4702",
"S*	c #FE4402",
"T*	c #FD3F04",
"U*	c #FC2F05",
"V*	c #F81F07",
"W*	c #EF1C0E",
"X*	c #DB1107",
"Y*	c #C20B08",
"Z*	c #64040A",
"`*	c #E3E2E1",
" =	c #370505",
".=	c #DF110B",
"+=	c #3E0B0A",
"@=	c #D9D8D7",
"#=	c #5D4F4A",
"$=	c #AF5010",
"%=	c #F15F0F",
"&=	c #FB5706",
"*=	c #FD4B01",
"==	c #FE4200",
"-=	c #FE3B00",
";=	c #FE3701",
">=	c #FF3402",
",=	c #FF3502",
"'=	c #FF3401",
")=	c #FE3202",
"!=	c #FE2F03",
"~=	c #FD2902",
"{=	c #F71F04",
"]=	c #E5170B",
"^=	c #C90B06",
"/=	c #8F0B02",
"(=	c #5C0701",
"_=	c #560A04",
":=	c #700A03",
"<=	c #A00D06",
"[=	c #B90E0F",
"}=	c #3A0808",
"|=	c #B4B3B2",
"1=	c #D8D7D6",
"2=	c #400203",
"3=	c #D70D0C",
"4=	c #3D2525",
"5=	c #F1F0EF",
"6=	c #9C9B9A",
"7=	c #42261D",
"8=	c #984408",
"9=	c #D0590D",
"0=	c #F3580C",
"a=	c #FD5406",
"b=	c #FD4E02",
"c=	c #FC4E03",
"d=	c #FA4B08",
"e=	c #F24009",
"f=	c #EA2904",
"g=	c #D61607",
"h=	c #C20804",
"i=	c #9E0704",
"j=	c #690403",
"k=	c #360202",
"l=	c #221E1F",
"m=	c #6E6C6C",
"n=	c #AAA9A8",
"o=	c #E1E0DF",
"p=	c #D9D8D8",
"q=	c #A9A8A7",
"r=	c #656261",
"s=	c #302C2C",
"t=	c #787777",
"u=	c #A5A4A3",
"v=	c #720506",
"w=	c #AB0B0E",
"x=	c #A09E9D",
"y=	c #413D3D",
"z=	c #3E1003",
"A=	c #732F09",
"B=	c #993E10",
"C=	c #AA340C",
"D=	c #5B1405",
"E=	c #3A0401",
"F=	c #340302",
"G=	c #1F1112",
"H=	c #494646",
"I=	c #868382",
"J=	c #ADAAA9",
"K=	c #CFCDCC",
"L=	c #EEEDEC",
"M=	c #F4F4F3",
"N=	c #484747",
"O=	c #5D080E",
"P=	c #5F5151",
"Q=	c #DEDAD9",
"R=	c #7E1F11",
"S=	c #941C0F",
"T=	c #5B1D0A",
"U=	c #471D0C",
"V=	c #908988",
"W=	c #CAC8C7",
"X=	c #E4E2E1",
"Y=	c #7C7B7B",
"Z=	c #949392",
"`=	c #E9E8E7",
" -	c #B7B4B3",
".-	c #AB0409",
"+-	c #D80805",
"@-	c #6B0B08",
"#-	c #5E0D0A",
"$-	c #8B7C7B",
"%-	c #938C8C",
"&-	c #C90406",
"*-	c #CF0904",
"=-	c #860B0C",
"--	c #630608",
";-	c #6E1513",
">-	c #ECE9E8",
",-	c #8A7777",
"'-	c #D30604",
")-	c #AF080C",
"!-	c #AC0706",
"~-	c #9A0606",
"{-	c #610F11",
"]-	c #A9A3A3",
"^-	c #910809",
"/-	c #5E0403",
"(-	c #C90404",
"_-	c #AA0708",
":-	c #827B79",
"<-	c #8A8483",
"[-	c #3F0403",
"}-	c #B20302",
"|-	c #C30704",
"1-	c #847876",
"2-	c #DDD9D8",
"3-	c #F6F4F3",
"4-	c #766665",
"5-	c #7C0607",
"6-	c #790303",
"7-	c #C10403",
"8-	c #BA0607",
"9-	c #A30B09",
"0-	c #804343",
"a-	c #E4E1E1",
"b-	c #F4F2F2",
"c-	c #671618",
"d-	c #A90707",
"e-	c #3F0203",
"f-	c #9E0306",
"g-	c #C1020B",
"h-	c #C30403",
"i-	c #C1070C",
"j-	c #BEB8B8",
"k-	c #6D1819",
"l-	c #AB0505",
"m-	c #371E1C",
"n-	c #7E6364",
"o-	c #825051",
"p-	c #852C2E",
"q-	c #8E383A",
"r-	c #D6D2D2",
"s-	c #F9F8F8",
"t-	c #693E42",
"u-	c #AD0604",
"v-	c #7D6F70",
"w-	c #F8F8F7",
"x-	c #F9F8F7",
"y-	c #EFECEC",
"z-	c #EDEBEB",
"A-	c #ABA5A6",
"B-	c #672727",
"C-	c #C0BDBC",
"                      . + @ # $ % & * = - ; > , ' ) ! ~ { ] ^                                       ",
"              / ( _ : < [ } | 1 2 3 4 5 6 7 8 9 0 a b c d e f g h                                   ",
"            i j k l m n o p q r s t u v w x y z A y B C D E F G H I ^                               ",
"        J K L M N O P Q R S T U V W X Y Z `  ...+.@.#.$.%.&.*.=.-.;.>.,.^                           ",
"      '.).!.~.{.].^./.(._._.:.<.[.}.|.1.2.3.4.5.6.7.8.9.0.a.b.c.d.e.f.g.h.i.+                       ",
"    j.k.l.m.n.o.p.q.r.s.t.u.v.w.x.y.z.A.B.C.D.E.F.G.H.I.J.K.L.M.N.O.P.Q.R.S.T.U.V.                  ",
"    W.X.Y.Z.`. +.+++@+#+$+%+%+&+*+=+-+;+>+,+'+)+!+~+{+]+^+/+(+_+:+<+[+}+|+1+2+3+4+5+6+7+            ",
"  8+9+0+a+b+c+d+e+f+g+h+i+j+k+l+m+n+o+p+q+r+s+t+u+v+w+x+y+z+A+B+C+D+E+F+G+H+I+J+K+L+M+N+O+P+Q+R+/   ",
"/ S+T+U+V+W+X+Y+Z+`+ @.@+@@@@@#@$@$@%@&@*@=@-@;@>@,@'@)@!@~@{@]@^@/@(@_@:@<@[@}@|@1@2@3@4@5@6@7@8@9@",
"0@a@b@c@d@e@f@g@h@i@j@k@l@m@n@o@p@q@r@s@t@u@v@w@x@y@z@A@B@C@D@E@F@G@H@I@J@K@L@M@N@O@P@Q@R@S@T@U@V@W@",
"X@Y@Z@`@ #.#+#@###$#%#&#*#=#-#;#>#,#'#)#!#~#{#]#^#/#(#_#:#<#[#}#|#1#2#3#4#5#6#6#7#8#8#9#Q+0#a#b#c#  ",
"d#e#f#g#h#i#j#k#l#m#n#o#p#q#r#r#r#;#s#t#$@u#v#w#x#y#z#A#B#C#D#E#F#                                  ",
"G#H#I#J#K#L#M#N#O#P#Q#R#S#T#U#V#V#W#;#s#t#u#X#Y#v+s+Z#`# $.$+$@$#$                                  ",
"$$%$&$*$=$-$;$>$,$'$)$!$~${$]$]$^$/$;#s#)#($!#_$:$<$[$}$|$1$2$3$/                                   ",
"4$5$6$7$8$9$0$a$b$c$d$e$f$g$h$i$^$V#-#s#)#j$k$l$m$x#n$o$p$q$r$s$t$u$v$w$/                           ",
"x$y$z$A$B$C$D$E$F$G$H$I$J$h$K$K$]$L$r#>#)##@($M$N$O$n$n$P$Q$R$S$T$U$V$W$X$Y$'.                      ",
"Z$`$ %.%+%@%k$#%/$=#$%%%&%K$K$]$U#W#-#>#t#*%=%-%;%x@>%,%'%)%!%~%{%]%^%/%(%_%:%<%[%                  ",
"}%|%1%2%3%h+#@4%5%6%7%8%r#9%^$U#/$0%-#m@#@a%b%c%d%e%f%g%h%i%j%k%l%m%n%O$o%p%q%r%s%t%                ",
"u%v%w%x%y%z%A%j$B%C%D%s#E%W#W#W#W#F%>#)#k$G%H%I%J%g%K%L%M%N%O%L%P%Q%R%<$S%T%U%V%W%X%Y%              ",
"Z%`% &.&A$+&@&#&$&%&&&*&=&;#r#;#-#>#@@t#($-&;&=@>&f%,&'&)&>&!&~&v+{&o$O$]&^&/&(&_&:&<&[&            ",
"}&|&1&2&3&4&5&6&7&8&9&0&a&s#>#m@@@#@t#$@!#b&c&A$d&e&f&g&h&o$i&j&k&l&m&n&o&p&q&r&s&t&u&v&w&          ",
"  x&y&z&f%A&B&C&D&E&a%F&G&H&)#)#t#k$k$I&J&K&L&>@x#M&N&O&P&Q&R&S&T&U&V&W&X&Y&Z&`& *.*+*@*#*          ",
"  $*%*&***=*-*;*>*,*u#!#!#a%$@$@u#!#!#l$'*)*x@!*~*{*]*^*6&/*(*_*:*<*[*}*|*1*2*3*4*5*6*7*8*/         ",
"    9*0*a*b*c*d*e*f*g*h*i*j*u#k*h+l*m*n*o*p*f&q*r*s*t*u*v*w*x*y*                z*A*B*C*D*E*        ",
"      F*G*H*I*j%J*K*L*M*+%N*O*+%P*e*Q*r+R*S*T*U*V*W*X*Y*Z*u%V.                    `* =.=+=#$        ",
"        @=#=$=%=&=*===-=;==@>=,='=)=!=~={=]=^=/=(=_=:=<=[=}=|=                    1=2=3=4=E*        ",
"          5=6=7=8=9=0=a=b=c=d=e=f=g=h=i=j=k=l=m=n=o=p=q=r=s=t=y*                  u=v=w=)./         ",
"              0@x=y=z=A=B=C=D=E=F=G=H=I=J=K=L=/         w&M=j.                  + N=O=P=t%          ",
"                  Q=R=S=T=U=V=W=X=t%[%                                          y*Y=Z=`=            ",
"                   -.-+-@-#-$-.                                                   /                 ",
"                  %-&-*-=---;->-                                                                    ",
"                  ,-'-)-!-~-{-b#                                                                    ",
"                  ]-^-/-(-_-:-y*                                                                    ",
"                  7+<-[-}-|-1-2-3-                                                                  ",
"                  c#4-5-6-7-8-9-0-a-                                                                ",
"                  b-c-d-e-f-g-h-i-j-                                                                ",
"                  E*k-l-m-n-o-p-q-r-                                                                ",
"                  s-t-u-v-w-x-y-z-/                                                                 ",
"                    A-B-C-                                                                          "};
