/* XPM */
static char * running_right_boy_xpm[] = {
"50 39 985 2",
"  	c #FFFFFE",
". 	c #F8F7F6",
"+ 	c #C7C6C4",
"@ 	c #7F7B76",
"# 	c #5D5044",
"$ 	c #694B3E",
"% 	c #754B40",
"& 	c #764E43",
"* 	c #77594D",
"= 	c #726052",
"- 	c #746A5D",
"; 	c #857E75",
"> 	c #9E9A94",
", 	c #C3BFBB",
"' 	c #DDDAD8",
") 	c #EAE8E6",
"! 	c #E4E3E0",
"~ 	c #ECEBE9",
"{ 	c #F4F3F1",
"] 	c #F9F8F7",
"^ 	c #FCFCFB",
"/ 	c #F6F5F4",
"( 	c #BDBBB9",
"_ 	c #665B55",
": 	c #8D2B1C",
"< 	c #C43025",
"[ 	c #E83624",
"} 	c #F33B25",
"| 	c #F2432C",
"1 	c #F4482B",
"2 	c #F14D32",
"3 	c #E94F34",
"4 	c #D84F33",
"5 	c #B74F32",
"6 	c #984F2F",
"7 	c #814D32",
"8 	c #6E422F",
"9 	c #654A37",
"0 	c #57472E",
"a 	c #5F4E34",
"b 	c #584F3B",
"c 	c #5B5548",
"d 	c #6D6960",
"e 	c #94918A",
"f 	c #BCBAB7",
"g 	c #E6E4E2",
"h 	c #FEFEFD",
"i 	c #BDBCBB",
"j 	c #565450",
"k 	c #872F1F",
"l 	c #DB2D20",
"m 	c #F7261C",
"n 	c #F9341A",
"o 	c #FC4420",
"p 	c #FD5122",
"q 	c #FE5D25",
"r 	c #FF5E25",
"s 	c #FE5E26",
"t 	c #FC5C23",
"u 	c #FD5A26",
"v 	c #FE5C2A",
"w 	c #FB5D2B",
"x 	c #F65E29",
"y 	c #EF692B",
"z 	c #F28034",
"A 	c #F38534",
"B 	c #E17C31",
"C 	c #BF6A2E",
"D 	c #995525",
"E 	c #714824",
"F 	c #453420",
"G 	c #393427",
"H 	c #8B8681",
"I 	c #E1E0DE",
"J 	c #F7F7F6",
"K 	c #C0BFBE",
"L 	c #555453",
"M 	c #551A12",
"N 	c #C02D24",
"O 	c #F02312",
"P 	c #FD2E0D",
"Q 	c #FE4618",
"R 	c #FF5118",
"S 	c #FF5919",
"T 	c #FF5F19",
"U 	c #FE621A",
"V 	c #FE611B",
"W 	c #FF621D",
"X 	c #FF621F",
"Y 	c #FF601F",
"Z 	c #FC581D",
"` 	c #FA531B",
" .	c #FD531E",
"..	c #FF5220",
"+.	c #FC551C",
"@.	c #FE671F",
"#.	c #FD691C",
"$.	c #FE691F",
"%.	c #FE691E",
"&.	c #FF6E1D",
"*.	c #F9711E",
"=.	c #F47520",
"-.	c #D66D23",
";.	c #925221",
">.	c #403127",
",.	c #A8A6A5",
"'.	c #F8F8F7",
").	c #F9F9F7",
"!.	c #565453",
"~.	c #350B0A",
"{.	c #A22112",
"].	c #E92110",
"^.	c #F92709",
"/.	c #FD390D",
"(.	c #FD400E",
"_.	c #FD4D15",
":.	c #FD570F",
"<.	c #FD580F",
"[.	c #FE590E",
"}.	c #FE5A0E",
"|.	c #FE5B10",
"1.	c #FF5B12",
"2.	c #FF5C14",
"3.	c #FF5C15",
"4.	c #FF5C18",
"5.	c #FD5214",
"6.	c #FE4912",
"7.	c #FF4715",
"8.	c #FE4916",
"9.	c #FF4A16",
"0.	c #FF4A13",
"a.	c #FE4913",
"b.	c #FE4A13",
"c.	c #FD4D13",
"d.	c #FB5517",
"e.	c #FC5C15",
"f.	c #FA6415",
"g.	c #F76D15",
"h.	c #D66E20",
"i.	c #733C13",
"j.	c #7B7978",
"k.	c #F2F2F1",
"l.	c #CFCDCC",
"m.	c #656362",
"n.	c #240304",
"o.	c #890D0A",
"p.	c #D8150D",
"q.	c #F71709",
"r.	c #FA340B",
"s.	c #FE3709",
"t.	c #FE3909",
"u.	c #FB3C07",
"v.	c #F93D08",
"w.	c #FD3F07",
"x.	c #FB4507",
"y.	c #FE500D",
"z.	c #FF530C",
"A.	c #FF540A",
"B.	c #FF540C",
"C.	c #FF540E",
"D.	c #FF550F",
"E.	c #FD520C",
"F.	c #FE4E10",
"G.	c #FE420C",
"H.	c #FE4010",
"I.	c #FB360E",
"J.	c #FD2B0E",
"K.	c #FE290E",
"L.	c #FD2A0C",
"M.	c #FF2C0C",
"N.	c #FD300D",
"O.	c #FD360B",
"P.	c #FE3F08",
"Q.	c #FE4908",
"R.	c #FD550A",
"S.	c #FA630C",
"T.	c #ED6D1A",
"U.	c #7E441B",
"V.	c #787574",
"W.	c #F7F6F5",
"X.	c #FBFBFA",
"Y.	c #E6E4E3",
"Z.	c #BFBDBC",
"`.	c #6D6A69",
" +	c #360909",
".+	c #7C0D10",
"++	c #A61011",
"@+	c #AD090B",
"#+	c #9B0707",
"$+	c #891408",
"%+	c #961207",
"&+	c #9D0F02",
"*+	c #B30D09",
"=+	c #C80F0B",
"-+	c #DE1406",
";+	c #F62108",
">+	c #FD3507",
",+	c #F93C03",
"'+	c #FE4409",
")+	c #FE4C08",
"!+	c #FE4F07",
"~+	c #FE4F06",
"{+	c #FF5008",
"]+	c #FF4D0B",
"^+	c #FC3F05",
"/+	c #FC3B06",
"(+	c #FD370C",
"_+	c #F91D04",
":+	c #FD1506",
"<+	c #FF1307",
"[+	c #FE1307",
"}+	c #FD1405",
"|+	c #FA1706",
"1+	c #FB1C06",
"2+	c #FA2408",
"3+	c #FD2E06",
"4+	c #FF3B05",
"5+	c #FD4E06",
"6+	c #FE5C01",
"7+	c #EE6C18",
"8+	c #68310A",
"9+	c #9F9C9C",
"0+	c #DEDCDC",
"a+	c #BEBDBC",
"b+	c #989695",
"c+	c #585453",
"d+	c #341110",
"e+	c #5F080C",
"f+	c #590D0E",
"g+	c #5E0808",
"h+	c #2F0203",
"i+	c #140200",
"j+	c #291407",
"k+	c #4B290E",
"l+	c #5D3618",
"m+	c #693A16",
"n+	c #6B3B17",
"o+	c #6B3B18",
"p+	c #452411",
"q+	c #1A0201",
"r+	c #540504",
"s+	c #B30D06",
"t+	c #F62C04",
"u+	c #FE3401",
"v+	c #FD3804",
"w+	c #FC3E02",
"x+	c #FD4203",
"y+	c #FD4204",
"z+	c #F93C02",
"A+	c #FD3703",
"B+	c #FE3106",
"C+	c #FB2103",
"D+	c #FC0E01",
"E+	c #FD0D02",
"F+	c #FE0E03",
"G+	c #FE0E02",
"H+	c #FE0C07",
"I+	c #FE0D02",
"J+	c #FD1004",
"K+	c #FF0F02",
"L+	c #FE1704",
"M+	c #FC2504",
"N+	c #FC3803",
"O+	c #FF4602",
"P+	c #FC5C05",
"Q+	c #D76617",
"R+	c #271812",
"S+	c #D7D5D5",
"T+	c #9A9A99",
"U+	c #6B6969",
"V+	c #313030",
"W+	c #3A0F0E",
"X+	c #760B0C",
"Y+	c #9C090C",
"Z+	c #9B0B11",
"`+	c #7C0A0B",
" @	c #320504",
".@	c #412410",
"+@	c #794A21",
"@@	c #975B2E",
"#@	c #AD6934",
"$@	c #C26F30",
"%@	c #C86E27",
"&@	c #C86D2B",
"*@	c #C96C2A",
"=@	c #CC6E25",
"-@	c #D56D1C",
";@	c #D26E21",
">@	c #B65F1E",
",@	c #5D2F0D",
"'@	c #110103",
")@	c #940905",
"!@	c #FC2D03",
"~@	c #FE3200",
"{@	c #FC3500",
"]@	c #FB3500",
"^@	c #FD3401",
"/@	c #FD3403",
"(@	c #FD2F08",
"_@	c #FD1902",
":@	c #FE0A00",
"<@	c #FF0901",
"[@	c #FF0801",
"}@	c #F80D00",
"|@	c #FC0B01",
"1@	c #FA0C03",
"2@	c #E70F04",
"3@	c #C71005",
"4@	c #C3150C",
"5@	c #E02406",
"6@	c #F93709",
"7@	c #FD4B01",
"8@	c #FA6005",
"9@	c #8F4012",
"0@	c #6E6B6B",
"a@	c #FCFBFA",
"b@	c #D9D7D6",
"c@	c #7C7978",
"d@	c #11090A",
"e@	c #230507",
"f@	c #390404",
"g@	c #310807",
"h@	c #49423E",
"i@	c #866F5D",
"j@	c #AB805C",
"k@	c #C08356",
"l@	c #C48350",
"m@	c #C5824B",
"n@	c #CB7B46",
"o@	c #C7702A",
"p@	c #C67432",
"q@	c #D28657",
"r@	c #A65F2C",
"s@	c #9F5721",
"t@	c #9F5823",
"u@	c #A45922",
"v@	c #A55821",
"w@	c #954C22",
"x@	c #1A0F07",
"y@	c #410103",
"z@	c #EB2605",
"A@	c #FC3400",
"B@	c #FD3500",
"C@	c #FE3102",
"D@	c #FC2904",
"E@	c #FB1F04",
"F@	c #FB1001",
"G@	c #FD0902",
"H@	c #FE0802",
"I@	c #FE0800",
"J@	c #FF0700",
"K@	c #FF0602",
"L@	c #FF0701",
"M@	c #FD0705",
"N@	c #FB0903",
"O@	c #BB0D0F",
"P@	c #865D0F",
"Q@	c #C3910F",
"R@	c #CD9A10",
"S@	c #B07B10",
"T@	c #8C340D",
"U@	c #EE3E09",
"V@	c #FE5204",
"W@	c #DA6010",
"X@	c #1B0B07",
"Y@	c #C5C4C4",
"Z@	c #C7C7C6",
"`@	c #DFDDDC",
" #	c #FDFCFB",
".#	c #FDFCFA",
"+#	c #FDFBF9",
"@#	c #FDFCF9",
"##	c #FCF8F5",
"$#	c #F3E6DE",
"%#	c #F4EAE2",
"&#	c #FCFAF7",
"*#	c #CDCAC8",
"=#	c #343231",
"-#	c #210302",
";#	c #3F0101",
">#	c #4C0104",
",#	c #710504",
"'#	c #9F0903",
")#	c #D81B05",
"!#	c #FA2B03",
"~#	c #FF3303",
"{#	c #FF2C04",
"]#	c #FD1A01",
"^#	c #FB0E01",
"/#	c #FE0C00",
"(#	c #FF0800",
"_#	c #FF0903",
":#	c #FE0801",
"<#	c #FE0700",
"[#	c #FF0600",
"}#	c #FF0601",
"|#	c #FD0700",
"1#	c #FC0605",
"2#	c #D70E03",
"3#	c #9C6C0E",
"4#	c #F9BF0D",
"5#	c #FFC805",
"6#	c #FDCC02",
"7#	c #FDBB0A",
"8#	c #DD9A13",
"9#	c #A42E05",
"0#	c #FB4903",
"a#	c #F6610C",
"b#	c #702E0E",
"c#	c #908E8D",
"d#	c #A7A4A3",
"e#	c #6A0908",
"f#	c #F01207",
"g#	c #F31C08",
"h#	c #F52104",
"i#	c #FB3204",
"j#	c #FC3502",
"k#	c #FB3401",
"l#	c #FE3301",
"m#	c #FE2401",
"n#	c #FD1000",
"o#	c #FF0B01",
"p#	c #FF0900",
"q#	c #FE0500",
"r#	c #FD0503",
"s#	c #FD0505",
"t#	c #AF080A",
"u#	c #D89F12",
"v#	c #FFCA07",
"w#	c #FFE402",
"x#	c #FEE503",
"y#	c #EDBE0F",
"z#	c #F2B20C",
"A#	c #9F5616",
"B#	c #FC3D09",
"C#	c #FC5601",
"D#	c #B2490A",
"E#	c #44403F",
"F#	c #E7E5E4",
"G#	c #321919",
"H#	c #DA0A07",
"I#	c #FB2504",
"J#	c #FC3602",
"K#	c #FE4802",
"L#	c #FE3402",
"M#	c #FC1E01",
"N#	c #FC0D00",
"O#	c #FF0501",
"P#	c #FF0401",
"Q#	c #FE0402",
"R#	c #FB0701",
"S#	c #BB0804",
"T#	c #D39F15",
"U#	c #FECF05",
"V#	c #FCEC03",
"W#	c #FEEB06",
"X#	c #CCAF0E",
"Y#	c #DA9E14",
"Z#	c #964F15",
"`#	c #F63805",
" $	c #FC5101",
".$	c #CE5B14",
"+$	c #130C0C",
"@$	c #FEFDFC",
"#$	c #888382",
"$$	c #720406",
"%$	c #E60D05",
"&$	c #FE290B",
"*$	c #FB3802",
"=$	c #FA4201",
"-$	c #FE4303",
";$	c #FF3604",
">$	c #FC1B01",
",$	c #FF0A00",
"'$	c #FF0500",
")$	c #FF0301",
"!$	c #FF0300",
"~$	c #FD0401",
"{$	c #FD0306",
"]$	c #EA0807",
"^$	c #A06711",
"/$	c #FBC116",
"($	c #FED203",
"_$	c #FDCF04",
":$	c #FDC20A",
"<$	c #BD8A12",
"[$	c #C41A06",
"}$	c #FD3302",
"|$	c #FD4A02",
"1$	c #E65D14",
"2$	c #120301",
"3$	c #EFEDEC",
"4$	c #D2CFCE",
"5$	c #ADA9A8",
"6$	c #8A8382",
"7$	c #4B3F3E",
"8$	c #0B0102",
"9$	c #750902",
"0$	c #F22C06",
"a$	c #FD3201",
"b$	c #FF3300",
"c$	c #FD2E02",
"d$	c #FC1400",
"e$	c #FE0A01",
"f$	c #FF0201",
"g$	c #FE0102",
"h$	c #FE0202",
"i$	c #FD0301",
"j$	c #FC0500",
"k$	c #D60A09",
"l$	c #894B0D",
"m$	c #B88711",
"n$	c #C99214",
"o$	c #A16C12",
"p$	c #BD1509",
"q$	c #FB1608",
"r$	c #FC3002",
"s$	c #FD4701",
"t$	c #F2610E",
"u$	c #140301",
"v$	c #C7C5C4",
"w$	c #817B79",
"x$	c #3B2525",
"y$	c #590602",
"z$	c #8A1D0A",
"A$	c #B02908",
"B$	c #BE2B0A",
"C$	c #CC2D06",
"D$	c #E5340D",
"E$	c #FD3203",
"F$	c #FE2D01",
"G$	c #FC1600",
"H$	c #FE0401",
"I$	c #FE0201",
"J$	c #FD0201",
"K$	c #FD0502",
"L$	c #FE0504",
"M$	c #F20A05",
"N$	c #E70E09",
"O$	c #E90C0A",
"P$	c #F60F05",
"Q$	c #FD0B02",
"R$	c #FE1601",
"S$	c #FE3001",
"T$	c #FD4800",
"U$	c #F46012",
"V$	c #160301",
"W$	c #C2C0BF",
"X$	c #5A5150",
"Y$	c #780604",
"Z$	c #B60A05",
"`$	c #E21D06",
" %	c #F92D05",
".%	c #FA3605",
"+%	c #FA3901",
"@%	c #FE3E00",
"#%	c #FE4102",
"$%	c #FD4303",
"%%	c #FD4002",
"&%	c #FD3A01",
"*%	c #FF3202",
"=%	c #FE2905",
"-%	c #FB0F00",
";%	c #FE0900",
">%	c #FE0501",
",%	c #FF0400",
"'%	c #F90502",
")%	c #FE0404",
"!%	c #FC0701",
"~%	c #FD0A01",
"{%	c #FF0A01",
"]%	c #FB0D00",
"^%	c #FE1901",
"/%	c #FD4B00",
"(%	c #EC5D12",
"_%	c #160605",
":%	c #EBEAE9",
"<%	c #7D7877",
"[%	c #7C0A09",
"}%	c #D40B07",
"|%	c #F60E04",
"1%	c #FB2C05",
"2%	c #FD3802",
"3%	c #FD3D05",
"4%	c #FE4604",
"5%	c #FD4A03",
"6%	c #FC4C01",
"7%	c #FB4B02",
"8%	c #FD4C01",
"9%	c #FC4B02",
"0%	c #FE4902",
"a%	c #FE4202",
"b%	c #FC3601",
"c%	c #FB3002",
"d%	c #FC1F03",
"e%	c #FD0B01",
"f%	c #FD0500",
"g%	c #F70904",
"h%	c #F80A06",
"i%	c #FE0803",
"j%	c #FD0B03",
"k%	c #FE0D01",
"l%	c #FF1D02",
"m%	c #FE3601",
"n%	c #FE4F00",
"o%	c #DA5811",
"p%	c #252221",
"q%	c #E6E5E4",
"r%	c #60504F",
"s%	c #B50809",
"t%	c #F50605",
"u%	c #FB1902",
"v%	c #FE3701",
"w%	c #FE4803",
"x%	c #FE4703",
"y%	c #FF4801",
"z%	c #FE4901",
"A%	c #FE4B02",
"B%	c #FE4C03",
"C%	c #FF4B01",
"D%	c #FD4A01",
"E%	c #FD4404",
"F%	c #F83200",
"G%	c #FE2B05",
"H%	c #FC0D01",
"I%	c #FD0601",
"J%	c #FC0602",
"K%	c #E90805",
"L%	c #8F0805",
"M%	c #EE0D0D",
"N%	c #FB0C01",
"O%	c #FF1001",
"P%	c #FC2602",
"Q%	c #FD3E01",
"R%	c #FD5403",
"S%	c #BB4F0D",
"T%	c #666363",
"U%	c #F0EFEE",
"V%	c #6B5C5B",
"W%	c #CD0A06",
"X%	c #FC0403",
"Y%	c #F72108",
"Z%	c #FF3002",
"`%	c #FD3206",
" &	c #FD3105",
".&	c #FD3402",
"+&	c #FD3202",
"@&	c #FE3203",
"#&	c #FF3702",
"$&	c #FF3D02",
"%&	c #FE4404",
"&&	c #FC4903",
"*&	c #FD4A04",
"=&	c #FE4304",
"-&	c #FF2E05",
";&	c #FC1001",
">&	c #FE0603",
",&	c #FC0802",
"'&	c #FC0904",
")&	c #AE0C0D",
"!&	c #640404",
"~&	c #DB1009",
"{&	c #FD0A04",
"]&	c #FC1A07",
"^&	c #FF4503",
"/&	c #FA5E08",
"(&	c #853E0B",
"_&	c #AFAEAD",
":&	c #FDFDFC",
"<&	c #8D8888",
"[&	c #C10807",
"}&	c #FB0302",
"|&	c #FC1E07",
"1&	c #FD2202",
"2&	c #FC1302",
"3&	c #F80601",
"4&	c #FC0402",
"5&	c #FA0503",
"6&	c #FB0703",
"7&	c #FD0F02",
"8&	c #FD1D02",
"9&	c #FD2B04",
"0&	c #FD3301",
"a&	c #FF3102",
"b&	c #FD3701",
"c&	c #FD4202",
"d&	c #FC4301",
"e&	c #FE3201",
"f&	c #FE2C01",
"g&	c #FA1100",
"h&	c #FE0B00",
"i&	c #FD0803",
"j&	c #FD0905",
"k&	c #FD0900",
"l&	c #F90B02",
"m&	c #AC0F09",
"n&	c #4B0302",
"o&	c #C11604",
"p&	c #F62905",
"q&	c #FD3B03",
"r&	c #FE5104",
"s&	c #E86514",
"t&	c #3C271D",
"u&	c #E9E8E8",
"v&	c #CECCCB",
"w&	c #881012",
"x&	c #F50503",
"y&	c #EE0908",
"z&	c #C00E08",
"A&	c #9A0708",
"B&	c #8F0806",
"C&	c #920A07",
"D&	c #910C0B",
"E&	c #980A09",
"F&	c #A90908",
"G&	c #B90904",
"H&	c #CD0702",
"I&	c #D90703",
"J&	c #E51507",
"K&	c #EA200A",
"L&	c #F31D09",
"M&	c #FD1704",
"N&	c #FB1F02",
"O&	c #FB2F03",
"P&	c #FE3100",
"Q&	c #FE1F03",
"R&	c #FF1103",
"S&	c #FF0802",
"T&	c #FD0901",
"U&	c #FC0B02",
"V&	c #FB0E00",
"W&	c #FE0C06",
"X&	c #DC1604",
"Y&	c #A71E09",
"Z&	c #D03008",
"`&	c #FE4601",
" *	c #F85F06",
".*	c #AB5215",
"+*	c #9C9B9B",
"@*	c #FFFEFD",
"#*	c #6B6867",
"$*	c #D10807",
"%*	c #5D0304",
"&*	c #343131",
"**	c #8A8988",
"=*	c #B4B3B2",
"-*	c #CDCCCB",
";*	c #D5D3D2",
">*	c #D3D1D0",
",*	c #CAC7C6",
"'*	c #B3B0AF",
")*	c #8F8B8A",
"!*	c #4F4848",
"~*	c #2A0909",
"{*	c #3D0203",
"]*	c #530302",
"^*	c #780405",
"/*	c #CB0807",
"(*	c #F21204",
"_*	c #FF2E07",
":*	c #FB3300",
"<*	c #FF2F03",
"[*	c #FC2502",
"}*	c #FD1300",
"|*	c #FE0C01",
"1*	c #FE0B01",
"2*	c #FD1502",
"3*	c #FB2201",
"4*	c #FA4503",
"5*	c #FD5602",
"6*	c #E26616",
"7*	c #5B4B45",
"8*	c #EEEEED",
"9*	c #421A1A",
"0*	c #DF0A0A",
"a*	c #590203",
"b*	c #9B9998",
"c*	c #F2F1F0",
"d*	c #FAF9F8",
"e*	c #E8E6E5",
"f*	c #C1BFBE",
"g*	c #221D1D",
"h*	c #050102",
"i*	c #190003",
"j*	c #AD1002",
"k*	c #FC2903",
"l*	c #FB3C05",
"m*	c #FD4201",
"n*	c #FE3901",
"o*	c #FD3106",
"p*	c #FD2405",
"q*	c #FE1300",
"r*	c #FE0E01",
"s*	c #FF0C01",
"t*	c #FF0D01",
"u*	c #FF0D00",
"v*	c #FE1301",
"w*	c #FD1C02",
"x*	c #FD2A01",
"y*	c #FD4604",
"z*	c #FB5803",
"A*	c #EF6710",
"B*	c #793F22",
"C*	c #D3D3D2",
"D*	c #E1E0DF",
"E*	c #4C0806",
"F*	c #DE120C",
"G*	c #2D0505",
"H*	c #E8E7E6",
"I*	c #898887",
"J*	c #5F0409",
"K*	c #BD0A07",
"L*	c #D81007",
"M*	c #EE1B0E",
"N*	c #F81E07",
"O*	c #FC2F06",
"P*	c #FD4004",
"Q*	c #FE4402",
"R*	c #FF4702",
"S*	c #FD4304",
"T*	c #FD2B01",
"U*	c #FE2002",
"V*	c #FE1C01",
"W*	c #FE1B01",
"X*	c #FE2001",
"Y*	c #FD2902",
"Z*	c #FD3104",
"`*	c #FD3E03",
" =	c #FB4B01",
".=	c #FB5904",
"+=	c #E86310",
"@=	c #783B1B",
"#=	c #C1C0BF",
"$=	c #EAE9E8",
"%=	c #411818",
"&=	c #D80E0D",
"*=	c #360303",
"==	c #DFDEDD",
"-=	c #B7B6B5",
";=	c #390909",
">=	c #BB0E10",
",=	c #A60E06",
"'=	c #770B03",
")=	c #5D0C04",
"!=	c #630801",
"~=	c #930C02",
"{=	c #CC0C06",
"]=	c #E7190B",
"^=	c #F72003",
"/=	c #FD2A02",
"(=	c #FE3003",
"_=	c #FF3401",
":=	c #FF3402",
"<=	c #FE3302",
"[=	c #FE3A00",
"}=	c #FE4100",
"|=	c #FC5506",
"1=	c #F5600E",
"2=	c #BC5411",
"3=	c #5A4137",
"4=	c #CDCBCA",
"5=	c #7A7776",
"6=	c #B30C0F",
"7=	c #670405",
"8=	c #FBFAF9",
"9=	c #737373",
"0=	c #2A2425",
"a=	c #5D5959",
"b=	c #A3A2A1",
"c=	c #D5D4D3",
"d=	c #DEDDDC",
"e=	c #A6A5A4",
"f=	c #686666",
"g=	c #1E191A",
"h=	c #3A0202",
"i=	c #6E0403",
"j=	c #A10704",
"k=	c #C50804",
"l=	c #D81607",
"m=	c #EB2904",
"n=	c #F44009",
"o=	c #FA4B07",
"p=	c #FC4D03",
"q=	c #FD4D02",
"r=	c #FD5204",
"s=	c #F7580C",
"t=	c #D75B0D",
"u=	c #A34809",
"v=	c #4B2412",
"w=	c #8C8A89",
"x=	c #594344",
"y=	c #5E080E",
"z=	c #565655",
"A=	c #ECEBEA",
"B=	c #CCCAC9",
"C=	c #A9A6A5",
"D=	c #817D7C",
"E=	c #423F3F",
"F=	c #1E0E0F",
"G=	c #410401",
"H=	c #5D1504",
"I=	c #AD340C",
"J=	c #A04111",
"K=	c #7D330B",
"L=	c #491603",
"M=	c #352E2E",
"N=	c #939190",
"O=	c #DDDCDB",
"P=	c #E3E3E2",
"Q=	c #7B7A7A",
"R=	c #E1DFDF",
"S=	c #928C8B",
"T=	c #441C0D",
"U=	c #511B09",
"V=	c #8F1C10",
"W=	c #801D0C",
"X=	c #D3CFCE",
"Y=	c #988C8B",
"Z=	c #610F0B",
"`=	c #600A06",
" -	c #D70A06",
".-	c #B20408",
"+-	c #ABA7A7",
"@-	c #F2EFEE",
"#-	c #6C2220",
"$-	c #600507",
"%-	c #890C0E",
"&-	c #CA0904",
"*-	c #CC0305",
"=-	c #877A79",
"--	c #E8E7E5",
";-	c #621113",
">-	c #8E0505",
",-	c #B40807",
"'-	c #A7070B",
")-	c #D80503",
"!-	c #806161",
"~-	c #898281",
"{-	c #A10708",
"]-	c #CD0303",
"^-	c #950707",
"/-	c #998F8F",
"(-	c #F9F7F6",
"_-	c #E2DFDE",
":-	c #8F8584",
"<-	c #BD0805",
"[-	c #B80302",
"}-	c #480403",
"|-	c #7A7372",
"1-	c #EAE8E7",
"2-	c #805252",
"3-	c #9E0D0D",
"4-	c #B50708",
"5-	c #C20403",
"6-	c #830403",
"7-	c #760607",
"8-	c #6D5656",
"9-	c #C5C0C0",
"0-	c #BD070D",
"a-	c #C50403",
"b-	c #C4020B",
"c-	c #A40306",
"d-	c #450204",
"e-	c #A60708",
"f-	c #6B0A0D",
"g-	c #ECEAE9",
"h-	c #D9D5D6",
"i-	c #8F3638",
"j-	c #882426",
"k-	c #804546",
"l-	c #7D5C5E",
"m-	c #321F1D",
"n-	c #A90505",
"o-	c #720C0D",
"p-	c #E8E6E6",
"q-	c #EBE8E9",
"r-	c #EBE8E8",
"s-	c #F6F4F4",
"t-	c #F8F7F7",
"u-	c #857B7C",
"v-	c #AC0604",
"w-	c #672B2F",
"x-	c #C5C2C1",
"y-	c #681A1A",
"z-	c #9A9193",
"                                      . + @ # $ % & * = - ; > , ' ) ! ~ { ] ^                       ",
"                                  / ( _ : < [ } | 1 2 3 4 5 6 7 8 9 0 a b c d e f g h               ",
"                              . i j k l m n o p q r s q t u v w x y z A B C D E F G H I             ",
"                          J K L M N O P Q R S T U V W X Y Z `  ...+.@.#.$.%.&.*.=.-.;.>.,.'.        ",
"                      ).K !.~.{.].^./.(._.:.<.[.}.|.1.2.3.4.5.6.7.8.9.0.a.b.c.d.e.f.g.h.i.j.k.      ",
"                  ^ l.m.n.o.p.q.r.s.t.u.v.w.x.y.z.A.B.C.D.E.F.G.H.I.J.K.L.M.N.O.P.Q.R.S.T.U.V.W.    ",
"            X.Y.Z.`. +.+++@+#+$+%+&+*+=+-+;+>+,+'+)+!+~+{+]+^+/+(+_+:+<+[+}+|+1+2+3+4+5+6+7+8+9+h   ",
"  h / 0+a+b+c+d+e+f+g+h+i+j+k+l+m+n+o+p+q+r+s+t+u+v+w+x+y+z+A+B+C+D+E+F+G+H+I+J+K+L+M+N+O+P+Q+R+S+  ",
"T+U+V+W+X+Y+Z+`+ @.@+@@@#@$@%@&@*@=@-@;@>@,@'@)@!@~@{@]@^@/@(@_@:@:@<@[@[@}@|@1@2@3@4@5@6@7@8@9@0@a@",
"b@c@d@e@f@g@h@i@j@k@l@m@n@o@p@q@r@s@t@u@v@w@x@y@z@A@B@C@D@E@F@G@H@I@J@K@L@M@N@O@P@Q@R@S@T@U@V@W@X@b@",
"  ^ 0+Y@Z@`@]  #.#+#@#@###$#%#&#*#=#-#;#>#,#'#)#!#~#{#]#^#/#(#_#:#<#[#}#|#1#2#3#4#5#6#7#8#9#0#a#b#c#",
"                                  d#e#f#g#h#i#j#k#l#m#n#o#:@p#L@[#q#q#q#r#s#t#u#v#w#x#y#z#A#B#C#D#E#",
"                                  F#G#H#I#J#O+K#x+L#M#N#o#p#J@[#q#O#P#P#Q#R#S#T#U#V#W#X#Y#Z#`# $.$+$",
"                                  @$#$$$%$&$*$=$-$;$>$/#,$(#J@[#'$)$!$!$~${$]$^$/$($_$:$<$[$}$|$1$2$",
"                          h 3$4$5$6$7$8$9$0$a$b$l#c$d$o#e$(#J@}#P#)$f$g$h$i$j$k$l$m$n$o$p$q$r$s$t$u$",
"                      W.v$w$x$y$z$A$B$C$D$E$b$b$}$F$G$,$<@(#J@q#H$!$I$I$g$J$K$L$M$N$O$P$Q$R$S$T$U$V$",
"                  a@W$X$Y$Z$`$ %.%{@+%@%#%$%%%&%A@*%=%-%;%p#J@}#>%,%!$I$I$'%)%!%|#q#~%{%]%^%~@/%(%_%",
"                :%<%[%}%|%1%}$2%3%4%5%6%7%8%9%0%a%b%c%d%e%<@L@}#O#'$,%!$~$q#f%g%h%i%j%p#k%l%m%n%o%p%",
"              q%r%s%t%u%S$v%-$w%x%y%z%A%B%C%z%D%9%E%F%G%H%{%(#<#I%>%>%>%>%J%J@K%L%M%e$N%O%P%Q%R%S%T%",
"            U%V%W%X%Y%Z%`% &.&+&@&L##&$&%&&&*&0%0%=&^@-&;&,$p#[@<#}#}#q#[#>&,&'&)&!&~&{&]&S$^&/&(&_&",
"          :&<&[&}&|&1&2&3&4&5&6&7&8&9&0&a$a&b&c&d&b&e&f&g&h&:@p#<@[@L@<#J@i&j&k&l&m&n&o&p&q&r&s&t&u&",
"          v&w&x&y&z&A&B&C&D&E&F&G&H&I&J&K&L&M&N&O&l#e&P&Q&R&h&{%{%<@(#(#S&T&U&e%V&W&X&Y&Z&`& *.*+*@*",
"        :&#*$*k$%*&***=*-*;*>*,*'*)*!*~*{*]*^*/*(*_*:*{@<*[*}*/#/#o#:@:@e%|*/#o#1*2*3*b$4*5*6*7*8*  ",
"        :%9*0*a*b*c*                d*e*f*g*h*i*j*k*l*c&m*n*o*p*q*r*|*o#s*t*u*v*w*x*A+y*z*A*B*C*    ",
"        D*E*F*G*H*                    ^ I*J*K*L*M*N*O*P*Q*R*S*2%T*U*V*^%^%W*X*Y*Z*`* =.=+=@=#=      ",
"        $=%=&=*===                    -=;=>=,='=)=!=~={=]=^=/=(=*%_=:=<=^@m%[=}=D%|=1=2=3=4=h       ",
"        :&5=6=7=_&                  8=9=0=a=b=c=d=e=f=g=h=i=j=k=l=m=n=o=p=q=r=s=t=u=v=w=$=          ",
"          q%x=y=z=X.                  ] k.:&        h A=B=C=D=E=F=h=G=H=I=J=K=L=M=N=O=h             ",
"            P=I*Q=a@                                          8=$=R=v$S=T=U=V=W=X=                  ",
"                @$                                                  h Y=Z=`= -.-+-                  ",
"                                                                    @-#-$-%-&-*-=-                  ",
"                                                                    --;->-,-'-)-!-h                 ",
"                                                                    a@~-{-]-!&^-/-                  ",
"                                                                  (-_-:-<-[-}-|-.                   ",
"                                                                1-2-3-4-5-6-7-8-8=                  ",
"                                                                9-0-a-b-c-d-e-f-g-                  ",
"                                                                h-i-j-k-l-m-n-o-p-                  ",
"                                                                h q-r-s-t-u-v-w-k.                  ",
"                                                                          x-y-z-h                   "};
