/* XPM */
static char * running_left_girl_xpm[] = {
"50 40 791 2",
"  	c #FFFFFE",
". 	c #F3F3F2",
"+ 	c #D0D0D0",
"@ 	c #C7C7C6",
"# 	c #C4C4C3",
"$ 	c #BDBDBC",
"% 	c #B9B8B7",
"& 	c #AFAEAE",
"* 	c #E0E0DF",
"= 	c #FEFEFD",
"- 	c #FCFCFA",
"; 	c #FCFCFB",
"> 	c #FDFDFC",
", 	c #EAEAE9",
"' 	c #ABABAA",
") 	c #545B5D",
"! 	c #146D94",
"~ 	c #0D85BA",
"{ 	c #0A8EC0",
"] 	c #098EC2",
"^ 	c #3492C2",
"/ 	c #6AA6B9",
"( 	c #598899",
"_ 	c #375460",
": 	c #7B7B7B",
"< 	c #D7D7D7",
"[ 	c #D4D3D0",
"} 	c #A5A29F",
"| 	c #7B837F",
"1 	c #728B8D",
"2 	c #7598A0",
"3 	c #789DAB",
"4 	c #8CABB5",
"5 	c #AABBBE",
"6 	c #C9CCCA",
"7 	c #E3E2E0",
"8 	c #E5E4E2",
"9 	c #DBDCDA",
"0 	c #DDDDDB",
"a 	c #E8E8E7",
"b 	c #F7F7F6",
"c 	c #F8F9F8",
"d 	c #F3F4F3",
"e 	c #E6E6E5",
"f 	c #DCDCDC",
"g 	c #D3D3D2",
"h 	c #B3B2B2",
"i 	c #7F7F7F",
"j 	c #2E4248",
"k 	c #6296A7",
"l 	c #81D0EC",
"m 	c #21B9F8",
"n 	c #01B2FE",
"o 	c #02B2FD",
"p 	c #0EB1F6",
"q 	c #77D8FC",
"r 	c #88DBFB",
"s 	c #8CDAFC",
"t 	c #8FDBFA",
"u 	c #5AB8D8",
"v 	c #136992",
"w 	c #66686A",
"x 	c #D7D7D6",
"y 	c #A8A8A4",
"z 	c #CCCCC9",
"A 	c #F8F8F7",
"B 	c #9B9A95",
"C 	c #586C6B",
"D 	c #87B5C2",
"E 	c #5AC5E7",
"F 	c #44C6FB",
"G 	c #42C7FE",
"H 	c #42C8FE",
"I 	c #45C6FD",
"J 	c #4BC3F7",
"K 	c #73C9E1",
"L 	c #5A9AAE",
"M 	c #395C62",
"N 	c #3D6974",
"O 	c #3F90AC",
"P 	c #378DB0",
"Q 	c #3A87A5",
"R 	c #3984A3",
"S 	c #317FA0",
"T 	c #267A9D",
"U 	c #23769D",
"V 	c #1E78A3",
"W 	c #3E8DAF",
"X 	c #74B6CA",
"Y 	c #80C5DE",
"Z 	c #91D6F8",
"` 	c #8FDAFE",
" .	c #7BDAFE",
"..	c #12B5F7",
"+.	c #02B3FC",
"@.	c #02B2FE",
"#.	c #0AB0FB",
"$.	c #68D5FD",
"%.	c #89DAFC",
"&.	c #8ADCFF",
"*.	c #8BDBFE",
"=.	c #85DAFB",
"-.	c #2FB9F8",
";.	c #0F99D2",
">.	c #24455D",
",.	c #D8D8D7",
"'.	c #F9F9F8",
").	c #8B8B86",
"!.	c #3688A6",
"~.	c #3E86A3",
"{.	c #838581",
"].	c #6C6A65",
"^.	c #65969F",
"/.	c #A0E0F8",
"(.	c #A0E4FC",
"_.	c #6AD1FA",
":.	c #34C2FE",
"<.	c #33C3FF",
"[.	c #36C2FE",
"}.	c #35C3FE",
"|.	c #43C1FA",
"1.	c #9AE4FD",
"2.	c #93E0FD",
"3.	c #68C7EF",
"4.	c #33A3D5",
"5.	c #2C84A4",
"6.	c #2CAEDF",
"7.	c #22BDFE",
"8.	c #1BBAFE",
"9.	c #16BAFE",
"0.	c #10B9FD",
"a.	c #11B5FC",
"b.	c #0AB7FC",
"c.	c #4AC4F7",
"d.	c #8DDEFC",
"e.	c #89DDFC",
"f.	c #88DBFC",
"g.	c #81DCFE",
"h.	c #48C5F6",
"i.	c #03B0FE",
"j.	c #02B3FB",
"k.	c #01B4FD",
"l.	c #01B3FD",
"m.	c #08B2FA",
"n.	c #61C7F8",
"o.	c #89DBFA",
"p.	c #87DCFE",
"q.	c #46C5FC",
"r.	c #0EA5E4",
"s.	c #4D6172",
"t.	c #999794",
"u.	c #22515A",
"v.	c #2EBEF8",
"w.	c #59CAF9",
"x.	c #7EA8BC",
"y.	c #21271F",
"z.	c #91CDE1",
"A.	c #9AE3FE",
"B.	c #9DE1FE",
"C.	c #4AC4FB",
"D.	c #28BFFE",
"E.	c #27C0FF",
"F.	c #27BFFC",
"G.	c #2EBEFB",
"H.	c #8ADBFC",
"I.	c #9BE0FE",
"J.	c #94E3FD",
"K.	c #80D6FD",
"L.	c #34BAF7",
"M.	c #2290B8",
"N.	c #2398CB",
"O.	c #17B9FD",
"P.	c #13B8FB",
"Q.	c #0CB6FE",
"R.	c #09B6FF",
"S.	c #06B6FE",
"T.	c #29B7F8",
"U.	c #83DCFD",
"V.	c #89DBFF",
"W.	c #89DCFE",
"X.	c #06B0F9",
"Y.	c #00B3FE",
"Z.	c #00B3FD",
"`.	c #02B3FE",
" +	c #1CB7F6",
".+	c #75DBFC",
"++	c #89DBFD",
"@+	c #7FD9FD",
"#+	c #16B5F9",
"$+	c #01B2F8",
"%+	c #04B4FA",
"&+	c #1C92C8",
"*+	c #444546",
"=+	c #B4B4B2",
"-+	c #1C2018",
";+	c #248CBC",
">+	c #1FBAFE",
",+	c #5BC8FC",
"'+	c #86C1D1",
")+	c #171B14",
"!+	c #8ED0E2",
"~+	c #98DEFE",
"{+	c #82D9FA",
"]+	c #1EBBFD",
"^+	c #1DBBFE",
"/+	c #1EBBFE",
"(+	c #18BBFE",
"_+	c #5DCBF9",
":+	c #93E0FF",
"<+	c #95E0FE",
"[+	c #93E0FC",
"}+	c #6FD3F8",
"|+	c #1EA6E8",
"1+	c #082B38",
"2+	c #1C89B9",
"3+	c #14B5F9",
"4+	c #07B6FB",
"5+	c #07B4FC",
"6+	c #09B2FD",
"7+	c #07B2FA",
"8+	c #79D7FE",
"9+	c #89DCFD",
"0+	c #8CDAFE",
"a+	c #85DDFE",
"b+	c #2DB7F9",
"c+	c #02B3FD",
"d+	c #4BC0F9",
"e+	c #81DFFC",
"f+	c #89DDFD",
"g+	c #8CD9FE",
"h+	c #6FD1FA",
"i+	c #18A4E7",
"j+	c #1C83A6",
"k+	c #1C576F",
"l+	c #8C8C8C",
"m+	c #DADAD9",
"n+	c #262A24",
"o+	c #16536D",
"p+	c #1CB4F5",
"q+	c #15B7FE",
"r+	c #4BC5FC",
"s+	c #6EA6B4",
"t+	c #0E0F0D",
"u+	c #86C7D8",
"v+	c #8CDFFE",
"w+	c #45C1F8",
"x+	c #13B9FB",
"y+	c #12B9FF",
"z+	c #13B9FF",
"A+	c #13B8FE",
"B+	c #0FBAFE",
"C+	c #50C4F5",
"D+	c #8FDFFE",
"E+	c #8FDEFF",
"F+	c #90DDFE",
"G+	c #80DEFD",
"H+	c #17B6F9",
"I+	c #298EBF",
"J+	c #35535F",
"K+	c #0B4F6F",
"L+	c #149DDA",
"M+	c #06B4FC",
"N+	c #05B3FB",
"O+	c #03B5F8",
"P+	c #6ED1FB",
"Q+	c #88DCFD",
"R+	c #8DDAFE",
"S+	c #36BDFC",
"T+	c #00B4FF",
"U+	c #00B5FB",
"V+	c #27B9F7",
"W+	c #85DBFE",
"X+	c #8BDBFB",
"Y+	c #69B2C9",
"Z+	c #20414C",
"`+	c #A1A09F",
" @	c #E9E9E8",
".@	c #515150",
"+@	c #2F4652",
"@@	c #6DC8E3",
"#@	c #1BB8F9",
"$@	c #0CB5FE",
"%@	c #1FB6F2",
"&@	c #355B70",
"*@	c #090B0B",
"=@	c #58A4C4",
"-@	c #4BC5F3",
";@	c #0CB5FC",
">@	c #07B8FE",
",@	c #0AB7FE",
"'@	c #0BB5FD",
")@	c #0BB4FA",
"!@	c #20B6F8",
"~@	c #7EDAFE",
"{@	c #8FDDFE",
"]@	c #8DDCFD",
"^@	c #8BDFFD",
"/@	c #6DD1FB",
"(@	c #05B6FE",
"_@	c #3A9FCD",
":@	c #061318",
"<@	c #021222",
"[@	c #1582B0",
"}@	c #05B2FD",
"|@	c #36BAF8",
"1@	c #81DBFE",
"2@	c #88DBFD",
"3@	c #78D8FD",
"4@	c #06B1FC",
"5@	c #02B1FD",
"6@	c #4DC7F6",
"7@	c #73CEEF",
"8@	c #568395",
"9@	c #6C6C6C",
"0@	c #E2E2E1",
"a@	c #494949",
"b@	c #3D5960",
"c@	c #85CFE8",
"d@	c #2CBEF9",
"e@	c #1394CA",
"f@	c #050B15",
"g@	c #050607",
"h@	c #0D6288",
"i@	c #08B4F7",
"j@	c #05B4FE",
"k@	c #08B2FE",
"l@	c #03B5FB",
"m@	c #11B4FA",
"n@	c #5ACAF8",
"o@	c #73D6FC",
"p@	c #79D9FC",
"q@	c #8BDCFD",
"r@	c #8BDCFE",
"s@	c #51C6F8",
"t@	c #04B3FE",
"u@	c #04B4FD",
"v@	c #0BB3FB",
"w@	c #176588",
"x@	c #343436",
"y@	c #0B1C23",
"z@	c #1F8BBA",
"A@	c #7CD8FA",
"B@	c #8ADCFD",
"C@	c #8ADCFB",
"D@	c #8AD9FD",
"E@	c #67CEFA",
"F@	c #00B4FA",
"G@	c #01B3FE",
"H@	c #03B2FE",
"I@	c #02B4FD",
"J@	c #0BAAEA",
"K@	c #0F536A",
"L@	c #90908F",
"M@	c #F7F6F6",
"N@	c #161716",
"O@	c #273A3F",
"P@	c #6CB6CD",
"Q@	c #4BBBEB",
"R@	c #11AEEB",
"S@	c #0F92CA",
"T@	c #022A41",
"U@	c #106F99",
"V@	c #128CBB",
"W@	c #011825",
"X@	c #09A1DB",
"Y@	c #04B2FE",
"Z@	c #04B0FF",
"`@	c #5ACAFA",
" #	c #88DEFA",
".#	c #8BDAFF",
"+#	c #88DCFF",
"@#	c #8CD9FD",
"##	c #89DCFB",
"$#	c #87DCFA",
"%#	c #88DCFC",
"&#	c #56CBFC",
"*#	c #00B4FE",
"=#	c #0D9AD4",
"-#	c #3A3C3F",
";#	c #949494",
">#	c #051218",
",#	c #6FADBE",
"'#	c #87DDFD",
")#	c #8BDCFC",
"!#	c #7CDCFE",
"~#	c #2BBBF5",
"{#	c #01B1FE",
"]#	c #01B4FE",
"^#	c #17ACE7",
"/#	c #0F516B",
"(#	c #9E9D9D",
"_#	c #797878",
":#	c #010B14",
"<#	c #012239",
"[#	c #02253C",
"}#	c #02394E",
"|#	c #0886B7",
"1#	c #06B1FA",
"2#	c #07B3FA",
"3#	c #096D98",
"4#	c #084F67",
"5#	c #0BADEC",
"6#	c #03B3FA",
"7#	c #04B3F9",
"8#	c #71D8FD",
"9#	c #8BDBFC",
"0#	c #85DCFF",
"a#	c #4DC7F7",
"b#	c #15B4FA",
"c#	c #00B4FB",
"d#	c #01B4FA",
"e#	c #06B3F6",
"f#	c #043F57",
"g#	c #C0C0BF",
"h#	c #9B9B9B",
"i#	c #0D1720",
"j#	c #66B1CD",
"k#	c #5BC9F9",
"l#	c #24B7F8",
"m#	c #04B3F7",
"n#	c #03B1FE",
"o#	c #03B2FB",
"p#	c #29A5E2",
"q#	c #1E5369",
"r#	c #949493",
"s#	c #FBFBFA",
"t#	c #B0B0AF",
"u#	c #1180AD",
"v#	c #0BA5E5",
"w#	c #0DA8E8",
"x#	c #0DAFF4",
"y#	c #0CA7E9",
"z#	c #0CA9EB",
"A#	c #03B3FC",
"B#	c #0DACF2",
"C#	c #075170",
"D#	c #065272",
"E#	c #0FA5E8",
"F#	c #12B2F7",
"G#	c #82DAFD",
"H#	c #8CDAFB",
"I#	c #8BDBFD",
"J#	c #7EDBFD",
"K#	c #31B9F6",
"L#	c #05B2FB",
"M#	c #01B5F9",
"N#	c #01B2FB",
"O#	c #02B2FC",
"P#	c #13769F",
"Q#	c #8E8E8D",
"R#	c #959595",
"S#	c #042133",
"T#	c #0D89BE",
"U#	c #09B1F8",
"V#	c #01B4FB",
"W#	c #01B6FB",
"X#	c #04B1FC",
"Y#	c #12B3F5",
"Z#	c #2F93B7",
"`#	c #1E3D48",
" $	c #9D9D9C",
".$	c #919191",
"+$	c #0CA3E3",
"@$	c #03B4FB",
"#$	c #0AA9EC",
"$$	c #276979",
"%$	c #5DBEC2",
"&$	c #54B5B2",
"*$	c #1F6F88",
"=$	c #07A8E8",
"-$	c #0CA9EF",
";$	c #065E81",
">$	c #04293F",
",$	c #177EA6",
"'$	c #83D2EF",
")$	c #89DFFE",
"!$	c #8DDAFD",
"~$	c #88DCFE",
"{$	c #7DD8FD",
"]$	c #10B4F9",
"^$	c #01B1FD",
"/$	c #2EBBF7",
"($	c #71D5FB",
"_$	c #6EADC9",
":$	c #4A4A4A",
"<$	c #ADAEAD",
"[$	c #1A1C1E",
"}$	c #0A5271",
"|$	c #1096CF",
"1$	c #0EA0DE",
"2$	c #168CBC",
"3$	c #326881",
"4$	c #4B4D4E",
"5$	c #CACAC9",
"6$	c #666E77",
"7$	c #0CB1F6",
"8$	c #02B3F8",
"9$	c #1495CC",
"0$	c #57B9BA",
"a$	c #68FEFF",
"b$	c #68FDFC",
"c$	c #6AE5E7",
"d$	c #216C89",
"e$	c #07B3F6",
"f$	c #07B0F7",
"g$	c #0987B8",
"h$	c #06334B",
"i$	c #121F29",
"j$	c #49707B",
"k$	c #6A9CB2",
"l$	c #79C1DC",
"m$	c #89DDF9",
"n$	c #34BEF5",
"o$	c #01B3FC",
"p$	c #00B5FE",
"q$	c #0AB3FA",
"r$	c #76D5FC",
"s$	c #7DC3DF",
"t$	c #090A0C",
"u$	c #E7E7E6",
"v$	c #E0E0E0",
"w$	c #8F9090",
"x$	c #5A5B5B",
"y$	c #5A5A5B",
"z$	c #F5F5F4",
"A$	c #405B71",
"B$	c #06B2F9",
"C$	c #01B2FC",
"D$	c #37A3D0",
"E$	c #64D4D1",
"F$	c #63DFDD",
"G$	c #69FEFF",
"H$	c #67FEFE",
"I$	c #50B2B3",
"J$	c #0A9DDB",
"K$	c #01B3FB",
"L$	c #06B1ED",
"M$	c #0A8CC5",
"N$	c #075B7A",
"O$	c #011A2C",
"P$	c #02060C",
"Q$	c #21363E",
"R$	c #166181",
"S$	c #0880B3",
"T$	c #0C9AD5",
"U$	c #09ACF2",
"V$	c #0CB0FA",
"W$	c #27B5F9",
"X$	c #84DDFF",
"Y$	c #89DAFE",
"Z$	c #62C1DF",
"`$	c #010811",
" %	c #D5D5D4",
".%	c #375B71",
"+%	c #08B3F6",
"@%	c #33A9E3",
"#%	c #4F9098",
"$%	c #113D3A",
"%%	c #6CF8F7",
"&%	c #5DC5CE",
"*%	c #0998D1",
"=%	c #03B2FC",
"-%	c #0DABEF",
";%	c #0F91C8",
">%	c #0A78A3",
",%	c #0B5475",
"'%	c #032E45",
")%	c #031B2C",
"!%	c #012335",
"~%	c #09485F",
"{%	c #3C7E95",
"]%	c #6EA7BA",
"^%	c #83C8E1",
"/%	c #60BDDB",
"(%	c #010911",
"_%	c #C0C0C0",
":%	c #3D5165",
"<%	c #0FAEF8",
"[%	c #0BB0F1",
"}%	c #57ADAC",
"|%	c #67DCDB",
"1%	c #60DBDA",
"2%	c #40ACC6",
"3%	c #09A5DE",
"4%	c #03B5FA",
"5%	c #01B5FB",
"6%	c #02B1FF",
"7%	c #06B4F9",
"8%	c #08AFF3",
"9%	c #10A8E9",
"0%	c #0B9BDA",
"a%	c #0F88B7",
"b%	c #0F5672",
"c%	c #030307",
"d%	c #0A121A",
"e%	c #000307",
"f%	c #ADADAC",
"g%	c #66686D",
"h%	c #0DABEE",
"i%	c #01B4FC",
"j%	c #03B2FD",
"k%	c #1986B8",
"l%	c #1989AE",
"m%	c #0BA1E1",
"n%	c #01B3FF",
"o%	c #00B2FE",
"p%	c #02B4FC",
"q%	c #108DC0",
"r%	c #3E3F3E",
"s%	c #B1B1B1",
"t%	c #3A3A3A",
"u%	c #969695",
"v%	c #989898",
"w%	c #0B94CE",
"x%	c #04B1FE",
"y%	c #00B3FC",
"z%	c #00B4FD",
"A%	c #01B2FD",
"B%	c #03B4FA",
"C%	c #0A6689",
"D%	c #EEEEED",
"E%	c #C9C9C8",
"F%	c #106A98",
"G%	c #04B3FD",
"H%	c #03B3FD",
"I%	c #0DA7E8",
"J%	c #142632",
"K%	c #DDDDDC",
"L%	c #3D444D",
"M%	c #13A8E6",
"N%	c #02B4FA",
"O%	c #0E8AC3",
"P%	c #05B0F9",
"Q%	c #11B2FB",
"R%	c #09B2FC",
"S%	c #04B1FB",
"T%	c #0F719D",
"U%	c #AFAFAF",
"V%	c #0C729C",
"W%	c #05B0FB",
"X%	c #03B1FD",
"Y%	c #0E9BD8",
"Z%	c #0C76A2",
"`%	c #03B3FB",
" &	c #04B0FB",
".&	c #5FD5FB",
"+&	c #41C5FB",
"@&	c #0F9BD4",
"#&	c #53575A",
"$&	c #55575B",
"%&	c #0F96C9",
"&&	c #08B0F4",
"*&	c #0B8DC2",
"=&	c #0E5D79",
"-&	c #1BB0F0",
";&	c #17B4F9",
">&	c #2EBCFB",
",&	c #1AB4FB",
"'&	c #11A5E6",
")&	c #2D4758",
"!&	c #DFDFDE",
"~&	c #1F2A34",
"{&	c #1199D0",
"]&	c #0C9DDC",
"^&	c #0D73A5",
"/&	c #03374E",
"(&	c #0E75A2",
"_&	c #53C4EF",
":&	c #6ED6FD",
"<&	c #70D6FD",
"[&	c #3EC1F9",
"}&	c #02B4FE",
"|&	c #0FA3E3",
"1&	c #2E4E65",
"2&	c #D2D2D1",
"3&	c #BDBDBD",
"4&	c #062637",
"5&	c #157B99",
"6&	c #0E94C9",
"7&	c #07AAEC",
"8&	c #0CB1F8",
"9&	c #66D7FE",
"0&	c #74D4FB",
"a&	c #7AD2FA",
"b&	c #62D1FC",
"c&	c #06B2FA",
"d&	c #00B5FD",
"e&	c #01B2FF",
"f&	c #04B4F3",
"g&	c #0D93C9",
"h&	c #515E69",
"i&	c #DCDCDB",
"j&	c #C2C2C2",
"k&	c #31343B",
"l&	c #147AA7",
"m&	c #14ADF0",
"n&	c #62D1FE",
"o&	c #6FD5FE",
"p&	c #70D5FD",
"q&	c #52CDFB",
"r&	c #07B2FC",
"s&	c #0F9FDF",
"t&	c #24678D",
"u&	c #9FA0A0",
"v&	c #EBEBEA",
"w&	c #929291",
"x&	c #204156",
"y&	c #2485B1",
"z&	c #34A9DD",
"A&	c #54C3ED",
"B&	c #49C5F3",
"C&	c #13B1F8",
"D&	c #06B3F8",
"E&	c #0BA8EA",
"F&	c #1190C8",
"G&	c #406F8F",
"H&	c #A0A1A2",
"I&	c #B7B6B6",
"J&	c #46484A",
"K&	c #1B536B",
"L&	c #1A5B75",
"M&	c #527184",
"N&	c #8896A1",
"O&	c #AEB0B2",
"P&	c #D6D6D6",
"Q&	c #F7F7F7",
"R&	c #F0F0EF",
"S&	c #2C5A7A",
"T&	c #109FD9",
"U&	c #16708C",
"V&	c #939495",
"W&	c #C5C5C5",
"X&	c #0D7DB4",
"Y&	c #0AADE8",
"Z&	c #06475A",
"`&	c #1E485F",
" *	c #0E94D4",
".*	c #0EA7DC",
"+*	c #19596F",
"@*	c #12597C",
"#*	c #8F9296",
"$*	c #5C6D7F",
"%*	c #07A0DD",
"&*	c #0B95C0",
"**	c #1490BC",
"=*	c #0B5570",
"-*	c #3D6071",
";*	c #5E6F7A",
">*	c #199CCB",
",*	c #0D5C7B",
"'*	c #0BA1DD",
")*	c #106C8E",
"!*	c #757A7C",
"~*	c #DCDBDB",
"{*	c #5D5D5F",
"]*	c #0E5680",
"^*	c #0498DB",
"/*	c #137DAB",
"(*	c #D6D5D5",
"_*	c #6A737A",
":*	c #0B4A6E",
"<*	c #077FAD",
"[*	c #0A99D1",
"}*	c #38739D",
"|*	c #738996",
"1*	c #BFC0C0",
"2*	c #155474",
"3*	c #0E79AD",
"4*	c #0A5276",
"5*	c #0291C3",
"6*	c #079CDF",
"7*	c #07A4E4",
"8*	c #277798",
"9*	c #EFF0EF",
"0*	c #E4E4E4",
"a*	c #0A6189",
"b*	c #0B83B8",
"c*	c #393F4C",
"d*	c #7C9CB6",
"e*	c #3C84B3",
"f*	c #2387BB",
"g*	c #88AABC",
"h*	c #F2F2F1",
"i*	c #215679",
"j*	c #0A85BE",
"k*	c #B0B2B3",
"l*	c #F9FAF9",
"m*	c #F2F4F4",
"n*	c #8E9499",
"o*	c #1F6483",
"p*	c #DDDDDD",
"                                                                      . + @ # $ % & @ * =           ",
"                        = - ; >                                   , ' ) ! ~ { ] ^ / ( _ : < >       ",
"                  > [ } | 1 2 3 4 5 6 7 8 9 0 a b c d e * f g h i j k l m n o p q r s t u v w x     ",
"        b y z = A B C D E F G H I J K L M N O P Q R S T U V W X Y Z `  ...+.@.#.$.%.&.*.=.-.;.>.,.  ",
"      '.).!.~.{.].^./.(._.:.<.[.}.|.1.2.3.4.5.6.7.8.9.0.a.b.c.d.e.f.g.h.i.j.k.l.m.n.o.p.e.q.+.r.s.* ",
"    ; t.u.v.w.x.y.z.A.B.C.D.E.E.F.G.H.I.J.K.L.M.N.O.P.Q.R.S.T.U.V.W.q X.Y.l.Z.`. +.+++*.@+#+$+%+&+*+",
"    =+-+;+>+,+'+)+!+~+{+]+^+^+^+/+(+_+:+<+[+}+|+1+2+3+4+5+6+7+8+9+0+a+b+Y.Y.Y.c+d+e+f+g+h+i+j+k+w l+",
"  m+n+o+p+q+r+s+t+u+v+w+x+y+z+z+A+B+C+D+E+F+G+H+I+J+K+L+M+N+O+P+Q+R+a+S+T+Y.Y.U+V+W+++X+Y+Z+`+ @=   ",
" @.@+@@@#@$@%@&@*@=@-@;@>@,@R.'@)@!@~@{@]@^@/@(@5+_@:@<@[@}@|@1@V.2@3@4@Y.Z.Y.@.5@6@7@8@9@0@        ",
"a@b@c@9+d@M+e@f@g@h@i@j@k@l@m@n@o@p@q@r@W.r@s@t@u@v@w@x@y@z@A@B@C@D@E@F@G@l.n H@I@J@K@L@M@          ",
"N@O@P@Q@R@S@T@U@V@W@X@Y@Z@l.`@ #.#+#@###$#%#&#@.*#c+=#-#;#>#,#'#)#!#~#{#]#]#o +.^#/#(#;             ",
"x _#:#<#[#}#|#1#2#3#4#5#6#7#8#+#.#'#9#0#/@a#b#c#d#}@e#f#g#h#i#j#k#l#H@c+m#n#o#p#q#r#s#              ",
"  t#u#v#w#x#y#z#A#B#C#D#E#F#G#p.H#I#J#K#L#M#N#]#]#H@O#P#Q#s#R#S#T#U#V#W#X#Y#Z#`# $s#                ",
"  .$+$@$#$$$%$&$*$=$-$;$>$,$'$)$!$~${$]$^$o n V#N#/$($_$:$; ; <$[$}$|$1$2$3$4$5$=                   ",
"= 6$7$8$9$0$a$b$c$d$e$f$g$h$i$j$k$l$m$n$+.o#o$p$q$r$Q+s$t$u$    v$w$x$y$i g#z$                      ",
"> A$B$C$D$E$F$G$H$I$J$K$@.L$M$N$O$P$Q$R$S$T$U$V$W$X$Y$Z$`$ %        = =                             ",
"; .%+%k.@%#%$%%%b$&%*%*#o A#c+=%-%;%>%,%'%)%!%~%{%]%^%/%(%_%                                        ",
"; :%<%k.[%}%|%1%2%3%4%l.o Y.Y.Y.5%]#6%X#7%8%9%0%a%b%c%d%e%f%                                        ",
"= g%h%i%j%k%l%m%j.@.k.k.n Y.Y.Y.*#n%@.i%Z.o%k.p%{#q%r%s%t%u%                                        ",
"  v%w%j%A#+.@$x%j.+.i%G@y%Y.Y.Y.@.l.z%A%Z.Z.n @.B%C%Q#  D%@                                         ",
"  E%F%G%I@]#z%Y.z%i%j%H%U+Y.Y.Y.c#y%l.Y.n n#U+U+I%J%K%                                              ",
"  z$L%M%l.Y.Y.Y.Z.K$N%O%P%Y.Y.Y.n Q%R%l.d#c+V#S%T%v%                                                ",
"    U%V%W%Y.Y.Y.Z.X%Y%Z%`%Y.Y.Y. &.&+&Y.`.`.l.@&#&.                                                 ",
"    z$$&%&o$Y.l.&&*&=&-&;&l.Y.Y.A%>&,&]#U+o '&)&!&                                                  ",
"      ,.~&{&]&^&/&(&_&:&<&[&}&*#o#j%l.*#A#|&1&2&                                                    ",
"        3&4&5&6&7&8&9&0&a&b&c&o$d&e&{#f&g&h&i&                                                      ",
"        = j&k&l&m&f$n&o&p&q&`%o$o$r&s&t&u&.                                                         ",
"            v&w&x&y&z&A&B&C&D&E&F&G&H&u$                                                            ",
"                , I&J&K&L&M&N&O&P&Q&                                                                ",
"                  R&S&T&U&V&=                                                                       ",
"                  W&X&Y&Z&`&v$                                                                      ",
"                  V& *.*+*@*#*                                                                      ",
"                = $*%*&***=*-*;                                                                     ",
"                > ;*>*,*'*)*!*=                                                                     ",
"                  ~*{*]*^*/*(*                                                                      ",
"                  = _*:*<*[*}*|*1*                                                                  ",
"                  v&2*3*4*5*6*7*8*9*                                                                ",
"                  0*a*b*c*d*e*f*g*;                                                                 ",
"                  h*i*j*k*  l*m*>                                                                   ",
"                    n*o*p*                                                                          "};
