/* XPM */
static char * watergirl_xpm[] = {
"30 46 596 2",
"  	c #FFFFFE",
". 	c #D8D8D7",
"+ 	c #6A6A6A",
"@ 	c #012D3D",
"# 	c #025E85",
"$ 	c #0286BD",
"% 	c #018ECA",
"& 	c #02608B",
"* 	c #606060",
"= 	c #E3E3E2",
"- 	c #D2D2D1",
"; 	c #0E2B3B",
"> 	c #038EC7",
", 	c #02B0F8",
"' 	c #01B0FA",
") 	c #00B0F8",
"! 	c #00B1F8",
"~ 	c #01B0F8",
"{ 	c #02A3E8",
"] 	c #346689",
"^ 	c #DEDEDD",
"/ 	c #E2E2E1",
"( 	c #32383C",
"_ 	c #039BDB",
": 	c #01AFF9",
"< 	c #01B0F9",
"[ 	c #01ACF4",
"} 	c #3D6C8E",
"| 	c #EFEFEE",
"1 	c #8A8A8A",
"2 	c #037BB0",
"3 	c #4BBCF9",
"4 	c #7BCFFA",
"5 	c #60C3FA",
"6 	c #05A6EC",
"7 	c #3EA4D8",
"8 	c #5FC2F9",
"9 	c #5DC3FA",
"0 	c #55C0F9",
"a 	c #28A4E4",
"b 	c #888888",
"c 	c #414343",
"d 	c #70CBF2",
"e 	c #58B5E4",
"f 	c #6FB0CA",
"g 	c #8BD7FA",
"h 	c #8BD8FA",
"i 	c #497A8D",
"j 	c #74BDD8",
"k 	c #8AD8F9",
"l 	c #8BD8F9",
"m 	c #87D6FA",
"n 	c #2A6986",
"o 	c #EFF6F9",
"p 	c #FCFCFC",
"q 	c #4A7B88",
"r 	c #89D9FA",
"s 	c #88D8F7",
"t 	c #568497",
"u 	c #87D8F9",
"v 	c #256C81",
"w 	c #74D0FA",
"x 	c #89D9F9",
"y 	c #88D8FA",
"z 	c #75CDFA",
"A 	c #457390",
"B 	c #FBFCFC",
"C 	c #E0E0DF",
"D 	c #4191B6",
"E 	c #7CC8E8",
"F 	c #75C4EA",
"G 	c #114F6F",
"H 	c #3FA8E0",
"I 	c #22AFF0",
"J 	c #0475A7",
"K 	c #03A6EC",
"L 	c #169AD9",
"M 	c #168DC6",
"N 	c #0682BC",
"O 	c #036C9E",
"P 	c #010101",
"Q 	c #ADADAC",
"R 	c #D0D0CF",
"S 	c #E9E9E8",
"T 	c #FDFDFC",
"U 	c #F8F8F7",
"V 	c #C0C0C0",
"W 	c #7896AD",
"X 	c #258ABE",
"Y 	c #018BC8",
"Z 	c #0280B8",
"` 	c #0D4260",
" .	c #0477A9",
"..	c #02ACF5",
"+.	c #010306",
"@.	c #034561",
"#.	c #027FB4",
"$.	c #0291CF",
"%.	c #5DB5E1",
"&.	c #82CCEB",
"*.	c #84D0EE",
"=.	c #7DC7E3",
"-.	c #67A7C0",
";.	c #305C6B",
">.	c #9A9A9A",
",.	c #FBFBFA",
"'.	c #CCCCCC",
").	c #58798F",
"!.	c #03A0E2",
"~.	c #01B1F9",
"{.	c #06ACF4",
"].	c #036390",
"^.	c #067FB1",
"/.	c #046891",
"(.	c #01ADF6",
"_.	c #51BEF9",
":.	c #8AD9F9",
"<.	c #75CDF9",
"[.	c #29B2F8",
"}.	c #0288C3",
"|.	c #4F5760",
"1.	c #DADAD9",
"2.	c #ACACAC",
"3.	c #64ABC2",
"4.	c #7FD3FA",
"5.	c #47B9F8",
"6.	c #00B2F8",
"7.	c #01B1F8",
"8.	c #039DDD",
"9.	c #000000",
"0.	c #0489C1",
"a.	c #00B1F7",
"b.	c #15B1FA",
"c.	c #86D7F9",
"d.	c #8ADAF9",
"e.	c #1EB3F8",
"f.	c #039FE3",
"g.	c #1F3F56",
"h.	c #D7D7D6",
"i.	c #CECECD",
"j.	c #036997",
"k.	c #82D5FA",
"l.	c #88D8F9",
"m.	c #4CBCF9",
"n.	c #00B1F9",
"o.	c #0280B6",
"p.	c #056288",
"q.	c #047BAD",
"r.	c #27B4FA",
"s.	c #85D7F9",
"t.	c #8ADAF8",
"u.	c #89DBF9",
"v.	c #17B2F9",
"w.	c #16A2DF",
"x.	c #3E4648",
"y.	c #ECECEB",
"z.	c #6B6B6A",
"A.	c #0299DC",
"B.	c #5BC2F8",
"C.	c #87D7F9",
"D.	c #36B6F9",
"E.	c #00B0F9",
"F.	c #038CC6",
"G.	c #2E687A",
"H.	c #2CAFF2",
"I.	c #044868",
"J.	c #02AFF9",
"K.	c #52BFFA",
"L.	c #7BCFF9",
"M.	c #89DAFA",
"N.	c #42BBF9",
"O.	c #57C2FA",
"P.	c #6EACC6",
"Q.	c #808080",
"R.	c #FEFEFD",
"S.	c #115172",
"T.	c #00AEF8",
"U.	c #03AFF8",
"V.	c #76CFF8",
"W.	c #73CCF9",
"X.	c #0389C2",
"Y.	c #2C5B6C",
"Z.	c #69C8EF",
"`.	c #6ACDFA",
" +	c #096F9E",
".+	c #048BC7",
"++	c #7FD2FA",
"@+	c #8AD9FA",
"#+	c #89DAF9",
"$+	c #86D6F9",
"%+	c #20B3F8",
"&+	c #70CDFA",
"*+	c #4C7B8B",
"=+	c #BFBFBE",
"-+	c #01AEF9",
";+	c #13B0F9",
">+	c #67C8F9",
",+	c #86D8FA",
"'+	c #74C7EF",
")+	c #046B99",
"!+	c #4387A0",
"~+	c #6DCEF6",
"{+	c #72D3F9",
"]+	c #71D4F9",
"^+	c #3FAFE8",
"/+	c #02293C",
"(+	c #6BACC9",
"_+	c #89DBF8",
":+	c #89DBFA",
"<+	c #49BAF8",
"[+	c #49BCFA",
"}+	c #80CDEB",
"|+	c #253539",
"1+	c #E4E4E3",
"2+	c #8D8D8C",
"3+	c #194663",
"4+	c #034361",
"5+	c #03344B",
"6+	c #026799",
"7+	c #5190A9",
"8+	c #498EA8",
"9+	c #63BEE3",
"0+	c #71D2FA",
"a+	c #70D4F9",
"b+	c #4AC0F9",
"c+	c #0289C6",
"d+	c #000001",
"e+	c #5E93A8",
"f+	c #72CEF7",
"g+	c #68C9FA",
"h+	c #35B6FA",
"i+	c #38B8FA",
"j+	c #86D7FA",
"k+	c #027CB0",
"l+	c #6E6E6E",
"m+	c #036A95",
"n+	c #039EDF",
"o+	c #02A0E5",
"p+	c #66CFF9",
"q+	c #73D2FA",
"r+	c #6EC8EC",
"s+	c #6DC8EA",
"t+	c #72D3F8",
"u+	c #71D3F9",
"v+	c #41BCF8",
"w+	c #01AFF8",
"x+	c #0290CF",
"y+	c #013C5A",
"z+	c #025377",
"A+	c #0397D8",
"B+	c #01AEF8",
"C+	c #01AFFA",
"D+	c #00AFFA",
"E+	c #02A8F0",
"F+	c #5BA7CA",
"G+	c #6DADC7",
"H+	c #70B1CA",
"I+	c #7CC3DE",
"J+	c #6FC7F5",
"K+	c #02A9F0",
"L+	c #01293E",
"M+	c #D3D3D2",
"N+	c #03A1E5",
"O+	c #44BEF9",
"P+	c #70D1F9",
"Q+	c #4E93AB",
"R+	c #40ADAD",
"S+	c #4FCACA",
"T+	c #43AAAA",
"U+	c #4A90AE",
"V+	c #06AFF9",
"W+	c #02ADF6",
"X+	c #038BC8",
"Y+	c #025780",
"Z+	c #010A12",
"`+	c #000306",
" @	c #010B13",
".@	c #03080B",
"+@	c #035984",
"@@	c #025D85",
"#@	c #025071",
"$@	c #011620",
"%@	c #011824",
"&@	c #026593",
"*@	c #08577E",
"=@	c #999998",
"-@	c #F5F5F4",
";@	c #0F4661",
">@	c #2C8DB3",
",@	c #52CFCF",
"'@	c #65FEFD",
")@	c #65FDFD",
"!@	c #3A9F9F",
"~@	c #039ADB",
"{@	c #067BAF",
"]@	c #50C8C8",
"^@	c #57D9D9",
"/@	c #50D0CF",
"(@	c #1077A5",
"_@	c #026A99",
":@	c #959594",
"<@	c #6C6C6B",
"[@	c #6F6F6F",
"}@	c #DFDFDE",
"|@	c #026E9C",
"1@	c #00B1FA",
"2@	c #287681",
"3@	c #64FDFC",
"4@	c #60F6F5",
"5@	c #43AAA9",
"6@	c #62F7F5",
"7@	c #5BEDEC",
"8@	c #037FB6",
"9@	c #02A9EF",
"0@	c #41A9AB",
"a@	c #64FDFD",
"b@	c #64FBFA",
"c@	c #42B9B8",
"d@	c #03A4E8",
"e@	c #0385BC",
"f@	c #BDBDBC",
"g@	c #C5C5C5",
"h@	c #D6D6D5",
"i@	c #0481B6",
"j@	c #41ACAB",
"k@	c #5FEFEE",
"l@	c #338586",
"m@	c #62F9F7",
"n@	c #63FEFD",
"o@	c #207EA2",
"p@	c #00B0FA",
"q@	c #0291CD",
"r@	c #56DBDB",
"s@	c #46B7B6",
"t@	c #327C7B",
"u@	c #56E2E1",
"v@	c #208DBB",
"w@	c #028FC8",
"x@	c #B9B9B8",
"y@	c #E6E6E5",
"z@	c #028EC5",
"A@	c #4BBEBE",
"B@	c #5AE1DF",
"C@	c #5BE7E6",
"D@	c #64FEFD",
"E@	c #3393A9",
"F@	c #0383BA",
"G@	c #5CE6E5",
"H@	c #56D0D0",
"I@	c #53CDCE",
"J@	c #5DE5E4",
"K@	c #5DE4E3",
"L@	c #418FA1",
"M@	c #038FC7",
"N@	c #C0C0BF",
"O@	c #E8E9EB",
"P@	c #048AC1",
"Q@	c #1684B8",
"R@	c #028CC6",
"S@	c #0286C0",
"T@	c #157AA8",
"U@	c #227691",
"V@	c #1682AE",
"W@	c #039ADA",
"X@	c #028AC4",
"Y@	c #0396D5",
"Z@	c #40A6D7",
"`@	c #5CA8CA",
" #	c #4D91AE",
".#	c #4AADD2",
"+#	c #0585BA",
"@#	c #C9C9C9",
"##	c #F8FCFE",
"$#	c #0378AC",
"%#	c #45BEF9",
"&#	c #4DC0FA",
"*#	c #18B1F9",
"=#	c #0177A8",
"-#	c #D6D7D6",
";#	c #5C829A",
">#	c #025F87",
",#	c #EFF1F0",
"'#	c #9DA2A5",
")#	c #0599D9",
"!#	c #02ADF4",
"~#	c #657074",
"{#	c #D1D1D0",
"]#	c #03577A",
"^#	c #0396D6",
"/#	c #037EB3",
"(#	c #038CC4",
"_#	c #BABFBE",
":#	c #FAFAF9",
"<#	c #515150",
"[#	c #0492D0",
"}#	c #0383BC",
"|#	c #023147",
"1#	c #03A2E7",
"2#	c #01ADF4",
"3#	c #3F5C6D",
"4#	c #F7F8F8",
"5#	c #D3D3D3",
"6#	c #03435F",
"7#	c #48BFFA",
"8#	c #57C4FA",
"9#	c #02A7EE",
"0#	c #03A1E6",
"a#	c #024665",
"b#	c #024E6E",
"c#	c #02A2E7",
"d#	c #0474A2",
"e#	c #C1C8C8",
"f#	c #999B9E",
"g#	c #3FBDF9",
"h#	c #51C2FA",
"i#	c #0177AC",
"j#	c #023D59",
"k#	c #025275",
"l#	c #028AC5",
"m#	c #01ADF7",
"n#	c #038DC8",
"o#	c #8A9396",
"p#	c #FDFFFE",
"q#	c #AAAAA9",
"r#	c #03435D",
"s#	c #0483BB",
"t#	c #03A8EE",
"u#	c #03A0E3",
"v#	c #19ACF1",
"w#	c #5EC3F8",
"x#	c #67CAF9",
"y#	c #40BBF9",
"z#	c #0392CF",
"A#	c #6E7D80",
"B#	c #F7F9F9",
"C#	c #8A8A89",
"D#	c #0291D0",
"E#	c #038DCC",
"F#	c #0479AE",
"G#	c #5AC7FA",
"H#	c #6FD3F9",
"I#	c #23B4FA",
"J#	c #0D85BE",
"K#	c #72868F",
"L#	c #F4F9F9",
"M#	c #212121",
"N#	c #02A8EE",
"O#	c #0C9CDC",
"P#	c #04628D",
"Q#	c #039EE1",
"R#	c #60CCF9",
"S#	c #31B6F8",
"T#	c #0497D8",
"U#	c #045479",
"V#	c #9FB2B7",
"W#	c #F9FBFB",
"X#	c #024D6D",
"Y#	c #1EB1F8",
"Z#	c #2E779F",
"`#	c #616161",
" $	c #036B99",
".$	c #029ADC",
"+$	c #00AFF9",
"@$	c #3AB9F8",
"#$	c #6ED2F9",
"$$	c #70CDF1",
"%$	c #5FABCA",
"&$	c #064F75",
"*$	c #7C8A8D",
"=$	c #DCE8E9",
"-$	c #AFAFAF",
";$	c #0279AC",
">$	c #109EE0",
",$	c #618096",
"'$	c #DBDBDA",
")$	c #EFEFEF",
"!$	c #78B0D6",
"~$	c #037EAD",
"{$	c #04506B",
"]$	c #034867",
"^$	c #01537A",
"/$	c #03567F",
"($	c #275E76",
"_$	c #296A82",
":$	c #3D91BB",
"<$	c #157AB5",
"[$	c #555555",
"}$	c #0478AD",
"|$	c #436D8F",
"1$	c #F9F9F8",
"2$	c #BBBDBE",
"3$	c #12A7EB",
"4$	c #0DAAEE",
"5$	c #01BDFC",
"6$	c #09BDF7",
"7$	c #0A91D6",
"8$	c #0D9ADE",
"9$	c #089EE6",
"0$	c #0DA1E8",
"a$	c #46A0DB",
"b$	c #0596E0",
"c$	c #6A85A2",
"d$	c #FCFCFB",
"e$	c #5A5A5A",
"f$	c #B1B1B0",
"g$	c #F6F6F5",
"h$	c #638CAE",
"i$	c #089AE4",
"j$	c #1274AD",
"k$	c #10B0E4",
"l$	c #0BB6F3",
"m$	c #0098E1",
"n$	c #0099E0",
"o$	c #0296DE",
"p$	c #105481",
"q$	c #0E83C3",
"r$	c #0989CC",
"s$	c #CCCCCB",
"t$	c #E2E2E2",
"u$	c #1087CA",
"v$	c #0B8ED4",
"w$	c #365574",
"x$	c #12ABDE",
"y$	c #0CABED",
"z$	c #0099E1",
"A$	c #0998DF",
"B$	c #215A86",
"C$	c #7691AF",
"D$	c #0097E2",
"E$	c #4E79A1",
"F$	c #ABB1B9",
"G$	c #0898E2",
"H$	c #0F79B7",
"I$	c #ABABAB",
"J$	c #17A7DB",
"K$	c #049AE3",
"L$	c #089AE1",
"M$	c #2B5D88",
"N$	c #C6C8CA",
"O$	c #1299E0",
"P$	c #0693DB",
"Q$	c #AEB0B3",
"R$	c #7A92AF",
"S$	c #0C90D8",
"T$	c #195682",
"U$	c #D9D9D8",
"V$	c #1990CC",
"W$	c #166091",
"X$	c #F3F3F3",
"Y$	c #477A9C",
"Z$	c #119BE2",
"`$	c #6C8095",
" %	c #8591A0",
".%	c #D4D4D4",
"+%	c #1288C9",
"@%	c #106398",
"#%	c #E7E7E6",
"$%	c #B5B5B4",
"%%	c #EBEBEA",
"&%	c #DCDCDB",
"*%	c #0F8BCF",
"=%	c #0A98DF",
"-%	c #0E82C2",
";%	c #0398E1",
">%	c #0766A1",
",%	c #E5E5E4",
"'%	c #098CD2",
")%	c #1589CA",
"!%	c #696B6C",
"~%	c #0C8BCF",
"{%	c #0795DD",
"]%	c #0868A1",
"^%	c #E1E1E0",
"/%	c #0C88CB",
"(%	c #107BB9",
"_%	c #0C7BB8",
":%	c #0D94DA",
"<%	c #0F6AA2",
"[%	c #DADADA",
"}%	c #027DBD",
"|%	c #0599E2",
"1%	c #106AA3",
"2%	c #5E89B2",
"3%	c #0A92D8",
"4%	c #0D68A0",
"5%	c #0979B7",
"6%	c #0C92D9",
"7%	c #4C6C8F",
"8%	c #93A1B2",
"9%	c #0C8FD6",
"0%	c #03649B",
"a%	c #6582A2",
"b%	c #1476B5",
"c%	c #B9BABC",
"d%	c #166EA9",
"e%	c #174E79",
"                . + @ # $ % & * =                           ",
"              - ; > , ' ) ! ~ { ] ^                         ",
"            / ( _ : : < < < ~ < [ } |                       ",
"            1 2 < 3 4 5 6 7 8 9 0 a b                       ",
"            c d e f g h i j k l l m n o                     ",
"          p q r s t r u v w r x y z A B                     ",
"          C D E F G H I J K L M N O P Q R S T               ",
"      U V W X Y Z `  ...+.@.#.$.%.&.*.=.-.;.>.,.            ",
"    '.).!.< ! ~.~ {.].^./.(.< < _.:.:.:.<.[.}.|.1.          ",
"  2.3.4.5.< ! 6.6.7.8.9.0.) a.! b.c.:.d.e.< < f.g.h.        ",
"i.j.k.:.l.m.n.6.! < o.p.q.< < ' r.s.t.u.v.! 6.< w.x.y.      ",
"z.A.B.:.:.C.D.! E.F.G.H.I.J.K.L.l.:.d.M.N.! 6.E.O.P.Q.R.    ",
"S.T.U.V.:.:.W.: X.Y.Z.`. +.+++@+:.d.#+$+%+! ! ' &+:.*+=+    ",
"S.-+: ;+>+,+'+)+!+~+{+]+^+/+(+@+_+:+C.<+n.! < [+:.:.}+|+1+  ",
"2+3+4+5+6+7+8+9+0+{+]+a+b+c+d+e+f+g+h+n.n.E.i+j+:.:.u k+l+T ",
"  h.m+n+o+p+0+q+r+s+t+u+v+w+x+y+z+A+B+C+D+E+F+G+H+I+J+K+L+M+",
"  2+N+~ < O+P+Q+R+S+T+U+V+! ~ W+X+Y+Z+`+ @.@+@@@#@$@%@&@*@=@",
"-@;@< a.! < >@,@'@'@)@!@~@! 6.n.< B+{@]@^@/@(@C+< W+_@:@<@[@",
"}@|@~ a.a.1@2@3@4@5@6@7@8@~ 6.6.< 9@0@a@b@'@c@d@n.! e@f@R.g@",
"h@i@~.6.! ~.j@'@k@l@m@n@o@< 6.6.p@q@r@s@t@'@u@v@< ! w@x@    ",
"y@z@! 6.! < A@B@C@3@D@D@E@: ! ! p@F@G@H@I@J@K@L@w+! M@N@    ",
"O@P@~ 6.! p@Q@R@Y S@T@U@V@: ! ! E.W@X@Y@Z@`@ #.#w+E.+#@#    ",
"##$#< a.! E.< ~ ~ < < : < < ~ < < E.< < , %#&#*#! ! =#-#    ",
"  ;#: a.6.6.n.! ! 6.6.6.< < E.E.n.! a.a.! ~.~.! ! n.>#,#    ",
"  '#)#~ 6.6.n.1@n.6.6.6.E.1@n.n.! < E.< ! 6.6.6.n.!#~#      ",
"  {#]#' 6.6.6.n.! n.6.6.6.6.6.n.E.: ^#/#< 6.6.6.E.(#_#      ",
"  :#<#[#~.6.6.6.E.C+< ! 6.6.E.E.B+}#|#1#< 6.6.n.2#3#4#      ",
"    5#6#..! 6.6.p@7#8#9#: C+0#}#a#b#c#< ! 6.! < d#e#        ",
"      f#J ' ! 6.< g#h#i#j#/+9.k#l#m#< ! 6.6.E.n#o#p#        ",
"      q#r#s#' ! ! ! < < t#u#v#w#x#y#< 6.! p@z#A#B#          ",
"      C#D#E#F#(.! a.6.6.! < G#u+{+H#I#E.J.J#K#L#            ",
"    U M#N#w+O#P#Q#< ! ! 6.E.R#]+]+]+S#T#U#V#W#              ",
"    1.X#< < Y#Z#`# $.$w++$: @$#$$$%$&$*$=$                  ",
"    -$;$: >$,$'$)$!$~${$]$^$/$($_$:$<${#                    ",
"    [$}$|$f@1$  2$3$4$5$6$7$8$9$0$a$b$c$d$                  ",
"  d$e$f$g$      h$i$j$k$l$m$n$n$o$p$q$r$s$                  ",
"              t$u$v$w$x$y$z$n$n$A$B$C$D$E$g$                ",
"              F$G$H$I$J$K$n$n$n$L$M$N$O$P$Q$                ",
"              R$S$T$U$V$n$n$n$n$L$W$X$Y$Z$`$                ",
"              i. %.%1++%n$n$n$n$L$@%y.#%$%%%                ",
"                    &%*%n$=%-%;%L$>%,%                      ",
"                    U$'%m$)%!%~%{%]%^%                      ",
"                    C /%m$(%=+_%:%<%[%                      ",
"                    #%}%|%1%= 2%3%4%U$                      ",
"                    y.5%6%7%d$8%9%0%^%                      ",
"                      a%b%c%  s$d%e%|                       "};
