/* XPM */
static char * barier_xpm[] = {
"88 20 431 2",
"  	c #050505",
". 	c #2F2F2F",
"+ 	c #3C3C3C",
"@ 	c #3B3B3B",
"# 	c #3F3F3F",
"$ 	c #414141",
"% 	c #424242",
"& 	c #373737",
"* 	c #303030",
"= 	c #323232",
"- 	c #3D3D3C",
"; 	c #373836",
"> 	c #353633",
", 	c #414140",
"' 	c #4E4E4E",
") 	c #535353",
"! 	c #525252",
"~ 	c #434343",
"{ 	c #333333",
"] 	c #474747",
"^ 	c #565656",
"/ 	c #626262",
"( 	c #686868",
"_ 	c #6A6A6A",
": 	c #696969",
"< 	c #666666",
"[ 	c #5B5B5B",
"} 	c #4A4A4A",
"| 	c #393939",
"1 	c #2A2A2A",
"2 	c #2B2B2B",
"3 	c #2C2C2B",
"4 	c #2A2A29",
"5 	c #292927",
"6 	c #282826",
"7 	c #272726",
"8 	c #262726",
"9 	c #262625",
"0 	c #212121",
"a 	c #151515",
"b 	c #010101",
"c 	c #191919",
"d 	c #7A7A7A",
"e 	c #989898",
"f 	c #979797",
"g 	c #949494",
"h 	c #9A9A9A",
"i 	c #A0A0A0",
"j 	c #A3A3A3",
"k 	c #A7A7A7",
"l 	c #A8A8A8",
"m 	c #A6A6A6",
"n 	c #A5A5A5",
"o 	c #A4A4A4",
"p 	c #A9A9A9",
"q 	c #A2A2A2",
"r 	c #9F9F9F",
"s 	c #ABABAB",
"t 	c #ADADAD",
"u 	c #AEAEAE",
"v 	c #ACACAC",
"w 	c #B2B2B2",
"x 	c #B4B4B4",
"y 	c #B7B7B7",
"z 	c #B7B7B6",
"A 	c #B0B0AF",
"B 	c #A9AAA7",
"C 	c #A7A8A5",
"D 	c #A7A8A4",
"E 	c #A7A7A4",
"F 	c #A6A7A4",
"G 	c #A6A6A3",
"H 	c #959593",
"I 	c #6B6B6B",
"J 	c #969696",
"K 	c #BBBBBB",
"L 	c #BEBEBE",
"M 	c #C2C2C2",
"N 	c #C3C3C3",
"O 	c #C1C1C1",
"P 	c #BFBFBF",
"Q 	c #C0C0C0",
"R 	c #BCBCBC",
"S 	c #BDBDBD",
"T 	c #C7C7C7",
"U 	c #CCCCCC",
"V 	c #CFCFCF",
"W 	c #D1D1D1",
"X 	c #D3D3D3",
"Y 	c #D4D4D4",
"Z 	c #D5D5D5",
"` 	c #D6D6D6",
" .	c #D7D7D7",
"..	c #D8D8D8",
"+.	c #D9D9D9",
"@.	c #D4D4D3",
"#.	c #CFCFCD",
"$.	c #CDCECB",
"%.	c #D1D2D0",
"&.	c #D5D6D4",
"*.	c #D7D8D5",
"=.	c #D7D7D4",
"-.	c #C6C6C5",
";.	c #959595",
">.	c #B9B9B9",
",.	c #B1B1B1",
"'.	c #B3B3B3",
").	c #B0B0B0",
"!.	c #B5B5B5",
"~.	c #B6B6B6",
"{.	c #BABABA",
"].	c #C2C3C2",
"^.	c #C3C3C2",
"/.	c #CECECE",
"(.	c #DBDBDB",
"_.	c #DEDEDE",
":.	c #262626",
"<.	c #AAAAAA",
"[.	c #B8B8B8",
"}.	c #AFAFAF",
"|.	c #B0B0B1",
"1.	c #C9C9C9",
"2.	c #222222",
"3.	c #9B9B9B",
"4.	c #7F7F7F",
"5.	c #818181",
"6.	c #808080",
"7.	c #7C7C7C",
"8.	c #787878",
"9.	c #767676",
"0.	c #777778",
"a.	c #7D7D7D",
"b.	c #818182",
"c.	c #828283",
"d.	c #838383",
"e.	c #828282",
"f.	c #808081",
"g.	c #8A8A8A",
"h.	c #999999",
"i.	c #9E9E9E",
"j.	c #929292",
"k.	c #898989",
"l.	c #838384",
"m.	c #848484",
"n.	c #8E8E8E",
"o.	c #8C8C8C",
"p.	c #A1A1A1",
"q.	c #696967",
"r.	c #282800",
"s.	c #3A3A06",
"t.	c #2D2D06",
"u.	c #222206",
"v.	c #222204",
"w.	c #212103",
"x.	c #222205",
"y.	c #1E1E00",
"z.	c #1C1C00",
"A.	c #212102",
"B.	c #212105",
"C.	c #222006",
"D.	c #211706",
"E.	c #211D06",
"F.	c #1A1B06",
"G.	c #080806",
"H.	c #020206",
"I.	c #010106",
"J.	c #000001",
"K.	c #000000",
"L.	c #06060A",
"M.	c #2A2A2B",
"N.	c #646464",
"O.	c #5C5C5D",
"P.	c #4D4D4D",
"Q.	c #404041",
"R.	c #5D5D5D",
"S.	c #727272",
"T.	c #89898A",
"U.	c #878788",
"V.	c #D2D2D2",
"W.	c #6C6C6C",
"X.	c #444432",
"Y.	c #515100",
"Z.	c #6A6A02",
"`.	c #6D6D02",
" +	c #626202",
".+	c #595902",
"++	c #595901",
"@+	c #5A5A02",
"#+	c #5B5B02",
"$+	c #5B5A02",
"%+	c #5C5602",
"&+	c #5C5A02",
"*+	c #585802",
"=+	c #515102",
"-+	c #4F4F02",
";+	c #4E4E02",
">+	c #4C4C01",
",+	c #4C4901",
"'+	c #4B4A01",
")+	c #4B4B01",
"!+	c #4D4D02",
"~+	c #4D4D06",
"{+	c #4E4E0F",
"]+	c #4E4E14",
"^+	c #4D4D14",
"/+	c #4B4B11",
"(+	c #4A4A0D",
"_+	c #49490A",
":+	c #4A4A0A",
"<+	c #4A4A0F",
"[+	c #4C4C17",
"}+	c #4F4F1E",
"|+	c #4F4F1F",
"1+	c #50501F",
"2+	c #51511D",
"3+	c #4F4F15",
"4+	c #494911",
"5+	c #353506",
"6+	c #50504F",
"7+	c #242424",
"8+	c #939393",
"9+	c #646463",
"0+	c #525228",
"a+	c #717100",
"b+	c #8E8E00",
"c+	c #989800",
"d+	c #999900",
"e+	c #9B9B00",
"f+	c #9D9D00",
"g+	c #9F9E00",
"h+	c #A0A000",
"i+	c #9F9F00",
"j+	c #9A9A00",
"k+	c #979700",
"l+	c #969600",
"m+	c #959500",
"n+	c #929200",
"o+	c #919100",
"p+	c #939300",
"q+	c #8C8C00",
"r+	c #666600",
"s+	c #4D4D49",
"t+	c #C8C8C8",
"u+	c #919191",
"v+	c #5B5B5A",
"w+	c #47471A",
"x+	c #727200",
"y+	c #A5A500",
"z+	c #AEAE00",
"A+	c #B2B200",
"B+	c #B1B100",
"C+	c #AFAF00",
"D+	c #ADAD00",
"E+	c #ACAC00",
"F+	c #B0B000",
"G+	c #B4B400",
"H+	c #B5B500",
"I+	c #B3B300",
"J+	c #A7A700",
"K+	c #707000",
"L+	c #50504B",
"M+	c #C5C5C5",
"N+	c #909090",
"O+	c #515150",
"P+	c #303000",
"Q+	c #909000",
"R+	c #9E9E00",
"S+	c #AAAA00",
"T+	c #A9A900",
"U+	c #A6A600",
"V+	c #A4A400",
"W+	c #A3A300",
"X+	c #A8A800",
"Y+	c #ABAB00",
"Z+	c #54544F",
"`+	c #C6C6C6",
" @	c #202020",
".@	c #565655",
"+@	c #272711",
"@@	c #545400",
"#@	c #7A7A01",
"$@	c #828201",
"%@	c #818101",
"&@	c #808001",
"*@	c #7F7F01",
"=@	c #7F7F00",
"-@	c #808000",
";@	c #828200",
">@	c #838301",
",@	c #838300",
"'@	c #848400",
")@	c #868600",
"!@	c #878700",
"~@	c #7E7E00",
"{@	c #7B7B00",
"]@	c #7A7A00",
"^@	c #797900",
"/@	c #7C7C00",
"(@	c #949400",
"_@	c #8B8B00",
":@	c #646400",
"<@	c #585854",
"[@	c #B5B5B6",
"}@	c #D0D0D0",
"|@	c #CACACA",
"1@	c #9C9C9C",
"2@	c #232323",
"3@	c #1F1F1F",
"4@	c #8B8B8B",
"5@	c #777777",
"6@	c #4A4A49",
"7@	c #39392B",
"8@	c #46462D",
"9@	c #49492D",
"0@	c #48482D",
"a@	c #48482C",
"b@	c #46462A",
"c@	c #464629",
"d@	c #47472A",
"e@	c #4B4B2F",
"f@	c #4C4C30",
"g@	c #4B4B30",
"h@	c #49492C",
"i@	c #4A4A2C",
"j@	c #4A4A2B",
"k@	c #4A4A2A",
"l@	c #484829",
"m@	c #474728",
"n@	c #464628",
"o@	c #454528",
"p@	c #444428",
"q@	c #434328",
"r@	c #444429",
"s@	c #454529",
"t@	c #454527",
"u@	c #434323",
"v@	c #424220",
"w@	c #454520",
"x@	c #4B4B27",
"y@	c #4D4D2A",
"z@	c #4E4E2B",
"A@	c #50502C",
"B@	c #51512D",
"C@	c #51512C",
"D@	c #505029",
"E@	c #505026",
"F@	c #4F4F26",
"G@	c #4A4A25",
"H@	c #36361B",
"I@	c #5E5E5D",
"J@	c #9A9A9B",
"K@	c #A0A0A1",
"L@	c #A4A4A5",
"M@	c #A6A6A7",
"N@	c #A5A5A6",
"O@	c #A2A2A3",
"P@	c #9F9FA0",
"Q@	c #979798",
"R@	c #8E8E8F",
"S@	c #8C8C8E",
"T@	c #A0A0A2",
"U@	c #A7A7A8",
"V@	c #ABABAC",
"W@	c #B1B1B2",
"X@	c #B4B4B5",
"Y@	c #AFAFB1",
"Z@	c #A5A5A7",
"`@	c #9C9C9D",
" #	c #99999A",
".#	c #DCDCDC",
"+#	c #292929",
"@#	c #1E1E1E",
"##	c #C4C4C4",
"$#	c #E0E0E0",
"%#	c #B1B1B0",
"&#	c #DFDFDF",
"*#	c #2D2D2D",
"=#	c #888888",
"-#	c #BDBDBB",
";#	c #CDCDCD",
">#	c #101010",
",#	c #585858",
"'#	c #6F6F70",
")#	c #6F6F6F",
"!#	c #717171",
"~#	c #797979",
"{#	c #7E7E7E",
"]#	c #858585",
"^#	c #9D9D9D",
"/#	c #8D8D8D",
"(#	c #A3A3A2",
"_#	c #A9A9A8",
":#	c #8F8F8F",
"<#	c #060605",
"[#	c #1A1A1A",
"}#	c #353535",
"|#	c #3D3D3D",
"1#	c #6E6E6E",
"2#	c #5E5E5E",
"3#	c #5C5C5C",
"4#	c #595959",
"5#	c #4B4B4B",
"6#	c #484848",
"7#	c #494949",
"8#	c #6D6D6D",
"9#	c #747474",
"0#	c #606060",
"a#	c #656565",
"b#	c #616161",
"c#	c #010100",
"d#	c #040501",
"e#	c #050601",
"f#	c #050501",
"g#	c #040401",
"h#	c #040402",
"i#	c #030303",
"j#	c #040404",
"k#	c #060606",
"l#	c #070707",
"m#	c #090909",
"n#	c #0D0D0D",
"o#	c #131313",
"p#	c #161616",
"q#	c #171717",
"r#	c #141414",
"s#	c #121212",
"t#	c #111111",
"u#	c #0C0C0C",
"v#	c #0E0E0E",
"w#	c #181818",
"x#	c #020202",
"  . + + @ # $ $ % % % % $ & * * * * * = & + # # # - ; > , ' ) ) ! ~ = . { @ ] ^ / ( _ : < [ ) ! } ~ # # # # | * * = . 1 1 1 1 1 2 2 2 2 2 2 2 3 3 4 5 6 7 8 8 8 8 8 8 8 9 0 a b ",
"c d e f g h i j k l l l l k m m m m m m n j o k l l k k l p p k o q i r o k p s t u u t t k m l k m m m m m n m v w x x x x x x y y y y y y y y z A B C D D D D D E F E G H I a ",
"0 J K y u x K L M M M M M N N N N N N N O L P M N N N N N O Q P R S R R Q O M M M M O Q Q L L Q Q Q Q Q Q Q Q M T U V V V V V W X X Y Z `  ...+.+.@.#.$.$.$.$.$.$.%.&.*.=.-.g 0 ",
"0 ;.>.x j n s u ,.,.,.w '.x x x x x x x w ).).).,.,.,.w '.w ,.,.w w w w w w w w w w w ,.,.,.,.,.,.,.,.,.,.,.,.w w x !.!.~.~.~.~.~.~.y {.R S Q N N N ].M ].^.].M N /. .(._.Z n :.",
"0 ;.{.x o o <.,.[.{.K S L L L L L L L S [.x w w w w w x >.S L L P P P P P P P L L L L L L L L L L L L S S S S S S L S S O N S x w ,.,.,.u t }.).|.,.,.).}.}.).,.,.{.M 1. .Y m :.",
"2.g y ).j j v !.K 3.4.5.5.5.5.5.5.5.5.6.7.8.9.9.9.9.9.0.a.6.5.b.c.d.c.c.c.d.e.5.5.5.5.5.5.5.5.5.5.5.5.6.6.6.6.6.6.6.4.f.g.h.i.e j.k.l.m.g.n.3.v }.}.}.<.J o.3.).t w [.M Y X m :.",
"2.g !.v p.j v ).p.q.r.s.s.t.u.u.u.u.v.w.x.y.z.y.y.y.y.y.A.v.x.u.x.x.B.B.B.B.x.C.D.E.F.G.H.I.I.I.I.I.J.K.K.K.K.K.K.K.K.L.M.! N.< O.P.Q.~ ^ R.S.T.n.n.n.U.I [ S.;.p w [.M Y V.o :.",
"2.g x <.p.o v n W.X.Y.Z.`. +.+.+.+.+.+.+.+++++++++++++++.+.+.+.+.+@+#+#+#+#+#+$+%+&+*+=+-+;+-+-+-+-+;+>+,+'+)+)+)+)+>+!+~+{+]+^+/+(+_+:+<+/+[+}+|+|+1+2+3+4+5+6+i x >.M Y V r 7+",
"2.8+'.<.j m s q 9+0+a+b+c+d+c+c+c+c+c+c+c+c+c+c+c+c+c+c+c+c+c+c+c+e+f+f+f+f+f+f+g+h+h+i+i+i+i+i+i+i+f+e+j+c+k+k+k+c+j+e+e+d+l+m+n+n+n+n+n+n+n+o+o+o+p+k+k+q+r+s+p.~.{.M X t+J 2.",
"2.u+w <.m l v i v+w+x+l+y+z+A+B+C+z+z+z+z+D+E+E+E+E+E+E+E+E+D+z+z+F+F+F+F+F+F+F+B+A+A+A+A+G+H+H+H+H+G+I+I+I+A+A+A+I+G+G+G+I+A+A+B+B+B+F+F+F+F+F+F+F+F+z+J+d+K+L+o y K M W M+g 0 ",
"0 N+,.s l <.t r O+P+r+Q+R+J+S+T+U+U+U+U+U+V+W+V+y+y+y+y+y+y+U+X+X+X+X+X+J+J+J+J+J+J+J+J+J+X+T+T+T+T+T+T+X+X+J+J+X+X+T+T+S+S+S+S+S+S+Y+D+C+F+F+B+A+A+A+C+J+d+K+Z+v {.{.O V `+J 2.",
" @n.}.<.k <.t r .@+@@@#@$@$@%@&@*@*@*@=@=@=@=@-@;@>@>@,@;@;@'@)@!@!@!@)@'@,@,@,@,@,@,@,@,@-@=@=@=@=@=@~@{@{@]@^@]@{@{@/@=@=@=@=@=@-@;@!@b+Q+o+(@(@m+k+c+l+_@:@<@[@S [.M }@|@1@2@",
"3@4@t <.m p v o 5@6@7@8@9@9@0@0@0@0@0@a@b@c@d@a@e@f@g@e@h@h@h@i@j@j@j@k@l@m@m@m@m@m@m@m@m@n@o@o@o@o@o@p@q@q@q@q@q@p@r@r@s@c@c@o@t@u@v@w@x@y@z@A@B@C@D@E@F@G@H@I@y R y M Y X m :.",
"3@g.v <.o l v s k r J@J@J@J@J@J@J@J@J@J@J@1@K@L@m M@M@M@N@N@N@N@L@O@O@O@O@O@O@O@O@O@O@O@O@O@O@O@O@O@O@O@O@O@O@o L@N@N@N@N@N@N@L@P@Q@R@S@T@U@V@W@X@Y@Z@`@ # # #i x !.y N  ..#).+#",
"@#g.v <.o l v }.[.{.{.{.{.{.K K K K {.{.{.K P N ##########N M M O Q P P P P P P P P P P P P P P P P P P P P Q O O N M+M+M+M+`+M+O K x '.M T 1./.X }@1.O S K K >.}.).y N ..$#!.2 ",
"3@g.t s l s }.).w ,.).).).,.w '.'.'.'.,.).).,.,.w w w w w ,.).).,.,.).).).).).).).).,.'.'.'.'.'.'.%#%#'.'.'.w ,.,.~.>.{.>.>.>.[.[.[.[.[.[.~.x !.>.K R K ~.x '.'.).y S `+..&#'.*#",
"@#=#<.p <.w !.w w ,.).).}.).).,.'.x x '.'.w ,.,.,.,.,.,.w x ~.>.R S {.y ~.y y ~.y [.L ##M+M+M+M+M+-#-#M+`+M+M S P O M O Q Q L K K R S R >.[.y y ~.!.x '.w x !.!.[.t+/.;# .+.t * ",
">#,#'#)#!#5@~#5@5@8.8.~#a.{#{#4.6.5.]#o.J ^#i.i.i.i.i.1@f ;.J ;.u+N+n.o.o.o.o.o.o./#j.f f f f e ^#(#_#u u t <.n m k i 8+u+u+N+n.n.:#:#u+e h h h.e f J J J e 3.^#^#j o q m m ]#+#",
"K.K.K.K.K.K.K.K.<#a [# @* { { { { }#|#' / 1#!#!#!#!#!#)#N.2#3#4#5#] 6#6#6#6#6#6#6#6#7#} } } } P.4#8#0.5@5@9.9#!#!#!#N.7#] 6#6#6#6#6#] P.0#a#N.N.N.N.N.N.N.a#: W.( b#R.[ [ 3#} c ",
"c#d#e#f#f#f#f#f#g#h#i#j#k#l#l#l#l#l#m#n#o#p#q#q#q#q#q#p#r#s#t#>#n#u#u#u#u#u#u#u#u#u#u#n#n#n#n#v#t#p#c c c c w#q#q#q#r#u#u#u#u#u#u#u#u#n#s#r#r#r#r#r#r#r#r#r#a p#a o#s#t#t#s#u#x#"};
