/* XPM */
static char * barrier_xpm[] = {
"40 20 571 2",
"  	c #604D00",
". 	c #735C01",
"+ 	c #A88600",
"@ 	c #D7AB00",
"# 	c #EDBE00",
"$ 	c #E9BA00",
"% 	c #D8AD00",
"& 	c #C69E00",
"* 	c #B48F00",
"= 	c #9E7E00",
"- 	c #826900",
"; 	c #7B6100",
"> 	c #846A00",
", 	c #987A00",
"' 	c #AF8D00",
") 	c #C49E00",
"! 	c #CBA300",
"~ 	c #BE9800",
"{ 	c #AB8A00",
"] 	c #9E7F00",
"^ 	c #9D7E00",
"/ 	c #A18000",
"( 	c #967800",
"_ 	c #8C6F00",
": 	c #826700",
"< 	c #7A6100",
"[ 	c #725B00",
"} 	c #7B6200",
"| 	c #8D7100",
"1 	c #A38200",
"2 	c #B99400",
"3 	c #B08C00",
"4 	c #776E00",
"5 	c #2C6F00",
"6 	c #337B00",
"7 	c #016500",
"8 	c #016400",
"9 	c #025400",
"0 	c #001600",
"a 	c #927500",
"b 	c #BC9600",
"c 	c #E2B500",
"d 	c #F6C400",
"e 	c #F7C500",
"f 	c #F1C100",
"g 	c #E7B900",
"h 	c #DFB300",
"i 	c #D2A800",
"j 	c #C39C00",
"k 	c #C39D00",
"l 	c #C49D00",
"m 	c #C8A100",
"n 	c #D7AD00",
"o 	c #ECBD00",
"p 	c #E6B800",
"q 	c #D4AA00",
"r 	c #C7A100",
"s 	c #D2A900",
"t 	c #E1B400",
"u 	c #DEB200",
"v 	c #DCB000",
"w 	c #D9AD00",
"x 	c #D6AA00",
"y 	c #D3A800",
"z 	c #D6AB00",
"A 	c #E8BA00",
"B 	c #C59C00",
"C 	c #737500",
"D 	c #1E6F00",
"E 	c #236A00",
"F 	c #046400",
"G 	c #0A6E00",
"H 	c #0E6D00",
"I 	c #011D00",
"J 	c #876B00",
"K 	c #9D7D00",
"L 	c #C19B00",
"M 	c #F4C300",
"N 	c #F9C700",
"O 	c #F9C800",
"P 	c #F2C200",
"Q 	c #EEBF00",
"R 	c #F6C500",
"S 	c #E5B800",
"T 	c #DEB300",
"U 	c #DBB000",
"V 	c #E4B700",
"W 	c #F3C300",
"X 	c #F7C600",
"Y 	c #EBBC00",
"Z 	c #E3B600",
"` 	c #EEBE00",
" .	c #FAC800",
"..	c #F8C700",
"+.	c #FBC900",
"@.	c #FCCA00",
"#.	c #FECB00",
"$.	c #D0A600",
"%.	c #716F00",
"&.	c #005700",
"*.	c #145500",
"=.	c #1B6A00",
"-.	c #107100",
";.	c #127100",
">.	c #021B00",
",.	c #826800",
"'.	c #917400",
").	c #B38F00",
"!.	c #EABC00",
"~.	c #E9BB00",
"{.	c #DDB100",
"].	c #EABB00",
"^.	c #E8B900",
"/.	c #E5B700",
"(.	c #E3B500",
"_.	c #E6B700",
":.	c #EBBD00",
"<.	c #EFBF01",
"[.	c #D1A700",
"}.	c #4C3F00",
"|.	c #324B00",
"1.	c #296E00",
"2.	c #0F6A00",
"3.	c #0E5900",
"4.	c #012B00",
"5.	c #816700",
"6.	c #8B6F00",
"7.	c #A48400",
"8.	c #C59D00",
"9.	c #D6AC00",
"0.	c #DAAF00",
"a.	c #D8AE00",
"b.	c #D5AB00",
"c.	c #D3A900",
"d.	c #CFA500",
"e.	c #CDA400",
"f.	c #CDA300",
"g.	c #CEA500",
"h.	c #CEA501",
"i.	c #CFA600",
"j.	c #D0A700",
"k.	c #D6AC02",
"l.	c #DAAF04",
"m.	c #DCB104",
"n.	c #D7AC02",
"o.	c #A08000",
"p.	c #625700",
"q.	c #1F5500",
"r.	c #065E00",
"s.	c #033800",
"t.	c #005400",
"u.	c #7A6200",
"v.	c #856B00",
"w.	c #947800",
"x.	c #B09200",
"y.	c #C0A000",
"z.	c #C3A200",
"A.	c #C09F00",
"B.	c #BB9C00",
"C.	c #BD9D00",
"D.	c #BB9B00",
"E.	c #C09E00",
"F.	c #C6A300",
"G.	c #C4A200",
"H.	c #C2A000",
"I.	c #BF9D01",
"J.	c #BC9A01",
"K.	c #BA9900",
"L.	c #BB9800",
"M.	c #BA9700",
"N.	c #B59506",
"O.	c #B1920E",
"P.	c #B19201",
"Q.	c #B39201",
"R.	c #AE8F03",
"S.	c #B49302",
"T.	c #BB9901",
"U.	c #BE9C06",
"V.	c #C5A416",
"W.	c #C9A81B",
"X.	c #CCA915",
"Y.	c #CEA908",
"Z.	c #C39F01",
"`.	c #937A02",
" +	c #2A4B02",
".+	c #035B00",
"++	c #002A00",
"@+	c #005800",
"#+	c #745E00",
"$+	c #836900",
"%+	c #887100",
"&+	c #968400",
"*+	c #A19000",
"=+	c #A59400",
"-+	c #A89600",
";+	c #9F8F00",
">+	c #A09000",
",+	c #A08F00",
"'+	c #9F8E00",
")+	c #A39000",
"!+	c #AA9500",
"~+	c #AD9800",
"{+	c #AF9A00",
"]+	c #AE9900",
"^+	c #AC9701",
"/+	c #AA9601",
"(+	c #A89400",
"_+	c #A89200",
":+	c #A49000",
"<+	c #9C8A07",
"[+	c #978610",
"}+	c #968702",
"|+	c #998701",
"1+	c #978603",
"2+	c #9B8902",
"3+	c #A18D01",
"4+	c #A28F05",
"5+	c #A89616",
"6+	c #AC991A",
"7+	c #AE9A15",
"8+	c #B49C08",
"9+	c #B89E01",
"0+	c #9B8604",
"a+	c #415105",
"b+	c #0E5400",
"c+	c #012300",
"d+	c #004400",
"e+	c #735D00",
"f+	c #857000",
"g+	c #817A00",
"h+	c #868500",
"i+	c #8D8B00",
"j+	c #938F00",
"k+	c #949000",
"l+	c #908D00",
"m+	c #8E8C00",
"n+	c #8B8900",
"o+	c #8C8A00",
"p+	c #999300",
"q+	c #9A9400",
"r+	c #9A9500",
"s+	c #969100",
"t+	c #918E00",
"u+	c #8C8902",
"v+	c #8D8906",
"w+	c #8C8A02",
"x+	c #928E00",
"y+	c #8E8C01",
"z+	c #8D8A00",
"A+	c #8E8B01",
"B+	c #8E8B03",
"C+	c #8E8B04",
"D+	c #918E01",
"E+	c #878303",
"F+	c #5B5D05",
"G+	c #1D4300",
"H+	c #021000",
"I+	c #001900",
"J+	c #887200",
"K+	c #898200",
"L+	c #929200",
"M+	c #989800",
"N+	c #999900",
"O+	c #999800",
"P+	c #979700",
"Q+	c #989700",
"R+	c #9A9900",
"S+	c #9A9A00",
"T+	c #9B9A00",
"U+	c #9B9902",
"V+	c #9B9904",
"W+	c #999802",
"X+	c #9A9901",
"Y+	c #9E9A00",
"Z+	c #9F9A00",
"`+	c #9E9902",
" @	c #9D9A05",
".@	c #9C9A05",
"+@	c #918C01",
"@@	c #756A03",
"#@	c #302F00",
"$@	c #040900",
"%@	c #001500",
"&@	c #755D00",
"*@	c #8A7300",
"=@	c #949400",
"-@	c #9B9B01",
";@	c #9B9B00",
">@	c #9C9B00",
",@	c #9D9C00",
"'@	c #9D9C02",
")@	c #9C9B01",
"!@	c #9C9C01",
"~@	c #9E9C00",
"{@	c #9F9D00",
"]@	c #9E9C01",
"^@	c #9E9C02",
"/@	c #9E9D02",
"(@	c #9B9A01",
"_@	c #979000",
":@	c #897701",
"<@	c #5C4900",
"[@	c #0F1700",
"}@	c #002C00",
"|@	c #866C00",
"1@	c #868000",
"2@	c #939300",
"3@	c #9D9C01",
"4@	c #979100",
"5@	c #8F7C00",
"6@	c #6D5800",
"7@	c #142100",
"8@	c #003B00",
"9@	c #755E00",
"0@	c #876C00",
"a@	c #8B7400",
"b@	c #888000",
"c@	c #939200",
"d@	c #999901",
"e@	c #9C9A00",
"f@	c #9F9B00",
"g@	c #A19C00",
"h@	c #A29C00",
"i@	c #A09C02",
"j@	c #9F9B05",
"k@	c #9D9B04",
"l@	c #958F01",
"m@	c #8A7902",
"n@	c #6B5500",
"o@	c #132100",
"p@	c #003A00",
"q@	c #917700",
"r@	c #8E8200",
"s@	c #969000",
"t@	c #959000",
"u@	c #928F00",
"v@	c #979200",
"w@	c #9C9500",
"x@	c #989400",
"y@	c #9C9600",
"z@	c #9D9800",
"A@	c #A19900",
"B@	c #A09800",
"C@	c #A09700",
"D@	c #A29900",
"E@	c #9F9700",
"F@	c #A19800",
"G@	c #9D9500",
"H@	c #9D9400",
"I@	c #A29600",
"J@	c #A69900",
"K@	c #A09500",
"L@	c #989102",
"M@	c #928F03",
"N@	c #918F03",
"O@	c #969304",
"P@	c #9C9702",
"Q@	c #9B9800",
"R@	c #9A9800",
"S@	c #9A9802",
"T@	c #969006",
"U@	c #8B7A08",
"V@	c #6C5600",
"W@	c #161500",
"X@	c #001800",
"Y@	c #765E00",
"Z@	c #866B00",
"`@	c #8E7300",
" #	c #A58D00",
".#	c #B59C00",
"+#	c #B09900",
"@#	c #AA9300",
"##	c #A89300",
"$#	c #A99300",
"%#	c #A79200",
"&#	c #9D8D00",
"*#	c #918300",
"=#	c #8A7F00",
"-#	c #928400",
";#	c #AA9400",
">#	c #B49A00",
",#	c #B59B00",
"'#	c #B69C00",
")#	c #B19700",
"!#	c #AF9500",
"~#	c #AF9400",
"{#	c #AD9400",
"]#	c #AC9500",
"^#	c #A89302",
"/#	c #A39105",
"(#	c #A19208",
"_#	c #A59503",
":#	c #A69700",
"<#	c #A79900",
"[#	c #A59905",
"}#	c #9E920D",
"|#	c #9F880D",
"1#	c #917501",
"2#	c #2B2100",
"3#	c #000000",
"4#	c #947700",
"5#	c #B89600",
"6#	c #CAA500",
"7#	c #C8A400",
"8#	c #C7A200",
"9#	c #C4A000",
"0#	c #C09D00",
"a#	c #BA9800",
"b#	c #B89700",
"c#	c #B99900",
"d#	c #AE9000",
"e#	c #766300",
"f#	c #605800",
"g#	c #6E6000",
"h#	c #A78900",
"i#	c #CAA400",
"j#	c #D2AA00",
"k#	c #D0A900",
"l#	c #CEA700",
"m#	c #CEA600",
"n#	c #C9A200",
"o#	c #C7A000",
"p#	c #CBA500",
"q#	c #C9A401",
"r#	c #C2A104",
"s#	c #BD9E06",
"t#	c #BFA002",
"u#	c #C1A200",
"v#	c #C3A400",
"w#	c #C0A204",
"x#	c #B99D0C",
"y#	c #BF9D0C",
"z#	c #C49D02",
"A#	c #A48301",
"B#	c #6F5804",
"C#	c #886D00",
"D#	c #A18100",
"E#	c #D1A800",
"F#	c #D9AE00",
"G#	c #B79400",
"H#	c #B89500",
"I#	c #BF9900",
"J#	c #AE8C00",
"K#	c #544300",
"L#	c #363C00",
"M#	c #304200",
"N#	c #8F7600",
"O#	c #CCA300",
"P#	c #E0B400",
"Q#	c #DDB200",
"R#	c #E1B500",
"S#	c #DFB400",
"T#	c #DBB100",
"U#	c #DAAF02",
"V#	c #DEB304",
"W#	c #EBBD01",
"X#	c #F0C001",
"Y#	c #A88609",
"Z#	c #A58400",
"`#	c #C59E00",
" $	c #DCB100",
".$	c #AC8A00",
"+$	c #5C4C00",
"@$	c #5B4E00",
"#$	c #675800",
"$$	c #5F4E00",
"%$	c #2A2C00",
"&$	c #485100",
"*$	c #366600",
"=$	c #515C00",
"-$	c #9A7B00",
";$	c #C49C00",
">$	c #B49000",
",$	c #B08D00",
"'$	c #DEB301",
")$	c #D9AF00",
"!$	c #E0B500",
"~$	c #E3B700",
"{$	c #F0C000",
"]$	c #F1C101",
"^$	c #F3C201",
"/$	c #A18007",
"($	c #745D00",
"_$	c #A38300",
":$	c #CFA700",
"<$	c #786200",
"[$	c #133C00",
"}$	c #005F00",
"|$	c #1C6A00",
"1$	c #3F4500",
"2$	c #285900",
"3$	c #1F5E00",
"4$	c #354B00",
"5$	c #297300",
"6$	c #206600",
"7$	c #585500",
"8$	c #7B6400",
"9$	c #6D5B00",
"0$	c #786500",
"a$	c #C29B00",
"b$	c #DBB001",
"c$	c #D5AC00",
"d$	c #F1C000",
"e$	c #F5C400",
"f$	c #917404",
"g$	c #5F4C00",
"h$	c #6E5800",
"i$	c #A28200",
"j$	c #A78600",
"k$	c #B08E00",
"l$	c #B79300",
"m$	c #977A00",
"n$	c #3D3E00",
"o$	c #205800",
"p$	c #0F7900",
"q$	c #118300",
"r$	c #0D6100",
"s$	c #237400",
"t$	c #1E6800",
"u$	c #104400",
"v$	c #107A00",
"w$	c #0D8100",
"x$	c #056E00",
"y$	c #015B00",
"z$	c #396000",
"A$	c #806800",
"B$	c #B18E01",
"C$	c #B18E00",
"D$	c #A98800",
"E$	c #A88700",
"F$	c #AD8A00",
"G$	c #B59000",
"H$	c #BF9800",
"I$	c #6E5703",
"J$	c #2E2500",
"K$	c #372C00",
"L$	c #352900",
"M$	c #362A00",
"N$	c #3D3000",
"O$	c #534200",
"P$	c #635000",
"Q$	c #514200",
"R$	c #183800",
"S$	c #226500",
"T$	c #127C00",
"U$	c #0C8400",
"V$	c #128200",
"W$	c #147C00",
"X$	c #0E5100",
"Y$	c #074600",
"Z$	c #048000",
"`$	c #039600",
" %	c #049700",
".%	c #058700",
"+%	c #037F00",
"@%	c #0B7900",
"#%	c #292E00",
"$%	c #453701",
"%%	c #514100",
"&%	c #564400",
"*%	c #524200",
"=%	c #4D3D00",
"-%	c #483800",
";%	c #423400",
">%	c #3E3000",
",%	c #413300",
"'%	c #473800",
")%	c #4F3E00",
"!%	c #584500",
"~%	c #574500",
"{%	c #2A2203",
"  . + @ # $ % & * = - ; > , ' ) ! ! ~ { ] ^ / ( _ : < [ } | 1 2 3 4 5 6 7 8 9 0 ",
"} a b c d e f g h h i j k l m n g o p q r s t u v w x y z v t A B C D E F G H I ",
"J K L c M N O P Q R M $ S T U V W N X Y Z `  . . . .N .. .+.@.#.$.%.&.*.=.-.;.>.",
",.'.).q p !.~.Z {.Z ].A S h u c p ^.^./.(._.^.A ~.!.!.:.o # <.P [.| }.|.1.2.3.4.",
"5.6.7.8.9.0.a.9.q b.z q z b.c.i i [.d.e.f.e.g.h.g.i.g.j.s k.l.m.n.& o.p.q.r.s.t.",
"u.v.w.x.y.z.z.A.B.C.C.D.E.F.F.G.H.I.J.K.L.M.N.O.P.Q.R.S.T.U.V.W.X.Y.Z.`. +.+++@+",
"#+$+%+&+*+=+-+=+;+>+,+'+)+!+~+{+]+^+/+(+_+:+<+[+}+|+1+2+3+4+5+6+7+8+9+0+a+b+c+d+",
"e+,.f+g+h+i+j+k+l+m+n+n+n+o+l+p+p+q+r+p+s+t+u+v+w+i+x+y+o+z+A+B+C+B+D+E+F+G+H+I+",
"e+$+J+K+L+M+N+N+O+M+P+M+O+Q+M+R+R+S+T+S+R+N+O+U+V+W+N+O+X+Y+Z+`+ @.@W++@@@#@$@%@",
"&@> *@K+=@-@-@;@;@;@;@;@>@;@;@;@;@;@;@;@;@;@>@,@'@)@;@;@!@~@{@]@^@/@(@_@:@<@[@}@",
"&@|@*@1@2@-@-@;@;@;@;@;@;@;@;@;@;@;@;@;@;@;@;@,@~@,@3@'@'@>@;@;@;@;@N+4@5@6@7@8@",
"9@0@a@b@c@d@O+N+R+T+T+T+S+T+;@>@>@>@>@T+T+e@e@f@g@h@i@j@k@X+X+T+T+T+N+l@m@n@o@p@",
"9@0@q@r@s@t@l+u@v@q+w@r+x@y@z@A@B@C@D@E@E@F@G@H@I@J@K@L@M@N@O@P@Q@R@S@T@U@V@W@X@",
"Y@Z@`@ #.#+#@###_+$#%#)+'+&#,+*#=#-#;#>#,#'#>#)#!#~#{#]#^#/#(#_#:#<#[#}#|#1#2#3#",
"9@|@4#5#6#7#8#8#9#0#a#b#b#c#d#e#f#g#h#i#j#k#l#m#n#o#n#p#q#r#s#t#u#v#w#x#y#z#A#B#",
"9@C#D#L E#b.0.{.F#! G#H#I#n#J#K#L#M#N#O#P#F#9./.h Q#P#R#S#U 0.T#h R#h U#V#W#X#Y#",
"9@C#Z#`#n  $u h z .$+$@$#$$+$$%$&$*$=$-$;$>$,$A '$)$S#!$P#T c ~$o P {$Q ]$O ^$/$",
"($0@_$I#:$b.0.Q#k <$[$}$|$1$2$3$4$5$6$7$8$9$0$a$b$)$0.)$9.c$U  $p d$e$X N @.<.f$",
"g$h$$+( i$j$k$l$m$n$o$p$q$r$s$t$u$v$w$x$y$&.z$A$B$>$C$J#D$E$F$F$G$H$& O#e.d.a$I$",
"J$K$K$L$M$N$O$P$Q$R$S$T$U$V$W$X$Y$Z$`$ %.%+%@%#%$%%%&%*%=%-%;%>%>%,%'%)%!%g$~%{%"};
