/* XPM */
static char * fire_xpm[] = {
"40 10 73 1",
" 	c #D66C01",
".	c #442300",
"+	c #000000",
"@	c #010100",
"#	c #020200",
"$	c #030300",
"%	c #3E2000",
"&	c #AB5600",
"*	c #040301",
"=	c #FE8001",
"-	c #CA6600",
";	c #9A4E00",
">	c #5B2E00",
",	c #1B0E00",
"'	c #020100",
")	c #261300",
"!	c #532A00",
"~	c #A15100",
"{	c #D66C00",
"]	c #FE7900",
"^	c #FE6E00",
"/	c #FE5900",
"(	c #FE6000",
"_	c #FE6F00",
":	c #FE7600",
"<	c #FE7E01",
"[	c #FE7F01",
"}	c #FE7A01",
"|	c #FE6500",
"1	c #FE5A00",
"2	c #FF4D00",
"3	c #FF5000",
"4	c #FF5800",
"5	c #FE5500",
"6	c #FE4B00",
"7	c #FF4900",
"8	c #FE6800",
"9	c #FE5E00",
"0	c #FE6900",
"a	c #FF4F00",
"b	c #FE4C00",
"c	c #FF4C00",
"d	c #FF4500",
"e	c #FF4700",
"f	c #FF4B00",
"g	c #FF3600",
"h	c #FF0800",
"i	c #FF0900",
"j	c #FF2900",
"k	c #FF2D00",
"l	c #FF4400",
"m	c #FF3E00",
"n	c #FF2800",
"o	c #FF0D00",
"p	c #FF0000",
"q	c #FF0C00",
"r	c #FF1100",
"s	c #FF2B00",
"t	c #FF1500",
"u	c #FF0100",
"v	c #FF1600",
"w	c #FF1C00",
"x	c #C20000",
"y	c #B30000",
"z	c #B20000",
"A	c #BF0000",
"B	c #C50000",
"C	c #BC0000",
"D	c #AA0000",
"E	c #860000",
"F	c #9C0000",
"G	c #B10000",
"H	c #900000",
" .++@##$$$$$$#@+++%& .++@##******#@+++%&",
"==-;>,'++++++')!~{]^==-;>,'++++++')!~{]^",
"/(_:<[=<[=====[}|122/(_:<[=<[=====[}|122",
"22234567489]80(a222222234567489]80(a2222",
"22222222222b222222cd22222222222b222222cd",
"e2222222222222222fghe2222222222222222fgh",
"ijkgf22222cl722mnoppijkgf22222cl722mnopp",
"ppppqrrskstuvmwpppppppppqrrskstuvmwppppp",
"pppppppppppppppppppppppppppppppppppppppp",
"xyzzzABBBBBBCzDEEFGHxyzzzABBBBBBCzDEEFGH"};
