/* XPM */
static char * ice_xpm[] = {
"40 11 173 2",
"  	c None",
". 	c #000000",
"+ 	c #040400",
"@ 	c #010201",
"# 	c #020200",
"$ 	c #2A3637",
"% 	c #181E1D",
"& 	c #030301",
"* 	c #0B0F0F",
"= 	c #1E2928",
"- 	c #2D3D3B",
"; 	c #161E1E",
"> 	c #010202",
", 	c #0B0F0E",
"' 	c #1F2927",
") 	c #7DA2A2",
"! 	c #6D8C85",
"~ 	c #5C7670",
"{ 	c #34433F",
"] 	c #0A0D0C",
"^ 	c #020302",
"/ 	c #25302E",
"( 	c #49615E",
"_ 	c #698D87",
": 	c #688C86",
"< 	c #60837D",
"[ 	c #668A86",
"} 	c #597874",
"| 	c #334543",
"1 	c #0A0D0D",
"2 	c #242F2D",
"3 	c #4A605B",
"4 	c #6C8C85",
"5 	c #6C8B84",
"6 	c #62999D",
"7 	c #5D8885",
"8 	c #688B85",
"9 	c #6A8B85",
"0 	c #6B8983",
"a 	c #58716C",
"b 	c #4D635E",
"c 	c #4C625D",
"d 	c #4C625E",
"e 	c #4C635E",
"f 	c #526B65",
"g 	c #617F79",
"h 	c #5F8B88",
"i 	c #5B8987",
"j 	c #558787",
"k 	c #4D8585",
"l 	c #527E7B",
"m 	c #568585",
"n 	c #658D89",
"o 	c #698F8B",
"p 	c #6A8D88",
"q 	c #577470",
"r 	c #4C6662",
"s 	c #4B6460",
"t 	c #4B6560",
"u 	c #4C6460",
"v 	c #4C645F",
"w 	c #526B66",
"x 	c #617E79",
"y 	c #5F8A87",
"z 	c #5D8986",
"A 	c #588886",
"B 	c #518686",
"C 	c #56989F",
"D 	c #4E8585",
"E 	c #508585",
"F 	c #5F8985",
"G 	c #628985",
"H 	c #658A85",
"I 	c #5C8885",
"J 	c #698B85",
"K 	c #698C86",
"L 	c #6C8C86",
"M 	c #618A87",
"N 	c #518687",
"O 	c #4D8688",
"P 	c #4C8586",
"Q 	c #4B8485",
"R 	c #4C8684",
"S 	c #447A7A",
"T 	c #478284",
"U 	c #4C8688",
"V 	c #4F8889",
"W 	c #5E8B89",
"X 	c #618C89",
"Y 	c #648D89",
"Z 	c #5B8A89",
"` 	c #5C8A89",
" .	c #688D89",
"..	c #698E89",
"+.	c #6B8E88",
"@.	c #698D88",
"#.	c #688D87",
"$.	c #4D8686",
"%.	c #4E8686",
"&.	c #55949B",
"*.	c #4C8485",
"=.	c #508685",
"-.	c #558686",
";.	c #508686",
">.	c #4E8687",
",.	c #4C8583",
"'.	c #447A79",
").	c #478182",
"!.	c #4C8687",
"~.	c #4E8788",
"{.	c #4D8788",
"].	c #4C8788",
"^.	c #4B8688",
"/.	c #508788",
"(.	c #508787",
"_.	c #4F8687",
":.	c #487F7E",
"<.	c #4A8384",
"[.	c #377F82",
"}.	c #427877",
"|.	c #478082",
"1.	c #4E8787",
"2.	c #4A8485",
"3.	c #3A8085",
"4.	c #32787C",
"5.	c #397E83",
"6.	c #2C7B83",
"7.	c #2D7D81",
"8.	c #2B7277",
"9.	c #447F80",
"0.	c #4B8484",
"a.	c #3C8085",
"b.	c #2F7D85",
"c.	c #2E777C",
"d.	c #307D85",
"e.	c #337E85",
"f.	c #3E8185",
"g.	c #408185",
"h.	c #448385",
"i.	c #488485",
"j.	c #428285",
"k.	c #418285",
"l.	c #398085",
"m.	c #3D8185",
"n.	c #438285",
"o.	c #377F85",
"p.	c #307E86",
"q.	c #2D7C80",
"r.	c #287176",
"s.	c #297880",
"t.	c #2E7C84",
"u.	c #337F86",
"v.	c #3A8186",
"w.	c #3E8286",
"x.	c #408286",
"y.	c #448486",
"z.	c #488486",
"A.	c #428286",
"B.	c #418286",
"C.	c #398086",
"D.	c #3D8186",
"E.	c #4D8586",
"F.	c #2C7A82",
"G.	c #297276",
"H.	c #297780",
"I.	c #2F7E86",
"J.	c #266D77",
"K.	c #297784",
"L.	c #2A7884",
"M.	c #2A7784",
"N.	c #256E76",
"O.	c #25737F",
"P.	c #277582",
". . +                               @ @ . .                                 # # ",
"$ % @ . .                     & . . * = - ; > . .                       . . , ' ",
") ! ~ { ] . . . . . . . . . . ^ / ( _ : < [ } | 1 . . . . . . . . . . ^ 2 3 4 5 ",
"6 7 8 9 0 a b c c c c d e e f g h i j k l m n o p q r s t s s u v v w x y z A B ",
"C D D E F G H I 7 J K L K K M N O P Q R S T U V W X Y Z `  ...+.@.#.M N $.%.%.%.",
"&.D D D D D k *.D E =.-.B ;.%.>.>.Q Q ,.'.).!.~.~.{.].^.~././.j (._.%.%.%.%.D D ",
":.D D D D D D D D D D D %.%.%.%.%.<.T [.}.|.P 1.1.1.1.1.1.>.>.>.>.%.%.%.%.k 2.3.",
"4.2.k D D D D D D D D D D D %.%.P 5.6.7.8.9.0.>.>.>.>.>.>.%.%.%.%.%.%.%.*.a.b.b.",
"c.b.d.e.3.f.g.h.i.j.k.l.m.k n.o.p.6.6.q.r.s.t.u.v.w.x.y.z.A.B.C.D.E.n.o.d.b.b.b.",
"c.b.b.b.b.b.b.b.b.b.b.b.b.b.b.b.b.F.6.q.G.H.6.I.I.I.I.I.I.I.I.b.b.b.b.b.b.b.b.b.",
"J.K.L.L.M.K.K.K.K.K.K.M.L.L.L.L.L.F.F.q.N.O.P.L.M.K.K.K.K.K.K.M.L.L.L.L.L.b.b.b."};
