/* XPM */
static char * lever_left_xpm[] = {
"20 16 103 2",
"  	c None",
". 	c #9B4454",
"+ 	c #8B3C49",
"@ 	c #994655",
"# 	c #B23B52",
"$ 	c #C1445A",
"% 	c #8C3C4A",
"& 	c #993048",
"* 	c #BD3F56",
"= 	c #B63F54",
"- 	c #923748",
"; 	c #9A2F47",
"> 	c #C4425A",
", 	c #A83A4E",
"' 	c #98374A",
") 	c #A13049",
"! 	c #C4435A",
"~ 	c #8D3144",
"{ 	c #682C3C",
"] 	c #374455",
"^ 	c #28323E",
"/ 	c #46566E",
"( 	c #405061",
"_ 	c #344051",
": 	c #4A5C74",
"< 	c #3C4958",
"[ 	c #374458",
"} 	c #475870",
"| 	c #9FA6AB",
"1 	c #9FA8B0",
"2 	c #B0B2B4",
"3 	c #AFB5BB",
"4 	c #AAADB2",
"5 	c #464D59",
"6 	c #A2A5A8",
"7 	c #AAB5C0",
"8 	c #A5B1BC",
"9 	c #C3C5C8",
"0 	c #BFC5CD",
"a 	c #C3CAD1",
"b 	c #AFB1B4",
"c 	c #A4ACB3",
"d 	c #B5B6B7",
"e 	c #969EA6",
"f 	c #5B6774",
"g 	c #485463",
"h 	c #6E7784",
"i 	c #AAAFB4",
"j 	c #B8B9BA",
"k 	c #B4BAC1",
"l 	c #B0BDC8",
"m 	c #A2AFBB",
"n 	c #4A5562",
"o 	c #8B9299",
"p 	c #B2BAC1",
"q 	c #91989F",
"r 	c #596370",
"s 	c #C2C8D1",
"t 	c #CED4DC",
"u 	c #A4A5A8",
"v 	c #565D62",
"w 	c #6A757F",
"x 	c #767B82",
"y 	c #A4B1BE",
"z 	c #AFBCC8",
"A 	c #B2BECA",
"B 	c #5F6974",
"C 	c #868B93",
"D 	c #C1C2C4",
"E 	c #ABADB0",
"F 	c #A6ABB2",
"G 	c #AFB6BF",
"H 	c #AEB5BF",
"I 	c #B1B8C1",
"J 	c #B6BCC5",
"K 	c #B5BCC5",
"L 	c #B0B6BB",
"M 	c #95A5B4",
"N 	c #B0BCC8",
"O 	c #B1BDC9",
"P 	c #A1A8AF",
"Q 	c #C1C5CD",
"R 	c #A8AEB4",
"S 	c #9DA8B2",
"T 	c #9EAEBD",
"U 	c #9CACBB",
"V 	c #A4B3C2",
"W 	c #B4BBC4",
"X 	c #97A0A9",
"Y 	c #BFC7D0",
"Z 	c #A7AFB6",
"` 	c #B7BEC8",
" .	c #C7CED8",
"..	c #A3ADB6",
"+.	c #929CA5",
"@.	c #8F9DAA",
"#.	c #8D9CA9",
"$.	c #95A2AF",
"%.	c #A0ABB6",
"&.	c #B2B8C1",
"*.	c #ACB3BC",
"=.	c #959DA5",
"-.	c #B5BBC4",
"  . +                                   ",
"@ # $                                   ",
"% & * =                                 ",
"  - ; > ,                               ",
"    ' ) !                               ",
"      ~ { ]                             ",
"        ^ / (                           ",
"          _ : <                         ",
"            [ }   | 1 2 3 4             ",
"              5 6 7 8 9 0 a b           ",
"              c d e f g h i j k         ",
"              l m n o p q r s t         ",
"            u v w x y z A B C D E       ",
"      F G H I J K L M N O P Q Q Q Q Q R ",
"      S T U V O O W X Y Z `  . . . . ...",
"      +.@.#.$.%.%.&.*.=.*.-.-.-.-.-.-.X "};
