/* XPM */
static char * lever_right_xpm[] = {
"20 16 156 2",
"  	c #FFFFFE",
". 	c #F9F8F7",
"+ 	c #CFC0C2",
"@ 	c #B5898E",
"# 	c #E4DDDD",
"$ 	c #FBFBFA",
"% 	c #D7CACB",
"& 	c #A25662",
"* 	c #AB4054",
"= 	c #B2747C",
"- 	c #FDFCFB",
"; 	c #DBD1D1",
"> 	c #A5646E",
", 	c #AB3950",
"' 	c #C14C5F",
") 	c #B88B90",
"! 	c #FDFDFC",
"~ 	c #E5E0E0",
"{ 	c #A96C75",
"] 	c #AA394F",
"^ 	c #C1495D",
"/ 	c #B88288",
"( 	c #EDE9E8",
"_ 	c #FAFAF9",
": 	c #C7BEBF",
"< 	c #A14B5A",
"[ 	c #BF455A",
"} 	c #BB7B82",
"| 	c #EAE5E4",
"1 	c #D7D7D7",
"2 	c #6B6C74",
"3 	c #85515C",
"4 	c #C18B91",
"5 	c #E2DCDB",
"6 	c #FFFFFF",
"7 	c #DCDDDD",
"8 	c #767C85",
"9 	c #5B6778",
"0 	c #BFC0C1",
"a 	c #ECEAEA",
"b 	c #FEFEFD",
"c 	c #FCFCFB",
"d 	c #E2E2E2",
"e 	c #D0D2D4",
"f 	c #CFCFD1",
"g 	c #D6D6D7",
"h 	c #F0F0EF",
"i 	c #E5E6E5",
"j 	c #7C8189",
"k 	c #5E6B7D",
"l 	c #B6B9BC",
"m 	c #F7F7F6",
"n 	c #CDCECF",
"o 	c #B2BBC3",
"p 	c #A9B1B9",
"q 	c #BCBFC1",
"r 	c #C8CED5",
"s 	c #C1C5CA",
"t 	c #8C8F94",
"u 	c #5D6778",
"v 	c #A8ABB0",
"w 	c #F7F7F7",
"x 	c #CCCFD0",
"y 	c #B4B6B9",
"z 	c #A0ABB5",
"A 	c #8B94A0",
"B 	c #8B929A",
"C 	c #B2B9C1",
"D 	c #B8BBC0",
"E 	c #A8ABAE",
"F 	c #A5A8AC",
"G 	c #F2F2F2",
"H 	c #E6E6E6",
"I 	c #B1BAC2",
"J 	c #AFB6BC",
"K 	c #727B86",
"L 	c #606770",
"M 	c #787E86",
"N 	c #666E7A",
"O 	c #A5AAB0",
"P 	c #C4C9CF",
"Q 	c #CED2D5",
"R 	c #FAFAFA",
"S 	c #C8CBCC",
"T 	c #95A0AA",
"U 	c #7E8A96",
"V 	c #6A727B",
"W 	c #A1ACB7",
"X 	c #A8B4BF",
"Y 	c #97A0A9",
"Z 	c #727A85",
"` 	c #B3B8C0",
" .	c #BDC0C6",
"..	c #ECEDEC",
"+.	c #E5E6E6",
"@.	c #E2E3E3",
"#.	c #DDDEDE",
"$.	c #A9AAAC",
"%.	c #C3C4C6",
"&.	c #767D84",
"*.	c #8A9199",
"=.	c #A0AEBA",
"-.	c #B0BCC8",
";.	c #AAB6C2",
">.	c #656B74",
",.	c #9FA2A7",
"'.	c #B6B7B9",
").	c #CDCDCE",
"!.	c #E5E5E5",
"~.	c #F3F4F3",
"{.	c #A5ACB4",
"].	c #AAB4BE",
"^.	c #AAB4BF",
"/.	c #B0B9C3",
"(.	c #B5BEC8",
"_.	c #B5BEC7",
":.	c #A2A9B0",
"<.	c #9CAAB8",
"[.	c #ADBAC6",
"}.	c #ADB8C2",
"|.	c #C4C9D1",
"1.	c #C5CAD3",
"2.	c #C5CAD2",
"3.	c #C4C9D2",
"4.	c #C2C8CF",
"5.	c #CBCECF",
"6.	c #9BA7B1",
"7.	c #9DADBB",
"8.	c #9DADBC",
"9.	c #A6B4C2",
"0.	c #B0BDC9",
"a.	c #B2BECA",
"b.	c #B8BFC9",
"c.	c #9EA7B0",
"d.	c #A7AFB7",
"e.	c #ABB2BC",
"f.	c #C5CCD6",
"g.	c #C8CFD9",
"h.	c #C7CED9",
"i.	c #C3CAD4",
"j.	c #C4C7CA",
"k.	c #FAFBFA",
"l.	c #959DA4",
"m.	c #87939E",
"n.	c #85929D",
"o.	c #8C97A3",
"p.	c #949EA8",
"q.	c #A4ABB3",
"r.	c #9EA4AC",
"s.	c #9DA3AB",
"t.	c #A2A8AF",
"u.	c #A7ADB4",
"v.	c #A7ADB5",
"w.	c #A7AEB6",
"x.	c #D0D1D3",
"y.	c #FBFBFB",
"                                . + @ # ",
"                              $ % & * = ",
"                            - ; > , ' ) ",
"                          ! ~ { ] ^ / ( ",
"                          _ : < [ } | ! ",
"                        ! 1 2 3 4 5 !   ",
"              6 6 6   ! 7 8 9 0 a b     ",
"          c d e f g h i j k l m         ",
"        m n o p q r s t u v m           ",
"      w x y z A B C D E F G b           ",
"    ! H I J K L M N O P Q c             ",
"b b R S T U V W X Y Z `  ...! b         ",
"+.@.#.$.%.&.*.=.-.;.>.,.'.).d !.~.b     ",
"{.].^./.(._.:.<.[.}.` |.1.2.3.4.5.$     ",
"6.7.8.9.0.a.b.c.d.e.f.g.g.g.h.i.j.k.    ",
"l.m.n.o.p.Y q.r.s.t.u.v.v.v.v.w.x.y.    "};
