/* XPM */
static char * lever_left_xpm[] = {
"20 14 153 2",
"  	c #D5C2C4",
". 	c #C6A5A9",
"+ 	c #CCAEB1",
"@ 	c #F0EBEA",
"# 	c #FCFCFB",
"$ 	c #FFFFFE",
"% 	c #AC727A",
"& 	c #B25967",
"* 	c #BD6F79",
"= 	c #CFB3B5",
"- 	c #EEE7E8",
"; 	c #FEFEFE",
"> 	c #CAB6B7",
", 	c #BA878D",
"' 	c #B1495B",
") 	c #C2707B",
"! 	c #D9BEC0",
"~ 	c #EFEBEB",
"{ 	c #FDFDFC",
"] 	c #F2EFEE",
"^ 	c #D2BFC1",
"/ 	c #B2757D",
"( 	c #B65665",
"_ 	c #C58E94",
": 	c #E0CDCE",
"< 	c #FAF8F7",
"[ 	c #FEFDFC",
"} 	c #EDE9E8",
"| 	c #D0BDBF",
"1 	c #AB787F",
"2 	c #956C74",
"3 	c #B9AFB2",
"4 	c #EDEDED",
"5 	c #FEFEFD",
"6 	c #F5F3F3",
"7 	c #DAD6D7",
"8 	c #9D9DA2",
"9 	c #878B93",
"0 	c #BBBDC1",
"a 	c #ECEDED",
"b 	c #F9F9F8",
"c 	c #D7D8D8",
"d 	c #A4A7AC",
"e 	c #848A95",
"f 	c #C2C3C7",
"g 	c #EAEAEA",
"h 	c #F7F8F7",
"i 	c #F1F1F1",
"j 	c #F0F0EF",
"k 	c #F4F4F3",
"l 	c #FAFAF9",
"m 	c #F9F8F7",
"n 	c #D5D6D7",
"o 	c #93969D",
"p 	c #8D9299",
"q 	c #A9AEB2",
"r 	c #BEC3C6",
"s 	c #B9BFC3",
"t 	c #BDC2C7",
"u 	c #C6C9CD",
"v 	c #D1D3D5",
"w 	c #E7E8E8",
"x 	c #F8F8F7",
"y 	c #FFFFFF",
"z 	c #F4F4F4",
"A 	c #D8D8D9",
"B 	c #A9ACAF",
"C 	c #9AA1A6",
"D 	c #A2AAB2",
"E 	c #97A0A9",
"F 	c #9FA5AD",
"G 	c #AEB3BA",
"H 	c #BCC0C6",
"I 	c #CBCDD0",
"J 	c #E2E3E3",
"K 	c #F5F5F5",
"L 	c #DCDEDE",
"M 	c #B8BFC4",
"N 	c #7D8690",
"O 	c #6A747F",
"P 	c #68727E",
"Q 	c #7A828C",
"R 	c #979CA3",
"S 	c #B2B8BE",
"T 	c #D0D3D7",
"U 	c #EBECEC",
"V 	c #FAFAFA",
"W 	c #FBFBFB",
"X 	c #EAEBEC",
"Y 	c #C7CACB",
"Z 	c #ADB3B8",
"` 	c #8D959D",
" .	c #7C858E",
"..	c #9AA5B0",
"+.	c #A9B3BD",
"@.	c #9DA7B0",
"#.	c #7A838D",
"$.	c #9FA4AC",
"%.	c #C1C4C9",
"&.	c #D8D9DA",
"*.	c #F2F2F3",
"=.	c #FBFCFC",
"-.	c #EEEFEE",
";.	c #CED0D2",
">.	c #C3C6CA",
",.	c #BBBEC3",
"'.	c #ADB1B7",
").	c #A9ADB3",
"!.	c #A0A5AB",
"~.	c #999FA8",
"{.	c #9EABB8",
"].	c #AAB7C4",
"^.	c #A9B4BE",
"/.	c #969DA4",
"(.	c #A4A8AE",
"_.	c #B4B7BC",
":.	c #BCBFC4",
"<.	c #C7CACE",
"[.	c #C9CBCE",
"}.	c #C5C7CA",
"|.	c #E3E5E6",
"1.	c #B1BAC3",
"2.	c #9FACB9",
"3.	c #A0AEBC",
"4.	c #A5B3C0",
"5.	c #ACB9C5",
"6.	c #B0BAC5",
"7.	c #ADB5BF",
"8.	c #A1ABB7",
"9.	c #A4AFB9",
"0.	c #AEB7C0",
"a.	c #B6BDC6",
"b.	c #BFC6CF",
"c.	c #C4CBD4",
"d.	c #C5CBD5",
"e.	c #C5CDD6",
"f.	c #B7BFC8",
"g.	c #A5ACB5",
"h.	c #E4E5E6",
"i.	c #A9B1B8",
"j.	c #8E9BA6",
"k.	c #8C9AA7",
"l.	c #93A0AC",
"m.	c #A2ABB5",
"n.	c #A6ADB7",
"o.	c #A1A8B1",
"p.	c #9FA6AF",
"q.	c #A4ABB3",
"r.	c #ACB2BB",
"s.	c #AFB5BE",
"t.	c #AFB6BF",
"u.	c #A8AFB7",
"v.	c #A0A7AE",
"  . + @ # $ $ $ $ $ $ $ $ $ $ $ $ $ $ $ ",
"% & * = - ; $ $ $ $ $ $ $ $ $ $ $ $ $ $ ",
"> , ' ) ! ~ { $ $ $ $ $ $ $ $ $ $ $ $ $ ",
"] ^ / ( _ : < $ $ $ $ $ $ $ $ $ $ $ $ $ ",
"[ } | 1 2 3 4 # $ $ $ $ $ $ $ $ $ $ $ $ ",
"$ 5 6 7 8 9 0 a $ $ 5 5 5 $ $ $ $ $ $ $ ",
"$ $ $ b c d e f g h i j k l { $ $ $ $ $ ",
"$ $ $ 5 m n o p q r s t u v w x 5 $ $ $ ",
"$ $ $ $ y z A B C D E F G H I J b 5 $ $ ",
"$ $ $ $ y K L M E N O P Q R S T U V $ $ ",
"$ $ 5 W W X Y Z `  ...+.@.#.$.%.&.*.=.W ",
"$ { -.;.>.,.'.).!.~.{.].^./.(._.:.<.[.}.",
"$ l |.1.2.3.4.5.6.7.8.9.0.a.b.c.d.e.f.g.",
"$ # h.i.j.k.l...m.n.o.p.q.r.s.t.t.t.u.v."};
