/* XPM */
static char * lever_xpm[] = {
"20 20 98 2",
"  	c None",
". 	c #95414F",
"+ 	c #9E4252",
"@ 	c #7F293A",
"# 	c #992E45",
"$ 	c #C6455C",
"% 	c #8B2C3E",
"& 	c #C7455C",
"* 	c #472836",
"= 	c #583040",
"- 	c #324253",
"; 	c #43546A",
"> 	c #37475A",
", 	c #485A70",
"' 	c #46586E",
") 	c #787C84",
"! 	c #7A7F89",
"~ 	c #A8B0B7",
"{ 	c #AAB5BF",
"] 	c #B6B9BE",
"^ 	c #BABDC1",
"/ 	c #BFC5CD",
"( 	c #B5BAC1",
"_ 	c #B6B9BB",
": 	c #A5AEB7",
"< 	c #AAB6C2",
"[ 	c #8D959C",
"} 	c #999FA5",
"| 	c #C5CDD4",
"1 	c #BAC0C5",
"2 	c #B8BABC",
"3 	c #AEB9C3",
"4 	c #B2B5B9",
"5 	c #919AA2",
"6 	c #54616F",
"7 	c #303E4F",
"8 	c #38475B",
"9 	c #65707F",
"0 	c #A2A9AF",
"a 	c #BABCBE",
"b 	c #C4CBD2",
"c 	c #A9AFB3",
"d 	c #A0AFBB",
"e 	c #9CAAB7",
"f 	c #3C4957",
"g 	c #878D94",
"h 	c #B5BFC8",
"i 	c #BDC5CD",
"j 	c #8B9199",
"k 	c #495566",
"l 	c #BEC6CD",
"m 	c #C6CED4",
"n 	c #B2B6BC",
"o 	c #85888B",
"p 	c #C5C5C6",
"q 	c #5E6A75",
"r 	c #646A71",
"s 	c #ADB9C4",
"t 	c #A6B4C2",
"u 	c #B1BDC9",
"v 	c #AEBAC5",
"w 	c #55606E",
"x 	c #727A83",
"y 	c #C6C6C6",
"z 	c #888A8F",
"A 	c #9299A0",
"B 	c #ABB5BE",
"C 	c #A6B1BB",
"D 	c #AFB9C2",
"E 	c #B2BBC3",
"F 	c #A7AEB5",
"G 	c #A1ACB8",
"H 	c #A4B2C0",
"I 	c #ABB6C2",
"J 	c #A8AFB7",
"K 	c #C0C7CE",
"L 	c #939AA1",
"M 	c #8C969F",
"N 	c #A4B3C1",
"O 	c #9CACBB",
"P 	c #ACB9C6",
"Q 	c #BCC5CF",
"R 	c #A4ABB4",
"S 	c #9BA5B0",
"T 	c #A9B2BC",
"U 	c #A5ADB5",
"V 	c #C1CAD3",
"W 	c #C6CFD8",
"X 	c #8C96A0",
"Y 	c #838C95",
"Z 	c #93A0AD",
"` 	c #8C9AA8",
" .	c #9AA6B2",
"..	c #9FAAB4",
"+.	c #AEB7BF",
"@.	c #B0B8C1",
"#.	c #9BA3AB",
"$.	c #B2BAC2",
"                  . +                   ",
"                @ # $ %                 ",
"                @ # $ %                 ",
"                @ # & %                 ",
"                @ # & %                 ",
"                @ # & %                 ",
"                  * =                   ",
"                  - ;                   ",
"                  > ,                   ",
"                  > ,                   ",
"                  > '                   ",
"                  ) !                   ",
"              ~ { ] ^ / (               ",
"            _ : < [ } | 1 2             ",
"          3 4 5 6 7 8 9 0 a b           ",
"        c d e f g h i j k l m n         ",
"        o p q r s t u v w x y z         ",
"A B C C D E E F G H u I J K K K K K K L ",
"M N O O P u u Q R S T U V W W W W W W X ",
"Y Z ` `  .....+.@.#.#.@.$.$.$.$.$.$.$.Y "};
