/* XPM */
static char * lever_right_xpm[] = {
"20 14 98 2",
"  	c None",
". 	c #9C4655",
"+ 	c #883B48",
"@ 	c #983047",
"# 	c #B03A51",
"$ 	c #A74657",
"% 	c #82303F",
"& 	c #993048",
"* 	c #B43A51",
"= 	c #C14359",
"- 	c #7C2B39",
"; 	c #993148",
"> 	c #B63B52",
", 	c #752635",
"' 	c #30303B",
") 	c #993146",
"! 	c #C1445A",
"~ 	c #79323F",
"{ 	c #384353",
"] 	c #45566D",
"^ 	c #3E3845",
"/ 	c #394455",
"( 	c #495B73",
"_ 	c #485666",
": 	c #A2A7AB",
"< 	c #AEB9C2",
"[ 	c #A4ADB5",
"} 	c #C2C4C4",
"| 	c #CDD4DB",
"1 	c #BDC2C8",
"2 	c #5E636B",
"3 	c #475870",
"4 	c #475564",
"5 	c #9BA2A7",
"6 	c #D1D1D1",
"7 	c #99A4AE",
"8 	c #85909C",
"9 	c #787E88",
"0 	c #B3B9C2",
"a 	c #C0C3C6",
"b 	c #BDC0C2",
"c 	c #6D737B",
"d 	c #B0BCC6",
"e 	c #909AA4",
"f 	c #5D6772",
"g 	c #798088",
"h 	c #899098",
"i 	c #606975",
"j 	c #8D949C",
"k 	c #BFC5CD",
"l 	c #B6BBC2",
"m 	c #989B9F",
"n 	c #818E97",
"o 	c #6D7A86",
"p 	c #767C84",
"q 	c #A4B1BE",
"r 	c #AFBCC8",
"s 	c #ACB6C0",
"t 	c #4B5663",
"u 	c #B8BDC3",
"v 	c #C1C4C8",
"w 	c #989DA3",
"x 	c #A7AEB6",
"y 	c #A5ACB4",
"z 	c #A4AAB1",
"A 	c #ACB2BA",
"B 	c #9FA6AE",
"C 	c #8F959C",
"D 	c #9AA9B8",
"E 	c #B1BDC9",
"F 	c #B0BCC8",
"G 	c #8C9097",
"H 	c #B6BAC0",
"I 	c #B9BCC2",
"J 	c #B6B9C0",
"K 	c #BABDC5",
"L 	c #B7BBC2",
"M 	c #949EA8",
"N 	c #A1B0BF",
"O 	c #9DACBB",
"P 	c #A5B3C1",
"Q 	c #B7BDC6",
"R 	c #9EA8B2",
"S 	c #BEC7D0",
"T 	c #9DA5AC",
"U 	c #C6CDD7",
"V 	c #C7CED8",
"W 	c #C0C8D4",
"X 	c #8C969F",
"Y 	c #92A0AD",
"Z 	c #8E9CAA",
"` 	c #96A3B0",
" .	c #A1ACB6",
"..	c #B5BBC4",
"+.	c #A8AFB8",
"@.	c #989FA8",
"#.	c #B3BAC3",
"$.	c #AEB6C1",
"                                    .   ",
"                                + @ # $ ",
"                              % & * = - ",
"                              ; > = ,   ",
"                            ' ) ! ~     ",
"                          { ] ^         ",
"                        / ( _           ",
"          : < [ } | 1 2 3 4             ",
"        5 6 7 8 9 0 a b c               ",
"        d e f g h i j k l               ",
"      m n o p q r s t u v               ",
"w x y z A B C D E F G H I J K L         ",
"M N O P E E Q R S T U V V V V W         ",
"X Y Z `  . ...+.@.#...........$.        "};
