/* XPM */
static char * mouse_xpm[] = {
"12 19 51 1",
" 	c #8A8A8A",
".	c #D1D1D0",
"+	c #FFFFFE",
"@	c #A1A1A1",
"#	c #000000",
"$	c #90908F",
"%	c #F0F0EF",
"&	c #CECECD",
"*	c #3A3A3A",
"=	c #C5C5C4",
"-	c #FEFEFD",
";	c #7E7E7D",
">	c #EAEAE9",
",	c #5E5E5D",
"'	c #242423",
")	c #B8B8B8",
"!	c #FBFBFA",
"~	c #A1A1A0",
"{	c #6B6B6B",
"]	c #E1E1E1",
"^	c #0F0F0E",
"/	c #AAAAA9",
"(	c #F8F8F7",
"_	c #EFEFEE",
":	c #838382",
"<	c #5D5D5D",
"[	c #E6E6E5",
"}	c #858585",
"|	c #F5F5F4",
"1	c #CDCDCC",
"2	c #7C7C7B",
"3	c #FDFDFC",
"4	c #0D0D0D",
"5	c #5D5D5C",
"6	c #767675",
"7	c #5C5C5B",
"8	c #C3C3C2",
"9	c #CBCBCB",
"0	c #969695",
"a	c #F7F7F6",
"b	c #080808",
"c	c #F4F4F3",
"d	c #F1F1F0",
"e	c #3C3C3B",
"f	c #838383",
"g	c #C4C4C3",
"h	c #1B1B1B",
"i	c #E8E8E7",
"j	c #C1C1C0",
"k	c #D0D0CF",
"l	c #D6D6D6",
" .++++++++++",
"@#$%++++++++",
"&##*=-++++++",
"%####;>+++++",
"+,####')!+++",
"+~######{]++",
"+&#######^/(",
"+_#########:",
"++<#######<[",
"++~######}|+",
"++1#####23++",
"++%#####4[++",
"+++5#####6-+",
"+++~##7###8+",
"+++&##90##*a",
"+++_#bcde#2-",
"++++5f++ghi+",
"++++~j++-k++",
"++++l_++++++"};
