/* XPM */
static char * wall_xpm[] = {
"21 20 416 2",
"  	c #2C2512",
". 	c #272410",
"+ 	c #171B06",
"@ 	c #14240A",
"# 	c #203715",
"$ 	c #244017",
"% 	c #294816",
"& 	c #344F1E",
"* 	c #273914",
"= 	c #1F260A",
"- 	c #353416",
"; 	c #4B461F",
"> 	c #545220",
", 	c #53541B",
"' 	c #53531D",
") 	c #525020",
"! 	c #57552B",
"~ 	c #5E5C37",
"{ 	c #5E5B39",
"] 	c #5F5C3B",
"^ 	c #5E5B38",
"/ 	c #5C562B",
"( 	c #504C28",
"_ 	c #2C2F13",
": 	c #192D0E",
"< 	c #27421B",
"[ 	c #28481B",
"} 	c #203F12",
"| 	c #163008",
"1 	c #2A3A12",
"2 	c #424A1B",
"3 	c #555424",
"4 	c #67622D",
"5 	c #6A6924",
"6 	c #666918",
"7 	c #656619",
"8 	c #61611C",
"9 	c #646325",
"0 	c #66642D",
"a 	c #666330",
"b 	c #6A6735",
"c 	c #706D37",
"d 	c #686127",
"e 	c #5D5928",
"f 	c #383816",
"g 	c #1B290F",
"h 	c #243A18",
"i 	c #1F3912",
"j 	c #112B06",
"k 	c #112107",
"l 	c #414D21",
"m 	c #505822",
"n 	c #5C5C26",
"o 	c #6E6B2F",
"p 	c #717026",
"q 	c #6E6F19",
"r 	c #6B6C16",
"s 	c #676715",
"t 	c #69681A",
"u 	c #68661C",
"v 	c #636119",
"w 	c #63631B",
"x 	c #6D6C23",
"y 	c #6F661B",
"z 	c #686122",
"A 	c #575121",
"B 	c #322F11",
"C 	c #1A1F07",
"D 	c #131B04",
"E 	c #1B1E0A",
"F 	c #353521",
"G 	c #4C4F2C",
"H 	c #4E5023",
"I 	c #555523",
"J 	c #65642D",
"K 	c #6F6D30",
"L 	c #716E2D",
"M 	c #6F6C27",
"N 	c #6D6B21",
"O 	c #6D6D1D",
"P 	c #686916",
"Q 	c #64660F",
"R 	c #65670D",
"S 	c #6C6F14",
"T 	c #6E6412",
"U 	c #6A601C",
"V 	c #6F642D",
"W 	c #594E26",
"X 	c #41361E",
"Y 	c #362B1C",
"Z 	c #3B3324",
"` 	c #4D4632",
" .	c #514C31",
"..	c #4B4922",
"+.	c #515120",
"@.	c #5E5F2B",
"#.	c #6B6836",
"$.	c #706A39",
"%.	c #706B33",
"&.	c #706C2C",
"*.	c #717025",
"=.	c #6D6E1A",
"-.	c #686B10",
";.	c #666A09",
">.	c #686C0B",
",.	c #6A600F",
"'.	c #5F5511",
").	c #6C612A",
"!.	c #6E6135",
"~.	c #605434",
"{.	c #554932",
"].	c #514732",
"^.	c #534B32",
"/.	c #4E4929",
"(.	c #4C4A1E",
"_.	c #54551F",
":.	c #5D5E25",
"<.	c #676332",
"[.	c #6E6739",
"}.	c #706A36",
"|.	c #716D30",
"1.	c #737129",
"2.	c #6F701F",
"3.	c #686B13",
"4.	c #626608",
"5.	c #606405",
"6.	c #6B6114",
"7.	c #5B520E",
"8.	c #675D26",
"9.	c #6F6334",
"0.	c #625632",
"a.	c #564C2E",
"b.	c #544A2E",
"c.	c #524B2A",
"d.	c #534E25",
"e.	c #5A5924",
"f.	c #626225",
"g.	c #636324",
"h.	c #67632E",
"i.	c #6F6838",
"j.	c #736D38",
"k.	c #736F33",
"l.	c #726F2A",
"m.	c #6D6C20",
"n.	c #656614",
"o.	c #60630C",
"p.	c #5E6208",
"q.	c #6C6219",
"r.	c #5F5614",
"s.	c #6B6128",
"t.	c #6F6532",
"u.	c #60562C",
"v.	c #564D28",
"w.	c #524A25",
"x.	c #524D23",
"y.	c #5C5825",
"z.	c #67672A",
"A.	c #6A6C26",
"B.	c #666722",
"C.	c #6B672E",
"D.	c #756D3C",
"E.	c #78713C",
"F.	c #767035",
"G.	c #726E2C",
"H.	c #6C6A22",
"I.	c #656518",
"J.	c #626414",
"K.	c #5F6210",
"L.	c #6D641F",
"M.	c #635B19",
"N.	c #6F672C",
"O.	c #6E6530",
"P.	c #5F5627",
"Q.	c #554D22",
"R.	c #50491D",
"S.	c #534F1C",
"T.	c #5F5E22",
"U.	c #6B6B27",
"V.	c #6C6D22",
"W.	c #67681D",
"X.	c #6F6A2D",
"Y.	c #786F3A",
"Z.	c #736B32",
"`.	c #6F6A2C",
" +	c #6D6927",
".+	c #696822",
"++	c #67681F",
"@+	c #616319",
"#+	c #706826",
"$+	c #67601E",
"%+	c #6F672B",
"&+	c #686129",
"*+	c #5A521E",
"=+	c #514A17",
"-+	c #524C17",
";+	c #5D581E",
">+	c #686524",
",+	c #6E6C23",
"'+	c #6B6C1C",
")+	c #666616",
"!+	c #6B6624",
"~+	c #6F662D",
"{+	c #6F652D",
"]+	c #6E662D",
"^+	c #6F682D",
"/+	c #6C6B2A",
"(+	c #696926",
"_+	c #646622",
":+	c #706828",
"<+	c #66601F",
"[+	c #6E682A",
"}+	c #686227",
"|+	c #5E571E",
"1+	c #59531A",
"2+	c #5C571B",
"3+	c #676322",
"4+	c #6D6A23",
"5+	c #6D6B1D",
"6+	c #696A16",
"7+	c #656512",
"8+	c #68621B",
"9+	c #6D6425",
"0+	c #71672B",
"a+	c #736A2F",
"b+	c #736C32",
"c+	c #726E34",
"d+	c #6C6A2F",
"e+	c #666628",
"f+	c #626525",
"g+	c #6E6728",
"h+	c #666120",
"i+	c #6E692A",
"j+	c #6C6729",
"k+	c #666023",
"l+	c #635E21",
"m+	c #656121",
"n+	c #6B6823",
"o+	c #6B691E",
"p+	c #686617",
"q+	c #676613",
"r+	c #686614",
"s+	c #6D661B",
"t+	c #746A26",
"u+	c #7A702F",
"v+	c #797033",
"w+	c #756E33",
"x+	c #716D34",
"y+	c #6B6930",
"z+	c #67672D",
"A+	c #626427",
"B+	c #6D6827",
"C+	c #666221",
"D+	c #6F6B2B",
"E+	c #6E6A29",
"F+	c #696525",
"G+	c #686323",
"H+	c #696521",
"I+	c #6A6720",
"J+	c #676419",
"K+	c #636113",
"L+	c #676513",
"M+	c #6C6A18",
"N+	c #746D1E",
"O+	c #776E24",
"P+	c #7A6F29",
"Q+	c #796F2E",
"R+	c #756C31",
"S+	c #6E6830",
"T+	c #6A6630",
"U+	c #6A6932",
"V+	c #63652C",
"W+	c #6A6624",
"X+	c #64611E",
"Y+	c #6E6B29",
"Z+	c #6E6B28",
"`+	c #696623",
" @	c #686421",
".@	c #69651F",
"+@	c #6B671F",
"@@	c #68641A",
"#@	c #666216",
"$@	c #6A6718",
"%@	c #706C1C",
"&@	c #756E1C",
"*@	c #74691A",
"=@	c #72681D",
"-@	c #756B28",
";@	c #756C30",
">@	c #686530",
",@	c #6B6A34",
"'@	c #64652E",
")@	c #686522",
"!@	c #625F1D",
"~@	c #6D6A28",
"{@	c #6B6824",
"]@	c #64611D",
"^@	c #65611D",
"/@	c #6D6923",
"(@	c #736F27",
"_@	c #716D24",
":@	c #6D691E",
"<@	c #6E6A1E",
"[@	c #706B1D",
"}@	c #736A17",
"|@	c #726714",
"1@	c #726719",
"2@	c #746B25",
"3@	c #756D2E",
"4@	c #706A31",
"5@	c #696530",
"6@	c #6C6B36",
"7@	c #676831",
"8@	c #6B6A28",
"9@	c #626121",
"0@	c #6A6827",
"a@	c #6C6926",
"b@	c #6A6523",
"c@	c #6A6420",
"d@	c #716C25",
"e@	c #7B752D",
"f@	c #767129",
"g@	c #6E6B20",
"h@	c #6F6C1F",
"i@	c #6D6A1A",
"j@	c #706812",
"k@	c #756A13",
"l@	c #7C7020",
"m@	c #7D7329",
"n@	c #786F2D",
"o@	c #726C31",
"p@	c #6D6832",
"q@	c #6F6D37",
"r@	c #6C6A35",
"s@	c #6F6F34",
"t@	c #69692F",
"u@	c #6D6B31",
"v@	c #726E32",
"w@	c #736D30",
"x@	c #6D6628",
"y@	c #6E6725",
"z@	c #78712D",
"A@	c #736E29",
"B@	c #6E6D23",
"C@	c #6B6A1C",
"D@	c #6D6611",
"E@	c #766C15",
"F@	c #7F7322",
"G@	c #7E742A",
"H@	c #776F2D",
"I@	c #726B31",
"J@	c #736E39",
"K@	c #75703F",
"L@	c #706D3B",
"M@	c #717043",
"N@	c #6F6E41",
"O@	c #6D6B3C",
"P@	c #736E3F",
"Q@	c #756F3E",
"R@	c #6E6735",
"S@	c #6B632F",
"T@	c #6F6831",
"U@	c #6E6A31",
"V@	c #6A682E",
"W@	c #68682A",
"X@	c #646320",
"Y@	c #645F14",
"Z@	c #70671A",
"`@	c #766E25",
" #	c #776E2D",
".#	c #787138",
"+#	c #787140",
"@#	c #746F41",
"##	c #757147",
"$#	c #726F43",
"%#	c #626143",
"&#	c #5F5F41",
"*#	c #585537",
"=#	c #605B3C",
"-#	c #6A6444",
";#	c #665E3D",
">#	c #5A522F",
",#	c #565029",
"'#	c #58552C",
")#	c #59582D",
"!#	c #545428",
"~#	c #4F501E",
"{#	c #504D14",
"]#	c #5D581A",
"^#	c #635D23",
"/#	c #645E2B",
"(#	c #6A6538",
"_#	c #6B653F",
":#	c #676240",
"<#	c #656342",
"[#	c #5D5B39",
"}#	c #343425",
"|#	c #323222",
"1#	c #2B291B",
"2#	c #332F20",
"3#	c #3D3727",
"4#	c #3A3423",
"5#	c #2E2817",
"6#	c #292410",
"7#	c #2C2A14",
"8#	c #2E2E16",
"9#	c #2C2D14",
"0#	c #28290E",
"a#	c #272606",
"b#	c #302E0A",
"c#	c #363311",
"d#	c #393519",
"e#	c #403C23",
"f#	c #413D28",
"g#	c #3C3825",
"h#	c #373523",
"i#	c #302D1A",
"  . + @ # $ % & * = - ; > , ' ) ! ~ { ] ^ ",
"/ ( _ : < [ } | 1 2 3 4 5 6 7 8 9 0 a b c ",
"d e f g h i j k l m n o p q r s t u v w x ",
"y z A B C D E F G H I J K L M N O P Q R S ",
"T U V W X Y Z `  ...+.@.#.$.%.&.*.=.-.;.>.",
",.'.).!.~.{.].^./.(._.:.<.[.}.|.1.2.3.4.5.",
"6.7.8.9.0.a.b.c.d.e.f.g.h.i.j.k.l.m.n.o.p.",
"q.r.s.t.u.v.w.x.y.z.A.B.C.D.E.F.G.H.I.J.K.",
"L.M.N.O.P.Q.R.S.T.U.V.W.X.Y.Y.Z.`. +.+++@+",
"#+$+%+&+*+=+-+;+>+,+'+)+!+~+{+]+^+X./+(+_+",
":+<+[+}+|+1+2+3+4+5+6+7+8+9+0+a+b+c+d+e+f+",
"g+h+i+j+k+l+m+n+o+p+q+r+s+t+u+v+w+x+y+z+A+",
"B+C+D+E+F+G+H+I+J+K+L+M+N+O+P+Q+R+S+T+U+V+",
"W+X+Y+Z+`+ @.@+@@@#@$@%@&@*@=@-@;@S+>@,@'@",
")@!@~@{@]@^@/@(@_@:@<@[@}@|@1@2@3@4@5@6@7@",
"8@9@0@a@b@c@d@e@f@g@h@i@j@k@l@m@n@o@p@q@r@",
"s@t@u@v@w@x@y@z@A@H.B@C@D@E@F@G@H@I@J@K@L@",
"M@N@O@P@Q@R@S@T@U@V@W@X@Y@Z@`@ #.#+#@###$#",
"%#&#*#=#-#;#>#,#'#)#!#~#{#]#^#/#(#_#:#<#[#",
"}#|#1#2#3#4#5#6#7#8#9#0#a#b#c#d#e#f#g#h#i#"};
