/* XPM */
static char * fireboy_xpm[] = {
"30 52 875 2",
"  	c None",
". 	c #361212",
"+ 	c #3D0D0D",
"@ 	c #5D0B0B",
"# 	c #6E1212",
"$ 	c #560A0A",
"% 	c #820C0C",
"& 	c #991D1D",
"* 	c #9B2C2C",
"= 	c #9B0D0D",
"- 	c #BB2424",
"; 	c #BD3434",
"> 	c #9E3D3D",
", 	c #A80B0B",
"' 	c #D12121",
") 	c #D93131",
"! 	c #BB3838",
"~ 	c #3D0A0A",
"{ 	c #3C0A0A",
"] 	c #B00606",
"^ 	c #DD1111",
"/ 	c #EB1E1E",
"( 	c #D42525",
"_ 	c #9C2222",
": 	c #6D0606",
"< 	c #690606",
"[ 	c #7D0B0B",
"} 	c #B80605",
"| 	c #E30A06",
"1 	c #F5120E",
"2 	c #E61917",
"3 	c #B81D1D",
"4 	c #790808",
"5 	c #A10403",
"6 	c #9D0404",
"7 	c #850808",
"8 	c #860C0B",
"9 	c #C20A05",
"0 	c #E91205",
"a 	c #FA1809",
"b 	c #F11A11",
"c 	c #D11C1B",
"d 	c #951818",
"e 	c #980705",
"f 	c #C80603",
"g 	c #C60705",
"h 	c #A80B0A",
"i 	c #8F0B0A",
"j 	c #CC0E06",
"k 	c #EE1C06",
"l 	c #FC2309",
"m 	c #F7210E",
"n 	c #E21913",
"o 	c #AD1211",
"p 	c #B40A05",
"q 	c #E11004",
"r 	c #E01109",
"s 	c #C31613",
"t 	c #990A07",
"u 	c #D51406",
"v 	c #F32307",
"w 	c #FC2A09",
"x 	c #FA2609",
"y 	c #EC1608",
"z 	c #C20B08",
"A 	c #8E0B0B",
"B 	c #9B0B08",
"C 	c #C90F05",
"D 	c #EE1B07",
"E 	c #EF1E0F",
"F 	c #D72520",
"G 	c #B32C2B",
"H 	c #200C0C",
"I 	c #1F0B0B",
"J 	c #A50B05",
"K 	c #DD1905",
"L 	c #F62907",
"M 	c #FC3009",
"N 	c #FB2C08",
"O 	c #F21C06",
"P 	c #D10D04",
"Q 	c #9A0907",
"R 	c #A60D07",
"S 	c #D81606",
"T 	c #F32408",
"U 	c #F72712",
"V 	c #E52E27",
"W 	c #C63433",
"X 	c #480707",
"Y 	c #450606",
"Z 	c #770A08",
"` 	c #B00F04",
" .	c #E32006",
"..	c #F82E07",
"+.	c #FB3608",
"@.	c #FB3309",
"#.	c #F52707",
"$.	c #DC1805",
"%.	c #A50D06",
"&.	c #620C0B",
"*.	c #6D0C0B",
"=.	c #B01208",
"-.	c #E21F07",
";.	c #F72B07",
">.	c #FA2C0E",
",.	c #EF2D21",
"'.	c #D32F2B",
").	c #A72E2E",
"!.	c #750505",
"~.	c #700404",
"{.	c #170B0B",
"].	c #7C0B06",
"^.	c #BA1304",
"/.	c #E82506",
"(.	c #FA3408",
"_.	c #FC3C08",
":.	c #FB3A08",
"<.	c #F73006",
"[.	c #E52406",
"}.	c #B01606",
"|.	c #6F0B08",
"1.	c #7C0C08",
"2.	c #BD1807",
"3.	c #EA2607",
"4.	c #F93006",
"5.	c #FB2F08",
"6.	c #F52812",
"7.	c #DD2019",
"8.	c #B41A1A",
"9.	c #8F0707",
"0.	c #9C0404",
"a.	c #940404",
"b.	c #3C0606",
"c.	c #400808",
"d.	c #800C06",
"e.	c #C31704",
"f.	c #EC2905",
"g.	c #FA3707",
"h.	c #FC3F08",
"i.	c #FB3E07",
"j.	c #F83505",
"k.	c #EA2B05",
"l.	c #BB1D05",
"m.	c #810F04",
"n.	c #901105",
"o.	c #CB2006",
"p.	c #F12E07",
"q.	c #FA3706",
"r.	c #FC3407",
"s.	c #F92908",
"t.	c #E51909",
"u.	c #BD0D0A",
"v.	c #800C0B",
"w.	c #A90505",
"x.	c #B90303",
"y.	c #AC0404",
"z.	c #7E090A",
"A.	c #530707",
"B.	c #6E0404",
"C.	c #740505",
"D.	c #840D05",
"E.	c #CB1903",
"F.	c #EF2C04",
"G.	c #FB3A06",
"H.	c #FC4107",
"I.	c #F93906",
"J.	c #EF3005",
"K.	c #CB2204",
"L.	c #A31603",
"M.	c #B01A04",
"N.	c #DD2906",
"O.	c #F63606",
"P.	c #FC3B07",
"Q.	c #FB2E06",
"R.	c #EB1C05",
"S.	c #C40A04",
"T.	c #840606",
"U.	c #850706",
"V.	c #BE0603",
"W.	c #CE0502",
"X.	c #BA0604",
"Y.	c #840908",
"Z.	c #6D0707",
"`.	c #980303",
" +	c #A20303",
".+	c #8E0607",
"++	c #600909",
"@+	c #890C04",
"#+	c #D31B02",
"$+	c #F22E03",
"%+	c #FC3B05",
"&+	c #FC4306",
"*+	c #FC4406",
"=+	c #FB3D06",
"-+	c #F53404",
";+	c #E02703",
">+	c #CD1E02",
",+	c #D52403",
"'+	c #ED3104",
")+	c #FA3C04",
"!+	c #FC4305",
"~+	c #FD4005",
"{+	c #FC3406",
"]+	c #F02005",
"^+	c #CC0C03",
"/+	c #910503",
"(+	c #9C0803",
"_+	c #D20E01",
":+	c #DE0F01",
"<+	c #C30C03",
"[+	c #8A0906",
"}+	c #7D0707",
"|+	c #B60303",
"1+	c #C60202",
"2+	c #AE0304",
"3+	c #7B0505",
"4+	c #940C03",
"5+	c #DB1D01",
"6+	c #F63002",
"7+	c #FC3D03",
"8+	c #FC4404",
"9+	c #FC4604",
"0+	c #FC4103",
"a+	c #F93702",
"b+	c #F32A02",
"c+	c #EE2302",
"d+	c #F12A02",
"e+	c #F93602",
"f+	c #FC4002",
"g+	c #FC4503",
"h+	c #FD4303",
"i+	c #FC3704",
"j+	c #F32504",
"k+	c #D71102",
"l+	c #AC0901",
"m+	c #BE1302",
"n+	c #E41C02",
"o+	c #E91C02",
"p+	c #C91403",
"q+	c #900A05",
"r+	c #850505",
"s+	c #C60302",
"t+	c #DD0301",
"u+	c #CA0302",
"v+	c #9E0402",
"w+	c #A90B01",
"x+	c #E31E01",
"y+	c #F83102",
"z+	c #FC3E03",
"A+	c #FC4703",
"B+	c #FD4401",
"C+	c #FB3B01",
"D+	c #FA2F02",
"E+	c #FA2802",
"F+	c #FA2E01",
"G+	c #FC3901",
"H+	c #FD4301",
"I+	c #FB4601",
"J+	c #FC4402",
"K+	c #FC3B03",
"L+	c #F72C03",
"M+	c #E71A02",
"N+	c #D41602",
"O+	c #E32304",
"P+	c #F32C05",
"Q+	c #EF2804",
"R+	c #CF1B04",
"S+	c #980C05",
"T+	c #8A0303",
"U+	c #CD0402",
"V+	c #EB0902",
"W+	c #E20B03",
"X+	c #C60903",
"Y+	c #C80D03",
"Z+	c #EC1F02",
"`+	c #FA3202",
" @	c #FC3E02",
".@	c #FC4702",
"+@	c #FD4501",
"@@	c #FD3E01",
"#@	c #FB3502",
"$@	c #FB2F02",
"%@	c #FB3201",
"&@	c #FC3B01",
"*@	c #FC4301",
"=@	c #FB4602",
"-@	c #FC4401",
";@	c #FC3C02",
">@	c #F62202",
",@	c #F22603",
"'@	c #F63305",
")@	c #FB3A07",
"!@	c #F33207",
"~@	c #D42105",
"{@	c #9F0E05",
"]@	c #8C0302",
"^@	c #D00802",
"/@	c #F11504",
"(@	c #F31905",
"_@	c #E71405",
":@	c #E61104",
"<@	c #F51F03",
"[@	c #FB3102",
"}@	c #FC4102",
"|@	c #FC4302",
"1@	c #FC4202",
"2@	c #FC3D02",
"3@	c #FB3602",
"4@	c #FA3302",
"5@	c #FA3402",
"6@	c #FB3802",
"7@	c #FB3E02",
"8@	c #FC3A02",
"9@	c #FC3102",
"0@	c #FC2D02",
"a@	c #FC3403",
"b@	c #FC3F05",
"c@	c #F53707",
"d@	c #D72504",
"e@	c #A41005",
"f@	c #650F0D",
"g@	c #8F0302",
"h@	c #D20C02",
"i@	c #F41C05",
"j@	c #FB2206",
"k@	c #F81D05",
"l@	c #F71503",
"m@	c #FA2002",
"n@	c #FB3702",
"o@	c #FB3A02",
"p@	c #FB3C02",
"q@	c #FB3B02",
"r@	c #FA3502",
"s@	c #FB3902",
"t@	c #FC3602",
"u@	c #FC3402",
"v@	c #FD3702",
"w@	c #FD3F02",
"x@	c #FC4403",
"y@	c #FC4405",
"z@	c #F63B06",
"A@	c #DB2805",
"B@	c #A81305",
"C@	c #680F0D",
"D@	c #900402",
"E@	c #D20F03",
"F@	c #F42105",
"G@	c #FC2905",
"H@	c #FC2403",
"I@	c #FC1901",
"J@	c #FC2301",
"K@	c #FA3602",
"L@	c #F93C02",
"M@	c #F83F02",
"N@	c #F93E02",
"O@	c #FB2D02",
"P@	c #FB3302",
"Q@	c #FC4504",
"R@	c #F83C05",
"S@	c #DD2B05",
"T@	c #AB1707",
"U@	c #69100E",
"V@	c #900502",
"W@	c #D31304",
"X@	c #F42606",
"Y@	c #FC2F05",
"Z@	c #FC2C02",
"`@	c #FD2000",
" #	c #FD2701",
".#	c #F74902",
"+#	c #F55A02",
"@#	c #F46403",
"##	c #F56003",
"$#	c #F64F02",
"%#	c #F93701",
"&#	c #FB2702",
"*#	c #FB2802",
"=#	c #FA2D02",
"-#	c #FA3102",
";#	c #F93B02",
">#	c #FA3B02",
",#	c #FB3E01",
"'#	c #FB4201",
")#	c #FB4502",
"!#	c #F93C04",
"~#	c #DF2C05",
"{#	c #AD1908",
"]#	c #69120F",
"^#	c #8F0703",
"/#	c #D21804",
"(#	c #F42B05",
"_#	c #FC3604",
":#	c #FC3302",
"<#	c #FD2800",
"[#	c #FB2F01",
"}#	c #F64C02",
"|#	c #F27102",
"1#	c #F28E02",
"2#	c #F49C02",
"3#	c #F39702",
"4#	c #F37E02",
"5#	c #F75401",
"6#	c #FA2B01",
"7#	c #FB2501",
"8#	c #F93A01",
"9#	c #F65301",
"0#	c #F46101",
"a#	c #F45D02",
"b#	c #F74F02",
"c#	c #FA4201",
"d#	c #FB3F02",
"e#	c #FC4001",
"f#	c #FC3F02",
"g#	c #F83803",
"h#	c #E02A05",
"i#	c #AE1808",
"j#	c #68110E",
"k#	c #8D0904",
"l#	c #D01904",
"m#	c #F22D04",
"n#	c #FC3903",
"o#	c #FD3B01",
"p#	c #FC3501",
"q#	c #F84001",
"r#	c #F36A02",
"s#	c #F7B401",
"t#	c #F8BF01",
"u#	c #F7B901",
"v#	c #F6A401",
"w#	c #F57802",
"x#	c #F94301",
"y#	c #FC1500",
"z#	c #FA3100",
"A#	c #F55F01",
"B#	c #F18B02",
"C#	c #EF9B02",
"D#	c #F09502",
"E#	c #F27A02",
"F#	c #F65502",
"G#	c #FA3D01",
"H#	c #F83103",
"I#	c #E12504",
"J#	c #AF1607",
"K#	c #67100E",
"L#	c #870A06",
"M#	c #CA1903",
"N#	c #EF2D02",
"O#	c #FD4001",
"P#	c #F74D02",
"Q#	c #F27D02",
"R#	c #F6AB01",
"S#	c #F9C601",
"T#	c #F6CC01",
"U#	c #F3C301",
"V#	c #F6B201",
"W#	c #F58802",
"X#	c #F85001",
"Y#	c #FB1A00",
"Z#	c #F84301",
"`#	c #F27F02",
" $	c #F0AE02",
".$	c #EFBB02",
"+$	c #F1B402",
"@$	c #F29702",
"#$	c #F46802",
"$$	c #F84002",
"%$	c #FB3202",
"&$	c #F92D02",
"*$	c #E32103",
"=$	c #B01207",
"-$	c #681110",
";$	c #800B07",
">$	c #C31703",
",$	c #EB2B01",
"'$	c #FD4201",
")$	c #FB4301",
"!$	c #F9C501",
"~$	c #F4CA01",
"{$	c #F0BF01",
"]$	c #F5AE01",
"^$	c #F68302",
"/$	c #F84B01",
"($	c #FB1900",
"_$	c #F84601",
":$	c #F18402",
"<$	c #F0B502",
"[$	c #F0C302",
"}$	c #F3BB02",
"|$	c #F46B02",
"1$	c #F84102",
"2$	c #F92A02",
"3$	c #E31C02",
"4$	c #B10F07",
"5$	c #691110",
"6$	c #790A07",
"7$	c #BC1403",
"8$	c #E72901",
"9$	c #FA3A01",
"0$	c #FC4101",
"a$	c #F49502",
"b$	c #F6B101",
"c$	c #F5B901",
"d$	c #F2AE02",
"e$	c #F59602",
"f$	c #F66A02",
"g$	c #FA3701",
"h$	c #FC0D00",
"i$	c #FA3600",
"j$	c #F56C02",
"k$	c #F19D02",
"l$	c #F3A502",
"m$	c #F58702",
"n$	c #F65A02",
"o$	c #F93A02",
"p$	c #F92901",
"q$	c #E31A02",
"r$	c #B10C06",
"s$	c #69100F",
"t$	c #710806",
"u$	c #B31203",
"v$	c #E12801",
"w$	c #F93901",
"x$	c #FD4102",
"y$	c #FC3E01",
"z$	c #FA3901",
"A$	c #F74802",
"B$	c #F46902",
"C$	c #F48602",
"D$	c #F49102",
"E$	c #F48603",
"F$	c #F66803",
"G$	c #F94001",
"H$	c #FD0100",
"I$	c #FC1800",
"J$	c #FA3C01",
"K$	c #F66201",
"L$	c #F47202",
"M$	c #F75403",
"N$	c #F93802",
"O$	c #F72901",
"P$	c #DF1B02",
"Q$	c #AE0D06",
"R$	c #680F0E",
"S$	c #690806",
"T$	c #A70F03",
"U$	c #D82202",
"V$	c #F53402",
"W$	c #FC3D01",
"X$	c #FC3A01",
"Y$	c #FB3002",
"Z$	c #FB2A02",
"`$	c #FA3702",
" %	c #F84802",
".%	c #F94801",
"+%	c #FA3301",
"@%	c #FC0500",
"#%	c #FD0000",
"$%	c #FD0500",
"%%	c #FC1600",
"&%	c #FB2B00",
"*%	c #FB3500",
"=%	c #FC2502",
"-%	c #FC1C02",
";%	c #FC2202",
">%	c #FB2C02",
",%	c #F52802",
"'%	c #D91A02",
")%	c #A70D05",
"!%	c #650F0E",
"~%	c #960C04",
"{%	c #CB1D03",
"]%	c #EE2E02",
"^%	c #FB3701",
"/%	c #FC3401",
"(%	c #FC2802",
"_%	c #FD1803",
":%	c #FD1002",
"<%	c #FC1502",
"[%	c #FC0A00",
"}%	c #FD0200",
"|%	c #FD0300",
"1%	c #FD0701",
"2%	c #FD0602",
"3%	c #FD0C03",
"4%	c #FD1B02",
"5%	c #FD2A02",
"6%	c #FC3002",
"7%	c #F12A03",
"8%	c #D01D04",
"9%	c #9A0E06",
"0%	c #820D08",
"a%	c #BA1B04",
"b%	c #E22C02",
"c%	c #F83601",
"d%	c #FD1303",
"e%	c #FD0403",
"f%	c #FC0002",
"g%	c #FB0001",
"h%	c #FE0000",
"i%	c #FE0100",
"j%	c #FD0001",
"k%	c #FD0102",
"l%	c #FE0303",
"m%	c #FE0C03",
"n%	c #FD1E02",
"o%	c #FD3102",
"p%	c #FB3C04",
"q%	c #E83A07",
"r%	c #C22C09",
"s%	c #89180A",
"t%	c #A51A08",
"u%	c #D12B04",
"v%	c #F03701",
"w%	c #FA3601",
"x%	c #FC1703",
"y%	c #FC0803",
"z%	c #F70302",
"A%	c #F20201",
"B%	c #F40201",
"C%	c #FA0100",
"D%	c #FC0100",
"E%	c #FD0201",
"F%	c #FD0202",
"G%	c #FE0603",
"H%	c #FE1402",
"I%	c #FD2702",
"J%	c #F64A09",
"K%	c #DB480F",
"L%	c #B03A10",
"M%	c #8B2013",
"N%	c #BA2A0C",
"O%	c #E13604",
"P%	c #F53B02",
"Q%	c #FC2103",
"R%	c #FA1103",
"S%	c #F20603",
"T%	c #E50302",
"U%	c #E10201",
"V%	c #EA0100",
"W%	c #F10100",
"X%	c #F50200",
"Y%	c #F70200",
"Z%	c #F80200",
"`%	c #F90201",
" &	c #FA0302",
".&	c #FC0303",
"+&	c #FE0F02",
"@&	c #FD1F02",
"#&	c #FA4605",
"$&	c #EC5310",
"%&	c #C94F16",
"&&	c #9A4017",
"*&	c #9E311B",
"=&	c #C63510",
"-&	c #E83E05",
";&	c #F63B02",
">&	c #FA2E02",
",&	c #FB1E03",
"'&	c #F61003",
")&	c #E70702",
"!&	c #D40301",
"~&	c #CF0201",
"{&	c #D70100",
"]&	c #DE0200",
"^&	c #E30200",
"/&	c #E70200",
"(&	c #EA0302",
"_&	c #F30402",
":&	c #FB0703",
"<&	c #FE1D02",
"[&	c #FD2D02",
"}&	c #F34E09",
"|&	c #D95214",
"1&	c #B04A18",
"2&	c #86442F",
"3&	c #A54024",
"4&	c #CB4114",
"5&	c #E94106",
"6&	c #F63A02",
"7&	c #FB2E02",
"8&	c #F41403",
"9&	c #E80C02",
"0&	c #DA0602",
"a&	c #CE0401",
"b&	c #C70300",
"c&	c #CB0400",
"d&	c #D60701",
"e&	c #EA0C03",
"f&	c #F81402",
"g&	c #FD2D01",
"h&	c #F44804",
"i&	c #DF4E0C",
"j&	c #B84913",
"k&	c #8D3E16",
"l&	c #91553D",
"m&	c #A94C2F",
"n&	c #CB461B",
"o&	c #E44108",
"p&	c #F43A01",
"q&	c #FA3001",
"r&	c #FB2602",
"s&	c #F71E03",
"t&	c #F01703",
"u&	c #E81202",
"v&	c #E11002",
"w&	c #DE1001",
"x&	c #E01201",
"y&	c #E71702",
"z&	c #F31E02",
"A&	c #FA2602",
"B&	c #FC3101",
"C&	c #F04502",
"D&	c #DC4906",
"E&	c #BA450C",
"F&	c #913C11",
"G&	c #99654C",
"H&	c #AD593C",
"I&	c #C64D2A",
"J&	c #DD4417",
"K&	c #ED3C06",
"L&	c #F63601",
"M&	c #FA3002",
"N&	c #FA2A02",
"O&	c #F92502",
"P&	c #F62302",
"Q&	c #F42302",
"R&	c #F42502",
"S&	c #F52902",
"T&	c #F82F01",
"U&	c #F73701",
"V&	c #F33F02",
"W&	c #E84508",
"X&	c #D3480E",
"Y&	c #B64511",
"Z&	c #903B11",
"`&	c #A3765D",
" *	c #AF6A4F",
".*	c #C05D3E",
"+*	c #D14E28",
"@*	c #DF4011",
"#*	c #E93A03",
"$*	c #EE3601",
"%*	c #EF3201",
"&*	c #EE3001",
"**	c #EC2F01",
"=*	c #EA3001",
"-*	c #E83301",
";*	c #E53701",
">*	c #E03E06",
",*	c #D74715",
"'*	c #C74E21",
")*	c #AF5127",
"!*	c #8E4A24",
"~*	c #B68F74",
"{*	c #B37F62",
"]*	c #B36548",
"^*	c #BA4928",
"/*	c #C63A0C",
"(*	c #CD3603",
"_*	c #CF3402",
":*	c #CC3102",
"<*	c #C83001",
"[*	c #C42F01",
"}*	c #C03001",
"|*	c #B93204",
"1*	c #B13914",
"2*	c #AA4B2A",
"3*	c #A25C3B",
"4*	c #976543",
"5*	c #B6795E",
"6*	c #AE5239",
"7*	c #AD3216",
"8*	c #AF2906",
"9*	c #B02703",
"0*	c #AB2502",
"a*	c #A52402",
"b*	c #A32201",
"c*	c #A02203",
"d*	c #99250A",
"e*	c #963520",
"f*	c #985039",
"g*	c #B05B49",
"h*	c #B33B2C",
"i*	c #B62413",
"j*	c #BF210B",
"k*	c #C92006",
"l*	c #C71F04",
"m*	c #C01E03",
"n*	c #BD1C03",
"o*	c #B41B06",
"p*	c #9F1C0E",
"q*	c #98251A",
"r*	c #95362A",
"s*	c #AA2B25",
"t*	c #AF1F1A",
"u*	c #AE1812",
"v*	c #BF180F",
"w*	c #D21508",
"x*	c #D31303",
"y*	c #CD1102",
"z*	c #C91103",
"A*	c #BD1208",
"B*	c #A01610",
"C*	c #9B1815",
"D*	c #9C1C19",
"E*	c #961F1D",
"F*	c #A51212",
"G*	c #A61211",
"H*	c #9F1514",
"I*	c #B51313",
"J*	c #CD0C0A",
"K*	c #D10502",
"L*	c #CE0300",
"M*	c #CA0503",
"N*	c #BE0B0A",
"O*	c #9F1312",
"P*	c #9A1515",
"Q*	c #A11415",
"R*	c #9F1616",
"S*	c #9C1414",
"T*	c #991413",
"U*	c #931717",
"V*	c #AC1515",
"W*	c #C50A0A",
"X*	c #CC0202",
"Y*	c #CC0000",
"Z*	c #C90303",
"`*	c #BF090A",
" =	c #A01313",
".=	c #951717",
"+=	c #9E1717",
"@=	c #A71414",
"#=	c #C00A0A",
"$=	c #C70303",
"%=	c #C70202",
"&=	c #C60404",
"*=	c #BE0909",
"==	c #A01111",
"-=	c #A71212",
";=	c #BC0A0A",
">=	c #BE0808",
",=	c #BB0909",
"'=	c #BD0808",
")=	c #BA0A0A",
"!=	c #9E0F0F",
"~=	c #A71111",
"{=	c #B80B0B",
"]=	c #B10C0C",
"^=	c #A80E0E",
"/=	c #B00D0D",
"(=	c #B50B0C",
"_=	c #9A0F0F",
":=	c #A61212",
"<=	c #B40C0C",
"[=	c #A90E0E",
"}=	c #9B1111",
"|=	c #A61010",
"1=	c #AF0D0E",
"2=	c #961010",
"3=	c #A21212",
"4=	c #AE0D0D",
"5=	c #A40F0F",
"6=	c #921313",
"7=	c #9C1212",
"8=	c #A60F0F",
"9=	c #901111",
"0=	c #971414",
"a=	c #971212",
"b=	c #8D1414",
"c=	c #961212",
"d=	c #841313",
"e=	c #841616",
"f=	c #7E1717",
"g=	c #791717",
"h=	c #6D1717",
"              .                                             ",
"            + @ #                                           ",
"            $ % & *                                         ",
"              = - ; >                                       ",
"              , ' ) !               ~ {                     ",
"              ] ^ / ( _             : <                     ",
"            [ } | 1 2 3           4 5 6 7                   ",
"            8 9 0 a b c d         e f g h                   ",
"            i j k l m n o         p q r s                   ",
"            t u v w x y z A     B C D E F G         H I     ",
"            J K L M N O P Q     R S T U V W         X Y     ",
"          Z `  ...+.@.#.$.%.&.*.=.-.;.>.,.'.).      !.~.    ",
"  {.      ].^./.(._.:.<.[.}.|.1.2.3.4.5.6.7.8.    9.0.a.    ",
"  b.c.    d.e.f.g.h.i.j.k.l.m.n.o.p.q.r.s.t.u.v.  w.x.y.z.  ",
"A.B.C.    D.E.F.G.H.H.I.J.K.L.M.N.O.i.P.Q.R.S.T.U.V.W.X.Y.  ",
"Z.`. +.+++@+#+$+%+&+*+=+-+;+>+,+'+)+!+~+{+]+^+/+(+_+:+<+[+  ",
"}+|+1+2+3+4+5+6+7+8+9+0+a+b+c+d+e+f+g+h+i+j+k+l+m+n+o+p+q+  ",
"r+s+t+u+v+w+x+y+z+g+A+B+C+D+E+F+G+H+I+J+K+L+M+N+O+P+Q+R+S+  ",
"T+U+V+W+X+Y+Z+`+ @g+.@+@@@#@$@%@&@*@=@-@;@$@>@,@'@)@!@~@{@  ",
"]@^@/@(@_@:@<@[@;@}@|@1@2@3@4@5@6@7@}@f+8@9@0@a@b@H.c@d@e@f@",
"g@h@i@j@k@l@m@$@n@o@p@q@6@4@`+4@r@6@o@s@t@u@v@w@x@y@z@A@B@C@",
"D@E@F@G@H@I@J@$@K@L@M@N@a+$@O@D+`+4@4@P@P@3@2@*@=@Q@R@S@T@U@",
"V@W@X@Y@Z@`@ #a+.#+#@###$#%#&#*#=#-#a+;#;#>#,#'#)#J+!#~#{#]#",
"^#/#(#_#:#<#[#}#|#1#2#3#4#5#6#I@7#8#9#0#a#b#c#d#e#f#g#h#i#j#",
"k#l#m#n#o#p#q#r#3#s#t#u#v#w#x#y#z#A#B#C#D#E#F#G#6@n@H#I#J#K#",
"L#M#N#&@O#e#P#Q#R#S#T#U#V#W#X#Y#Z#`# $.$+$@$#$$$r@%$&$*$=$-$",
";$>$,$C+'$)$b#Q#R#!$~${$]$^$/$($_$:$<$[$}$2#|$1$5@[@2$3$4$5$",
"6$7$8$9$'$0$_$r#a$b$c$d$e$f$g$h$i$j$k$ $l$m$n$o$4@[@p$q$r$s$",
"t$u$v$w$x$y$z$A$B$C$D$E$F$G$($H$I$J$K$L$j$M$N$D+-#[@O$P$Q$R$",
"S$T$U$V$W$X$Y$Z$`$ %X#.%+%Y#@%#%$%%%&%*%%@=%-%;%>%$@,%'%)%!%",
"  ~%{%]%^%/%(%_%:%<%I@y#[%}%#%#%#%H$|%1%1%2%3%4%5%6%7%8%9%  ",
"  0%a%b%c%%@=%d%e%f%g%#%h%h%i%i%i%h%j%j%k%l%m%n%o%p%q%r%s%  ",
"    t%u%v%w%(%x%y%z%A%B%C%D%H$H$i%}%E%F%l%G%H%I%;@J%K%L%    ",
"    M%N%O%P%-#Q%R%S%T%U%V%W%X%Y%Z%`% &.&G%+&@&:##&$&%&&&    ",
"      *&=&-&;&>&,&'&)&!&~&{&]&^&/&(&_&:&+&<&[&d#}&|&1&      ",
"      2&3&4&5&6&7&m@8&9&0&a&b&b&c&d&e&f&@&g&p@h&i&j&k&      ",
"        l&m&n&o&p&q&r&s&t&u&v&w&x&y&z&A&B&G#C&D&E&F&        ",
"          G&H&I&J&K&L&M&N&O&P&Q&R&S&T&U&V&W&X&Y&Z&          ",
"            `& *.*+*@*#*$*%*&***=*-*;*>*,*'*)*!*            ",
"              ~*{*]*^*/*(*_*:*<*[*}*|*1*2*3*4*              ",
"                  5*6*7*8*9*0*a*b*c*d*e*f*                  ",
"                  g*h*i*j*k*l*m*n*o*p*q*r*                  ",
"                  s*t*u*v*w*x*y*z*A*B*C*D*E*                ",
"                  F*G*H*I*J*K*L*M*N*O*P*Q*R*                ",
"                  S*T*U*V*W*X*Y*Z*`* =.=R*+=                ",
"                        @=#=$=%=&=*===                      ",
"                        -=;=>=,='=)=!=                      ",
"                        ~={=]=^=/=(=_=                      ",
"                        :=<=[=}=|=1=2=                      ",
"                        3=4=5=6=7=8=9=                      ",
"                        0===a=  b=c=d=                      ",
"                          e=f=    g=h=                      "};
