/* XPM */
static char * running_left_girl_xpm[] = {
"50 40 714 2",
"  	c None",
". 	c #011322",
"+ 	c #022738",
"@ 	c #043141",
"# 	c #053044",
"$ 	c #0F2B3E",
"% 	c #18272C",
"& 	c #01070C",
"* 	c #030302",
"= 	c #040202",
"- 	c #182C31",
"; 	c #508D9E",
"> 	c #1AA2D9",
", 	c #0BACF2",
"' 	c #08B1F3",
") 	c #0FB0F3",
"! 	c #64C7F4",
"~ 	c #88D3ED",
"{ 	c #7EBED8",
"] 	c #66A0B5",
"^ 	c #1E4E62",
"/ 	c #050D17",
"( 	c #453F31",
"_ 	c #4B4E4A",
": 	c #4F828E",
"< 	c #4BA1BE",
"[ 	c #53AFD2",
"} 	c #4FB2D9",
"| 	c #4FB0D8",
"1 	c #4CA8CB",
"2 	c #4E8D9F",
"3 	c #425757",
"4 	c #404132",
"5 	c #426161",
"6 	c #2C4A4E",
"7 	c #20363C",
"8 	c #121C21",
"9 	c #0C1418",
"0 	c #050F1C",
"a 	c #061A27",
"b 	c #324E58",
"c 	c #466D7B",
"d 	c #6A9DB1",
"e 	c #87CCE9",
"f 	c #83D9FE",
"g 	c #15B7FA",
"h 	c #02B3FD",
"i 	c #01B3FC",
"j 	c #27B6F8",
"k 	c #83DFFD",
"l 	c #87DAFE",
"m 	c #8CDAFD",
"n 	c #8DDBFC",
"o 	c #5FCAF1",
"p 	c #128FC8",
"q 	c #073E57",
"r 	c #384138",
"s 	c #375153",
"t 	c #393E35",
"u 	c #7298A4",
"v 	c #9ED8E7",
"w 	c #7CDBF9",
"x 	c #3BC4FE",
"y 	c #3BC5FF",
"z 	c #3DC4FE",
"A 	c #3EC4FD",
"B 	c #41C3FB",
"C 	c #85DFFB",
"D 	c #81D2EC",
"E 	c #3F95B8",
"F 	c #306F87",
"G 	c #3F98B8",
"H 	c #39B7E7",
"I 	c #2EB0E4",
"J 	c #2BACE1",
"K 	c #27ABE0",
"L 	c #24A9E0",
"M 	c #25A6E0",
"N 	c #21A7E3",
"O 	c #53BDE9",
"P 	c #8DDCF7",
"Q 	c #8DDCFB",
"R 	c #8ED9FE",
"S 	c #8ADBFE",
"T 	c #62D2FA",
"U 	c #04B2FB",
"V 	c #03B2FD",
"W 	c #02B1FF",
"X 	c #07B1FC",
"Y 	c #4DC4F9",
"Z 	c #83D7FB",
"` 	c #8BDCFC",
" .	c #87DCFE",
"..	c #83DCFD",
"+.	c #29BCFB",
"@.	c #0FA9E9",
"#.	c #0C587A",
"$.	c #313227",
"%.	c #328EAF",
"&.	c #3EB9EC",
"*.	c #558494",
"=.	c #2E3029",
"-.	c #69959E",
";.	c #9DE3FC",
">.	c #9DE4FE",
",.	c #7DD4FB",
"'.	c #2FC1FC",
").	c #2DC2FF",
"!.	c #2EC2FF",
"~.	c #2FC3FE",
"{.	c #34BFFB",
"].	c #8DDCFD",
"^.	c #9FE1FD",
"/.	c #89DDFB",
"(.	c #56C7F9",
"_.	c #30A4D3",
":.	c #278BB4",
"<.	c #26B6F3",
"[.	c #1BB9FD",
"}.	c #16B9FF",
"|.	c #0FB7FE",
"1.	c #0FB5FE",
"2.	c #05B8FD",
"3.	c #42BFF7",
"4.	c #89DCFD",
"5.	c #88DCFD",
"6.	c #87DCFC",
"7.	c #76D8FC",
"8.	c #24B7F6",
"9.	c #01B4FA",
"0.	c #00B4FC",
"a.	c #01B4FD",
"b.	c #07B3F9",
"c.	c #6ED1FB",
"d.	c #8ADCFE",
"e.	c #80DCFC",
"f.	c #1FB4FA",
"g.	c #01B3F9",
"h.	c #0BABF0",
"i.	c #0D5375",
"j.	c #26231A",
"k.	c #1F393F",
"l.	c #2CB2E9",
"m.	c #33BFFA",
"n.	c #98DBF6",
"o.	c #3D4D51",
"p.	c #7AADBB",
"q.	c #98E1FF",
"r.	c #99E0FD",
"s.	c #53C7FC",
"t.	c #24BEFE",
"u.	c #23BEFE",
"v.	c #23BDFD",
"w.	c #22BEFE",
"x.	c #6CCFF9",
"y.	c #97E0FF",
"z.	c #94E3FE",
"A.	c #94DEFE",
"B.	c #58C4F8",
"C.	c #24A9DE",
"D.	c #186386",
"E.	c #1DB1F2",
"F.	c #0DB9F9",
"G.	c #08B6FD",
"H.	c #06B6FE",
"I.	c #08B4FF",
"J.	c #1BB4FB",
"K.	c #7FDCFE",
"L.	c #89DBFF",
"M.	c #89DBFE",
"N.	c #7AD9FD",
"O.	c #10B2FA",
"P.	c #00B3FE",
"Q.	c #03B1FE",
"R.	c #49C1F8",
"S.	c #81E0FC",
"T.	c #8CDBFE",
"U.	c #8CDAFE",
"V.	c #64CAFA",
"W.	c #09B1FB",
"X.	c #14ADE8",
"Y.	c #1396D1",
"Z.	c #196483",
"`.	c #080203",
" +	c #161B12",
".+	c #1E7EA9",
"++	c #1DB9FD",
"@+	c #2FBAFD",
"#+	c #8AD6EC",
"$+	c #203233",
"%+	c #77AAB3",
"&+	c #95DEFE",
"*+	c #82D9FB",
"=+	c #1FBAFA",
"-+	c #18BAFE",
";+	c #19BAFE",
">+	c #1ABAFF",
",+	c #14BCFF",
"'+	c #37BEF8",
")+	c #8FDFFE",
"!+	c #95DEFF",
"~+	c #94DEFD",
"{+	c #83DFFB",
"]+	c #24B4F7",
"^+	c #124F6A",
"/+	c #124B64",
"(+	c #1897D3",
"_+	c #0BB5F9",
":+	c #05B4FC",
"<+	c #08B3FA",
"[+	c #06B5F8",
"}+	c #75D3FC",
"|+	c #89DCFC",
"1+	c #8DDAFE",
"2+	c #86DDFE",
"3+	c #31BAFB",
"4+	c #00B6FC",
"5+	c #55C7F8",
"6+	c #85DEFC",
"7+	c #8BDAFE",
"8+	c #64CAEE",
"9+	c #1B739D",
"0+	c #0E3842",
"a+	c #02080D",
"b+	c #100F0D",
"c+	c #275563",
"d+	c #22B1EC",
"e+	c #11B6FD",
"f+	c #19B7FA",
"g+	c #6CB9D5",
"h+	c #0C100D",
"i+	c #6599A9",
"j+	c #83E0FE",
"k+	c #3FC1FA",
"l+	c #0FB8FB",
"m+	c #0EB8FF",
"n+	c #0EB8FE",
"o+	c #56C7F7",
"p+	c #8EDFFE",
"q+	c #8BDEFE",
"r+	c #8CDEFE",
"s+	c #80DDFE",
"t+	c #1DB6FA",
"u+	c #21B0F2",
"v+	c #4986A2",
"w+	c #02121A",
"x+	c #116995",
"y+	c #11A9E9",
"z+	c #02B3FE",
"A+	c #0DB3F8",
"B+	c #74D7FD",
"C+	c #7DDBFE",
"D+	c #1CB5FB",
"E+	c #01B3FD",
"F+	c #25B6F9",
"G+	c #7EDAFE",
"H+	c #7DBDD9",
"I+	c #395C67",
"J+	c #030304",
"K+	c #070603",
"L+	c #3C5764",
"M+	c #87D0E8",
"N+	c #56CFFB",
"O+	c #08B2F9",
"P+	c #0EB5F8",
"Q+	c #176486",
"R+	c #090908",
"S+	c #245A78",
"T+	c #2CB5F0",
"U+	c #07B5FB",
"V+	c #05B5FE",
"W+	c #07B5FE",
"X+	c #18B4F9",
"Y+	c #33BEF8",
"Z+	c #3FBFF7",
"`+	c #83DCFF",
" @	c #8FDCFF",
".@	c #8CDCFD",
"+@	c #8BDDFD",
"@@	c #67CEFA",
"#@	c #03B5FD",
"$@	c #08B4FC",
"%@	c #24AEEC",
"&@	c #14455B",
"*@	c #020504",
"=@	c #0D5470",
"-@	c #0EABEF",
";@	c #5CC8FA",
">@	c #88DCFE",
",@	c #8ADBFD",
"'@	c #6ED0FC",
")@	c #01B2FE",
"!@	c #03B2FE",
"~@	c #02B1FE",
"{@	c #30BAF0",
"]@	c #4C98B4",
"^@	c #15222A",
"/@	c #020302",
"(@	c #151D22",
"_@	c #81C7D9",
":@	c #83DCFE",
"<@	c #46C3F8",
"[@	c #04B6FC",
"}@	c #1191CE",
"|@	c #031926",
"1@	c #0E4B66",
"2@	c #02182A",
"3@	c #0CA3DD",
"4@	c #07B1FF",
"5@	c #06B2FE",
"6@	c #1EB7F9",
"7@	c #72D7FB",
"8@	c #8ADAFE",
"9@	c #8ADEFE",
"0@	c #89DBFB",
"a@	c #8BDBFC",
"b@	c #8BDCFB",
"c@	c #62CFFA",
"d@	c #04B0FD",
"e@	c #02B3FF",
"f@	c #03B4FD",
"g@	c #1685B6",
"h@	c #05080B",
"i@	c #030405",
"j@	c #205C75",
"k@	c #84D5ED",
"l@	c #8ADBFC",
"m@	c #87DBFE",
"n@	c #4BC6F6",
"o@	c #01B4FB",
"p@	c #02B2FD",
"q@	c #02B3FC",
"r@	c #06B4F7",
"s@	c #0F80AE",
"t@	c #020D17",
"u@	c #2E4B56",
"v@	c #3485A8",
"w@	c #1089B9",
"x@	c #0E7299",
"y@	c #022538",
"z@	c #0D7EB0",
"A@	c #0EB3F3",
"B@	c #0B6486",
"C@	c #056585",
"D@	c #07B3F6",
"E@	c #55C8F9",
"F@	c #86DDFF",
"G@	c #8CDAFF",
"H@	c #84DCFC",
"I@	c #7DDDFE",
"J@	c #4BC5FB",
"K@	c #03B2FC",
"L@	c #09ACEC",
"M@	c #042837",
"N@	c #020204",
"O@	c #4A7482",
"P@	c #84D9F5",
"Q@	c #84DDFB",
"R@	c #5DCDFA",
"S@	c #0EB2FA",
"T@	c #01B1FF",
"U@	c #00B6FB",
"V@	c #02B2FE",
"W@	c #0DB2F7",
"X@	c #2484AE",
"Y@	c #040F17",
"Z@	c #082935",
"`@	c #0E6484",
" #	c #0D638A",
".#	c #0C7AA3",
"+#	c #089FDA",
"@#	c #03B3FE",
"##	c #09A5E9",
"$#	c #05374E",
"%#	c #0D7AA7",
"&#	c #08B2F6",
"*#	c #01B3FA",
"=#	c #68D2FB",
"-#	c #88DCFF",
";#	c #8DDAFD",
">#	c #89DCFE",
",#	c #88DCFB",
"'#	c #72D3FB",
")#	c #4CC2F9",
"!#	c #1EB5F6",
"~#	c #02B2FA",
"{#	c #01B4FC",
"]#	c #04B2FE",
"^#	c #03B3FB",
"/#	c #096487",
"(#	c #030404",
"_#	c #030202",
":#	c #387996",
"<#	c #24B2F2",
"[#	c #01B2FD",
"}#	c #07B1F8",
"|#	c #20ADE8",
"1#	c #2F779E",
"2#	c #081216",
"3#	c #07688E",
"4#	c #07B3FC",
"5#	c #03B2FB",
"6#	c #0AA3E3",
"7#	c #1986B9",
"8#	c #2087B1",
"9#	c #0A95CC",
"0#	c #09B0F8",
"a#	c #0F9DD9",
"b#	c #023148",
"c#	c #0C6691",
"d#	c #12A6E8",
"e#	c #73D4FA",
"f#	c #88DBFE",
"g#	c #8CDAFC",
"h#	c #8ADBFF",
"i#	c #83DAFD",
"j#	c #21B6F8",
"k#	c #00B4FA",
"l#	c #01B3FB",
"m#	c #05B3FC",
"n#	c #32BBF9",
"o#	c #4193BA",
"p#	c #010303",
"q#	c #03050A",
"r#	c #085375",
"s#	c #109CD6",
"t#	c #05B5F8",
"u#	c #03B5FB",
"v#	c #10B0F4",
"w#	c #36A2D0",
"x#	c #255767",
"y#	c #0F87B9",
"z#	c #09B0F6",
"A#	c #1B5E74",
"B#	c #6EE8E9",
"C#	c #6EF6F3",
"D#	c #59C3BF",
"E#	c #157598",
"F#	c #09AFF6",
"G#	c #0AA3E2",
"H#	c #08516F",
"I#	c #022632",
"J#	c #588EA3",
"K#	c #7CC4DA",
"L#	c #8ED4F4",
"M#	c #86DDFC",
"N#	c #85DFFD",
"O#	c #38C1F8",
"P#	c #00B5FC",
"Q#	c #01B5FB",
"R#	c #4FC6F8",
"S#	c #7EBEDA",
"T#	c #020303",
"U#	c #021727",
"V#	c #0C6086",
"W#	c #0D6B94",
"X#	c #104A63",
"Y#	c #0A1822",
"Z#	c #0A96D2",
"`#	c #00B6F9",
" $	c #21B2F4",
".$	c #4A999E",
"+$	c #68FEFC",
"@$	c #69FDFD",
"#$	c #69FDFE",
"$$	c #54B7BA",
"%$	c #0E9AD2",
"&$	c #05AFF3",
"*$	c #0A8BBD",
"=$	c #074B67",
"-$	c #010B11",
";$	c #243943",
">$	c #4B7588",
",$	c #6FA9C1",
"'$	c #44AED7",
")$	c #09AEF6",
"!$	c #03B3F8",
"~$	c #00B3FF",
"{$	c #10B1FA",
"]$	c #7ED9FD",
"^$	c #75C5E3",
"/$	c #030E16",
"($	c #0A9CD8",
"_$	c #00B5FD",
":$	c #33B8F8",
"<$	c #5CAAB4",
"[$	c #459893",
"}$	c #65E9E9",
"|$	c #68FEFE",
"1$	c #69EBEC",
"2$	c #127AA0",
"3$	c #02B4FA",
"4$	c #07B0F6",
"5$	c #0A9CD9",
"6$	c #0A79A9",
"7$	c #0C4A63",
"8$	c #011A26",
"9$	c #00101A",
"0$	c #022F45",
"a$	c #0B5E82",
"b$	c #097FB3",
"c$	c #1294CD",
"d$	c #3DB2E7",
"e$	c #86DAF8",
"f$	c #8CDAFB",
"g$	c #69C9EA",
"h$	c #021621",
"i$	c #030204",
"j$	c #099BD7",
"k$	c #02B3FA",
"l$	c #14B3FC",
"m$	c #4D9FB0",
"n$	c #3C817F",
"o$	c #64E4E1",
"p$	c #69F5F6",
"q$	c #51BFCE",
"r$	c #0DA2D8",
"s$	c #03B3FD",
"t$	c #0AA9EB",
"u$	c #0E94D1",
"v$	c #0985BA",
"w$	c #087AA8",
"x$	c #0E6D95",
"y$	c #095779",
"z$	c #093747",
"A$	c #33505A",
"B$	c #5D8A9D",
"C$	c #468EA3",
"D$	c #020E14",
"E$	c #128FCB",
"F$	c #2390BD",
"G$	c #60CACA",
"H$	c #49B1BD",
"I$	c #219DD0",
"J$	c #09AFF5",
"K$	c #01B3FF",
"L$	c #00B6FD",
"M$	c #00B5FE",
"N$	c #03B0FE",
"O$	c #02B3FB",
"P$	c #02B4FE",
"Q$	c #0DAEF2",
"R$	c #148BB6",
"S$	c #020507",
"T$	c #010202",
"U$	c #010103",
"V$	c #040405",
"W$	c #087AA6",
"X$	c #01B4FE",
"Y$	c #07A8F2",
"Z$	c #0BA0DC",
"`$	c #09B0F5",
" %	c #00B4FF",
".%	c #01B3FE",
"+%	c #00B3FC",
"@%	c #02B2FC",
"#%	c #1185BA",
"$%	c #020202",
"%%	c #050706",
"&%	c #07516F",
"*%	c #0CB0FA",
"=%	c #02B5FC",
"-%	c #00B4FB",
";%	c #01B5FD",
">%	c #04B1FD",
",%	c #00B5F9",
"'%	c #00B3FD",
")%	c #00B4FD",
"!%	c #06B2F9",
"~%	c #065873",
"{%	c #040203",
"]%	c #030F20",
"^%	c #149DDD",
"/%	c #04AEF5",
"(%	c #05B2FA",
"_%	c #119BD7",
":%	c #02101A",
"<%	c #10698D",
"[%	c #04B2FA",
"}%	c #04B3FB",
"|%	c #0E7BAA",
"1%	c #08A3E4",
"2%	c #38BDF9",
"3%	c #34BEFA",
"4%	c #02B4FC",
"5%	c #08577B",
"6%	c #021622",
"7%	c #1198D3",
"8%	c #03B4FA",
"9%	c #108EC8",
"0%	c #0D7BAD",
"a%	c #01B1FE",
"b%	c #4DC9F9",
"c%	c #46C7FA",
"d%	c #00B2FE",
"e%	c #03B1FF",
"f%	c #0F81AF",
"g%	c #02090E",
"h%	c #043E57",
"i%	c #0EA4E0",
"j%	c #08AEF7",
"k%	c #0A93CD",
"l%	c #06688D",
"m%	c #1C7796",
"n%	c #4BC6F4",
"o%	c #51C9FB",
"p%	c #2BB8FA",
"q%	c #06B1FD",
"r%	c #05B2FD",
"s%	c #01B5FF",
"t%	c #03B3FA",
"u%	c #128DC6",
"v%	c #021825",
"w%	c #06425E",
"x%	c #1490BF",
"y%	c #0D5574",
"z%	c #05678B",
"A%	c #0E97D3",
"B%	c #51C5F8",
"C%	c #72D6FC",
"D%	c #74D4FD",
"E%	c #65D3FD",
"F%	c #10B5FB",
"G%	c #00B4FE",
"H%	c #06B1F9",
"I%	c #0E85B9",
"J%	c #021F2B",
"K%	c #073D4C",
"L%	c #1898CF",
"M%	c #58CDFA",
"N%	c #70D6FB",
"O%	c #79D2FC",
"P%	c #6ED5FC",
"Q%	c #18B4F8",
"R%	c #0DA6E3",
"S%	c #09698E",
"T%	c #020910",
"U%	c #041F2A",
"V%	c #1979A3",
"W%	c #23A9E7",
"X%	c #34BAF9",
"Y%	c #6BD3FE",
"Z%	c #6AD9FE",
"`%	c #46C8FB",
" &	c #04B4FB",
".&	c #09B2F8",
"+&	c #0EA4E5",
"@&	c #0F77A6",
"#&	c #032C44",
"$&	c #010201",
"%&	c #0E2F3C",
"&&	c #226B89",
"*&	c #358BAD",
"=&	c #2E9DC8",
"-&	c #1B99D1",
";&	c #1198CD",
">&	c #0D82B3",
",&	c #0D628A",
"'&	c #06273B",
")&	c #08121D",
"!&	c #0F6B95",
"~&	c #156E8F",
"{&	c #060A09",
"]&	c #0B4C70",
"^&	c #079CDE",
"/&	c #0E86AA",
"(&	c #103044",
"_&	c #0D73A0",
":&	c #06A5E3",
"<&	c #0F6F8C",
"[&	c #184E68",
"}&	c #072C40",
"|&	c #0F87C1",
"1&	c #09ABE4",
"2&	c #1A718D",
"3&	c #0F5E7D",
"4&	c #175A79",
"5&	c #061A2D",
"6&	c #099BD3",
"7&	c #139CC6",
"8&	c #097EAB",
"9&	c #0F80A4",
"0&	c #155465",
"a&	c #136281",
"b&	c #104C65",
"c&	c #0997DB",
"d&	c #128AC0",
"e&	c #070807",
"f&	c #05324A",
"g&	c #0682B4",
"h&	c #129AD0",
"i&	c #0A354E",
"j&	c #052734",
"k&	c #1270A2",
"l&	c #095777",
"m&	c #0495CC",
"n&	c #1297D6",
"o&	c #0D90C3",
"p&	c #166784",
"q&	c #094966",
"r&	c #0B88C0",
"s&	c #063952",
"t&	c #107AA9",
"u&	c #0491CC",
"v&	c #0395D7",
"w&	c #158ABB",
"x&	c #0D4A6C",
"y&	c #0985BC",
"z&	c #093F5B",
"A&	c #146993",
"B&	c #0D2D44",
"C&	c #1184B8",
"D&	c #0C4B69",
"E&	c #082B3A",
"                                                                        . + @ # $ % & *             ",
"                                                                  = - ; > , ' ) ! ~ { ] ^ /         ",
"                    ( _ : < [ } | 1 2 3 4 5 6 7       8 9 0 a b c d e f g h i j k l m n o p q       ",
"          r s     t u v w x y z A B C D E F G H I J K L M N O P Q R S T U V W X Y Z `  ...+.@.#.    ",
"        $.%.&.*.=.-.;.>.,.'.).!.~.{.].^./.(._.:.<.[.}.|.1.2.3.4.5.6.7.8.W 9.0.a.b.c.5.d.e.f.g.h.i.  ",
"      j.k.l.m.n.o.p.q.r.s.t.u.u.v.w.x.y.z.A.B.C.D.E.F.G.H.I.J.K.L.M.N.O.P.P.P.Q.R.S.T.U.V.W.X.Y.Z.`.",
"       +.+++@+#+$+%+&+*+=+-+-+;+>+,+'+)+!+~+{+]+^+/+(+_+:+<+[+}+|+1+2+3+P.P.P.4+5+6+|+7+8+9+0+a+    ",
"    b+c+d+e+f+g+h+i+j+k+l+m+m+m+|.n+o+p+q+r+s+t+u+v+w+x+y+z+A+B+M.S C+D+P.P.P.E+F+G+4.H+I+J+        ",
"  K+L+M+N+O+P+Q+R+S+T+U+V+G.W+X+Y+Z+`+ @.@+@@@#@$@%@&@*@=@-@;@>@,@,@'@)@P.0.P.!@~@{@]@^@            ",
"/@(@_@:@<@[@}@|@1@2@3@4@5@a.6@7@8@9@0@a@|+b@c@d@e@f@g@h@i@j@k@l@,@m@n@o@z+P.p@q@r@s@t@              ",
"  * u@v@w@x@y@z@A@B@C@D@)@p@E@|+ .F@G@M.H@I@J@a.0.K@L@M@  N@O@P@Q@R@S@T@U@z+V@W@X@Y@                ",
"    Z@`@ #.#+#K@@###$#%#&#*#=#-#;#>#,#'#)#!#~#{#0.]#^#/#(#  _#:#<#p@[#{#}#V@|#1#2#                  ",
"    3#4#5#6#7#8#9#0#a#b#c#d#e#f#g#h#i#j#i k#l#E+p@m#n#o#p#    q#r#s#t#u#v#w#x#*@                    ",
"    y#o@z#A#B#C#D#E#F#G#H#I#J#K#L#M#N#O#[#Q.W P#Q#R#2+S#p#      T#U#V#W#X#Y#                        ",
"    Z#`# $.$+$@$#$$$%$K@&$*$=$-$;$>$,$'$)$!$o@~${$]$ .^$/$                                          ",
"  (#($_$:$<$[$}$|$1$2$E+~@3$4$5$6$7$8$9$0$a$b$c$d$e$f$g$h$                                          ",
"  i$j$k$l$m$n$o$p$q$r$i h P.P.P.s$}#t$u$v$w$x$y$z$A$B$C$D$                                          ",
"    E$!@P#F$G$H$I$J$^#K$[#P.P.P.L$M$N$O${#P$h m#Q$R$S$T$U$V$                                        ",
"    W$X$5#Y$Z$`$V p@h P#)@P.P.P.)@K$ %.%+%+%i @%E+#%T#  $%%%                                        ",
"    &%*%=%P${#)@-%;%E+>%,%P.P.P.E+i i '%)@)@)%0.!%~%{%                                              ",
"    ]%^%L$V@P.P.P.p@{#/%(%P.P.P.'%P.)@.%0.Q.o@i _%:%                                                ",
"      <%[%~$P.P.P.g.}%|%1%P.P.P.)@2%3%.%l#4%X$z#5%                                                  ",
"      6%7%^#P.P.P.8%9%0%[%P.P.P.a%b%c%d%X$e%(%f%g%                                                  ",
"        h%i%k$j%k%l%m%n%o%p%.% %E+q%r%s%8%t%u%v%                                                    ",
"          w%x%y%z%A%B%C%D%E%F%G%O$E+)@k#H%I%J%                                                      ",
"          N@K%L%H%8%M%N%O%P%Q%O$ %z+Q.R%S%T%                                                        ",
"              U%V%W%X%Y%Z%`% &'%.&+&@&#&                                                            ",
"                $&%&&&*&=&-&;&>&,&'&                                                                ",
"                    )&!&~&{&                                                                        ",
"                    ]&^&/&(&                                                                        ",
"                    _&:&<&[&}&                                                                      ",
"                    |&1&2&3&4&                                                                      ",
"                  5&6&7&8&9&0&                                                                      ",
"                    a&b&c&d&e&                                                                      ",
"                      f&g&h&i&                                                                      ",
"                    j&k&l&m&n&o&p&                                                                  ",
"                    q&r&s&t&u&v&w&                                                                  ",
"                    x&y&z&    A&                                                                    ",
"                    B&C&D&                                                                          ",
"                      E&                                                                            "};
