/* XPM */
static char * running_right_girl_xpm[] = {
"50 39 710 2",
"  	c None",
". 	c #000000",
"+ 	c #182F37",
"@ 	c #103B54",
"# 	c #06435B",
"$ 	c #094659",
"% 	c #06364C",
"& 	c #001124",
"* 	c #021626",
"= 	c #1E5469",
"- 	c #659EB4",
"; 	c #87C6E1",
"> 	c #8EDBF5",
", 	c #66CBF9",
"' 	c #0AB2F6",
") 	c #04B2F6",
"! 	c #0AB0F7",
"~ 	c #1DA9E2",
"{ 	c #4C889B",
"] 	c #243D43",
"^ 	c #043F59",
"/ 	c #1199D4",
"( 	c #62CCF3",
"_ 	c #8EDAFC",
": 	c #8EDBFD",
"< 	c #88DBFE",
"[ 	c #83E0FE",
"} 	c #25B5F7",
"| 	c #01B3FC",
"1 	c #02B3FE",
"2 	c #11B6FA",
"3 	c #82D7FD",
"4 	c #8CD4F2",
"5 	c #73A8BC",
"6 	c #426978",
"7 	c #2F4D57",
"8 	c #173949",
"9 	c #092E40",
"0 	c #0F2E3D",
"a 	c #123342",
"b 	c #274955",
"c 	c #325056",
"d 	c #395350",
"e 	c #393E35",
"f 	c #40585C",
"g 	c #4E8C9D",
"h 	c #4BB1D8",
"i 	c #51BBE8",
"j 	c #51BDE8",
"k 	c #56BBE2",
"l 	c #4DACCD",
"m 	c #4A838F",
"n 	c #4D5553",
"o 	c #3A3629",
"p 	c #0B5F83",
"q 	c #0CABED",
"r 	c #2BBEFB",
"s 	c #83DDFD",
"t 	c #87DDFE",
"u 	c #8ADAFB",
"v 	c #81D7FB",
"w 	c #40BDF7",
"x 	c #04B1FC",
"y 	c #03B1FF",
"z 	c #03B1FE",
"A 	c #03B1FC",
"B 	c #5ED0F9",
"C 	c #8ED9FE",
"D 	c #8CDCFA",
"E 	c #8CDBF6",
"F 	c #50BDEB",
"G 	c #1AADEC",
"H 	c #1EACEB",
"I 	c #1DB1EC",
"J 	c #21B3EC",
"K 	c #23B3ED",
"L 	c #27B6EF",
"M 	c #31B8EA",
"N 	c #3890B0",
"O 	c #2F718A",
"P 	c #44A2CA",
"Q 	c #84D6F2",
"R 	c #8BE1FA",
"S 	c #41C4FC",
"T 	c #3DC4FD",
"U 	c #3DC3FE",
"V 	c #3AC5FF",
"W 	c #3BC3FD",
"X 	c #7EDFFA",
"Y 	c #A0DEED",
"Z 	c #7CA7B5",
"` 	c #303931",
" .	c #31555D",
"..	c #2F3E37",
"+.	c #0D5C82",
"@.	c #08AFF5",
"#.	c #00B2F8",
"$.	c #17B3F9",
"%.	c #7DDCFC",
"&.	c #8ADCFD",
"*.	c #88DBFD",
"=.	c #71D6FC",
"-.	c #08B3F8",
";.	c #00B5FD",
">.	c #00B4FC",
",.	c #01B4FA",
"'.	c #01B1FF",
").	c #19B4F6",
"!.	c #72D5FC",
"~.	c #88DDFC",
"{.	c #88DCFE",
"].	c #89DCFC",
"^.	c #3FBDF7",
"/.	c #04B8FD",
"(.	c #0FB5FE",
"_.	c #0FB7FE",
":.	c #16B9FF",
"<.	c #1BB9FD",
"[.	c #26B2ED",
"}.	c #2584AC",
"|.	c #2DACDF",
"1.	c #63CDFB",
"2.	c #8DDFFC",
"3.	c #9FE1FD",
"4.	c #8DDCFD",
"5.	c #35C0FD",
"6.	c #2DC2FE",
"7.	c #2CC2FF",
"8.	c #2EC0FC",
"9.	c #79D4FB",
"0.	c #9CE4FE",
"a.	c #9DE4FE",
"b.	c #72A0AA",
"c.	c #2C2F2A",
"d.	c #6697AA",
"e.	c #3EBFF3",
"f.	c #3093B7",
"g.	c #242619",
"h.	c #050000",
"i.	c #1A5871",
"j.	c #1086B9",
"k.	c #17A5DA",
"l.	c #0EAFF8",
"m.	c #5EC8F9",
"n.	c #8DDAFE",
"o.	c #8CDAFE",
"p.	c #82E0FC",
"q.	c #4EC2F8",
"r.	c #02B2FE",
"s.	c #00B3FE",
"t.	c #0FB1F9",
"u.	c #7CDAFE",
"v.	c #89DBFE",
"w.	c #80DDFF",
"x.	c #18B5FC",
"y.	c #09B3FF",
"z.	c #06B6FD",
"A.	c #07B6FC",
"B.	c #0BB8FA",
"C.	c #1FAAE8",
"D.	c #145372",
"E.	c #24ADE7",
"F.	c #60C9F8",
"G.	c #96DFFE",
"H.	c #94E2FE",
"I.	c #96E0FF",
"J.	c #66CEF9",
"K.	c #20BEFE",
"L.	c #22BCFE",
"M.	c #22BDFE",
"N.	c #22BDFF",
"O.	c #45C1FB",
"P.	c #97DFFC",
"Q.	c #97E1FF",
"R.	c #7DB1BF",
"S.	c #43555A",
"T.	c #98DCF6",
"U.	c #37C0FC",
"V.	c #2BB4EF",
"W.	c #1E3D48",
"X.	c #1C1B11",
"Y.	c #060A0A",
"Z.	c #165F7F",
"`.	c #64C2E3",
" +	c #8BDAFE",
".+	c #87DDFC",
"++	c #4FC5F8",
"@+	c #00B6FC",
"#+	c #31BAFB",
"$+	c #89DDFD",
"%+	c #75D3FD",
"&+	c #01B5F8",
"*+	c #07B2F9",
"=+	c #04B4FD",
"-+	c #11B1F5",
";+	c #1A89C0",
">+	c #203E4D",
",+	c #1F6C90",
"'+	c #2BBAFB",
")+	c #86E0FB",
"!+	c #93DDFD",
"~+	c #93DDFF",
"{+	c #8DDFFE",
"]+	c #2DBAF6",
"^+	c #12BCFF",
"/+	c #17BAFE",
"(+	c #16BAFE",
"_+	c #1DBBFA",
":+	c #7BD8FB",
"<+	c #94DFFE",
"[+	c #78ACB4",
"}+	c #283C3D",
"|+	c #8BD6EE",
"1+	c #30BCFD",
"2+	c #1AB9FE",
"3+	c #1E8BBB",
"4+	c #121810",
"5+	c #0E1007",
"6+	c #0E2329",
"7+	c #72A8C1",
"8+	c #86D9FB",
"9+	c #77D9FD",
"0+	c #1AB3FA",
"a+	c #01B2FD",
"b+	c #0AB1FA",
"c+	c #7ADAFE",
"d+	c #89DBFF",
"e+	c #79DBFE",
"f+	c #1BB5F9",
"g+	c #03B3FE",
"h+	c #15A1DC",
"i+	c #054163",
"j+	c #040E10",
"k+	c #4A95B8",
"l+	c #0CB2F9",
"m+	c #1EB7FC",
"n+	c #81DEFE",
"o+	c #8CDFFE",
"p+	c #8BDEFE",
"q+	c #8FDFFE",
"r+	c #62CDF9",
"s+	c #0FB7FD",
"t+	c #0CB7FD",
"u+	c #0CB7FF",
"v+	c #0DB8FF",
"w+	c #0CB9FB",
"x+	c #2BBAFA",
"y+	c #79DDFD",
"z+	c #6298AB",
"A+	c #0B0C05",
"B+	c #6EB6D4",
"C+	c #18B8FB",
"D+	c #10B6FD",
"E+	c #2AB7F1",
"F+	c #3F707F",
"G+	c #0F0E0E",
"H+	c #0B1519",
"I+	c #2D7088",
"J+	c #1BB2EE",
"K+	c #03B2FE",
"L+	c #00B2FE",
"M+	c #00B5FB",
"N+	c #00B4FF",
"O+	c #00B2FD",
"P+	c #6ACEFC",
"Q+	c #8ADAFC",
"R+	c #8ADCFC",
"S+	c #88DDFE",
"T+	c #6ACEFB",
"U+	c #12A3E2",
"V+	c #063749",
"W+	c #050907",
"X+	c #144F6A",
"Y+	c #19B2F5",
"Z+	c #08B4FC",
"`+	c #02B6FD",
" @	c #5ECCFA",
".@	c #8ADCFF",
"+@	c #89DDFE",
"@@	c #8EDBFF",
"#@	c #86DCFE",
"$@	c #55C9F7",
"%@	c #48C7F8",
"&@	c #28B6F5",
"*@	c #06B4FE",
"=@	c #07B5FB",
"-@	c #05B5FE",
";@	c #1BB4F1",
">@	c #174868",
",@	c #060706",
"'@	c #104B67",
")@	c #0FB3F6",
"!@	c #06B1F9",
"~@	c #5BCFFA",
"{@	c #8CD8F2",
"]@	c #4D7383",
"^@	c #070B09",
"/@	c #05070D",
"(@	c #0B6084",
"_@	c #10B1F0",
":@	c #02B3FC",
"<@	c #02B2FC",
"[@	c #00B4FE",
"}@	c #01B3FE",
"|@	c #3CC1F5",
"1@	c #84DDFF",
"2@	c #8ADBFD",
"3@	c #87DBFD",
"4@	c #80CADF",
"5@	c #103A4A",
"6@	c #040304",
"7@	c #05131D",
"8@	c #1696CD",
"9@	c #02B4FD",
"0@	c #01B3FF",
"a@	c #65D4FD",
"b@	c #8BDCFB",
"c@	c #88DCFB",
"d@	c #8BDBFB",
"e@	c #8ADBFC",
"f@	c #8BDDFF",
"g@	c #7FDCFB",
"h@	c #2EBAF8",
"i@	c #02B4FE",
"j@	c #06B1FF",
"k@	c #06B0FF",
"l@	c #0B97CD",
"m@	c #021A29",
"n@	c #17739D",
"o@	c #032434",
"p@	c #107AAF",
"q@	c #09B4F9",
"r@	c #32BAF5",
"s@	c #78D9FD",
"t@	c #7DBECE",
"u@	c #161F22",
"v@	c #010201",
"w@	c #030000",
"x@	c #206785",
"y@	c #1EADEE",
"z@	c #01B6F9",
"A@	c #01B2FE",
"B@	c #04B1FD",
"C@	c #43C1F8",
"D@	c #73D4FA",
"E@	c #7ECEEA",
"F@	c #304B56",
"G@	c #020002",
"H@	c #023246",
"I@	c #05AFF2",
"J@	c #04B2FD",
"K@	c #01B5FA",
"L@	c #00B4FB",
"M@	c #35BBF9",
"N@	c #6AD5FC",
"O@	c #80DCFD",
"P@	c #8ADBFF",
"Q@	c #8CDBFD",
"R@	c #86DDFE",
"S@	c #89DCFD",
"T@	c #5CCEFA",
"U@	c #01B3FD",
"V@	c #00B2FB",
"W@	c #0CAFED",
"X@	c #044A61",
"Y@	c #0D7AA7",
"Z@	c #04B5FA",
"`@	c #0B99D5",
" #	c #023F53",
".#	c #084863",
"+#	c #0A6489",
"@#	c #185672",
"##	c #03131C",
"$#	c #010100",
"%#	c #010000",
"&#	c #275369",
"*#	c #2A9FCC",
"=#	c #03B3FA",
"-#	c #06B0FB",
";#	c #01B5FC",
">#	c #01B4FC",
",#	c #069FDF",
"'#	c #0C4762",
")#	c #040001",
"!#	c #08688E",
"~#	c #00B3FC",
"{#	c #00B4FD",
"]#	c #01B2FB",
"^#	c #01B2F7",
"/#	c #28B6F9",
"(#	c #5DCAF9",
"_#	c #86DCFC",
":#	c #8ADBFE",
"<#	c #8DDAFA",
"[#	c #70D2FA",
"}#	c #03B4FD",
"|#	c #0FA9EC",
"1#	c #075476",
"2#	c #0B577A",
"3#	c #06AEF6",
"4#	c #04B4FF",
"5#	c #09B1F8",
"6#	c #0CAFF1",
"7#	c #0B9AD2",
"8#	c #0D87BE",
"9#	c #0E87B8",
"0#	c #043348",
"a#	c #12272E",
"b#	c #3F87A7",
"c#	c #17A1DB",
"d#	c #09AEF0",
"e#	c #0BAAEA",
"f#	c #127EAA",
"g#	c #011829",
"h#	c #030204",
"i#	c #62A9CA",
"j#	c #56C8F9",
"k#	c #18B5F8",
"l#	c #02B1FC",
"m#	c #01B1FC",
"n#	c #1FB7F9",
"o#	c #85DBFE",
"p#	c #88DBFF",
"q#	c #8ADDFE",
"r#	c #73CFF2",
"s#	c #148FC5",
"t#	c #032E45",
"u#	c #06597B",
"v#	c #0AACEF",
"w#	c #0BA6E8",
"x#	c #1E80A0",
"y#	c #41969F",
"z#	c #3C899A",
"A#	c #0D8BC1",
"B#	c #03B3FC",
"C#	c #0A6F96",
"D#	c #04060A",
"E#	c #021722",
"F#	c #03253A",
"G#	c #022033",
"H#	c #02070F",
"I#	c #040E15",
"J#	c #86CEEC",
"K#	c #89DCFE",
"L#	c #66CEFA",
"M#	c #00B5FE",
"N#	c #44C5F7",
"O#	c #85DCF8",
"P#	c #81D2EF",
"Q#	c #80BAD6",
"R#	c #5D8E9C",
"S#	c #28404C",
"T#	c #032E42",
"U#	c #0C7EA9",
"V#	c #05B0F8",
"W#	c #0EAEF0",
"X#	c #2E7280",
"Y#	c #6DEEED",
"Z#	c #68FCFA",
"`#	c #6EFAFC",
" $	c #32727C",
".$	c #0DB0F4",
"+$	c #00B5F8",
"@$	c #1491C8",
"#$	c #061D29",
"$$	c #66C6E7",
"%$	c #81DDFF",
"&$	c #13B0FA",
"*$	c #04B1FE",
"=$	c #05B2FA",
"-$	c #0EAAEA",
";$	c #0C95D1",
">$	c #297796",
",$	c #395765",
"'$	c #1E323D",
")$	c #041927",
"!$	c #024058",
"~$	c #0E85B6",
"{$	c #06ACE8",
"]$	c #02B1FD",
"^$	c #03B2FB",
"/$	c #0885BA",
"($	c #5BD1D0",
"_$	c #68FEFF",
":$	c #69FCFD",
"<$	c #6AF6F0",
"[$	c #50A6A7",
"}$	c #2FB8F7",
"|$	c #00B6FB",
"1$	c #0B9EDC",
"2$	c #082431",
"3$	c #66D1F1",
"4$	c #8ED6F2",
"5$	c #79BAD0",
"6$	c #3988A9",
"7$	c #0B5D7F",
"8$	c #034260",
"9$	c #031D2E",
"0$	c #000411",
"a$	c #04384D",
"b$	c #0A678A",
"c$	c #148BBD",
"d$	c #0AA5E6",
"e$	c #05AFF8",
"f$	c #02B3FD",
"g$	c #1075A0",
"h$	c #6FF0F3",
"i$	c #68FEFE",
"j$	c #63E0E0",
"k$	c #17403D",
"l$	c #549BAC",
"m$	c #2DB8FB",
"n$	c #0CA4E0",
"o$	c #01060B",
"p$	c #1E404D",
"q$	c #1D2D36",
"r$	c #034862",
"s$	c #0D7DA7",
"t$	c #0A90CB",
"u$	c #0E9CD9",
"v$	c #08A6E6",
"w$	c #08AAEE",
"x$	c #09AEF8",
"y$	c #03B2FD",
"z$	c #02B2FD",
"A$	c #03B3F1",
"B$	c #29A2CE",
"C$	c #55CAD2",
"D$	c #6BEDE9",
"E$	c #62CDCA",
"F$	c #3F9CB3",
"G$	c #05B4FC",
"H$	c #129CDB",
"I$	c #090A0A",
"J$	c #020101",
"K$	c #020202",
"L$	c #01090A",
"M$	c #1098CD",
"N$	c #01B2FF",
"O$	c #02B4FC",
"P$	c #02B4FB",
"Q$	c #02B1FE",
"R$	c #04ADF5",
"S$	c #108EBE",
"T$	c #3994AC",
"U$	c #0F98D6",
"V$	c #158BC1",
"W$	c #020203",
"X$	c #0D78A0",
"Y$	c #03B4FC",
"Z$	c #00B3FD",
"`$	c #01B4FB",
" %	c #03B3FD",
".%	c #05B1FC",
"+%	c #03B5FC",
"@%	c #04AFFD",
"#%	c #03B3FB",
"$%	c #04B3FC",
"%%	c #066082",
"&%	c #022A3B",
"*%	c #0DAEF1",
"=%	c #00B5FC",
"-%	c #05B1FD",
";%	c #01B6FE",
">%	c #0CA8F0",
",%	c #042D44",
"'%	c #0E7BAC",
")%	c #01B4FD",
"!%	c #00B4FA",
"~%	c #09B1FC",
"{%	c #0AB0FB",
"]%	c #08A8EE",
"^%	c #11A0DC",
"/%	c #00B2FF",
"(%	c #188BBE",
"_%	c #0D0F18",
":%	c #03283B",
"<%	c #12A2DD",
"[%	c #01B4FE",
"}%	c #4BCBFA",
"|%	c #58D1FC",
"1%	c #00B1FD",
"2%	c #06B0F4",
"3%	c #096188",
"4%	c #0DA9EE",
"5%	c #0CA9EF",
"6%	c #053344",
"7%	c #06425B",
"8%	c #10A9EB",
"9%	c #00B3FF",
"0%	c #20B6FB",
"a%	c #25B9FB",
"b%	c #09B3FC",
"c%	c #28B9FA",
"d%	c #23A9DF",
"e%	c #0F5F81",
"f%	c #0898D0",
"g%	c #06AEF5",
"h%	c #07B2F5",
"i%	c #0C6C92",
"j%	c #07050A",
"k%	c #074460",
"l%	c #0CA3E5",
"m%	c #03B2FC",
"n%	c #05B3FC",
"o%	c #53CBFB",
"p%	c #71D6FE",
"q%	c #70D6FE",
"r%	c #40B4E4",
"s%	c #09658E",
"t%	c #034561",
"u%	c #147EB5",
"v%	c #0EA8E6",
"w%	c #0F709A",
"x%	c #020000",
"y%	c #042F44",
"z%	c #0E96CB",
"A%	c #04B2F3",
"B%	c #02B1FF",
"C%	c #01B3FB",
"D%	c #1EB7F9",
"E%	c #70D5FC",
"F%	c #7BD2FC",
"G%	c #70D5FA",
"H%	c #55CDFB",
"I%	c #00B2FA",
"J%	c #09ACED",
"K%	c #1699CC",
"L%	c #106278",
"M%	c #02030D",
"N%	c #09212E",
"O%	c #08577C",
"P%	c #13A1E0",
"Q%	c #06B0FA",
"R%	c #01B2FC",
"S%	c #0AB3FA",
"T%	c #5CD4FD",
"U%	c #6FD6FD",
"V%	c #71D4FD",
"W%	c #47C1FC",
"X%	c #0AB1F8",
"Y%	c #1AA1DB",
"Z%	c #0A4763",
"`%	c #03060E",
" &	c #095779",
".&	c #0F84B8",
"+&	c #0EA4E3",
"@&	c #0BB1F3",
"#&	c #1FB1F3",
"$&	c #42BCEB",
"%&	c #4AB1DB",
"&&	c #2A92BF",
"*&	c #1B5D7B",
"=&	c #081B27",
"-&	c #104559",
";&	c #134255",
">&	c #1F6581",
",&	c #165673",
"'&	c #070000",
")&	c #092135",
"!&	c #158EB3",
"~&	c #0A99D8",
"{&	c #084060",
"]&	c #1C536D",
"^&	c #0A6885",
"/&	c #07A3E3",
"(&	c #0A6892",
"_&	c #125171",
":&	c #14546F",
"<&	c #0F5871",
"[&	c #07A7E2",
"}&	c #0F82BA",
"|&	c #15576B",
"1&	c #096D8D",
"2&	c #0D77A2",
"3&	c #15AAD9",
"4&	c #0999D3",
"5&	c #040316",
"6&	c #0D0600",
"7&	c #1286B9",
"8&	c #0B97D7",
"9&	c #0F5874",
"0&	c #127093",
"a&	c #042837",
"b&	c #159BD2",
"c&	c #0788C0",
"d&	c #06334C",
"e&	c #0A0000",
"f&	c #105B75",
"g&	c #0B82AF",
"h&	c #1492CE",
"i&	c #0498D1",
"j&	c #0A5D7E",
"k&	c #126EA0",
"l&	c #062B39",
"m&	c #158FC3",
"n&	c #0399DC",
"o&	c #0495D0",
"p&	c #087BAC",
"q&	c #03334D",
"r&	c #0884BC",
"s&	c #0A4661",
"t&	c #11638E",
"u&	c #04314B",
"v&	c #0682B8",
"w&	c #074A6B",
"x&	c #043B56",
"y&	c #0D83B8",
"z&	c #0A354E",
"A&	c #0A3749",
"            . . + @ # $ % &                                                                         ",
"        * = - ; > , ' ) ! ~ { ] .                                                                   ",
"      ^ / ( _ : < [ } | 1 2 3 4 5 6 7 8 9 0 a       b c d e f g h i j k l m n o                     ",
"    p q r s t u v w x y z A B < C D E F G H I J K L M N O P Q R S T U V W X Y Z `      ...          ",
"  +.@.#.$.%.&.*.=.-.;.>.,.'.).!.~.{.].^./.(._.:.<.[.}.|.1.2.3.4.5.6.7.7.8.9.0.a.b.c.d.e.f.g.        ",
"h.i.j.k.l.m.n.o.p.q.r.s.s.s.t.u.v.v.w.x.y.z.A.B.C.D.E.F.G.H.I.J.K.L.M.M.N.O.P.Q.R.S.T.U.V.W.X.      ",
"      Y.Z.`. +&..+++@+s.s.s.#+t n.$+%+&+*+=+-+;+>+,+'+)+!+~+{+]+^+/+/+(+(+_+:+<+[+}+|+1+2+3+4+5+    ",
"          6+7+8+9+0+a+s.s.s.b+c+v.d+e+f+g+h+i+j+k+l+m+n+o+p+q+r+s+t+u+u+v+w+x+y+z+A+B+C+D+E+F+G+    ",
"            H+I+J+y K+L+M+N+O+P+Q+R+S+T+U+V+W+X+Y+Z+`+ @.@+@@@#@$@%@&@*@=@-@=@;@>@,@'@)@!@~@{@]@^@  ",
"              /@(@_@:@<@[@}@a+|@1@2@3@4@5@6@7@8@9@0@z a@b@c@d@e@f@n.g@h@i@j@k@l@m@n@o@p@q@r@s@t@u@v@",
"                w@x@y@0@z z@A@B@C@D@E@F@G@  H@I@J@K@L@M@N@O@P@Q@R@P@S@T@U@V@W@X@Y@Z@`@ #.#+#@###$#  ",
"                  %#&#*#=#-#;#>#g+,#'#%#  )#!#~#K+{#U@]#^#/#(#_#:#<#{.[#}#|#1#2#3#4#5#6#7#8#9#0#    ",
"                      a#b#c#d#e#f#g#h#    %#i#j#k#l#| U@| m#n#o#p#n.q#r#s#t#u#v#w#x#y#z#A#B#*@C#    ",
"                        D#E#F#G#H#        I#J#K#L#M+M#r.A <@N#O#P#Q#R#S#T#U#V#W#X#Y#Z#`# $.$+$@$    ",
"                                          #$$$p#%$&$*$=$-$;$>$,$'$)$!$~${$]$^$/$($_$:$<$[$}$|$1$    ",
"                                          2$3$4$5$6$7$8$9$0$a$b$c$d$e$B#f$U@}@g$h$i$j$k$l$m$L@n$    ",
"                                          o$p$q$r$s$t$u$v$w$x$K+;.>#s.s.s.y$z$A$B$C$D$E$F$G$y$H$    ",
"                                        I$J$K$L$M$N$O$s.L+>.P$Q$N+[@s.s.s.A@{#z$}@R$S$T$U$>#}@V$    ",
"                                              W$X$Y$r.A@Z$U@U@[@r.A@s.s.s.| }@`$ %:@.%+%@%#%$%%%    ",
"                                                &%*%=%=%r.L+s.a+L@~#s.s.s.K@-%U@;#{#s.s.f$;%>%,%    ",
"                                                %#'%A )%f$!%U@~%{%L+s.s.s.]%^%>#,.s.s.s./%M+(%_%    ",
"                                                  :%<%a+y$[%O+}%|%1%s.s.s.2%3%4%}@s.s.s.U@5%6%      ",
"                                                    7%8%f$`$9%0%a%s.s.s.b%c%d%e%f%g%9%Z$h%i%j%      ",
"                                                      k%l%m%{#U@r.^$N+n%o%p%q%r%s%t%u%v%w%x%        ",
"                                                        y%z%A%B%N$M#C%D%E%F%G%H%I%J%K%L%M%          ",
"                                                          N%O%P%Q%R%| S%T%U%V%W%X%Y%Z%`%            ",
"                                                                 &.&+&@&#&$&%&&&*&=&                ",
"                                                                      -&;&>&,&'&                    ",
"                                                                        )&!&~&{&                    ",
"                                                                        ]&^&/&(&                    ",
"                                                                      _&:&<&[&}&                    ",
"                                                                      |&1&2&3&4&5&                  ",
"                                                                      6&7&8&9&0&                    ",
"                                                                      a&b&c&d&e&                    ",
"                                                                  f&g&h&i&j&k&l&                    ",
"                                                                  m&n&o&p&q&r&s&                    ",
"                                                                    t&    u&v&w&                    ",
"                                                                          x&y&z&                    ",
"                                                                            A&                      "};
