/* XPM */
static char * running_right_boy_xpm[] = {
"50 39 872 2",
"  	c None",
". 	c #3B3222",
"+ 	c #4B3627",
"@ 	c #5B3729",
"# 	c #5C3A2E",
"$ 	c #5C3B2E",
"% 	c #543D2C",
"& 	c #50432F",
"* 	c #4F4331",
"= 	c #4A3F2B",
"- 	c #22190E",
"; 	c #592413",
"> 	c #9F2E24",
", 	c #CC3525",
"' 	c #E63B26",
") 	c #E8422E",
"! 	c #EA462C",
"~ 	c #E94A31",
"{ 	c #DF4C35",
"] 	c #CF4B32",
"^ 	c #AA4A33",
"/ 	c #884B2F",
"( 	c #6D482E",
"_ 	c #5F3E2C",
": 	c #573D2D",
"< 	c #4B3F2A",
"[ 	c #4C3F27",
"} 	c #453C24",
"| 	c #3D3624",
"1 	c #393425",
"2 	c #372D1C",
"3 	c #0C0B03",
"4 	c #482011",
"5 	c #B03122",
"6 	c #EA2820",
"7 	c #F82C1C",
"8 	c #FB3A1E",
"9 	c #FD4821",
"0 	c #FD5625",
"a 	c #FF5C26",
"b 	c #FE5D28",
"c 	c #FC5C25",
"d 	c #FD5C28",
"e 	c #FD5D2C",
"f 	c #F85F30",
"g 	c #EF5E2C",
"h 	c #E5642D",
"i 	c #E57A34",
"j 	c #E78236",
"k 	c #D87B31",
"l 	c #B16733",
"m 	c #854D24",
"n 	c #5D3E22",
"o 	c #3D3220",
"p 	c #2B281A",
"q 	c #291E0B",
"r 	c #060503",
"s 	c #1C0A07",
"t 	c #84271D",
"u 	c #DA2B20",
"v 	c #FA240E",
"w 	c #FD3815",
"x 	c #FE4B17",
"y 	c #FF5419",
"z 	c #FF5C1A",
"A 	c #FE621B",
"B 	c #FE621C",
"C 	c #FF631D",
"D 	c #FF6320",
"E 	c #FE6220",
"F 	c #FD5A1F",
"G 	c #FA541D",
"H 	c #FD541F",
"I 	c #FF5421",
"J 	c #FD551E",
"K 	c #FD6821",
"L 	c #FD6D1E",
"M 	c #FE6C1F",
"N 	c #FD6D20",
"O 	c #FD7121",
"P 	c #F57423",
"Q 	c #E97322",
"R 	c #CA6922",
"S 	c #844B1F",
"T 	c #2F1E0C",
"U 	c #080302",
"V 	c #0E0104",
"W 	c #60160C",
"X 	c #C22614",
"Y 	c #F21E0C",
"Z 	c #FA310B",
"` 	c #FE3E0C",
" .	c #FD4915",
"..	c #FD5612",
"+.	c #FD5910",
"@.	c #FE5A10",
"#.	c #FD5A0F",
"$.	c #FE5B11",
"%.	c #FE5C13",
"&.	c #FE5C14",
"*.	c #FF5D16",
"=.	c #FF5D19",
"-.	c #FD5516",
";.	c #FD4B13",
">.	c #FF4915",
",.	c #FE4A17",
"'.	c #FE4D16",
").	c #FF4E14",
"!.	c #FE4D13",
"~.	c #FF4E15",
"{.	c #FE5014",
"].	c #FB5717",
"^.	c #FC5E17",
"/.	c #FB6515",
"(.	c #F56F1A",
"_.	c #CE6C20",
":.	c #693811",
"<.	c #0E0702",
"[.	c #050201",
"}.	c #460504",
"|.	c #A8140C",
"1.	c #EA1610",
"2.	c #F92709",
"3.	c #FE370A",
"4.	c #FE390A",
"5.	c #FC3B08",
"6.	c #F93F09",
"7.	c #FB4007",
"8.	c #FC4508",
"9.	c #FE4F0C",
"0.	c #FF540D",
"a.	c #FF540A",
"b.	c #FF540C",
"c.	c #FF550E",
"d.	c #FF550F",
"e.	c #FD540D",
"f.	c #FF5212",
"g.	c #FD440C",
"h.	c #FE410F",
"i.	c #FD3C11",
"j.	c #FD310F",
"k.	c #FE2E0F",
"l.	c #FD2E0D",
"m.	c #FF2F0D",
"n.	c #FE330D",
"o.	c #FE390B",
"p.	c #FE4108",
"q.	c #FD4C08",
"r.	c #FD570A",
"s.	c #FA640D",
"t.	c #E96D1C",
"u.	c #78411A",
"v.	c #0E0402",
"w.	c #100100",
"x.	c #4E0708",
"y.	c #8D0D10",
"z.	c #B9110F",
"A.	c #B5060B",
"B.	c #A71107",
"C.	c #A61B0A",
"D.	c #B11A05",
"E.	c #BE1507",
"F.	c #D1170D",
"G.	c #E31A09",
"H.	c #F52108",
"I.	c #FD3208",
"J.	c #FA3B04",
"K.	c #FD4309",
"L.	c #FE4C09",
"M.	c #FE4F08",
"N.	c #FE5008",
"O.	c #FF5008",
"P.	c #FF4E0B",
"Q.	c #FD4508",
"R.	c #FC3C06",
"S.	c #FC3A0A",
"T.	c #FA2508",
"U.	c #FC1606",
"V.	c #FF1408",
"W.	c #FE1507",
"X.	c #FD1605",
"Y.	c #FA1A06",
"Z.	c #FB1E07",
"`.	c #FD3007",
" +	c #FF3C05",
".+	c #FC4F07",
"++	c #FE5E02",
"@+	c #EA6B1A",
"#+	c #64300B",
"$+	c #130505",
"%+	c #0A0101",
"&+	c #0E0100",
"*+	c #3E0304",
"=+	c #5A0B0D",
"-+	c #610B0A",
";+	c #5B0A0B",
">+	c #360201",
",+	c #180201",
"'+	c #281204",
")+	c #44250E",
"!+	c #502C11",
"~+	c #562E11",
"{+	c #582E10",
"]+	c #472510",
"^+	c #2D0402",
"/+	c #590403",
"(+	c #A70C06",
"_+	c #EE2705",
":+	c #FE3402",
"<+	c #FD3704",
"[+	c #FD3F03",
"}+	c #FD4403",
"|+	c #FE4404",
"1+	c #FB4104",
"2+	c #FC3802",
"3+	c #FE3405",
"4+	c #FC2A04",
"5+	c #FC1002",
"6+	c #FD0F02",
"7+	c #FE0F03",
"8+	c #FE0D06",
"9+	c #FF0D03",
"0+	c #FD1103",
"a+	c #FE1002",
"b+	c #FE1804",
"c+	c #FC2704",
"d+	c #FC3803",
"e+	c #FF4702",
"f+	c #FC5D05",
"g+	c #D36418",
"h+	c #240D01",
"i+	c #030000",
"j+	c #010200",
"k+	c #110301",
"l+	c #4C0909",
"m+	c #7E0507",
"n+	c #98090F",
"o+	c #930B0E",
"p+	c #650A0C",
"q+	c #2F0402",
"r+	c #512F15",
"s+	c #7C4C24",
"t+	c #975C30",
"u+	c #B06932",
"v+	c #C06C2A",
"w+	c #C56E2A",
"x+	c #C66C2C",
"y+	c #C76E2A",
"z+	c #D06D21",
"A+	c #D06C22",
"B+	c #BA6421",
"C+	c #763C13",
"D+	c #0D0303",
"E+	c #6D0403",
"F+	c #F12706",
"G+	c #FF3201",
"H+	c #FD3400",
"I+	c #FB3500",
"J+	c #FC3401",
"K+	c #FD3502",
"L+	c #FD3207",
"M+	c #FE2205",
"N+	c #FD0C00",
"O+	c #FE0B00",
"P+	c #FE0A00",
"Q+	c #FF0801",
"R+	c #F90C01",
"S+	c #FC0C00",
"T+	c #FB0C03",
"U+	c #F30E03",
"V+	c #D71105",
"W+	c #D2160C",
"X+	c #E82607",
"Y+	c #FB3707",
"Z+	c #FD4B01",
"`+	c #F96106",
" @	c #8C3F11",
".@	c #090202",
"+@	c #060101",
"@@	c #150305",
"#@	c #420A0B",
"$@	c #550505",
"%@	c #430302",
"&@	c #2F1505",
"*@	c #754823",
"=@	c #A26A34",
"-@	c #BB6D35",
";@	c #B97029",
">@	c #C36C2C",
",@	c #C56D28",
"'@	c #C46F2A",
")@	c #C96C23",
"!@	c #BC6422",
"~@	c #AC5E23",
"{@	c #AD5E25",
"]@	c #B16025",
"^@	c #B46022",
"/@	c #AF5B27",
"(@	c #4E2B10",
"_@	c #110106",
":@	c #C71A04",
"<@	c #FD3301",
"[@	c #FC3500",
"}@	c #FE3401",
"|@	c #FE2E04",
"1@	c #FC2405",
"2@	c #FB1802",
"3@	c #FC0B01",
"4@	c #FF0802",
"5@	c #FE0900",
"6@	c #FF0701",
"7@	c #FF0702",
"8@	c #FD0704",
"9@	c #FD0802",
"0@	c #D50D0F",
"a@	c #81450C",
"b@	c #AF810E",
"c@	c #BF8F10",
"d@	c #A6720E",
"e@	c #95330F",
"f@	c #F03E09",
"g@	c #FE5204",
"h@	c #D85E12",
"i@	c #1D0800",
"j@	c #060000",
"k@	c #070100",
"l@	c #270000",
"m@	c #300001",
"n@	c #500203",
"o@	c #7D0603",
"p@	c #B51004",
"q@	c #F02304",
"r@	c #FE3303",
"s@	c #FF3004",
"t@	c #FE2302",
"u@	c #FB1100",
"v@	c #FC0D01",
"w@	c #FE0902",
"x@	c #FE0800",
"y@	c #FE0700",
"z@	c #FF0601",
"A@	c #FE0701",
"B@	c #FB0705",
"C@	c #E90E02",
"D@	c #8A520B",
"E@	c #F1B713",
"F@	c #FEC505",
"G@	c #FDC902",
"H@	c #FDBB0C",
"I@	c #DB9813",
"J@	c #A63206",
"K@	c #FB4802",
"L@	c #F5610C",
"M@	c #6F2F0F",
"N@	c #080201",
"O@	c #170102",
"P@	c #D0110D",
"Q@	c #EA1607",
"R@	c #EF1808",
"S@	c #F52804",
"T@	c #FC3203",
"U@	c #FC3402",
"V@	c #FD3501",
"W@	c #FF2B01",
"X@	c #FD1500",
"Y@	c #FF0B01",
"Z@	c #FF0600",
"`@	c #FE0500",
" #	c #FD0501",
".#	c #FD0504",
"+#	c #C90A0C",
"@#	c #C28F12",
"##	c #FEC606",
"$#	c #FFE003",
"%#	c #FDE402",
"&#	c #F6C70E",
"*#	c #F4B40A",
"=#	c #A35E15",
"-#	c #F93E0A",
";#	c #FC5602",
">#	c #B14809",
",#	c #090100",
"'#	c #AA0806",
")#	c #F91A03",
"!#	c #FC3302",
"~#	c #FE4202",
"{#	c #FF4802",
"]#	c #FE4303",
"^#	c #FD3801",
"/#	c #FE2702",
"(#	c #FB1000",
"_#	c #FE0B01",
":#	c #FF0A00",
"<#	c #FF0800",
"[#	c #FE0501",
"}#	c #FE0400",
"|#	c #FF0402",
"1#	c #FB0601",
"2#	c #CE0804",
"3#	c #C39116",
"4#	c #FDCD05",
"5#	c #FDEA04",
"6#	c #FEED05",
"7#	c #CDB20F",
"8#	c #D49A12",
"9#	c #9F5F19",
"0#	c #F43806",
"a#	c #FC5101",
"b#	c #CE5B14",
"c#	c #420102",
"d#	c #D30B08",
"e#	c #FB2108",
"f#	c #FD3505",
"g#	c #FA4201",
"h#	c #FD4603",
"i#	c #FF3C04",
"j#	c #FE2403",
"k#	c #FC0E00",
"l#	c #FF0B00",
"m#	c #FF0900",
"n#	c #FF0700",
"o#	c #FF0500",
"p#	c #FF0401",
"q#	c #FF0300",
"r#	c #FE0401",
"s#	c #FD0306",
"t#	c #EF0808",
"u#	c #9E5E0F",
"v#	c #F9BE14",
"w#	c #FDD402",
"x#	c #FDD305",
"y#	c #FDC506",
"z#	c #D09A14",
"A#	c #B52206",
"B#	c #FC3202",
"C#	c #FD4A02",
"D#	c #E55D14",
"E#	c #1F0700",
"F#	c #160302",
"G#	c #1C0302",
"H#	c #080102",
"I#	c #3C0201",
"J#	c #D91E03",
"K#	c #FC3204",
"L#	c #FE3300",
"M#	c #FD1C01",
"N#	c #FE0C01",
"O#	c #FE0A01",
"P#	c #FF0501",
"Q#	c #FF0301",
"R#	c #FF0202",
"S#	c #FE0102",
"T#	c #FE0202",
"U#	c #FC0301",
"V#	c #FD0400",
"W#	c #D90B08",
"X#	c #935712",
"Y#	c #C09011",
"Z#	c #D59D13",
"`#	c #B18115",
" $	c #AE270B",
".$	c #F81609",
"+$	c #FC2F02",
"@$	c #FD4701",
"#$	c #F1600D",
"$$	c #290E01",
"%$	c #190201",
"&$	c #370101",
"*$	c #641006",
"=$	c #962107",
"-$	c #AB270A",
";$	c #BA2807",
">$	c #CE300C",
",$	c #F73308",
"'$	c #FE3201",
")$	c #FF3200",
"!$	c #FE3302",
"~$	c #FE3001",
"{$	c #FC1C00",
"]$	c #FE0C00",
"^$	c #FF0901",
"/$	c #FE0201",
"($	c #FD0502",
"_$	c #FE0404",
":$	c #EF0B07",
"<$	c #DF0D08",
"[$	c #E00C0A",
"}$	c #EE0E06",
"|$	c #FC0C02",
"1$	c #FF1501",
"2$	c #FE2E01",
"3$	c #FD4700",
"4$	c #F46012",
"5$	c #2A0E02",
"6$	c #110302",
"7$	c #410101",
"8$	c #920805",
"9$	c #C51106",
"0$	c #EC2405",
"a$	c #F7350A",
"b$	c #FB3501",
"c$	c #FB3701",
"d$	c #FB3B01",
"e$	c #FF3E01",
"f$	c #FD4103",
"g$	c #FD4002",
"h$	c #FE3B01",
"i$	c #FC3501",
"j$	c #FE3301",
"k$	c #FF2D05",
"l$	c #FB1401",
"m$	c #FF0400",
"n$	c #FA0401",
"o$	c #FD0404",
"p$	c #FD0601",
"q$	c #FD0700",
"r$	c #FE0600",
"s$	c #FD0901",
"t$	c #FB0D00",
"u$	c #FE1801",
"v$	c #FE3101",
"w$	c #FD4A00",
"x$	c #EE5D12",
"y$	c #250901",
"z$	c #3D0202",
"A$	c #A50905",
"B$	c #E60806",
"C$	c #F71C03",
"D$	c #FC3005",
"E$	c #FC3903",
"F$	c #FD4104",
"G$	c #FD4804",
"H$	c #FC4C02",
"I$	c #FA4C01",
"J$	c #FC4C01",
"K$	c #FC4B01",
"L$	c #FE4A03",
"M$	c #FE4502",
"N$	c #FB3101",
"O$	c #FD2504",
"P$	c #F80803",
"Q$	c #F80906",
"R$	c #FE0802",
"S$	c #FD0A03",
"T$	c #FF1C01",
"U$	c #FE4E00",
"V$	c #DD5912",
"W$	c #130400",
"X$	c #6C0303",
"Y$	c #D9090B",
"Z$	c #FA0903",
"`$	c #FC2802",
" %	c #FE3D02",
".%	c #FE4704",
"+%	c #FE4803",
"@%	c #FE4802",
"#%	c #FE4901",
"$%	c #FE4B01",
"%%	c #FD4C03",
"&%	c #FF4B02",
"*%	c #FE4A01",
"=%	c #FD4704",
"-%	c #F83600",
";%	c #FC2E04",
">%	c #FC1402",
",%	c #FF0A01",
"'%	c #FC0601",
")%	c #F10804",
"!%	c #9B0805",
"~%	c #EC0D0D",
"{%	c #FB0C01",
"]%	c #FE0F00",
"^%	c #FC2402",
"/%	c #FD3C01",
"(%	c #FD5303",
"_%	c #C1510D",
":%	c #7D0404",
"<%	c #EE0704",
"[%	c #F80D06",
"}%	c #FC2B05",
"|%	c #FE3203",
"1%	c #FE3205",
"2%	c #FD3503",
"3%	c #FD3402",
"4%	c #FF3702",
"5%	c #FF3C02",
"6%	c #FF4304",
"7%	c #FC4803",
"8%	c #FE4B05",
"9%	c #FD4903",
"0%	c #FF4902",
"a%	c #FE4804",
"b%	c #FD3701",
"c%	c #FF3103",
"d%	c #FD1A03",
"e%	c #FE0602",
"f%	c #FD0703",
"g%	c #FC0802",
"h%	c #B90D0E",
"i%	c #680304",
"j%	c #DA1009",
"k%	c #FD0A04",
"l%	c #FD1706",
"m%	c #FD2E02",
"n%	c #FE4402",
"o%	c #FA5C07",
"p%	c #90420C",
"q%	c #630202",
"r%	c #EB0706",
"s%	c #FC0A04",
"t%	c #FD2605",
"u%	c #FD1E02",
"v%	c #FA1002",
"w%	c #FB0702",
"x%	c #FB0802",
"y%	c #FA0B02",
"z%	c #FE1B01",
"A%	c #FD2804",
"B%	c #FD3202",
"C%	c #FF3102",
"D%	c #FE3601",
"E%	c #FC3F01",
"F%	c #FD4702",
"G%	c #FC3B01",
"H%	c #FF3001",
"I%	c #FA1800",
"J%	c #FC0905",
"K%	c #FD0800",
"L%	c #B00F08",
"M%	c #500303",
"N%	c #C11403",
"O%	c #F52705",
"P%	c #FD3902",
"Q%	c #FE4F04",
"R%	c #EC6513",
"S%	c #462205",
"T%	c #230000",
"U%	c #CD080B",
"V%	c #F80503",
"W%	c #E0100A",
"X%	c #B30B08",
"Y%	c #9F0707",
"Z%	c #9F0905",
"`%	c #9F0B09",
" &	c #A10909",
".&	c #AE0909",
"+&	c #BD0906",
"@&	c #CF0802",
"#&	c #DC0703",
"$&	c #E71104",
"%&	c #ED2009",
"&&	c #F2220B",
"*&	c #FC1B05",
"=&	c #FD1F02",
"-&	c #FA2C03",
";&	c #FE3200",
">&	c #FE2402",
",&	c #FF1303",
"'&	c #FC0901",
")&	c #FD0A01",
"!&	c #FD0B02",
"~&	c #FB0E00",
"{&	c #FD0C06",
"]&	c #DB1505",
"^&	c #A01B09",
"/&	c #CB2D09",
"(&	c #F85D05",
"_&	c #B55716",
":&	c #0A0100",
"<&	c #6A0403",
"[&	c #F20707",
"}&	c #AA0809",
"|&	c #390101",
"1&	c #040000",
"2&	c #160000",
"3&	c #1D0000",
"4&	c #300101",
"5&	c #460201",
"6&	c #5C0203",
"7&	c #7A0404",
"8&	c #BC0507",
"9&	c #EC0B04",
"0&	c #FD2B06",
"a&	c #FD3101",
"b&	c #FF3002",
"c&	c #FD2703",
"d&	c #FE0D00",
"e&	c #FD0B01",
"f&	c #FD1202",
"g&	c #FB2001",
"h&	c #FA4304",
"i&	c #FD5402",
"j&	c #E86615",
"k&	c #532705",
"l&	c #A10504",
"m&	c #C00709",
"n&	c #1C0100",
"o&	c #070101",
"p&	c #040101",
"q&	c #150104",
"r&	c #790802",
"s&	c #F62303",
"t&	c #FC3805",
"u&	c #FC4002",
"v&	c #FD4202",
"w&	c #FE3A01",
"x&	c #FC3205",
"y&	c #FD2606",
"z&	c #FE1501",
"A&	c #FE0E01",
"B&	c #FF0B02",
"C&	c #FE0D01",
"D&	c #FF0D01",
"E&	c #FE1101",
"F&	c #FD1902",
"G&	c #FD2701",
"H&	c #FD3403",
"I&	c #FD4304",
"J&	c #FC5502",
"K&	c #F3660E",
"L&	c #8A400C",
"M&	c #B20602",
"N&	c #A4100C",
"O&	c #0A0102",
"P&	c #2E0104",
"Q&	c #9D070A",
"R&	c #CD0B05",
"S&	c #E1160E",
"T&	c #F81D07",
"U&	c #FB2705",
"V&	c #FE3F05",
"W&	c #FD4503",
"X&	c #FF4701",
"Y&	c #FE4504",
"Z&	c #FC3902",
"`&	c #FD2F02",
" *	c #FE1F02",
".*	c #FE1C01",
"+*	c #FE1701",
"@*	c #FD1A00",
"#*	c #FE1D00",
"$*	c #FE2602",
"%*	c #FD2F04",
"&*	c #FD3B03",
"**	c #FB4901",
"=*	c #FB5704",
"-*	c #EE640F",
";*	c #8B4010",
">*	c #040001",
",*	c #A20604",
"'*	c #AA0A0B",
")*	c #090101",
"!*	c #070102",
"~*	c #990F10",
"{*	c #BF0C07",
"]*	c #920F05",
"^*	c #720D02",
"/*	c #6E0B02",
"(*	c #8D0E02",
"_*	c #C70F05",
":*	c #E4180B",
"<*	c #F62103",
"[*	c #FD2A03",
"}*	c #FE3103",
"|*	c #FE3102",
"1*	c #FF3302",
"2*	c #FE3202",
"3*	c #FE3800",
"4*	c #FE3F00",
"5*	c #FE4801",
"6*	c #FC5305",
"7*	c #F85E0C",
"8*	c #CA5911",
"9*	c #602F05",
"0*	c #600404",
"a*	c #B70C0F",
"b*	c #0D0200",
"c*	c #040204",
"d*	c #280101",
"e*	c #0E0000",
"f*	c #040102",
"g*	c #0C0003",
"h*	c #360101",
"i*	c #6F0203",
"j*	c #A00805",
"k*	c #C50904",
"l*	c #DA1606",
"m*	c #EC2604",
"n*	c #F53D08",
"o*	c #FA4A06",
"p*	c #FC4B04",
"q*	c #FD5003",
"r*	c #FA560B",
"s*	c #E05D0D",
"t*	c #B34E0A",
"u*	c #622A04",
"v*	c #140301",
"w*	c #6C0710",
"x*	c #2C0304",
"y*	c #0C0201",
"z*	c #090301",
"A*	c #080100",
"B*	c #190001",
"C*	c #400101",
"D*	c #510401",
"E*	c #5F1403",
"F*	c #AE340B",
"G*	c #AD4310",
"H*	c #8F3A0E",
"I*	c #602206",
"J*	c #230501",
"K*	c #080101",
"L*	c #010101",
"M*	c #150405",
"N*	c #3E1809",
"O*	c #3F1807",
"P*	c #871D10",
"Q*	c #841C08",
"R*	c #66110C",
"S*	c #4A0804",
"T*	c #D20E08",
"U*	c #BC0508",
"V*	c #370000",
"W*	c #540704",
"X*	c #690608",
"Y*	c #8D0E10",
"Z*	c #BD0904",
"`*	c #CE0204",
" =	c #630304",
".=	c #590B0F",
"+=	c #760404",
"@=	c #C40A09",
"#=	c #910609",
"$=	c #DD0504",
"%=	c #730807",
"&=	c #1E0402",
"*=	c #840707",
"==	c #D50303",
"-=	c #750504",
";=	c #950505",
">=	c #550309",
",=	c #270504",
"'=	c #AB0705",
")=	c #C10201",
"!=	c #5C0403",
"~=	c #1F0504",
"{=	c #590506",
"]=	c #980707",
"^=	c #AF0808",
"/=	c #C30303",
"(=	c #950404",
"_=	c #6A0405",
":=	c #580604",
"<=	c #A8060C",
"[=	c #C70402",
"}=	c #C4020A",
"|=	c #AE0205",
"1=	c #570305",
"2=	c #9D0608",
"3=	c #770205",
"4=	c #7F0407",
"5=	c #8A0306",
"6=	c #760403",
"7=	c #610406",
"8=	c #210301",
"9=	c #A00605",
"0=	c #7E0204",
"a=	c #210204",
"b=	c #A60705",
"c=	c #6C0208",
"d=	c #640606",
"e=	c #3F0405",
"                                            . + @ # $ % & * =                                       ",
"                                      - ; > , ' ) ! ~ { ] ^ / ( _ : < [ } | 1 2                     ",
"                                  3 4 5 6 7 8 9 0 a b b c d e f g h i j k l m n o p q               ",
"                              r s t u v w x y z A B C D E F G H I J K L M N O P Q R S T             ",
"                          U V W X Y Z `  ...+.@.#.$.%.&.*.=.-.;.>.,.'.).!.~.{.].^./.(._.:.<.        ",
"                        [.}.|.1.2.3.4.5.6.7.8.9.0.a.b.c.d.e.f.g.h.i.j.k.l.m.n.o.p.q.r.s.t.u.v.      ",
"                    w.x.y.z.A.B.C.D.E.F.G.H.I.J.K.L.M.N.O.P.Q.R.S.T.U.V.W.X.Y.Z.T.`. +.+++@+#+$+    ",
"            %+&+*+=+-+;+>+,+'+)+!+~+{+]+^+/+(+_+:+<+[+}+|+1+2+3+4+5+6+7+7+8+9+0+a+b+c+d+e+f+g+h+    ",
"  i+j+k+l+m+n+o+p+q+r+s+t+u+v+w+x+y+z+A+B+C+D+E+F+G+H+I+J+K+L+M+N+O+P+Q+Q+R+S+T+U+V+W+X+Y+Z+`+ @.@  ",
"    +@@@#@$@%@&@*@=@-@;@>@,@'@)@!@~@{@]@^@/@(@_@:@<@[@}@|@1@2@3@4@5@Q+6@7@8@9@0@a@b@c@d@e@f@g@h@i@  ",
"                                  j@k@l@m@n@o@p@q@r@s@t@u@v@5@4@w@x@y@z@A@B@C@D@E@F@G@H@I@J@K@L@M@N@",
"                                    O@P@Q@R@S@T@U@V@W@X@Y@Y@P+Q+Z@`@`@`@ #.#+#@###$#%#&#*#=#-#;#>#+@",
"                                    ,#'#)#!#~#{#]#^#/#(#_#:#<#Z@`@[#[#}#|#1#2#3#4#5#6#7#8#9#0#a#b#&+",
"                                      c#d#e#f#g#h#i#j#k#l#m#n#Z@o#p#q#q#r#s#t#u#v#w#x#y#z#A#B#C#D#E#",
"                                  F#G#H#I#J#K#L#G+<@M#N#O#m#n#Z@P#Q#R#S#T#U#V#W#X#Y#Z#`# $.$+$@$#$$$",
"                            %$&$*$=$-$;$>$,$'$)$!$~${$]$^$m#n#Z@[#q#Q#/$S#/$($_$:$<$[$}$|$1$2$3$4$5$",
"                      6$7$8$9$0$a$b$c$d$e$f$g$h$i$j$k$l$P+m#n#Z@[#m$q#/$/$n$o$p$q$r$s$Y@t$u$v$w$x$y$",
"                    z$A$B$C$D$}@E$F$G$H$I$J$K$L$M$^#N$O$S+^$Q+Z@P#o#m$q#r# #p$P$Q$R$S$m#N#T$}@U$V$W$",
"                  X$Y$Z$`$L# %.%+%@%#%$%%%&%#%*%K$=%-%;%>%,%^$y@p$[#[#[#[#'%y@)%!%~%O#{%]%^%/%(%_%k@",
"                :%<%[%}%|%1%2%V@r@3%4%5%6%7%8%9%0%a%b%c%d%:#m#Q+y@z@z@`@Z@e%f%g%h%i%j%k%l%m%n%o%p%j@",
"              q%r%s%t%u%v%w%x%y%6+z%A%B%H+C%D%E%F%G%'$H%I%]$P+m#^$Q+6@y@n#9@J%K%y%L%M%N%O%P%Q%R%S%  ",
"            T%U%V%W%X%Y%Z%`% &.&+&@&#&$&%&&&*&=&-&H+G+;&>&,&]$:#,%^$<#<#Q+'&)&!&~&{&]&^&/&M$(&_&:&  ",
"            <&[&}&|&1&1&          2&3&4&5&6&7&8&9&0&a&I+b&c&X@d&N+Y@:#P+_#e&]$_#_#f&g&~$h&i&j&k&    ",
"            l&m&n&                        o&p&q&r&s&t&u&v&w&x&y&z&A&N#Y@B&C&D&E&F&G&H&I&J&K&L&      ",
"          p&M&N&O&                        P&Q&R&S&T&U&V&W&X&Y&Z&`& *.*u$+*@*#*$*%*&***=*-*;*        ",
"          >*,*'*)*                      !*~*{*]*^*/*(*_*:*<*[*}*|*1*1*2*'$V@3*4*5*6*7*8*9*          ",
"            0*a*b*                      c*d*e*      f*g*h*i*j*k*l*m*n*o*p*H$q*r*s*t*u*v*            ",
"            w.w*x*                                        y*z*A*B*C*D*E*F*G*H*I*J*K*                ",
"                L*                                                    M*N*O*P*Q*                    ",
"                                                                        R*S*T*U*V*                  ",
"                                                                      W*X*Y*Z*`* =                  ",
"                                                                      .=+=@=#=$=%=                  ",
"                                                                      &=*===-=;=>=                  ",
"                                                                      ,='=)=!=~=                    ",
"                                                                  {=]=^=/=(=_=:=                    ",
"                                                                  <=[=}=|=1=2=3=                    ",
"                                                                  4=5=6=7=8=9=0=                    ",
"                                                                          a=b=c=                    ",
"                                                                            d=e=                    "};
