/* XPM */
static char * running_right_girl_xpm[] = {
"50 40 827 2",
"  	c #FFFFFE",
". 	c #FAFAF9",
"+ 	c #C6C6C5",
"@ 	c #666666",
"# 	c #1A2B31",
"$ 	c #31525E",
"% 	c #1E5373",
"& 	c #155977",
"* 	c #175974",
"= 	c #174B67",
"- 	c #2D3C4D",
"; 	c #999898",
"> 	c #E2E2E1",
", 	c #FEFEFD",
"' 	c #F8F8F6",
") 	c #BDBDBB",
"! 	c #5F656C",
"~ 	c #3A7D96",
"{ 	c #7CBED6",
"] 	c #8BD3F1",
"^ 	c #8EDEF9",
"/ 	c #67CEFB",
"( 	c #08B2F7",
"_ 	c #01B3FA",
": 	c #07B2FC",
"< 	c #1CAFEA",
"[ 	c #63A8BC",
"} 	c #2C4950",
"| 	c #7D7C7B",
"1 	c #C9C8C7",
"2 	c #EBEAEA",
"3 	c #FCFBFB",
"4 	c #FFFEFE",
"5 	c #FDFDFC",
"6 	c #F7F7F5",
"7 	c #E7E7E5",
"8 	c #D0D2CF",
"9 	c #C0C3C1",
"0 	c #BBBDB9",
"a 	c #BABAB5",
"b 	c #C3C3BF",
"c 	c #DAD9D7",
"d 	c #F6F6F4",
"e 	c #F3F3F2",
"f 	c #737373",
"g 	c #0B678E",
"h 	c #1CA7E6",
"i 	c #76D7F9",
"j 	c #8DD9FC",
"k 	c #8BDBFE",
"l 	c #88DAFD",
"m 	c #7EDFFE",
"n 	c #17B2F8",
"o 	c #01B3FD",
"p 	c #02B3FD",
"q 	c #15B7F9",
"r 	c #83DAFE",
"s 	c #8ED6F7",
"t 	c #79B3CB",
"u 	c #5B8B9D",
"v 	c #496F7B",
"w 	c #515E68",
"x 	c #646970",
"y 	c #6D7074",
"z 	c #7B7E81",
"A 	c #989B9D",
"B 	c #A6AAAB",
"C 	c #A4A9AA",
"D 	c #8A9295",
"E 	c #718184",
"F 	c #71878A",
"G 	c #7F807A",
"H 	c #838A89",
"I 	c #6898A6",
"J 	c #51AED2",
"K 	c #4FB9E6",
"L 	c #4DBEEB",
"M 	c #50BEE9",
"N 	c #4FB6DD",
"O 	c #47A1BC",
"P 	c #607A83",
"Q 	c #5D5C52",
"R 	c #C7C5C2",
"S 	c #F9F9F8",
"T 	c #E0DFDD",
"U 	c #929394",
"V 	c #1181B1",
"W 	c #43C6FC",
"X 	c #88DCFC",
"Y 	c #87DCFE",
"Z 	c #8ADCFB",
"` 	c #79D2F9",
" .	c #35BBF9",
"..	c #02B1FC",
"+.	c #02B1FF",
"@.	c #03B2FD",
"#.	c #03B1FC",
"$.	c #5DD0F9",
"%.	c #89DCFE",
"&.	c #8DD9FE",
"*.	c #8CDDFC",
"=.	c #8FDFFA",
"-.	c #5BC8F3",
";.	c #1FB1F1",
">.	c #22B0EE",
",.	c #21B3F0",
"'.	c #25B5F0",
").	c #28B6F0",
"!.	c #2CB9F1",
"~.	c #35BDF3",
"{.	c #3DA1C4",
"].	c #2D7490",
"^.	c #3D96BB",
"/.	c #76CEEF",
"(.	c #98E8FD",
"_.	c #4FC6F8",
":.	c #3AC4FE",
"<.	c #3EC3FD",
"[.	c #3AC4FF",
"}.	c #39C4FF",
"|.	c #55CEFA",
"1.	c #A2E6FB",
"2.	c #95CBDB",
"3.	c #527277",
"4.	c #ADAAA7",
"5.	c #D5D6D4",
"6.	c #878D8B",
"7.	c #3A5D65",
"8.	c #ADACA8",
"9.	c #FEFEFC",
"0.	c #908F8F",
"a.	c #117AAC",
"b.	c #04B3FB",
"c.	c #00B3F9",
"d.	c #2FB9F9",
"e.	c #86DDFC",
"f.	c #8ADBFE",
"g.	c #87DCFD",
"h.	c #66CFFA",
"i.	c #04B5F9",
"j.	c #01B4FD",
"k.	c #00B4FB",
"l.	c #02B4FA",
"m.	c #02B2FF",
"n.	c #19B4F6",
"o.	c #73D7FC",
"p.	c #88DCFE",
"q.	c #89DCFD",
"r.	c #47C0F8",
"s.	c #05B7FD",
"t.	c #0DB6FE",
"u.	c #0FB6FE",
"v.	c #15B9FE",
"w.	c #1AB9FD",
"x.	c #24B7F6",
"y.	c #2688B2",
"z.	c #2DA1D2",
"A.	c #50C5FA",
"B.	c #86DDFB",
"C.	c #9BE1FE",
"D.	c #9CE1FD",
"E.	c #46C1FA",
"F.	c #2DC2FD",
"G.	c #2CC1FF",
"H.	c #2BC2FF",
"I.	c #2DC1FD",
"J.	c #4BC3F9",
"K.	c #9FE3FE",
"L.	c #9BE3FE",
"M.	c #95D6E9",
"N.	c #2C3330",
"O.	c #40535B",
"P.	c #5BB5DA",
"Q.	c #37BEF5",
"R.	c #2E5861",
"S.	c #BAB8B5",
"T.	c #0B1015",
"U.	c #166C90",
"V.	c #1896CC",
"W.	c #14ACE8",
"X.	c #08B0FB",
"Y.	c #72D0FB",
"Z.	c #8BDBFF",
"`.	c #8BDBFD",
" +	c #81E1FD",
".+	c #42BDF7",
"++	c #03B1FE",
"@+	c #00B3FE",
"#+	c #11B1F9",
"$+	c #7CDAFE",
"%+	c #89DBFE",
"&+	c #89DBFF",
"*+	c #81DDFE",
"=+	c #1CB5FB",
"-+	c #09B3FF",
";+	c #06B6FE",
">+	c #07B6FD",
",+	c #0BB9F9",
"'+	c #1BB3F5",
")+	c #17658B",
"!+	c #209ACB",
"~+	c #47BFF7",
"{+	c #91DEFE",
"]+	c #94E1FD",
"^+	c #98E1FF",
"/+	c #7ED9FC",
"(+	c #25BCFA",
"_+	c #21BCFD",
":+	c #23BDFE",
"<+	c #24BCFD",
"[+	c #89DAFC",
"}+	c #99E1FE",
"|+	c #97DEF6",
"1+	c #303D3A",
"2+	c #83AEBF",
"3+	c #6FD0FA",
"4+	c #22BDFE",
"5+	c #288BB3",
"6+	c #2C2D26",
"7+	c #CDCCCA",
"8+	c #CFCECD",
"9+	c #989797",
"0+	c #303F46",
"a+	c #177AA3",
"b+	c #75D4F4",
"c+	c #8BDAFE",
"d+	c #87DDFD",
"e+	c #86DEFD",
"f+	c #45C2F7",
"g+	c #00B6FC",
"h+	c #32BAFB",
"i+	c #87DDFE",
"j+	c #8DDAFE",
"k+	c #89DCFC",
"l+	c #79D4FD",
"m+	c #07B5F8",
"n+	c #08B3F9",
"o+	c #05B3FC",
"p+	c #0AB6FA",
"q+	c #1899D5",
"r+	c #0F4A65",
"s+	c #143C4F",
"t+	c #1AACEE",
"u+	c #76DAFB",
"v+	c #93DDFC",
"w+	c #95DDFF",
"x+	c #91E0FE",
"y+	c #5BC7F7",
"z+	c #11BBFF",
"A+	c #19BBFF",
"B+	c #18BAFE",
"C+	c #17BAFE",
"D+	c #56C8F7",
"E+	c #95DDFD",
"F+	c #95DDF0",
"G+	c #242F2E",
"H+	c #679BA3",
"I+	c #6BCEFC",
"J+	c #18B9FE",
"K+	c #21B2F2",
"L+	c #143F55",
"M+	c #40423D",
"N+	c #EAE9E8",
"O+	c #E9E9E7",
"P+	c #8C8B8A",
"Q+	c #3D606C",
"R+	c #81C4E0",
"S+	c #76D7FE",
"T+	c #12B3F9",
"U+	c #17B3FB",
"V+	c #7DDBFE",
"W+	c #79DAFE",
"X+	c #13B4F8",
"Y+	c #02B3FE",
"Z+	c #11ABEC",
"`+	c #106B99",
" @	c #030E16",
".@	c #41768D",
"+@	c #2EB1F0",
"@@	c #0CB5FC",
"#@	c #72D4FC",
"$@	c #8BDFFE",
"%@	c #8FDDFD",
"&@	c #73D5FB",
"*@	c #14B6FA",
"=@	c #0DB7FE",
"-@	c #0DB7FF",
";@	c #0EB8FF",
">@	c #0EB9FD",
",@	c #18B5FA",
"'@	c #6CD7FC",
")@	c #85D3EC",
"!@	c #0D1314",
"~@	c #476873",
"{@	c #52C6F8",
"]@	c #10B6FE",
"^@	c #13B6FB",
"/@	c #339DC6",
"(@	c #131F22",
"_@	c #777675",
":@	c #F8F8F7",
"<@	c #C3C3C2",
"[@	c #313A40",
"}@	c #499FBE",
"|@	c #22B7F3",
"1@	c #03B2FE",
"2@	c #00B4FC",
"3@	c #01B2FE",
"4@	c #6DD0FC",
"5@	c #8ADBFD",
"6@	c #64CCFA",
"7@	c #0DADF3",
"8@	c #0E5E7C",
"9@	c #040606",
"0@	c #082937",
"a@	c #27A8E3",
"b@	c #09B3FC",
"c@	c #04B6FF",
"d@	c #4DC4F8",
"e@	c #8BDDFD",
"f@	c #8CDCFE",
"g@	c #8DDDFE",
"h@	c #8CDDFF",
"i@	c #54C8F8",
"j@	c #3AC1F7",
"k@	c #24B7F7",
"l@	c #07B4FD",
"m@	c #07B6FC",
"n@	c #07B5FF",
"o@	c #05B6FD",
"p@	c #12B4F2",
"q@	c #2F95C7",
"r@	c #080708",
"s@	c #080B16",
"t@	c #189ED3",
"u@	c #09B4FD",
"v@	c #13B4F7",
"w@	c #7EE0FC",
"x@	c #77ADC4",
"y@	c #0F1C20",
"z@	c #8B8A8A",
"A@	c #D8D8D7",
"B@	c #404244",
"C@	c #118BBE",
"D@	c #02B5F8",
"E@	c #02B3FC",
"F@	c #02B2FD",
"G@	c #01B4FB",
"H@	c #49C5F6",
"I@	c #86DBFE",
"J@	c #87D8F0",
"K@	c #2A6981",
"L@	c #3B3B3C",
"M@	c #565659",
"N@	c #15739C",
"O@	c #01B4FF",
"P@	c #03B0FF",
"Q@	c #4AC6F9",
"R@	c #8BDCFC",
"S@	c #8ADCFC",
"T@	c #8BDBFB",
"U@	c #89DDFD",
"V@	c #8CDAFE",
"W@	c #81DDFC",
"X@	c #41C0F7",
"Y@	c #06B1FE",
"Z@	c #04B3FF",
"`@	c #09B1FB",
" #	c #096181",
".#	c #063047",
"+#	c #0B3B4E",
"@#	c #085274",
"##	c #0DAEF6",
"$#	c #08B7F9",
"%#	c #6ED1FC",
"&#	c #87E0FD",
"*#	c #62909B",
"=#	c #020302",
"-#	c #DBDAD9",
";#	c #2F3438",
">#	c #258FBD",
",#	c #07B3F9",
"'#	c #00B6FB",
")#	c #01B1FF",
"!#	c #0CB2FA",
"~#	c #5CCDFA",
"{#	c #85DDFB",
"]#	c #84DCF7",
"^#	c #517E8E",
"/#	c #272729",
"(#	c #B7B7B8",
"_#	c #1E2228",
":#	c #0BA3DD",
"<#	c #00B4FD",
"[#	c #35BCFB",
"}#	c #79DDFE",
"|#	c #84DCFC",
"1#	c #8ED9FF",
"2#	c #87DCFF",
"3#	c #87DDFB",
"4#	c #77D8FD",
"5#	c #05B0F9",
"6#	c #0B9ACC",
"7#	c #011C2D",
"8#	c #0FA1D7",
"9#	c #10A5E4",
"0#	c #044561",
"a#	c #064762",
"b#	c #1084B3",
"c#	c #1987B7",
"d#	c #417C94",
"e#	c #080F14",
"f#	c #474746",
"g#	c #D4D4D3",
"h#	c #323639",
"i#	c #3182AC",
"j#	c #1AAFEC",
"k#	c #02B2FE",
"l#	c #07B1F8",
"m#	c #01B4FC",
"n#	c #02B2FC",
"o#	c #23B3F5",
"p#	c #3B82A2",
"q#	c #1A1A1A",
"r#	c #C9C9C8",
"s#	c #BDBDBD",
"t#	c #074962",
"u#	c #05B3F9",
"v#	c #05B1FD",
"w#	c #00B5FC",
"x#	c #01B1FC",
"y#	c #15B4F4",
"z#	c #42BDF9",
"A#	c #6ACEF9",
"B#	c #86DCFC",
"C#	c #80DDFF",
"D#	c #1CB7F6",
"E#	c #04B3FC",
"F#	c #0EA2DD",
"G#	c #043449",
"H#	c #097CAC",
"I#	c #06B1FD",
"J#	c #06AEF2",
"K#	c #0987B8",
"L#	c #0D6788",
"M#	c #0A597E",
"N#	c #0D4F64",
"O#	c #838282",
"P#	c #F5F5F4",
"Q#	c #DBDBDA",
"R#	c #565656",
"S#	c #296376",
"T#	c #34A8DA",
"U#	c #0BB1F7",
"V#	c #02B6FC",
"W#	c #03B5FA",
"X#	c #10A2DE",
"Y#	c #095C82",
"Z#	c #242528",
"`#	c #C6C6C6",
" $	c #8D8D8E",
".$	c #357D9E",
"+$	c #2EBBFB",
"@$	c #05B2FB",
"#$	c #01B3FE",
"$$	c #01B2FD",
"%$	c #00B4F9",
"&$	c #70D2FB",
"*$	c #8CDAFD",
"=$	c #88DCFD",
"-$	c #2BB5F3",
";$	c #128FCA",
">$	c #022B42",
",$	c #096C95",
"'$	c #0CB1F8",
")$	c #0BA9EB",
"!$	c #0B8ABD",
"~$	c #0D82B3",
"{$	c #0992CE",
"]$	c #03B4FC",
"^$	c #0CA7E7",
"/$	c #6C6B6C",
"($	c #A3A3A2",
"_$	c #2D353C",
":$	c #135672",
"<$	c #0E75A3",
"[$	c #0E6A95",
"}$	c #031D2F",
"|$	c #606060",
"1$	c #DADAD9",
"2$	c #FBFBFA",
"3$	c #49494A",
"4$	c #72ACC5",
"5$	c #88DDFE",
"6$	c #57CAF9",
"7$	c #00B5FB",
"8$	c #0DB5F9",
"9$	c #79DBFC",
"0$	c #87DEFD",
"a$	c #8FDBFB",
"b$	c #85D3EE",
"c$	c #75B2C8",
"d$	c #1E576A",
"e$	c #011924",
"f$	c #0B7EAE",
"g$	c #09B0F8",
"h$	c #0BA0DA",
"i$	c #367A81",
"j$	c #64E0DA",
"k$	c #71F3F5",
"l$	c #4FA6A5",
"m$	c #0A8BC1",
"n$	c #02B4FB",
"o$	c #09B2FA",
"p$	c #405768",
"q$	c #F0F0EF",
"r$	c #C6C5C5",
"s$	c #B0AFAE",
"t$	c #AFAEAE",
"u$	c #CACAC9",
"v$	c #EAEAE9",
"w$	c #08080A",
"x$	c #6EB7D3",
"y$	c #85DCFE",
"z$	c #24B4F9",
"A$	c #00B3FF",
"B$	c #02B4F9",
"C$	c #20AFE8",
"D$	c #78BFD8",
"E$	c #6398AF",
"F$	c #395B6A",
"G$	c #0E1D23",
"H$	c #021829",
"I$	c #096485",
"J$	c #09A0DE",
"K$	c #03B2F8",
"L$	c #05B2F7",
"M$	c #226E8B",
"N$	c #6BEFF1",
"O$	c #67FEFE",
"P$	c #69FEFD",
"Q$	c #66E5E4",
"R$	c #2285AD",
"S$	c #02B2F9",
"T$	c #02B5FC",
"U$	c #186388",
"V$	c #F0EFEE",
"W$	c #D8D8D8",
"X$	c #000407",
"Y$	c #5CB9D8",
"Z$	c #8ADBFC",
"`$	c #8ADDFD",
" %	c #4CC1F5",
".%	c #13A3E2",
"+%	c #0A92CC",
"@%	c #0C77A6",
"#%	c #064F6E",
"$%	c #022337",
"%%	c #010307",
"&%	c #031B28",
"*%	c #085477",
"=%	c #0A83B4",
"-%	c #0BA5E9",
";%	c #04B5F8",
">%	c #02B1FE",
",%	c #00B3FD",
"'%	c #07A4E4",
")%	c #4EA4AA",
"!%	c #66FEFC",
"~%	c #69FEFE",
"{%	c #57C2C0",
"]%	c #66CAC9",
"^%	c #3D99BB",
"/%	c #02B3FB",
"(%	c #0C6D97",
"_%	c #E5E5E4",
":%	c #C8C8C8",
"<%	c #000509",
"[%	c #4394AB",
"}%	c #6DA6BB",
"|%	c #507481",
"1%	c #203F4A",
"2%	c #03334A",
"3%	c #094F6D",
"4%	c #075F84",
"5%	c #086E99",
"6%	c #0E7FB3",
"7%	c #0B97D2",
"8%	c #0CABED",
"9%	c #0AB3FB",
"0%	c #07ACED",
"a%	c #42A5BC",
"b%	c #65EDEF",
"c%	c #6CFDFC",
"d%	c #3F8E8C",
"e%	c #509393",
"f%	c #259CD1",
"g%	c #0A6F97",
"h%	c #E4E4E3",
"i%	c #B4B4B4",
"j%	c #010104",
"k%	c #010202",
"l%	c #030404",
"m%	c #106D8D",
"n%	c #10A3DF",
"o%	c #08AEF6",
"p%	c #03B4FD",
"q%	c #01B5FD",
"r%	c #01B3FB",
"s%	c #03B0FE",
"t%	c #00B7FC",
"u%	c #03B3FD",
"v%	c #05B3F6",
"w%	c #129BD3",
"x%	c #45B0C0",
"y%	c #5FD1D2",
"z%	c #5BB8BA",
"A%	c #0BA9E8",
"B%	c #07B0FD",
"C%	c #135C84",
"D%	c #E9E8E7",
"E%	c #A2A2A1",
"F%	c #6A6969",
"G%	c #D7D6D6",
"H%	c #6E6D6E",
"I%	c #1176A5",
"J%	c #01B3FC",
"K%	c #00B3FC",
"L%	c #01B2FF",
"M%	c #00B5FD",
"N%	c #08B0FA",
"O%	c #0C9FD6",
"P%	c #088EC8",
"Q%	c #06B0FC",
"R%	c #06B2F8",
"S%	c #294155",
"T%	c #F6F6F5",
"U%	c #E2E2E2",
"V%	c #B6B5B5",
"W%	c #044359",
"X%	c #07B2F5",
"Y%	c #01B5FC",
"Z%	c #02B4FD",
"`%	c #03B2FC",
" &	c #0EA0E1",
".&	c #717070",
"+&	c #464748",
"@&	c #1095CE",
"#&	c #04B1FE",
"$&	c #04B1FB",
"%&	c #02B4FC",
"&&	c #1279AD",
"*&	c #B3B2B1",
"=&	c #C2C2C2",
"-&	c #0A4D6D",
";&	c #08AFF7",
">&	c #10B3FC",
",&	c #2BBAFA",
"'&	c #04B0FD",
")&	c #0D76A5",
"!&	c #09B1F6",
"~&	c #00B4FA",
"{&	c #0EAEED",
"]&	c #213B4E",
"^&	c #888888",
"/&	c #0F81AF",
"(&	c #03B3FB",
"_&	c #34C0FC",
":&	c #67DBFD",
"<&	c #0EB0F9",
"[&	c #0D94CD",
"}&	c #0B7BAA",
"|&	c #09B1FD",
"1&	c #05B1FA",
"2&	c #0E7DAE",
"3&	c #9A9999",
"4&	c #606265",
"5&	c #1392CA",
"6&	c #01B5F9",
"7&	c #01B4FE",
"8&	c #07B1FC",
"9&	c #1DB6FB",
"0&	c #04B2FD",
"a&	c #2CBAFA",
"b&	c #33BEFA",
"c&	c #1F84A3",
"d&	c #086891",
"e&	c #0AA1DE",
"f&	c #0E99CD",
"g&	c #41454D",
"h&	c #EEEDEC",
"i&	c #EAE9E9",
"j&	c #5C6065",
"k&	c #108FC6",
"l&	c #05B2FC",
"m&	c #01B5FE",
"n&	c #3ABFF9",
"o&	c #71D6FD",
"p&	c #70D6FE",
"q&	c #64D1FA",
"r&	c #1692CA",
"s&	c #054D6A",
"t&	c #075075",
"u&	c #0F87BF",
"v&	c #142D3D",
"w&	c #CCCCCB",
"x&	c #EFEFEE",
"y&	c #7D7E80",
"z&	c #0D79A7",
"A&	c #08B0EC",
"B&	c #00B5FE",
"C&	c #02B2FB",
"D&	c #58CCFA",
"E&	c #7AD2FA",
"F&	c #77D3FB",
"G&	c #6BD8FD",
"H&	c #24B8F8",
"I&	c #04B1F8",
"J&	c #0EA4E0",
"K&	c #1682A7",
"L&	c #052C38",
"M&	c #AEAEAE",
"N&	c #FCFCFB",
"O&	c #BFBFBE",
"P&	c #496176",
"Q&	c #0F8EC6",
"R&	c #0BAEF7",
"S&	c #02B3FA",
"T&	c #01B2FC",
"U&	c #40C4F9",
"V&	c #6DD6FD",
"W&	c #6ED6FE",
"X&	c #67D3FE",
"Y&	c #12B0F9",
"Z&	c #17ADEE",
"`&	c #147BA7",
" *	c #2E323A",
".*	c #BDBCBC",
"+*	c #BABBBA",
"@*	c #647685",
"#*	c #1881B2",
"$*	c #0C9DDB",
"%*	c #09B0F3",
"&*	c #10B0F7",
"**	c #3DBFF2",
"=*	c #4EC2EA",
"-*	c #38A4D5",
";*	c #2483AC",
">*	c #234253",
",*	c #90908F",
"'*	c #E9E9E8",
")*	c #E4E5E4",
"!*	c #BEBFBF",
"~*	c #9CA1A6",
"{*	c #6B7A82",
"]*	c #13495E",
"^*	c #16536F",
"/*	c #26313B",
"(*	c #A7A9AA",
"_*	c #115267",
":*	c #11A6DE",
"<*	c #0E6895",
"[*	c #D9D8D8",
"}*	c #EEEEED",
"|*	c #355266",
"1*	c #021F2C",
"2*	c #0EACE2",
"3*	c #0E8CCA",
"4*	c #A3A4A4",
"5*	c #ACADAD",
"6*	c #145E81",
"7*	c #19576E",
"8*	c #0F9DCC",
"9*	c #089BDE",
"0*	c #626D77",
"a*	c #6E787F",
"b*	c #135B76",
"c*	c #1597C3",
"d*	c #0982A7",
"e*	c #06A6E2",
"f*	c #286185",
"g*	c #939495",
"h*	c #0D536B",
"i*	c #11A9E5",
"j*	c #0B5A7C",
"k*	c #1A9DCB",
"l*	c #29607B",
"m*	c #F2F2F1",
"n*	c #1A6A8F",
"o*	c #069CDF",
"p*	c #0F6A9E",
"q*	c #39393D",
"r*	c #C5C3C2",
"s*	c #D6D6D6",
"t*	c #859096",
"u*	c #517493",
"v*	c #0C92C7",
"w*	c #068CBF",
"x*	c #07415F",
"y*	c #385368",
"z*	c #F7F6F5",
"A*	c #497286",
"B*	c #0CA5E1",
"C*	c #099FE4",
"D*	c #0297CA",
"E*	c #0B648E",
"F*	c #0E6D9B",
"G*	c #0D5F86",
"H*	c #D6D5D4",
"I*	c #91AAB7",
"J*	c #0C8AC3",
"K*	c #1480B7",
"L*	c #578BAF",
"M*	c #39475C",
"N*	c #0B7AAB",
"O*	c #066E9A",
"P*	c #C9C9C9",
"Q*	c #E5E8E9",
"R*	c #ECEDEE",
"S*	c #FBFCFB",
"T*	c #C4C3C3",
"U*	c #0B7CB2",
"V*	c #0C628F",
"W*	c #DAD9D9",
"X*	c #256A8B",
"Y*	c #506779",
"Z*	c #F8F7F6",
"        . + @ # $ % & * = - ; > ,                                                                   ",
"    ' ) ! ~ { ] ^ / ( _ : < [ } | 1 2 3 4             , 5 , , 6 7 8 9 0 a b c d                     ",
"  e f g h i j k l m n o p q r s t u v w x y z A B C D E F G H I J K L M N O P Q R ,   S T 5         ",
". U V ( W X Y Z `  ...+.@.#.$.%.&.*.=.-.;.>.,.'.).!.~.{.].^./.(._.:.<.[.}.|.1.2.3.4.5.6.7.8.9.      ",
"0.a.b.c.d.e.f.g.h.i.j.k.l.m.n.o.X p.q.r.s.t.u.v.w.x.y.z.A.B.C.D.E.F.G.H.I.J.K.L.M.N.O.P.Q.R.S.      ",
"T.U.V.W.X.Y.Z.`. +.+++@+@+@+#+$+%+&+*+=+-+;+>+,+'+)+!+~+{+]+^+/+(+_+:+:+:+<+[+}+|+1+2+3+4+5+6+7+    ",
"> 8+9+0+a+b+c+d+e+f+g+@+@+@+h+i+j+k+l+m+n+o+p+q+r+s+t+u+v+w+x+y+z+A+B+B+C+C+D+E+F+G+H+I+J+K+L+M+N+  ",
"      O+P+Q+R+%+S+T+o @+@+@+U+V+%+%+W+X+Y+Z+`+ @.@+@@@#@$@$@%@&@*@=@-@;@;@>@,@'@)@!@~@{@]@^@/@(@_@:@",
"        , <@[@}@|@+.1@@+2@@+3@4@5@5@p.6@7@8@9@0@a@b@c@d@e@f@g@h@i@j@k@l@m@n@o@p@q@r@s@t@u@v@w@x@y@z@",
"            A@B@C@D@E@F@@+p G@H@I@q.5@J@K@L@M@N@b.O@P@Q@R@k+S@T@U@V@W@X@g+Y@Z@`@ #.#+#@###$#%#&#*#=#",
"              -#;#>#,#1@Y+'#)#!#~#{#]#^#/#(#_#:#@.G@<#[#}#|#i+1#2#2#3#4#5#@.p 6#7#8#9#0#a#b#c#d#e#f#",
"                g#h#i#j#k#l#m#k#n#o#p#q#r#s#t#u#v#w#G@x#y#z#A#B#k+c+f.C#D#E#F#G#H#I#Y+J#K#L#M#N#O#P#",
"                  Q#R#S#T#U#V#W#X#Y#Z#`#   $.$+$@$F@#$$$%$2@n+&$`.*$g.=$-$;$>$,$'$)$!$~${$l#]$^$/$  ",
"                    e ($_$:$<$[$}$|$1$  2$3$4$5$6$l.7$3@P@$$8$9$0$a$b$c$d$e$f$g$h$i$j$k$l$m$n$o$p$S ",
"                        q$r$s$t$u$S     v$w$x$g.y$z$A$G@B$b.C$D$E$F$G$H$I$J$K$L$M$N$O$P$Q$R$S$T$U$V$",
"                                        W$X$Y$Z$`$ %.%+%@%#%$%%%&%*%=%-%;%>%,%'%)%!%~%{%]%^%#./%(%_%",
"                                        :%<%[%}%|%1%2%3%4%5%6%7%8%9%@+#$o #$<#0%a%b%c%d%e%f%o L$g%h%",
"                                        i%j%k%l%m%n%o%b@p%q%r%s%#$t%@+@+@+$$#$u%v%w%x%y%z%A%q%B%C%D%",
"                                        E%F%G%H%I%3@/%J%K%K%#$A$A$3@@+@+@+L%o M%++J%N%O%P%Q%G@R%S%T%",
"                                        U%S   V%W%X%J%,%3@3@o K%J%F@@+@+@+k.J%1@Y%J%o J%Y%Z%`% &.&, ",
"                                              e +&@&m#7$#&,%@+3@,%Y%@+@+@+M%$&%&n#@+@+@+@+p j.&&*&  ",
"                                                =&-&;&/%j.G@J%>&,&'&@+@+@+F@)&!&_ ~&@+@+@+3@{&]&N+  ",
"                                                5 ^&/&(&k#Y+@+_&:&<&@+@+@+o [&}&|&<#@+@+@+1&2&3&    ",
"                                                  e 4&5&@.6&7&8&9&k#@+@+0&a&b&c&d&e&1&@+J%f&g&h&    ",
"                                                    i&j&k&l&<#<#k#/%#$m&n&o&p&q&r&s&t&u&w%v&w&      ",
"                                                      x&y&z&A&$$+.B&J%C&D&E&F&G&H&I&J&K&L&M&        ",
"                                                        N&O&P&Q&R&S&T&m#U&V&W&X&Y&Z&`& *.*,         ",
"                                                            P#+*@*#*$*%*&***=*-*;*>*,*'*            ",
"                                                                5 )*!*~*{*]*^*/*V%v$                ",
"                                                                        (*_*:*<*[*                  ",
"                                                                      }*|*1*2*3*4*                  ",
"                                                                      5*6*7*8*9*0*5                 ",
"                                                                      a*b*c*d*e*f*e                 ",
"                                                                      g*h*i*j*k*l*m*                ",
"                                                                      '*n*o*p*q*r*                  ",
"                                                                  s*t*u*v*w*x*y*z*                  ",
"                                                                N&A*B*C*D*E*F*G*H*                  ",
"                                                                , I*J*K*L*M*N*O*P*                  ",
"                                                                  . Q*R*S*T*U*V*W*                  ",
"                                                                          '*X*Y*Z*                  "};
