/* XPM */
static char * running_left_boy_xpm[] = {
"50 39 856 2",
"  	c None",
". 	c #4A3F2B",
"+ 	c #504431",
"@ 	c #504330",
"# 	c #543E2C",
"$ 	c #5C3B2D",
"% 	c #5D3A2F",
"& 	c #5C382A",
"* 	c #4E3728",
"= 	c #3E3323",
"- 	c #312922",
"; 	c #362D1B",
"> 	c #393424",
", 	c #3C3524",
"' 	c #443B24",
") 	c #4D4027",
"! 	c #4B4029",
"~ 	c #563F2E",
"{ 	c #5F3D2C",
"] 	c #6D482F",
"^ 	c #854B2F",
"/ 	c #A74B33",
"( 	c #CC4B33",
"_ 	c #DE4C34",
": 	c #E84B32",
"< 	c #EB462C",
"[ 	c #E9432E",
"} 	c #E73B27",
"| 	c #D23625",
"1 	c #A62F25",
"2 	c #632616",
"3 	c #261B0F",
"4 	c #271C0B",
"5 	c #2C2616",
"6 	c #383020",
"7 	c #5A3D22",
"8 	c #814B24",
"9 	c #AC632F",
"0 	c #D37831",
"a 	c #E88336",
"b 	c #E77D34",
"c 	c #E6682E",
"d 	c #EF5D2C",
"e 	c #F85F2F",
"f 	c #FD5D2D",
"g 	c #FD5B28",
"h 	c #FC5C25",
"i 	c #FE5D27",
"j 	c #FE5D28",
"k 	c #FF5C26",
"l 	c #FE5825",
"m 	c #FD4B21",
"n 	c #FB3C1F",
"o 	c #F82E1B",
"p 	c #EE271F",
"q 	c #B93022",
"r 	c #552414",
"s 	c #0D0D04",
"t 	c #25190A",
"u 	c #76441D",
"v 	c #C26523",
"w 	c #E87321",
"x 	c #F37423",
"y 	c #FD7121",
"z 	c #FD6C1F",
"A 	c #FE6C20",
"B 	c #FD6C1D",
"C 	c #FE6A21",
"D 	c #FC561D",
"E 	c #FF5421",
"F 	c #FD541F",
"G 	c #FA541D",
"H 	c #FC591E",
"I 	c #FE6120",
"J 	c #FF631F",
"K 	c #FF631E",
"L 	c #FE621C",
"M 	c #FE621A",
"N 	c #FF5D1A",
"O 	c #FF5519",
"P 	c #FE4D17",
"Q 	c #FD3C16",
"R 	c #FB260D",
"S 	c #E1291E",
"T 	c #91291F",
"U 	c #250C08",
"V 	c #060603",
"W 	c #100702",
"X 	c #542C0C",
"Y 	c #C1661F",
"Z 	c #F3701B",
"` 	c #FB6717",
" .	c #FC5E15",
"..	c #FB5817",
"+.	c #FD5014",
"@.	c #FE4D14",
"#.	c #FF4D13",
"$.	c #FF4C16",
"%.	c #FE4A16",
"&.	c #FF4815",
"*.	c #FE4A13",
"=.	c #FC5315",
"-.	c #FF5D19",
";.	c #FF5C16",
">.	c #FF5C14",
",.	c #FE5C12",
"'.	c #FE5B11",
").	c #FD5A0F",
"!.	c #FE5A10",
"~.	c #FD5810",
"{.	c #FE5711",
"].	c #FD4A16",
"^.	c #FE3F0D",
"/.	c #FB330B",
"(.	c #F41F0B",
"_.	c #CC2614",
":.	c #6E190E",
"<.	c #100104",
"[.	c #080302",
"}.	c #120504",
"|.	c #5A3114",
"1.	c #DE6B1F",
"2.	c #F9660E",
"3.	c #FD590A",
"4.	c #FE4D09",
"5.	c #FE4207",
"6.	c #FE390B",
"7.	c #FD320D",
"8.	c #FF2F0D",
"9.	c #FD2D0D",
"0.	c #FE2C0E",
"a.	c #FD2F0F",
"b.	c #FC3910",
"c.	c #FE4110",
"d.	c #FE430C",
"e.	c #FE5011",
"f.	c #FE530D",
"g.	c #FF550F",
"h.	c #FF550E",
"i.	c #FF540C",
"j.	c #FF540A",
"k.	c #FE500D",
"l.	c #FC4508",
"m.	c #FC4007",
"n.	c #F93F09",
"o.	c #FC3B08",
"p.	c #FE390A",
"q.	c #FE3709",
"r.	c #FA2A0A",
"s.	c #EE150E",
"t.	c #B4140C",
"u.	c #540605",
"v.	c #080201",
"w.	c #070301",
"x.	c #431D05",
"y.	c #DC681C",
"z.	c #FD5F02",
"A.	c #FD5206",
"B.	c #FE3F05",
"C.	c #FE3105",
"D.	c #FA2709",
"E.	c #FB1E07",
"F.	c #FA1906",
"G.	c #FD1605",
"H.	c #FE1407",
"I.	c #FE1408",
"J.	c #FD1506",
"K.	c #FA2005",
"L.	c #FD380C",
"M.	c #FC3B06",
"N.	c #FC4206",
"O.	c #FF4E0B",
"P.	c #FF5009",
"Q.	c #FE5007",
"R.	c #FE4F08",
"S.	c #FE4C09",
"T.	c #FD4409",
"U.	c #FA3C03",
"V.	c #FD3207",
"W.	c #F42108",
"X.	c #E01808",
"Y.	c #CD150D",
"Z.	c #BA1307",
"`.	c #AA1704",
" +	c #A01909",
".+	c #9E1207",
"++	c #AE060A",
"@+	c #B70F0E",
"#+	c #920E10",
"$+	c #59090B",
"%+	c #160101",
"&+	c #0F0201",
"*+	c #0C0201",
"=+	c #B95B17",
"-+	c #FA6107",
";+	c #FF4B02",
">+	c #FC3B03",
",+	c #FC2904",
"'+	c #FE1A05",
")+	c #FF1002",
"!+	c #FD1004",
"~+	c #FE0E02",
"{+	c #FF0C07",
"]+	c #FE0F03",
"^+	c #FE0E03",
"/+	c #FD0E02",
"(+	c #FC0F01",
"_+	c #FB2504",
":+	c #FE3206",
"<+	c #FC3803",
"[+	c #FA3F03",
"}+	c #FD4304",
"|+	c #FD4303",
"1+	c #FD3F02",
"2+	c #FD3704",
"3+	c #FE3402",
"4+	c #F02804",
"5+	c #A80D06",
"6+	c #550403",
"7+	c #2A0502",
"8+	c #4D2913",
"9+	c #623414",
"0+	c #603415",
"a+	c #5B3314",
"b+	c #502D13",
"c+	c #341A07",
"d+	c #1C0702",
"e+	c #2B0201",
"f+	c #520808",
"g+	c #610B09",
"h+	c #5D0C0E",
"i+	c #470506",
"j+	c #160100",
"k+	c #0C0101",
"l+	c #0D0404",
"m+	c #622A0A",
"n+	c #F2620D",
"o+	c #FD4F01",
"p+	c #FC3A07",
"q+	c #E92907",
"r+	c #CD170C",
"s+	c #CE1006",
"t+	c #E81004",
"u+	c #FB0C03",
"v+	c #FB0C01",
"w+	c #F80D00",
"x+	c #FF0801",
"y+	c #FE0900",
"z+	c #FE0A00",
"A+	c #FE0B00",
"B+	c #FD1D03",
"C+	c #FD3008",
"D+	c #FD3502",
"E+	c #FC3401",
"F+	c #FB3600",
"G+	c #FC3400",
"H+	c #FF3201",
"I+	c #F52905",
"J+	c #780503",
"K+	c #0F0303",
"L+	c #733B12",
"M+	c #BC6421",
"N+	c #D16D21",
"O+	c #D26D1F",
"P+	c #C96E29",
"Q+	c #C86C2B",
"R+	c #C66E2A",
"S+	c #C46D29",
"T+	c #B66B32",
"U+	c #9F6032",
"V+	c #855127",
"W+	c #5E371A",
"X+	c #2C0C04",
"Y+	c #5D080B",
"Z+	c #910B0E",
"`+	c #9C0A10",
" @	c #860708",
".@	c #530C0B",
"+@	c #130301",
"@@	c #010201",
"#@	c #040000",
"$@	c #BA550F",
"%@	c #FE5706",
"&@	c #F54207",
"*@	c #A42F0D",
"=@	c #A36F10",
"-@	c #C6940F",
";@	c #BF8F10",
">@	c #8A5F0E",
",@	c #BA0F0E",
"'@	c #FA0903",
")@	c #FD0704",
"!@	c #FF0701",
"~@	c #FF0702",
"{@	c #FE0802",
"]@	c #FD0A01",
"^@	c #FB1301",
"/@	c #FC2105",
"(@	c #FD2B04",
"_@	c #FE3202",
":@	c #FC3500",
"<@	c #FD3401",
"[@	c #D61F04",
"}@	c #220105",
"|@	c #3C220C",
"1@	c #A55525",
"2@	c #AC5C21",
"3@	c #A95C24",
"4@	c #A55B24",
"5@	c #A55A22",
"6@	c #B56122",
"7@	c #C96B21",
"8@	c #C36F2A",
"9@	c #C66D27",
"0@	c #C36C2C",
"a@	c #B97028",
"b@	c #BC6D34",
"c@	c #A86C36",
"d@	c #7D4D26",
"e@	c #321A07",
"f@	c #310201",
"g@	c #470303",
"h@	c #390709",
"i@	c #140304",
"j@	c #070101",
"k@	c #3C1203",
"l@	c #EA6214",
"m@	c #FD4D02",
"n@	c #C03205",
"o@	c #C78912",
"p@	c #FCB80B",
"q@	c #FDCA03",
"r@	c #FFC805",
"s@	c #FAC00D",
"t@	c #A37310",
"u@	c #D30D03",
"v@	c #FC0605",
"w@	c #FD0700",
"x@	c #FF0601",
"y@	c #FE0700",
"z@	c #FE0801",
"A@	c #FF0902",
"B@	c #FF0800",
"C@	c #FD0D01",
"D@	c #FB0F00",
"E@	c #FE1E01",
"F@	c #FF2F04",
"G@	c #FE3302",
"H@	c #F62704",
"I@	c #C71504",
"J@	c #8F0703",
"K@	c #630404",
"L@	c #430102",
"M@	c #3A0201",
"N@	c #0E0201",
"O@	c #060100",
"P@	c #853607",
"Q@	c #FC5B04",
"R@	c #FD4205",
"S@	c #A93F12",
"T@	c #EFAF13",
"U@	c #EDBB0F",
"V@	c #FEE204",
"W@	c #FFE502",
"X@	c #FFCD07",
"Y@	c #DFA512",
"Z@	c #A90B0A",
"`@	c #FD0505",
" #	c #FD0503",
".#	c #FE0500",
"+#	c #FF0600",
"@#	c #FF0900",
"##	c #FF0B01",
"$#	c #FD1300",
"%#	c #FE2801",
"&#	c #FE3401",
"*#	c #FB3402",
"=#	c #FC3403",
"-#	c #F82D04",
";#	c #F31D06",
">#	c #F01A07",
",#	c #DD110B",
"'#	c #260203",
")#	c #080200",
"!#	c #AC4F14",
"~#	c #FB5602",
"{#	c #A03A0F",
"]#	c #DEA01B",
"^#	c #C2A20C",
"/#	c #FCE809",
"(#	c #FCED02",
"_#	c #FED106",
":#	c #DBA616",
"<#	c #B40904",
"[#	c #FB0701",
"}#	c #FE0402",
"|#	c #FF0401",
"1#	c #FF0501",
"2#	c #FB0E00",
"3#	c #FD2302",
"4#	c #FD3702",
"5#	c #FE4403",
"6#	c #FF4802",
"7#	c #FE4302",
"8#	c #FC3402",
"9#	c #F91B03",
"0#	c #B40806",
"a#	c #0E0000",
"b#	c #090200",
"c#	c #C85412",
"d#	c #FD4F04",
"e#	c #FE3701",
"f#	c #D81E07",
"g#	c #AC7B11",
"h#	c #FABE0D",
"i#	c #FDCE03",
"j#	c #FDD303",
"k#	c #FBC313",
"l#	c #AA7213",
"m#	c #E50907",
"n#	c #FD0306",
"o#	c #FE0401",
"p#	c #FF0300",
"q#	c #FF0500",
"r#	c #FF0700",
"s#	c #FF0B00",
"t#	c #FD0D00",
"u#	c #FD2002",
"v#	c #FE3904",
"w#	c #FA4101",
"x#	c #FC3503",
"y#	c #FB2209",
"z#	c #D30B07",
"A#	c #470203",
"B#	c #D6590F",
"C#	c #FD4C01",
"D#	c #FD1A06",
"E#	c #CC1309",
"F#	c #A06311",
"G#	c #C79116",
"H#	c #BE8A11",
"I#	c #90560F",
"J#	c #D10D09",
"K#	c #FC0500",
"L#	c #FD0301",
"M#	c #FE0202",
"N#	c #FE0102",
"O#	c #FF0201",
"P#	c #FF0301",
"Q#	c #FE0A01",
"R#	c #FC1801",
"S#	c #FD3102",
"T#	c #FE3201",
"U#	c #FE3300",
"V#	c #FC3303",
"W#	c #E32505",
"X#	c #470401",
"Y#	c #080102",
"Z#	c #190201",
"`#	c #140202",
" $	c #090000",
".$	c #D95812",
"+$	c #FE3501",
"@$	c #FF1B01",
"#$	c #FE0C01",
"$$	c #F70F05",
"%$	c #EB0C09",
"&$	c #E70E09",
"*$	c #F10A05",
"=$	c #FE0504",
"-$	c #FD0502",
";$	c #FD0201",
">$	c #FE0201",
",$	c #FE0501",
"'$	c #FF0901",
")$	c #FC1A00",
"!$	c #FE2F01",
"~$	c #FD3302",
"{$	c #FF3300",
"]$	c #FB3205",
"^$	c #DD330D",
"/$	c #CA2C07",
"($	c #BC2B0A",
"_$	c #AC2707",
":$	c #7E1909",
"<$	c #530301",
"[$	c #230101",
"}$	c #160503",
"|$	c #090100",
"1$	c #CF5412",
"2$	c #FD4F00",
"3$	c #FD3700",
"4$	c #FF1E01",
"5$	c #FE0B01",
"6$	c #FC0701",
"7$	c #FE0404",
"8$	c #FA0502",
"9$	c #FF0400",
"0$	c #FB1300",
"a$	c #FE2C05",
"b$	c #FE3301",
"c$	c #FE3C01",
"d$	c #FD4202",
"e$	c #FF4101",
"f$	c #FC3D01",
"g$	c #FB3801",
"h$	c #FA3507",
"i$	c #F52804",
"j$	c #D61607",
"k$	c #A70805",
"l$	c #5C0202",
"m$	c #130201",
"n$	c #040300",
"o$	c #B74D10",
"p$	c #FE5301",
"q$	c #FE3B00",
"r$	c #FF2202",
"s$	c #FE0E01",
"t$	c #FD0B03",
"u$	c #FE0803",
"v$	c #F70A05",
"w$	c #F50905",
"x$	c #FD0600",
"y$	c #FD0401",
"z$	c #FD0B01",
"A$	c #FD2404",
"B$	c #FA3101",
"C$	c #FD3802",
"D$	c #FF4502",
"E$	c #FE4A03",
"F$	c #FC4B01",
"G$	c #FD4B01",
"H$	c #FA4B02",
"I$	c #FC4C01",
"J$	c #FD4903",
"K$	c #FE4404",
"L$	c #FC3C04",
"M$	c #FD3204",
"N$	c #FA2303",
"O$	c #EF0A05",
"P$	c #BC0A06",
"Q$	c #560403",
"R$	c #040101",
"S$	c #903E0B",
"T$	c #FC5A05",
"U$	c #FD4201",
"V$	c #FC2B02",
"W$	c #FE1301",
"X$	c #FB0C00",
"Y$	c #F00C0C",
"Z$	c #910906",
"`$	c #E40805",
" %	c #FC0602",
".%	c #FD0601",
"+%	c #FF0A01",
"@%	c #FC1001",
"#%	c #FE2D05",
"$%	c #F83400",
"%%	c #FD4704",
"&%	c #FE4A01",
"*%	c #FE4901",
"=%	c #FE4C03",
"-%	c #FE4B01",
";%	c #FE4801",
">%	c #FE4601",
",%	c #FE4604",
"'%	c #FE4704",
")%	c #FF3E02",
"!%	c #FE3400",
"~%	c #FD2B02",
"{%	c #FB0E02",
"]%	c #E60809",
"^%	c #860504",
"/%	c #160202",
"(%	c #502103",
"_%	c #F26410",
":%	c #FC1E07",
"<%	c #FD0C04",
"[%	c #DF1009",
"}%	c #6B0503",
"|%	c #AA0C0C",
"1%	c #FB0905",
"2%	c #FC0802",
"3%	c #FE0603",
"4%	c #FF0A00",
"5%	c #FC1402",
"6%	c #FF3004",
"7%	c #FD3501",
"8%	c #FE4902",
"9%	c #FD4902",
"0%	c #FE4A05",
"a%	c #FC4703",
"b%	c #FE4104",
"c%	c #FF3A02",
"d%	c #FF3502",
"e%	c #FE3103",
"f%	c #FD3101",
"g%	c #FD3203",
"h%	c #FE2F06",
"i%	c #FE3104",
"j%	c #FD2D04",
"k%	c #F81306",
"l%	c #F50603",
"m%	c #950605",
"n%	c #130501",
"o%	c #CE5F16",
"p%	c #FE5603",
"q%	c #FD4004",
"r%	c #F72C05",
"s%	c #C61905",
"t%	c #540302",
"u%	c #AC0E0A",
"v%	c #F80C02",
"w%	c #FD0A00",
"x%	c #FD0904",
"y%	c #FD0803",
"z%	c #FE0C00",
"A%	c #FA1500",
"B%	c #FE2E01",
"C%	c #FC3801",
"D%	c #FC4402",
"E%	c #FD3E01",
"F%	c #FF3103",
"G%	c #FD3301",
"H%	c #FC2504",
"I%	c #FD1701",
"J%	c #F90604",
"K%	c #F90403",
"L%	c #FA0402",
"M%	c #F90902",
"N%	c #FC1803",
"O%	c #FC2505",
"P%	c #FC0F05",
"Q%	c #F20605",
"R%	c #7A0404",
"S%	c #813F10",
"T%	c #F4640A",
"U%	c #FD4B02",
"V%	c #DF3607",
"W%	c #B02209",
"X%	c #DC1804",
"Y%	c #FD0C06",
"Z%	c #FC0D01",
"`%	c #FC0B01",
" &	c #FD0901",
".&	c #FF0802",
"+&	c #FF1303",
"@&	c #FE2303",
"#&	c #FD3200",
"$&	c #FA2A03",
"%&	c #FB1A02",
"&&	c #F81505",
"*&	c #EA1C09",
"=&	c #E21C0A",
"-&	c #D90E05",
";&	c #CC0603",
">&	c #BD0702",
",&	c #A80805",
"'&	c #970808",
")&	c #870807",
"!&	c #840B08",
"~&	c #830705",
"{&	c #830606",
"]&	c #9B0808",
"^&	c #CF0E09",
"/&	c #F60604",
"(&	c #DA080B",
"_&	c #310000",
":&	c #1E0800",
"<&	c #C65E17",
"[&	c #FD5B02",
"}&	c #FB4903",
"|&	c #FD2501",
"1&	c #FC1802",
"2&	c #FD2902",
"3&	c #FF3002",
"4&	c #FB3500",
"5&	c #FB3201",
"6&	c #FE2B07",
"7&	c #E60D04",
"8&	c #AF0607",
"9&	c #5B0303",
"0&	c #3F0203",
"a&	c #2B0000",
"b&	c #1A0000",
"c&	c #0F0000",
"d&	c #020100",
"e&	c #200001",
"f&	c #8D0607",
"g&	c #EF0807",
"h&	c #7B0504",
"i&	c #512304",
"j&	c #DD6414",
"k&	c #FA5B03",
"l&	c #FD4A05",
"m&	c #FC3A03",
"n&	c #FD2D01",
"o&	c #FD1F03",
"p&	c #FD1502",
"q&	c #FE0E00",
"r&	c #FE0D01",
"s&	c #FF0C01",
"t&	c #FE0F01",
"u&	c #FE1701",
"v&	c #FE2806",
"w&	c #FC3405",
"x&	c #FC4501",
"y&	c #FC3A06",
"z&	c #F92302",
"A&	c #8D0B03",
"B&	c #1D0003",
"C&	c #060101",
"D&	c #0E0101",
"E&	c #B10709",
"F&	c #AC0603",
"G&	c #020101",
"H&	c #542407",
"I&	c #D25E13",
"J&	c #FA5F06",
"K&	c #FC4E02",
"L&	c #FD4103",
"M&	c #FE3404",
"N&	c #FE2C02",
"O&	c #FE2301",
"P&	c #FE1B01",
"Q&	c #FE1F01",
"R&	c #FD2E01",
"S&	c #FD3902",
"T&	c #FE4103",
"U&	c #FD3B04",
"V&	c #F92905",
"W&	c #F32007",
"X&	c #EA1B0E",
"Y&	c #E01207",
"Z&	c #BE0B0B",
"`&	c #520207",
" *	c #0B0101",
".*	c #9E110D",
"+*	c #B70502",
"@*	c #050101",
"#*	c #2D1201",
"$*	c #9C470E",
"%*	c #E75D10",
"&*	c #FA5A06",
"**	c #FC4D01",
"=*	c #FE4400",
"-*	c #FE3D00",
";*	c #FE3901",
">*	c #FD3601",
",*	c #FE3602",
"'*	c #FF3702",
")*	c #FF3501",
"!*	c #FD2C03",
"~*	c #FB2503",
"{*	c #F01A04",
"]*	c #D7120C",
"^*	c #B50806",
"/*	c #720701",
"(*	c #460401",
"_*	c #460501",
":*	c #670703",
"<*	c #A00904",
"[*	c #9F0F0F",
"}*	c #170203",
"|*	c #090101",
"1*	c #A5080A",
"2*	c #A10705",
"3*	c #2B0D00",
"4*	c #843B07",
"5*	c #C3550E",
"6*	c #EB560D",
"7*	c #FA560B",
"8*	c #FB5105",
"9*	c #FC4F05",
"0*	c #F34908",
"a*	c #E93C08",
"b*	c #DE2304",
"c*	c #C61006",
"d*	c #B00604",
"e*	c #860604",
"f*	c #4E0202",
"g*	c #210000",
"h*	c #040003",
"i*	c #040103",
"j*	c #120000",
"k*	c #100100",
"l*	c #B30C12",
"m*	c #570303",
"n*	c #0C0001",
"o*	c #2D0A01",
"p*	c #5B2406",
"q*	c #86360F",
"r*	c #932A0A",
"s*	c #430B04",
"t*	c #280200",
"u*	c #0E0102",
"v*	c #0A0201",
"w*	c #240303",
"x*	c #52060B",
"y*	c #881806",
"z*	c #A41D10",
"A*	c #621E0A",
"B*	c #4F1D0D",
"C*	c #200704",
"D*	c #010100",
"E*	c #AF0409",
"F*	c #D60805",
"G*	c #660A09",
"H*	c #5D0A09",
"I*	c #440505",
"J*	c #3E0202",
"K*	c #CB0406",
"L*	c #CB0905",
"M*	c #8F0A0C",
"N*	c #6B0507",
"O*	c #6B0A08",
"P*	c #530608",
"Q*	c #D30705",
"R*	c #A3070B",
"S*	c #B70706",
"T*	c #9A0606",
"U*	c #56090D",
"V*	c #780405",
"W*	c #5F0403",
"X*	c #CA0403",
"Y*	c #A40707",
"Z*	c #1C0402",
"`*	c #210504",
" =	c #450404",
".=	c #AD0302",
"+=	c #C20704",
"@=	c #460303",
"#=	c #4A0504",
"$=	c #860607",
"%=	c #750304",
"&=	c #BE0303",
"*=	c #C60609",
"==	c #B30807",
"-=	c #82070B",
";=	c #6B0205",
">=	c #A90707",
",=	c #3B0103",
"'=	c #970508",
")=	c #B70309",
"!=	c #BF0302",
"~=	c #B90409",
"{=	c #AB0505",
"]=	c #2E0402",
"^=	c #410204",
"/=	c #5D0404",
"(=	c #6F0409",
"_=	c #6E0408",
":=	c #53030A",
"<=	c #A80806",
"[=	c #390403",
"}=	c #4A0506",
"                                      . + @ # $ % & * = -                                           ",
"                    ; > , ' ) ! ~ { ] ^ / ( _ : < [ } | 1 2 3                                       ",
"              4 5 6 7 8 9 0 a b c d e f g h i j k l m n o p q r s                                   ",
"            t u v w x y z A B C D E F G H I J K L M N O P Q R S T U V                               ",
"        W X Y Z `  ...+.@.@.#.$.%.&.*.=.-.;.>.,.'.).!.~.{.].^./.(._.:.<.[.                          ",
"      }.|.1.2.3.4.5.6.7.8.9.0.a.b.c.d.e.f.g.h.i.j.i.k.l.m.n.o.p.q.r.s.t.u.v.w.                      ",
"      x.y.z.A.B.C.D.E.F.G.H.I.J.K.L.M.N.O.P.Q.R.S.T.U.V.W.X.Y.Z.`. +.+++@+#+$+%+&+                  ",
"    *+=+-+;+>+,+'+)+!+~+{+]+^+/+(+_+:+<+[+}+|+1+2+3+4+5+6+7+8+9+0+a+b+c+d+e+f+g+h+i+j+k+            ",
"  l+m+n+o+p+q+r+s+t+u+v+w+x+x+y+z+A+B+C+D+E+F+G+H+I+J+K+L+M+N+O+P+Q+R+S+T+U+V+W+X+Y+Z+`+ @.@+@@@#@  ",
"  v.$@%@&@*@=@-@;@>@,@'@)@!@~@!@y+{@]@^@/@(@_@:@<@[@}@|@1@2@3@4@5@6@7@8@9@0@a@b@c@d@e@f@g@h@i@j@    ",
"  k@l@m@n@o@p@q@r@s@t@u@v@w@x@y@y@z@A@B@C@D@E@F@G@H@I@J@K@L@M@N@O@                                  ",
"v.P@Q@R@S@T@U@V@W@X@Y@Z@`@ #.#.#.#+#!@@#####$#%#&#*#=#-#;#>#,#'#                                    ",
")#!#~#U.{#]#^#/#(#_#:#<#[#}#|#|#1#.#+#B@@###2#3#4#5#6#7#8#9#0#a#                                    ",
"b#c#d#e#f#g#h#i#j#k#l#m#n#o#p#p#|#q#+#r#@#s#t#u#v#5#w#x#y#z#A#                                      ",
"O@B#C#8#D#E#F#G#H#I#J#K#L#M#N#O#P#|#x@r#@#Q###R#S#T#U#V#W#X#Y#Z#`#                                  ",
" $.$C#+$@$#$$$%$&$*$=$-$;$N#>$>$p#,$.#r#@#'$A+)$!$~${${$]$^$/$($_$:$<$[$}$                          ",
"|$1$2$3$4$2#5$]@+#w@6$7$8$>$>$p#9$,$x@r#@#z+0$a$b$:@c$d$|+e$f$g$E+h$i$j$k$l$m$                      ",
"n$o$p$q$r$s$'$t$u$v$w$x$.#y$p#9$q#1#x@x+'$z$A$B$C$D$E$F$G$H$I$J$K$L$e#M$N$O$P$Q$                    ",
"R$S$T$U$V$W$X$Q#Y$Z$`$r# %,$,$,$,$.%y@B@+%@%#%$%%%F$&%*%;+=%-%;%>%,%'%)%!%~%{%]%^%/%                ",
"  (%_%E$&#:%<%[%}%|%1%2%3%+#.#+#x@y@x+@#4%5%6%7%,%8%9%0%a%b%c%d%~$e%f%g%h%i%j%k%l%m%                ",
"  n%o%p%q%r%s%t%u%v%w%x%y%r#y@!@x+'$@#z+z%A%B%T#C%D%E%&#F%G%S#H%I%2%J%K%L%M%N%O%P%Q%R%              ",
"    S%T%U%V%W%X%Y%Z%5$`% &.&@#@#'$+%4%z%+&@&#&T#&#$&%&&&*&=&-&;&>&,&'&)&!&~&{&]&^&/&(&_&            ",
"    :&<&[&}&e#|&1&#$##z%#$5$Q#z+##z%t#I%2&3&4&5&6&7&8&9&0&a&b&c&              d&e&f&g&h&            ",
"      i&j&k&l&m&n&o&p&q&r&s&##r&t&u&v&w&c$x&|+y&z&A&B&C&C&                        D&E&F&G&          ",
"        H&I&J&K&L&M&N&O&E@P&P&Q&@&R&S&}+D$T&U&V&W&X&Y&Z&`&                         *.*+*@*          ",
"          #*$*%*&***=*-*;*>*,*'*)*F%!*~*{*]*^*/*(*_*:*<*[*}*                      |*1*2*@*          ",
"              3*4*5*6*7*8*9*0*a*b*c*d*e*f*g*h*i*        j*i*                      k*l*m*            ",
"                  n*o*p*q*r*s*t*[$u*|*v*                                          w*x*              ",
"                    y*z*A*B*C*                                                    D*                ",
"                    E*F*G*H*I*                                                                      ",
"                  J*K*L*M*N*O*                                                                      ",
"                  P*Q*R*S*T*U*                                                                      ",
"                    V*W*X*Y*Z*                                                                      ",
"                    `* =.=+=@=                                                                      ",
"                    #=$=%=&=*===-=                                                                  ",
"                    ;=>=,='=)=!=~=                                                                  ",
"                    ;={=]=^=/=(=_=                                                                  ",
"                    :=<=[=                                                                          ",
"                      }=                                                                            "};
