/* XPM */
static char * watergirl_xpm[] = {
"30 46 580 2",
"  	c None",
". 	c #1D1509",
"+ 	c #0F2732",
"@ 	c #014A69",
"# 	c #026A95",
"$ 	c #0274A4",
"% 	c #044667",
"& 	c #1C1200",
"* 	c #0C1B26",
"= 	c #0376A4",
"- 	c #01A9EE",
"; 	c #01ACF4",
"> 	c #00AFF8",
", 	c #00B0F8",
"' 	c #0494D3",
") 	c #0F3850",
"! 	c #0E1C26",
"~ 	c #038AC3",
"{ 	c #00B0FA",
"] 	c #00B0F9",
"^ 	c #01B0F8",
"/ 	c #01B0FA",
"( 	c #03A1E5",
"_ 	c #144A6A",
": 	c #181208",
"< 	c #006490",
"[ 	c #3BB6F7",
"} 	c #67C5F9",
"| 	c #4BBBFA",
"1 	c #04A8EF",
"2 	c #2EABE9",
"3 	c #49BAFA",
"4 	c #47BBFA",
"5 	c #3EB9F9",
"6 	c #1B8FCA",
"7 	c #1F1504",
"8 	c #213234",
"9 	c #64C2EC",
"0 	c #45B1E7",
"a 	c #6DAFCB",
"b 	c #8BD7FB",
"c 	c #8AD8FA",
"d 	c #467F99",
"e 	c #77C4E1",
"f 	c #89D8FA",
"g 	c #8AD8F9",
"h 	c #88D7F9",
"i 	c #7CD2F8",
"j 	c #1C566D",
"k 	c #426F7D",
"l 	c #87D6F7",
"m 	c #86D6F5",
"n 	c #598CA0",
"o 	c #8ADAFA",
"p 	c #316D82",
"q 	c #7ED3F7",
"r 	c #8AD9FA",
"s 	c #8BDAF9",
"t 	c #8BD9FA",
"u 	c #7AD1FB",
"v 	c #216585",
"w 	c #44819B",
"x 	c #81CDEE",
"y 	c #7FCCEF",
"z 	c #2A5F77",
"A 	c #53B8ED",
"B 	c #3DB3F1",
"C 	c #0277A8",
"D 	c #0EA9EF",
"E 	c #3BACE7",
"F 	c #3CA7E0",
"G 	c #279CD9",
"H 	c #007FB6",
"I 	c #0D0000",
"J 	c #26495B",
"K 	c #2E82AC",
"L 	c #2590C6",
"M 	c #207DAD",
"N 	c #012C44",
"O 	c #037CB0",
"P 	c #03AEF7",
"Q 	c #012132",
"R 	c #014361",
"S 	c #03729F",
"T 	c #008CC7",
"U 	c #65B4DA",
"V 	c #82CBE9",
"W 	c #80CCEA",
"X 	c #78BFDA",
"Y 	c #598FA3",
"Z 	c #0F2430",
"` 	c #3A5A70",
" .	c #098FCA",
"..	c #01AEF5",
"+.	c #00B1FA",
"@.	c #01B1FA",
"#.	c #0DA4E8",
"$.	c #045C85",
"%.	c #0683B6",
"&.	c #045F86",
"*.	c #03A7EC",
"=.	c #01B1FB",
"-.	c #5DC3F9",
";.	c #8BD9F9",
">.	c #8AD9F9",
",.	c #75CEFB",
"'.	c #26A8E9",
").	c #0470A2",
"!.	c #14181B",
"~.	c #528B9E",
"{.	c #78D0F6",
"].	c #3EB6F9",
"^.	c #01AFF8",
"/.	c #00B1F8",
"(.	c #00B2F8",
"_.	c #00B1F9",
":.	c #039BDD",
"<.	c #010000",
"[.	c #0388C1",
"}.	c #01B0F9",
"|.	c #00B1F7",
"1.	c #28B4FA",
"2.	c #88D8F9",
"3.	c #86D8FA",
"4.	c #28B4F8",
"5.	c #0385BE",
"6.	c #102230",
"7.	c #184B67",
"8.	c #7ACFF6",
"9.	c #86D6F9",
"0.	c #4ABBF9",
"a.	c #048DC6",
"b.	c #06587A",
"c.	c #037AAD",
"d.	c #06B0FA",
"e.	c #27B4FA",
"f.	c #85D6F9",
"g.	c #8ADAF8",
"h.	c #84D7FA",
"i.	c #1AB2F9",
"j.	c #1088BF",
"k.	c #131C20",
"l.	c #1B0C00",
"m.	c #048ECB",
"n.	c #5BC2F8",
"o.	c #36B6F9",
"p.	c #0194D2",
"q.	c #245E75",
"r.	c #24A7E8",
"s.	c #03597F",
"t.	c #05AEF7",
"u.	c #4FBDFA",
"v.	c #72CAF9",
"w.	c #82D4F9",
"x.	c #8ADAF9",
"y.	c #86D8F9",
"z.	c #35B7F9",
"A.	c #60C6F8",
"B.	c #518295",
"C.	c #164A67",
"D.	c #02AAF2",
"E.	c #75CFF8",
"F.	c #74CEF9",
"G.	c #0CB0F8",
"H.	c #0294D2",
"I.	c #265363",
"J.	c #68C7ED",
"K.	c #63C9FB",
"L.	c #066895",
"M.	c #1D9EDD",
"N.	c #80D2FB",
"O.	c #84D5F9",
"P.	c #25B4F8",
"Q.	c #02B0FA",
"R.	c #79D1FA",
"S.	c #85D3F2",
"T.	c #32505B",
"U.	c #174F6F",
"V.	c #03AAF3",
"W.	c #00AEF8",
"X.	c #1FB1F8",
"Y.	c #6BCAF8",
"Z.	c #88D9FA",
"`.	c #79CDF6",
" +	c #177AAB",
".+	c #3A7C94",
"++	c #6AC8EF",
"@+	c #72D3F9",
"#+	c #72D4F9",
"$+	c #3AA5DD",
"%+	c #113F58",
"&+	c #76BBDA",
"*+	c #89DBF8",
"=+	c #89DBFA",
"-+	c #86D7F9",
";+	c #42B8F9",
">+	c #58C2FA",
",+	c #6CAFC8",
"'+	c #0C0401",
")+	c #141819",
"!+	c #105B84",
"~+	c #015A84",
"{+	c #01557D",
"]+	c #0875AA",
"^+	c #569DBC",
"/+	c #5092AC",
"(+	c #5BAFD1",
"_+	c #70D1F9",
":+	c #71D4F9",
"<+	c #4AC0F9",
"[+	c #037AB1",
"}+	c #1B2628",
"|+	c #6BA8C2",
"1+	c #76D0F9",
"2+	c #6ECCFA",
"3+	c #3EB8FA",
"4+	c #43BBFA",
"5+	c #86D6FA",
"6+	c #77D1F9",
"7+	c #00557B",
"8+	c #1A1A1A",
"9+	c #08577C",
"0+	c #0395D4",
"a+	c #0FA2E2",
"b+	c #60C8F5",
"c+	c #71D1F9",
"d+	c #73D1F9",
"e+	c #6FCBEF",
"f+	c #6DCAEE",
"g+	c #6FCEF3",
"h+	c #71D3F9",
"i+	c #40BDF8",
"j+	c #01AEF6",
"k+	c #0380B9",
"l+	c #06334C",
"m+	c #0F6A96",
"n+	c #08A3E9",
"o+	c #01AAF2",
"p+	c #00ABF3",
"q+	c #01ABF3",
"r+	c #14AAEF",
"s+	c #77C6E7",
"t+	c #80C8E4",
"u+	c #80CAE7",
"v+	c #83CEED",
"w+	c #5CBDF2",
"x+	c #0197D6",
"y+	c #031724",
"z+	c #192834",
"A+	c #0296D6",
"B+	c #46BFF9",
"C+	c #70D2FA",
"D+	c #5198B2",
"E+	c #47ACB1",
"F+	c #5AD3D6",
"G+	c #4CB1B8",
"H+	c #4D99BA",
"I+	c #0EB0FA",
"J+	c #02A5EB",
"K+	c #0384BF",
"L+	c #034869",
"M+	c #014464",
"N+	c #014768",
"O+	c #01486B",
"P+	c #043E5D",
"Q+	c #005177",
"R+	c #004C6A",
"S+	c #052430",
"T+	c #223C45",
"U+	c #114D6C",
"V+	c #0373A5",
"W+	c #072D40",
"X+	c #042F45",
"Y+	c #02A9EF",
"Z+	c #389CC5",
"`+	c #4DC3C4",
" @	c #65FFFE",
".@	c #66FFFE",
"+@	c #64FCFB",
"@@	c #35918F",
"#@	c #039FE1",
"$@	c #01B1F9",
"%@	c #01AEF9",
"&@	c #187DA6",
"*@	c #4CC2C3",
"=@	c #50CDCD",
"-@	c #44B3B4",
";@	c #088CC9",
">@	c #01B1FC",
",@	c #02A1E5",
"'@	c #054B6C",
")@	c #171108",
"!@	c #0F0D0C",
"~@	c #191919",
"{@	c #054965",
"]@	c #268296",
"^@	c #62F8F8",
"/@	c #62FAF9",
"(@	c #4DBCBB",
"_@	c #63FAF9",
":@	c #57E4E4",
"<@	c #017DB4",
"[@	c #02A3E7",
"}@	c #44AEAE",
"|@	c #63F9F9",
"1@	c #63F9F8",
"2@	c #64FEFD",
"3@	c #31959C",
"4@	c #01A9EF",
"5@	c #01AFF7",
"6@	c #02638D",
"7@	c #07709B",
"8@	c #00B2FC",
"9@	c #3A9B9C",
"0@	c #65FDFC",
"a@	c #5FEFEE",
"b@	c #337F7F",
"c@	c #62F9F8",
"d@	c #63FEFD",
"e@	c #1B7AA1",
"f@	c #0080B7",
"g@	c #5BE7E6",
"h@	c #3FA1A1",
"i@	c #43ABAA",
"j@	c #4FD1D2",
"k@	c #1EA0D8",
"l@	c #016B97",
"m@	c #067DAF",
"n@	c #00B1FC",
"o@	c #43A8A8",
"p@	c #5AE2E0",
"q@	c #5CE6E5",
"r@	c #61F5F3",
"s@	c #63F9F7",
"t@	c #65FFFD",
"u@	c #2B8CA9",
"v@	c #036D9D",
"w@	c #5EEAE9",
"x@	c #4FB7B7",
"y@	c #55D0D0",
"z@	c #5CE6E4",
"A@	c #56D9D8",
"B@	c #40A0C2",
"C@	c #01B1F8",
"D@	c #026B96",
"E@	c #067AAA",
"F@	c #0E85B7",
"G@	c #0F8FC6",
"H@	c #1096CF",
"I@	c #1690C3",
"J@	c #17779A",
"K@	c #1B6171",
"L@	c #11749F",
"M@	c #01AEF8",
"N@	c #048FCA",
"O@	c #1595CA",
"P@	c #139FDC",
"Q@	c #4FB2DC",
"R@	c #5CAAC9",
"S@	c #4A8DA5",
"T@	c #43B1DE",
"U@	c #03648E",
"V@	c #05648E",
"W@	c #02AEF7",
"X@	c #01AEF7",
"Y@	c #1BB2F9",
"Z@	c #4ABFFB",
"`@	c #4ABFFC",
" #	c #00AEF6",
".#	c #015A80",
"+#	c #105270",
"@#	c #02ABF2",
"##	c #00ADF4",
"$#	c #14506D",
"%#	c #173E4F",
"&#	c #0392CF",
"*#	c #03A6EB",
"=#	c #274245",
"-#	c #064A69",
";#	c #02AFF9",
">#	c #038ECA",
",#	c #0489C2",
"'#	c #07719D",
")#	c #0C0300",
"!#	c #0488C0",
"~#	c #00AFF9",
"{#	c #02AAF1",
"]#	c #037EB5",
"^#	c #024462",
"/#	c #02A9F1",
"(#	c #02A1E4",
"_#	c #103C4B",
":#	c #03425D",
"<#	c #48C0FA",
"[#	c #5EC7FA",
"}#	c #00ACF5",
"|#	c #01ADF6",
"1#	c #01ACF6",
"2#	c #02A5EC",
"3#	c #047FB6",
"4#	c #013E5C",
"5#	c #02597E",
"6#	c #02A7EE",
"7#	c #01AFF9",
"8#	c #076185",
"9#	c #142134",
"0#	c #046B97",
"a#	c #02AEF8",
"b#	c #3DBCFA",
"c#	c #52C2FA",
"d#	c #0273A5",
"e#	c #024665",
"f#	c #023E5B",
"g#	c #011315",
"h#	c #005B86",
"i#	c #008ECD",
"j#	c #00ADF6",
"k#	c #00B2F9",
"l#	c #0378AA",
"m#	c #144B58",
"n#	c #06455F",
"o#	c #0482BB",
"p#	c #03ACF3",
"q#	c #03A5EA",
"r#	c #23B0F6",
"s#	c #60C4F8",
"t#	c #67CBF9",
"u#	c #39B9F9",
"v#	c #0486BD",
"w#	c #0D4149",
"x#	c #120000",
"y#	c #038ECC",
"z#	c #0395D7",
"A#	c #0573A4",
"B#	c #09B1F9",
"C#	c #5EC9FA",
"D#	c #6DD2FA",
"E#	c #10B1FA",
"F#	c #02ACF6",
"G#	c #0A77A8",
"H#	c #19657E",
"I#	c #081D28",
"J#	c #01A8EE",
"K#	c #0A9EDF",
"L#	c #036A98",
"M#	c #0398D8",
"N#	c #00B1FB",
"O#	c #0DB1F9",
"P#	c #62CDF9",
"Q#	c #72D4FA",
"R#	c #1BB0F6",
"S#	c #028BC8",
"T#	c #0C5B7A",
"U#	c #1B6977",
"V#	c #014B6C",
"W#	c #01ADF4",
"X#	c #20AFF5",
"Y#	c #287EA7",
"Z#	c #050000",
"`#	c #086792",
" $	c #019CDF",
".$	c #01A6ED",
"+$	c #01ACF5",
"@$	c #42BAF6",
"#$	c #6DCEF4",
"$$	c #6CC5E9",
"%$	c #5AA5C6",
"&$	c #0F4463",
"*$	c #1C4F5B",
"=$	c #141413",
"-$	c #016997",
";$	c #01ADF7",
">$	c #119EDF",
",$	c #376683",
"'$	c #1E9BD1",
")$	c #0488BB",
"!$	c #035D7E",
"~$	c #014666",
"{$	c #01496C",
"]$	c #014B6F",
"^$	c #23586D",
"/$	c #2E7A97",
"($	c #389DCE",
"_$	c #1678B3",
":$	c #090400",
"<$	c #046896",
"[$	c #096391",
"}$	c #1E3E4D",
"|$	c #11A6EB",
"1$	c #0AA9EE",
"2$	c #05BEFD",
"3$	c #08B6F1",
"4$	c #0692D7",
"5$	c #0997DB",
"6$	c #089EE4",
"7$	c #1AA3EB",
"8$	c #3896D0",
"9$	c #0695DE",
"0$	c #1E5175",
"a$	c #090909",
"b$	c #11171C",
"c$	c #1D7BAD",
"d$	c #0999E3",
"e$	c #1579B2",
"f$	c #0CABDF",
"g$	c #08B5F3",
"h$	c #0199E1",
"i$	c #0099E0",
"j$	c #0496DD",
"k$	c #0F486F",
"l$	c #0E89CC",
"m$	c #0F86C8",
"n$	c #0D86C8",
"o$	c #0C8FD5",
"p$	c #164463",
"q$	c #0DA9DE",
"r$	c #0CAAEC",
"s$	c #0497DF",
"t$	c #195079",
"u$	c #156CA0",
"v$	c #0296DF",
"w$	c #1A5D89",
"x$	c #234664",
"y$	c #0C94DC",
"z$	c #0F74B0",
"A$	c #13A4DB",
"B$	c #0399E2",
"C$	c #0398E0",
"D$	c #1B547E",
"E$	c #0C9BE3",
"F$	c #088CD1",
"G$	c #29333C",
"H$	c #1C5075",
"I$	c #0E8CD3",
"J$	c #165685",
"K$	c #1189C9",
"L$	c #0098E0",
"M$	c #0398DF",
"N$	c #1F5A85",
"O$	c #1B739D",
"P$	c #0D93D8",
"Q$	c #1F4C67",
"R$	c #1F496D",
"S$	c #0C86C7",
"T$	c #175E8D",
"U$	c #0B88CB",
"V$	c #0C95DB",
"W$	c #0D7CBA",
"X$	c #0398E2",
"Y$	c #0397DF",
"Z$	c #085E92",
"`$	c #058ACE",
" %	c #0299E1",
".%	c #117EBC",
"+%	c #1B3447",
"@%	c #0C8DD3",
"#%	c #0793DA",
"$%	c #095F94",
"%%	c #0886C9",
"&%	c #0598E0",
"*%	c #0A75B3",
"=%	c #0D7EBB",
"-%	c #1094D9",
";%	c #106296",
">%	c #0582C4",
",%	c #0595DD",
"'%	c #106CA6",
")%	c #166EA3",
"!%	c #0C90D6",
"~%	c #0C5E91",
"{%	c #1180C0",
"]%	c #0A90D7",
"^%	c #194D73",
"/%	c #1C6190",
"(%	c #108DD3",
"_%	c #025889",
":%	c #1A6292",
"<%	c #176AA1",
"[%	c #156095",
"}%	c #193F60",
"                  . + @ # $ % &                             ",
"                * = - ; > , ; ' )                           ",
"              ! ~ { ] ] ^ ^ ^ / ( _                         ",
"            : < > [ } | 1 2 3 4 5 6 7                       ",
"            8 9 0 a b c d e f g h i j                       ",
"            k l m n g o p q r s t u v                       ",
"            w x y z A B C D E F G H I                       ",
"          J K L M N O P Q R S T U V W X Y Z                 ",
"      `  ...+.+.@.#.$.%.&.*.=.{ -.;.>.>.,.'.).!.            ",
"    ~.{.].^./.(.(._.:.<.[.}.|./.1.2.>.3.4.}.^.5.6.          ",
"  7.8.t 9.0.] (./.}.a.b.c.}.}.d.e.f.g.h.i./.(.^ j.k.        ",
"l.m.n.>.>.f.o._.{ p.q.r.s.t.u.v.w.>.x.y.z./.(.] A.B.        ",
"C.D.> E.>.>.F.G.H.I.J.K.L.M.N.c >.g.x.O.P./._.Q.R.S.T.      ",
"U.V.W.X.Y.Z.`. +.+++@+#+$+%+&+>.*+=+-+;+, /.Q.>+>.>.,+'+    ",
")+!+~+{+]+^+/+(+_+@+:+:+<+[+}+|+1+2+3+] (.] 4+5+>.x.6+7+8+  ",
"    9+0+a+b+c+d+e+f+g+h+i+j+k+l+m+n+o+p+q+r+s+t+u+v+w+x+y+  ",
"  z+A+}.}.B+C+D+E+F+G+H+I+/.}.J+K+L+M+N+O+P+Q+R+S+T+U+V+W+  ",
"  X+Y+|./.] Z+`+ @.@+@@@#@/.(.$@}.%@&@*@=@-@;@>@/ ,@'@)@!@~@",
"  {@@.|.|.+.]@^@/@(@_@:@<@^ (.(.}.[@}@|@1@2@3@4@/.5@6@      ",
"  7@+.(./.8@9@0@a@b@c@d@e@^ (.(./ f@g@h@i@ @j@k@, , l@      ",
"  m@_.(./.n@o@p@q@r@s@t@u@5@(././ v@w@x@y@z@A@B@] C@D@      ",
"  E@_.|.|.{ F@G@H@I@J@K@L@M@/./.{ N@O@P@Q@R@S@T@, ^.U@      ",
"  V@@.|.(.] @.}.}./ @.W@X@}.}.}.}.{ / }.Y@Z@`@i./. #.#      ",
"  +#@#|.(.(._././.(.(.(.}.}.] ] _._.|.|./._._.$@/.##$#      ",
"  %#&#^ (.(.+.+._.(.(.(.] +.] _./.}.] ^./.(.(.(.] *#=#      ",
"    -#;#(.(.(.] /._.(.(.(.(./._.] / >#,#/ (.(._.+.'#        ",
"    )#!#}.(.(.(._.{ ~#C@(.(.] { {#]#^#/#}.(.(.] (#_#        ",
"      :#D./.(.(.{ <#[#}#|#1#2#3#4#5#6#}.(.(._.7#8#          ",
"      9#0#a#/.(.] b#c#d#e#f#g#h#i#j#}.(.(.k#^.l#m#          ",
"        n#o#M@/././.}.}.p#q#r#s#t#u#] (.k#;#v#w#            ",
"      x#y#z#A#; /.|.(.(./.B#C#@+@+D#E#] F#G#H#              ",
"      I#J#^.K#L#M#N#$@(./.O#P#:+:+Q#R#S#T#U#                ",
"      V#W#] X#Y#Z#`# $.$o++$@$#$$$%$&$*$                    ",
"    =$-$;$>$,$    '$)$!$~${$]$^$/$($_$                      ",
"    :$<$[$      }$|$1$2$3$4$5$6$7$8$9$0$                    ",
"    a$b$        c$d$e$f$g$h$i$i$j$k$l$m$                    ",
"                n$o$p$q$r$i$i$i$s$t$u$v$w$                  ",
"              x$y$z$  A$B$i$i$i$C$D$  E$F$G$                ",
"              H$I$J$  K$L$i$i$i$M$N$  O$P$Q$                ",
"                R$    S$L$i$i$i$C$T$                        ",
"                      U$L$V$W$X$Y$Z$                        ",
"                      `$ %.%+%@%#%$%                        ",
"                      %%&%*%  =%-%;%                        ",
"                      >%,%'%  )%!%~%                        ",
"                      {%]%^%  /%(%_%                        ",
"                      :%<%      [%}%                        "};
